<svg width="1920" height="850" viewBox="0 0 1920 850" fill="none" xmlns="http://www.w3.org/2000/svg">
<path d="M53.7614 647V632.455H55.5227V638.932H63.2784V632.455H65.0398V647H63.2784V640.494H55.5227V647H53.7614ZM71.549 647.256C70.8577 647.256 70.2304 647.125 69.6669 646.865C69.1035 646.6 68.656 646.219 68.3246 645.722C67.9931 645.22 67.8274 644.614 67.8274 643.903C67.8274 643.278 67.9505 642.772 68.1967 642.384C68.4429 641.991 68.772 641.683 69.1839 641.46C69.5959 641.238 70.0504 641.072 70.5476 640.963C71.0495 640.849 71.5537 640.759 72.0604 640.693C72.7232 640.608 73.2607 640.544 73.6726 640.501C74.0893 640.454 74.3923 640.376 74.5817 640.267C74.7758 640.158 74.8729 639.969 74.8729 639.699V639.642C74.8729 638.941 74.6811 638.397 74.2976 638.009C73.9188 637.62 73.3435 637.426 72.5717 637.426C71.7715 637.426 71.1442 637.601 70.6896 637.952C70.2351 638.302 69.9155 638.676 69.7308 639.074L68.1399 638.506C68.424 637.843 68.8028 637.327 69.2763 636.957C69.7545 636.583 70.2753 636.323 70.8388 636.176C71.407 636.025 71.9657 635.949 72.5149 635.949C72.8653 635.949 73.2678 635.991 73.7223 636.077C74.1816 636.157 74.6243 636.325 75.0504 636.581C75.4813 636.837 75.8388 637.223 76.1229 637.739C76.407 638.255 76.549 638.946 76.549 639.812V647H74.8729V645.523H74.7876C74.674 645.759 74.4846 646.013 74.2195 646.283C73.9543 646.553 73.6016 646.782 73.1612 646.972C72.7209 647.161 72.1835 647.256 71.549 647.256ZM71.8047 645.75C72.4676 645.75 73.0263 645.62 73.4808 645.359C73.9401 645.099 74.2857 644.763 74.5178 644.351C74.7545 643.939 74.8729 643.506 74.8729 643.051V641.517C74.8018 641.602 74.6456 641.68 74.4041 641.751C74.1674 641.818 73.8928 641.877 73.5803 641.929C73.2725 641.976 72.9718 642.019 72.6783 642.057C72.3894 642.09 72.1551 642.118 71.9751 642.142C71.5395 642.199 71.1323 642.291 70.7536 642.419C70.3795 642.542 70.0765 642.729 69.8445 642.98C69.6172 643.226 69.5036 643.562 69.5036 643.989C69.5036 644.571 69.719 645.011 70.1499 645.31C70.5855 645.603 71.1371 645.75 71.8047 645.75ZM79.6083 647V636.091H81.2276V637.739H81.3413C81.5401 637.199 81.9 636.761 82.4208 636.425C82.9416 636.089 83.5288 635.92 84.1822 635.92C84.3053 635.92 84.4592 635.923 84.6438 635.928C84.8285 635.932 84.9682 635.939 85.0629 635.949V637.653C85.006 637.639 84.8758 637.618 84.6722 637.589C84.4734 637.556 84.2627 637.54 84.0401 637.54C83.5098 637.54 83.0363 637.651 82.6197 637.874C82.2077 638.091 81.881 638.394 81.6396 638.783C81.4028 639.166 81.2844 639.604 81.2844 640.097V647H79.6083ZM88.7259 632.455V647H87.0497V632.455H88.7259ZM96.3697 647.227C95.3185 647.227 94.4118 646.995 93.6495 646.531C92.8919 646.062 92.3072 645.409 91.8952 644.571C91.488 643.728 91.2844 642.748 91.2844 641.631C91.2844 640.513 91.488 639.528 91.8952 638.676C92.3072 637.819 92.8801 637.152 93.614 636.673C94.3526 636.19 95.2144 635.949 96.1992 635.949C96.7674 635.949 97.3285 636.044 97.8825 636.233C98.4364 636.422 98.9407 636.73 99.3952 637.156C99.8498 637.578 100.212 638.136 100.482 638.832C100.752 639.528 100.887 640.385 100.887 641.403V642.114H92.4776V640.665H99.1822C99.1822 640.049 99.0591 639.5 98.8129 639.017C98.5714 638.534 98.2257 638.153 97.7759 637.874C97.3308 637.594 96.8053 637.455 96.1992 637.455C95.5316 637.455 94.954 637.62 94.4663 637.952C93.9833 638.278 93.6116 638.705 93.3512 639.23C93.0908 639.756 92.9606 640.319 92.9606 640.92V641.886C92.9606 642.71 93.1026 643.409 93.3867 643.982C93.6755 644.55 94.0756 644.983 94.587 645.281C95.0984 645.575 95.6926 645.722 96.3697 645.722C96.81 645.722 97.2077 645.66 97.5629 645.537C97.9227 645.409 98.2328 645.22 98.4933 644.969C98.7537 644.713 98.9549 644.396 99.0969 644.017L100.716 644.472C100.546 645.021 100.259 645.504 99.8569 645.92C99.4544 646.332 98.9573 646.654 98.3654 646.886C97.7736 647.114 97.1083 647.227 96.3697 647.227ZM103.436 647V636.091H105.056V637.795H105.198C105.425 637.213 105.792 636.761 106.299 636.439C106.805 636.112 107.414 635.949 108.124 635.949C108.844 635.949 109.443 636.112 109.921 636.439C110.404 636.761 110.78 637.213 111.05 637.795H111.164C111.443 637.232 111.862 636.785 112.421 636.453C112.98 636.117 113.65 635.949 114.431 635.949C115.406 635.949 116.204 636.254 116.824 636.865C117.444 637.471 117.755 638.416 117.755 639.699V647H116.078V639.699C116.078 638.894 115.858 638.319 115.418 637.973C114.978 637.627 114.459 637.455 113.863 637.455C113.096 637.455 112.501 637.687 112.08 638.151C111.658 638.61 111.448 639.192 111.448 639.898V647H109.743V639.528C109.743 638.908 109.542 638.409 109.14 638.03C108.737 637.646 108.219 637.455 107.584 637.455C107.149 637.455 106.741 637.571 106.363 637.803C105.989 638.035 105.685 638.357 105.453 638.768C105.226 639.176 105.113 639.647 105.113 640.182V647H103.436ZM122.297 632.455V633.733C122.297 634.121 122.225 634.536 122.083 634.976C121.946 635.411 121.743 635.835 121.473 636.247C121.208 636.654 120.886 637.009 120.507 637.312L119.598 636.574C119.896 636.148 120.154 635.705 120.372 635.246C120.594 634.782 120.706 634.287 120.706 633.761V632.455H122.297ZM126.187 632.455V647H124.511V632.455H126.187ZM129.257 647V636.091H130.933V647H129.257ZM130.109 634.273C129.782 634.273 129.501 634.161 129.264 633.939C129.032 633.716 128.916 633.449 128.916 633.136C128.916 632.824 129.032 632.556 129.264 632.334C129.501 632.111 129.782 632 130.109 632C130.436 632 130.715 632.111 130.947 632.334C131.184 632.556 131.302 632.824 131.302 633.136C131.302 633.449 131.184 633.716 130.947 633.939C130.715 634.161 130.436 634.273 130.109 634.273ZM146.503 642.54V636.091H148.179V647H146.503V645.153H146.389C146.134 645.707 145.736 646.179 145.196 646.567C144.656 646.95 143.974 647.142 143.151 647.142C142.469 647.142 141.863 646.993 141.332 646.695C140.802 646.392 140.385 645.937 140.082 645.331C139.779 644.72 139.628 643.951 139.628 643.023V636.091H141.304V642.909C141.304 643.705 141.527 644.339 141.972 644.812C142.421 645.286 142.994 645.523 143.69 645.523C144.107 645.523 144.531 645.416 144.962 645.203C145.397 644.99 145.762 644.663 146.055 644.223C146.354 643.783 146.503 643.222 146.503 642.54ZM141.872 634.273C141.574 634.273 141.309 634.159 141.077 633.932C140.849 633.7 140.736 633.435 140.736 633.136C140.736 632.81 140.849 632.54 141.077 632.327C141.309 632.109 141.574 632 141.872 632C142.199 632 142.469 632.109 142.682 632.327C142.9 632.54 143.009 632.81 143.009 633.136C143.009 633.435 142.9 633.7 142.682 633.932C142.469 634.159 142.199 634.273 141.872 634.273ZM145.963 634.273C145.665 634.273 145.4 634.159 145.168 633.932C144.94 633.7 144.827 633.435 144.827 633.136C144.827 632.81 144.94 632.54 145.168 632.327C145.4 632.109 145.665 632 145.963 632C146.29 632 146.56 632.109 146.773 632.327C146.991 632.54 147.099 632.81 147.099 633.136C147.099 633.435 146.991 633.7 146.773 633.932C146.56 634.159 146.29 634.273 145.963 634.273ZM152.925 640.438V647H151.249V636.091H152.868V637.795H153.01C153.266 637.241 153.654 636.796 154.175 636.46C154.696 636.119 155.368 635.949 156.192 635.949C156.931 635.949 157.577 636.1 158.131 636.403C158.685 636.702 159.116 637.156 159.424 637.767C159.731 638.373 159.885 639.14 159.885 640.068V647H158.209V640.182C158.209 639.325 157.987 638.657 157.542 638.179C157.096 637.696 156.486 637.455 155.709 637.455C155.174 637.455 154.696 637.571 154.275 637.803C153.858 638.035 153.529 638.373 153.287 638.818C153.046 639.263 152.925 639.803 152.925 640.438ZM164.624 632.455V647H162.948V632.455H164.624ZM174.569 642.54V636.091H176.245V647H174.569V645.153H174.456C174.2 645.707 173.802 646.179 173.262 646.567C172.723 646.95 172.041 647.142 171.217 647.142C170.535 647.142 169.929 646.993 169.399 646.695C168.868 646.392 168.452 645.937 168.149 645.331C167.846 644.72 167.694 643.951 167.694 643.023V636.091H169.37V642.909C169.37 643.705 169.593 644.339 170.038 644.812C170.488 645.286 171.061 645.523 171.757 645.523C172.173 645.523 172.597 645.416 173.028 645.203C173.464 644.99 173.828 644.663 174.122 644.223C174.42 643.783 174.569 643.222 174.569 642.54ZM169.939 634.273C169.64 634.273 169.375 634.159 169.143 633.932C168.916 633.7 168.802 633.435 168.802 633.136C168.802 632.81 168.916 632.54 169.143 632.327C169.375 632.109 169.64 632 169.939 632C170.265 632 170.535 632.109 170.748 632.327C170.966 632.54 171.075 632.81 171.075 633.136C171.075 633.435 170.966 633.7 170.748 633.932C170.535 634.159 170.265 634.273 169.939 634.273ZM174.029 634.273C173.731 634.273 173.466 634.159 173.234 633.932C173.007 633.7 172.893 633.435 172.893 633.136C172.893 632.81 173.007 632.54 173.234 632.327C173.466 632.109 173.731 632 174.029 632C174.356 632 174.626 632.109 174.839 632.327C175.057 632.54 175.166 632.81 175.166 633.136C175.166 633.435 175.057 633.7 174.839 633.932C174.626 634.159 174.356 634.273 174.029 634.273ZM189.685 636.091V637.511H184.031V636.091H189.685ZM185.679 633.477H187.355V643.875C187.355 644.348 187.424 644.704 187.561 644.94C187.703 645.172 187.883 645.329 188.101 645.409C188.323 645.485 188.558 645.523 188.804 645.523C188.989 645.523 189.14 645.513 189.259 645.494C189.377 645.471 189.472 645.452 189.543 645.438L189.884 646.943C189.77 646.986 189.611 647.028 189.408 647.071C189.204 647.118 188.946 647.142 188.634 647.142C188.16 647.142 187.696 647.04 187.241 646.837C186.792 646.633 186.418 646.323 186.119 645.906C185.826 645.49 185.679 644.964 185.679 644.33V633.477ZM195.416 647.256C194.725 647.256 194.098 647.125 193.534 646.865C192.971 646.6 192.523 646.219 192.192 645.722C191.86 645.22 191.695 644.614 191.695 643.903C191.695 643.278 191.818 642.772 192.064 642.384C192.31 641.991 192.639 641.683 193.051 641.46C193.463 641.238 193.918 641.072 194.415 640.963C194.917 640.849 195.421 640.759 195.928 640.693C196.59 640.608 197.128 640.544 197.54 640.501C197.956 640.454 198.259 640.376 198.449 640.267C198.643 640.158 198.74 639.969 198.74 639.699V639.642C198.74 638.941 198.548 638.397 198.165 638.009C197.786 637.62 197.211 637.426 196.439 637.426C195.639 637.426 195.011 637.601 194.557 637.952C194.102 638.302 193.783 638.676 193.598 639.074L192.007 638.506C192.291 637.843 192.67 637.327 193.143 636.957C193.622 636.583 194.143 636.323 194.706 636.176C195.274 636.025 195.833 635.949 196.382 635.949C196.732 635.949 197.135 635.991 197.589 636.077C198.049 636.157 198.491 636.325 198.918 636.581C199.348 636.837 199.706 637.223 199.99 637.739C200.274 638.255 200.416 638.946 200.416 639.812V647H198.74V645.523H198.655C198.541 645.759 198.352 646.013 198.087 646.283C197.821 646.553 197.469 646.782 197.028 646.972C196.588 647.161 196.051 647.256 195.416 647.256ZM195.672 645.75C196.335 645.75 196.893 645.62 197.348 645.359C197.807 645.099 198.153 644.763 198.385 644.351C198.622 643.939 198.74 643.506 198.74 643.051V641.517C198.669 641.602 198.513 641.68 198.271 641.751C198.035 641.818 197.76 641.877 197.447 641.929C197.14 641.976 196.839 642.019 196.545 642.057C196.257 642.09 196.022 642.118 195.842 642.142C195.407 642.199 195 642.291 194.621 642.419C194.247 642.542 193.944 642.729 193.712 642.98C193.484 643.226 193.371 643.562 193.371 643.989C193.371 644.571 193.586 645.011 194.017 645.31C194.453 645.603 195.004 645.75 195.672 645.75ZM211.203 638.534L209.697 638.96C209.602 638.709 209.463 638.465 209.278 638.229C209.098 637.987 208.852 637.788 208.539 637.632C208.227 637.476 207.827 637.398 207.339 637.398C206.672 637.398 206.115 637.552 205.67 637.859C205.23 638.162 205.01 638.548 205.01 639.017C205.01 639.434 205.161 639.763 205.464 640.004C205.767 640.246 206.241 640.447 206.885 640.608L208.504 641.006C209.479 641.242 210.206 641.605 210.684 642.092C211.163 642.575 211.402 643.198 211.402 643.96C211.402 644.585 211.222 645.144 210.862 645.636C210.507 646.129 210.01 646.517 209.37 646.801C208.731 647.085 207.988 647.227 207.14 647.227C206.028 647.227 205.107 646.986 204.377 646.503C203.648 646.02 203.187 645.314 202.993 644.386L204.583 643.989C204.735 644.576 205.021 645.016 205.443 645.31C205.869 645.603 206.425 645.75 207.112 645.75C207.893 645.75 208.513 645.584 208.973 645.253C209.437 644.917 209.669 644.514 209.669 644.045C209.669 643.667 209.536 643.349 209.271 643.094C209.006 642.833 208.599 642.639 208.049 642.511L206.231 642.085C205.232 641.848 204.498 641.482 204.029 640.984C203.565 640.482 203.333 639.855 203.333 639.102C203.333 638.487 203.506 637.942 203.852 637.469C204.202 636.995 204.678 636.624 205.279 636.354C205.886 636.084 206.572 635.949 207.339 635.949C208.419 635.949 209.266 636.186 209.882 636.659C210.502 637.133 210.942 637.758 211.203 638.534ZM217.135 647.256C216.444 647.256 215.816 647.125 215.253 646.865C214.689 646.6 214.242 646.219 213.911 645.722C213.579 645.22 213.413 644.614 213.413 643.903C213.413 643.278 213.536 642.772 213.783 642.384C214.029 641.991 214.358 641.683 214.77 641.46C215.182 641.238 215.636 641.072 216.134 640.963C216.635 640.849 217.14 640.759 217.646 640.693C218.309 640.608 218.847 640.544 219.259 640.501C219.675 640.454 219.978 640.376 220.168 640.267C220.362 640.158 220.459 639.969 220.459 639.699V639.642C220.459 638.941 220.267 638.397 219.884 638.009C219.505 637.62 218.929 637.426 218.158 637.426C217.357 637.426 216.73 637.601 216.276 637.952C215.821 638.302 215.501 638.676 215.317 639.074L213.726 638.506C214.01 637.843 214.389 637.327 214.862 636.957C215.34 636.583 215.861 636.323 216.425 636.176C216.993 636.025 217.552 635.949 218.101 635.949C218.451 635.949 218.854 635.991 219.308 636.077C219.768 636.157 220.21 636.325 220.636 636.581C221.067 636.837 221.425 637.223 221.709 637.739C221.993 638.255 222.135 638.946 222.135 639.812V647H220.459V645.523H220.374C220.26 645.759 220.071 646.013 219.805 646.283C219.54 646.553 219.188 646.782 218.747 646.972C218.307 647.161 217.769 647.256 217.135 647.256ZM217.391 645.75C218.054 645.75 218.612 645.62 219.067 645.359C219.526 645.099 219.872 644.763 220.104 644.351C220.34 643.939 220.459 643.506 220.459 643.051V641.517C220.388 641.602 220.232 641.68 219.99 641.751C219.753 641.818 219.479 641.877 219.166 641.929C218.858 641.976 218.558 642.019 218.264 642.057C217.975 642.09 217.741 642.118 217.561 642.142C217.125 642.199 216.718 642.291 216.339 642.419C215.965 642.542 215.662 642.729 215.43 642.98C215.203 643.226 215.089 643.562 215.089 643.989C215.089 644.571 215.305 645.011 215.736 645.31C216.171 645.603 216.723 645.75 217.391 645.75ZM225.194 647V636.091H226.814V637.739H226.927C227.126 637.199 227.486 636.761 228.007 636.425C228.528 636.089 229.115 635.92 229.768 635.92C229.891 635.92 230.045 635.923 230.23 635.928C230.414 635.932 230.554 635.939 230.649 635.949V637.653C230.592 637.639 230.462 637.618 230.258 637.589C230.059 637.556 229.849 637.54 229.626 637.54C229.096 637.54 228.622 637.651 228.206 637.874C227.794 638.091 227.467 638.394 227.225 638.783C226.989 639.166 226.87 639.604 226.87 640.097V647H225.194ZM232.636 647V636.091H234.312V647H232.636ZM237.382 647V636.091H239.001V637.795H239.143C239.37 637.213 239.737 636.761 240.244 636.439C240.751 636.112 241.359 635.949 242.069 635.949C242.789 635.949 243.388 636.112 243.866 636.439C244.349 636.761 244.725 637.213 244.995 637.795H245.109C245.388 637.232 245.807 636.785 246.366 636.453C246.925 636.117 247.595 635.949 248.376 635.949C249.351 635.949 250.149 636.254 250.77 636.865C251.39 637.471 251.7 638.416 251.7 639.699V647H250.024V639.699C250.024 638.894 249.804 638.319 249.363 637.973C248.923 637.627 248.404 637.455 247.808 637.455C247.041 637.455 246.447 637.687 246.025 638.151C245.604 638.61 245.393 639.192 245.393 639.898V647H243.689V639.528C243.689 638.908 243.487 638.409 243.085 638.03C242.682 637.646 242.164 637.455 241.529 637.455C241.094 637.455 240.687 637.571 240.308 637.803C239.934 638.035 239.631 638.357 239.399 638.768C239.172 639.176 239.058 639.647 239.058 640.182V647H237.382ZM259.196 647.227C258.174 647.227 257.293 646.986 256.554 646.503C255.816 646.02 255.248 645.355 254.85 644.507C254.452 643.66 254.253 642.691 254.253 641.602C254.253 640.494 254.457 639.517 254.864 638.669C255.276 637.817 255.849 637.152 256.583 636.673C257.321 636.19 258.183 635.949 259.168 635.949C259.935 635.949 260.626 636.091 261.242 636.375C261.857 636.659 262.362 637.057 262.755 637.568C263.148 638.08 263.391 638.676 263.486 639.358H261.81C261.682 638.861 261.398 638.42 260.958 638.037C260.522 637.649 259.935 637.455 259.196 637.455C258.543 637.455 257.97 637.625 257.478 637.966C256.99 638.302 256.609 638.778 256.334 639.393C256.064 640.004 255.929 640.722 255.929 641.545C255.929 642.388 256.062 643.122 256.327 643.747C256.597 644.372 256.976 644.857 257.463 645.203C257.956 645.549 258.533 645.722 259.196 645.722C259.632 645.722 260.027 645.646 260.382 645.494C260.738 645.343 261.038 645.125 261.284 644.841C261.531 644.557 261.706 644.216 261.81 643.818H263.486C263.391 644.462 263.157 645.042 262.783 645.558C262.414 646.07 261.924 646.477 261.313 646.78C260.707 647.078 260.001 647.227 259.196 647.227ZM265.936 647V636.091H267.613V647H265.936ZM281.023 647H276.535V632.455H281.222C282.633 632.455 283.841 632.746 284.844 633.328C285.848 633.906 286.618 634.737 287.153 635.821C287.688 636.901 287.955 638.193 287.955 639.699C287.955 641.214 287.685 642.518 287.146 643.612C286.606 644.701 285.82 645.539 284.788 646.126C283.755 646.709 282.501 647 281.023 647ZM278.296 645.438H280.91C282.112 645.438 283.109 645.205 283.9 644.741C284.691 644.277 285.28 643.617 285.668 642.76C286.057 641.903 286.251 640.883 286.251 639.699C286.251 638.525 286.059 637.514 285.675 636.666C285.292 635.814 284.719 635.161 283.957 634.706C283.194 634.247 282.245 634.017 281.109 634.017H278.296V645.438ZM293.893 647.256C293.201 647.256 292.574 647.125 292.011 646.865C291.447 646.6 291 646.219 290.668 645.722C290.337 645.22 290.171 644.614 290.171 643.903C290.171 643.278 290.294 642.772 290.54 642.384C290.787 641.991 291.116 641.683 291.528 641.46C291.94 641.238 292.394 641.072 292.891 640.963C293.393 640.849 293.897 640.759 294.404 640.693C295.067 640.608 295.604 640.544 296.016 640.501C296.433 640.454 296.736 640.376 296.925 640.267C297.12 640.158 297.217 639.969 297.217 639.699V639.642C297.217 638.941 297.025 638.397 296.641 638.009C296.263 637.62 295.687 637.426 294.915 637.426C294.115 637.426 293.488 637.601 293.033 637.952C292.579 638.302 292.259 638.676 292.075 639.074L290.484 638.506C290.768 637.843 291.147 637.327 291.62 636.957C292.098 636.583 292.619 636.323 293.183 636.176C293.751 636.025 294.309 635.949 294.859 635.949C295.209 635.949 295.612 635.991 296.066 636.077C296.525 636.157 296.968 636.325 297.394 636.581C297.825 636.837 298.183 637.223 298.467 637.739C298.751 638.255 298.893 638.946 298.893 639.812V647H297.217V645.523H297.131C297.018 645.759 296.828 646.013 296.563 646.283C296.298 646.553 295.945 646.782 295.505 646.972C295.065 647.161 294.527 647.256 293.893 647.256ZM294.148 645.75C294.811 645.75 295.37 645.62 295.825 645.359C296.284 645.099 296.629 644.763 296.862 644.351C297.098 643.939 297.217 643.506 297.217 643.051V641.517C297.146 641.602 296.989 641.68 296.748 641.751C296.511 641.818 296.237 641.877 295.924 641.929C295.616 641.976 295.316 642.019 295.022 642.057C294.733 642.09 294.499 642.118 294.319 642.142C293.883 642.199 293.476 642.291 293.097 642.419C292.723 642.542 292.42 642.729 292.188 642.98C291.961 643.226 291.847 643.562 291.847 643.989C291.847 644.571 292.063 645.011 292.494 645.31C292.929 645.603 293.481 645.75 294.148 645.75ZM301.952 651.091V636.091H303.571V637.824H303.77C303.893 637.634 304.064 637.393 304.282 637.099C304.504 636.801 304.821 636.536 305.233 636.304C305.65 636.067 306.213 635.949 306.924 635.949C307.842 635.949 308.652 636.179 309.353 636.638C310.053 637.097 310.6 637.748 310.993 638.591C311.386 639.434 311.583 640.428 311.583 641.574C311.583 642.729 311.386 643.731 310.993 644.578C310.6 645.421 310.056 646.074 309.36 646.538C308.664 646.998 307.861 647.227 306.952 647.227C306.251 647.227 305.69 647.111 305.269 646.879C304.847 646.643 304.523 646.375 304.296 646.077C304.069 645.774 303.893 645.523 303.77 645.324H303.628V651.091H301.952ZM303.6 641.545C303.6 642.369 303.721 643.096 303.962 643.726C304.203 644.351 304.556 644.841 305.02 645.196C305.484 645.546 306.052 645.722 306.725 645.722C307.426 645.722 308.01 645.537 308.479 645.168C308.953 644.794 309.308 644.292 309.544 643.662C309.786 643.027 309.907 642.322 309.907 641.545C309.907 640.778 309.788 640.087 309.551 639.472C309.319 638.851 308.967 638.361 308.493 638.001C308.025 637.637 307.435 637.455 306.725 637.455C306.043 637.455 305.47 637.627 305.006 637.973C304.542 638.314 304.192 638.792 303.955 639.408C303.718 640.018 303.6 640.731 303.6 641.545ZM314.14 651.091V636.091H315.759V637.824H315.958C316.081 637.634 316.251 637.393 316.469 637.099C316.692 636.801 317.009 636.536 317.421 636.304C317.837 636.067 318.401 635.949 319.111 635.949C320.03 635.949 320.839 636.179 321.54 636.638C322.241 637.097 322.788 637.748 323.181 638.591C323.574 639.434 323.77 640.428 323.77 641.574C323.77 642.729 323.574 643.731 323.181 644.578C322.788 645.421 322.243 646.074 321.547 646.538C320.851 646.998 320.049 647.227 319.14 647.227C318.439 647.227 317.878 647.111 317.456 646.879C317.035 646.643 316.711 646.375 316.483 646.077C316.256 645.774 316.081 645.523 315.958 645.324H315.816V651.091H314.14ZM315.787 641.545C315.787 642.369 315.908 643.096 316.15 643.726C316.391 644.351 316.744 644.841 317.208 645.196C317.672 645.546 318.24 645.722 318.912 645.722C319.613 645.722 320.198 645.537 320.667 645.168C321.14 644.794 321.495 644.292 321.732 643.662C321.973 643.027 322.094 642.322 322.094 641.545C322.094 640.778 321.976 640.087 321.739 639.472C321.507 638.851 321.154 638.361 320.681 638.001C320.212 637.637 319.623 637.455 318.912 637.455C318.23 637.455 317.658 637.627 317.194 637.973C316.73 638.314 316.379 638.792 316.142 639.408C315.906 640.018 315.787 640.731 315.787 641.545ZM330.901 647.227C329.85 647.227 328.943 646.995 328.181 646.531C327.423 646.062 326.838 645.409 326.426 644.571C326.019 643.728 325.816 642.748 325.816 641.631C325.816 640.513 326.019 639.528 326.426 638.676C326.838 637.819 327.411 637.152 328.145 636.673C328.884 636.19 329.746 635.949 330.73 635.949C331.299 635.949 331.86 636.044 332.414 636.233C332.968 636.422 333.472 636.73 333.926 637.156C334.381 637.578 334.743 638.136 335.013 638.832C335.283 639.528 335.418 640.385 335.418 641.403V642.114H327.009V640.665H333.713C333.713 640.049 333.59 639.5 333.344 639.017C333.103 638.534 332.757 638.153 332.307 637.874C331.862 637.594 331.337 637.455 330.73 637.455C330.063 637.455 329.485 637.62 328.998 637.952C328.515 638.278 328.143 638.705 327.882 639.23C327.622 639.756 327.492 640.319 327.492 640.92V641.886C327.492 642.71 327.634 643.409 327.918 643.982C328.207 644.55 328.607 644.983 329.118 645.281C329.63 645.575 330.224 645.722 330.901 645.722C331.341 645.722 331.739 645.66 332.094 645.537C332.454 645.409 332.764 645.22 333.025 644.969C333.285 644.713 333.486 644.396 333.628 644.017L335.248 644.472C335.077 645.021 334.791 645.504 334.388 645.92C333.986 646.332 333.489 646.654 332.897 646.886C332.305 647.114 331.64 647.227 330.901 647.227ZM337.968 647V636.091H339.587V637.739H339.701C339.9 637.199 340.259 636.761 340.78 636.425C341.301 636.089 341.888 635.92 342.542 635.92C342.665 635.92 342.819 635.923 343.003 635.928C343.188 635.932 343.328 635.939 343.422 635.949V637.653C343.365 637.639 343.235 637.618 343.032 637.589C342.833 637.556 342.622 637.54 342.4 637.54C341.869 637.54 341.396 637.651 340.979 637.874C340.567 638.091 340.24 638.394 339.999 638.783C339.762 639.166 339.644 639.604 339.644 640.097V647H337.968ZM355.75 647H351.261V632.455H355.949C357.36 632.455 358.567 632.746 359.571 633.328C360.575 633.906 361.344 634.737 361.879 635.821C362.414 636.901 362.682 638.193 362.682 639.699C362.682 641.214 362.412 642.518 361.872 643.612C361.332 644.701 360.546 645.539 359.514 646.126C358.482 646.709 357.227 647 355.75 647ZM353.023 645.438H355.636C356.839 645.438 357.836 645.205 358.626 644.741C359.417 644.277 360.007 643.617 360.395 642.76C360.783 641.903 360.977 640.883 360.977 639.699C360.977 638.525 360.786 637.514 360.402 636.666C360.018 635.814 359.446 635.161 358.683 634.706C357.921 634.247 356.972 634.017 355.835 634.017H353.023V645.438ZM368.619 647.256C367.928 647.256 367.301 647.125 366.737 646.865C366.174 646.6 365.726 646.219 365.395 645.722C365.063 645.22 364.898 644.614 364.898 643.903C364.898 643.278 365.021 642.772 365.267 642.384C365.513 641.991 365.842 641.683 366.254 641.46C366.666 641.238 367.121 641.072 367.618 640.963C368.12 640.849 368.624 640.759 369.131 640.693C369.794 640.608 370.331 640.544 370.743 640.501C371.16 640.454 371.463 640.376 371.652 640.267C371.846 640.158 371.943 639.969 371.943 639.699V639.642C371.943 638.941 371.751 638.397 371.368 638.009C370.989 637.62 370.414 637.426 369.642 637.426C368.842 637.426 368.214 637.601 367.76 637.952C367.305 638.302 366.986 638.676 366.801 639.074L365.21 638.506C365.494 637.843 365.873 637.327 366.347 636.957C366.825 636.583 367.346 636.323 367.909 636.176C368.477 636.025 369.036 635.949 369.585 635.949C369.936 635.949 370.338 635.991 370.793 636.077C371.252 636.157 371.695 636.325 372.121 636.581C372.552 636.837 372.909 637.223 373.193 637.739C373.477 638.255 373.619 638.946 373.619 639.812V647H371.943V645.523H371.858C371.744 645.759 371.555 646.013 371.29 646.283C371.025 646.553 370.672 646.782 370.232 646.972C369.791 647.161 369.254 647.256 368.619 647.256ZM368.875 645.75C369.538 645.75 370.097 645.62 370.551 645.359C371.01 645.099 371.356 644.763 371.588 644.351C371.825 643.939 371.943 643.506 371.943 643.051V641.517C371.872 641.602 371.716 641.68 371.474 641.751C371.238 641.818 370.963 641.877 370.651 641.929C370.343 641.976 370.042 642.019 369.749 642.057C369.46 642.09 369.225 642.118 369.045 642.142C368.61 642.199 368.203 642.291 367.824 642.419C367.45 642.542 367.147 642.729 366.915 642.98C366.688 643.226 366.574 643.562 366.574 643.989C366.574 644.571 366.789 645.011 367.22 645.31C367.656 645.603 368.207 645.75 368.875 645.75ZM378.355 640.438V647H376.679V636.091H378.298V637.795H378.44C378.696 637.241 379.084 636.796 379.605 636.46C380.126 636.119 380.798 635.949 381.622 635.949C382.36 635.949 383.007 636.1 383.561 636.403C384.115 636.702 384.546 637.156 384.853 637.767C385.161 638.373 385.315 639.14 385.315 640.068V647H383.639V640.182C383.639 639.325 383.416 638.657 382.971 638.179C382.526 637.696 381.915 637.455 381.139 637.455C380.604 637.455 380.126 637.571 379.704 637.803C379.288 638.035 378.958 638.373 378.717 638.818C378.475 639.263 378.355 639.803 378.355 640.438ZM401.73 638.534L400.224 638.96C400.13 638.709 399.99 638.465 399.805 638.229C399.625 637.987 399.379 637.788 399.067 637.632C398.754 637.476 398.354 637.398 397.866 637.398C397.199 637.398 396.643 637.552 396.197 637.859C395.757 638.162 395.537 638.548 395.537 639.017C395.537 639.434 395.688 639.763 395.991 640.004C396.295 640.246 396.768 640.447 397.412 640.608L399.031 641.006C400.007 641.242 400.733 641.605 401.212 642.092C401.69 642.575 401.929 643.198 401.929 643.96C401.929 644.585 401.749 645.144 401.389 645.636C401.034 646.129 400.537 646.517 399.898 646.801C399.259 647.085 398.515 647.227 397.668 647.227C396.555 647.227 395.634 646.986 394.905 646.503C394.176 646.02 393.714 645.314 393.52 644.386L395.111 643.989C395.262 644.576 395.549 645.016 395.97 645.31C396.396 645.603 396.953 645.75 397.639 645.75C398.42 645.75 399.041 645.584 399.5 645.253C399.964 644.917 400.196 644.514 400.196 644.045C400.196 643.667 400.063 643.349 399.798 643.094C399.533 642.833 399.126 642.639 398.577 642.511L396.759 642.085C395.759 641.848 395.026 641.482 394.557 640.984C394.093 640.482 393.861 639.855 393.861 639.102C393.861 638.487 394.034 637.942 394.379 637.469C394.73 636.995 395.205 636.624 395.807 636.354C396.413 636.084 397.099 635.949 397.866 635.949C398.946 635.949 399.794 636.186 400.409 636.659C401.029 637.133 401.47 637.758 401.73 638.534ZM409.196 636.091V637.511H403.543V636.091H409.196ZM405.191 633.477H406.867V643.875C406.867 644.348 406.935 644.704 407.073 644.94C407.215 645.172 407.395 645.329 407.613 645.409C407.835 645.485 408.069 645.523 408.316 645.523C408.5 645.523 408.652 645.513 408.77 645.494C408.889 645.471 408.983 645.452 409.054 645.438L409.395 646.943C409.282 646.986 409.123 647.028 408.919 647.071C408.716 647.118 408.458 647.142 408.145 647.142C407.672 647.142 407.208 647.04 406.753 646.837C406.303 646.633 405.929 646.323 405.631 645.906C405.337 645.49 405.191 644.964 405.191 644.33V633.477ZM411.718 647V636.091H413.394V647H411.718ZM412.57 634.273C412.243 634.273 411.962 634.161 411.725 633.939C411.493 633.716 411.377 633.449 411.377 633.136C411.377 632.824 411.493 632.556 411.725 632.334C411.962 632.111 412.243 632 412.57 632C412.897 632 413.176 632.111 413.408 632.334C413.645 632.556 413.763 632.824 413.763 633.136C413.763 633.449 413.645 633.716 413.408 633.939C413.176 634.161 412.897 634.273 412.57 634.273ZM418.14 632.455V647H416.464V632.455H418.14ZM421.21 647V636.091H422.886V647H421.21ZM422.062 634.273C421.735 634.273 421.454 634.161 421.217 633.939C420.985 633.716 420.869 633.449 420.869 633.136C420.869 632.824 420.985 632.556 421.217 632.334C421.454 632.111 421.735 632 422.062 632C422.389 632 422.668 632.111 422.9 632.334C423.137 632.556 423.255 632.824 423.255 633.136C423.255 633.449 423.137 633.716 422.9 633.939C422.668 634.161 422.389 634.273 422.062 634.273ZM428.456 645.011L428.342 645.778C428.262 646.318 428.139 646.896 427.973 647.511C427.812 648.127 427.644 648.707 427.469 649.251C427.294 649.796 427.149 650.229 427.036 650.551H425.757C425.819 650.248 425.899 649.848 425.999 649.351C426.098 648.854 426.197 648.297 426.297 647.682C426.401 647.071 426.486 646.446 426.553 645.807L426.638 645.011H428.456ZM447.357 637C447.201 636.522 446.995 636.093 446.739 635.714C446.488 635.331 446.187 635.004 445.837 634.734C445.491 634.464 445.098 634.259 444.658 634.116C444.218 633.974 443.735 633.903 443.209 633.903C442.347 633.903 441.564 634.126 440.858 634.571C440.153 635.016 439.592 635.672 439.175 636.538C438.758 637.405 438.55 638.468 438.55 639.727C438.55 640.987 438.761 642.05 439.182 642.916C439.604 643.783 440.174 644.438 440.894 644.884C441.614 645.329 442.423 645.551 443.323 645.551C444.156 645.551 444.89 645.374 445.525 645.018C446.164 644.659 446.661 644.152 447.016 643.499C447.376 642.84 447.556 642.066 447.556 641.176L448.096 641.29H443.721V639.727H449.26V641.29C449.26 642.488 449.005 643.529 448.493 644.415C447.987 645.3 447.286 645.987 446.391 646.474C445.501 646.957 444.478 647.199 443.323 647.199C442.035 647.199 440.903 646.896 439.928 646.29C438.957 645.684 438.2 644.822 437.655 643.705C437.115 642.587 436.846 641.261 436.846 639.727C436.846 638.577 436.999 637.542 437.307 636.624C437.62 635.7 438.06 634.914 438.628 634.266C439.196 633.617 439.869 633.12 440.645 632.774C441.422 632.429 442.276 632.256 443.209 632.256C443.976 632.256 444.691 632.372 445.354 632.604C446.022 632.831 446.616 633.155 447.137 633.577C447.662 633.993 448.1 634.493 448.451 635.075C448.801 635.653 449.042 636.295 449.175 637H447.357ZM455.26 647.256C454.569 647.256 453.941 647.125 453.378 646.865C452.814 646.6 452.367 646.219 452.036 645.722C451.704 645.22 451.538 644.614 451.538 643.903C451.538 643.278 451.661 642.772 451.908 642.384C452.154 641.991 452.483 641.683 452.895 641.46C453.307 641.238 453.761 641.072 454.259 640.963C454.76 640.849 455.265 640.759 455.771 640.693C456.434 640.608 456.972 640.544 457.384 640.501C457.8 640.454 458.103 640.376 458.293 640.267C458.487 640.158 458.584 639.969 458.584 639.699V639.642C458.584 638.941 458.392 638.397 458.009 638.009C457.63 637.62 457.054 637.426 456.283 637.426C455.482 637.426 454.855 637.601 454.401 637.952C453.946 638.302 453.626 638.676 453.442 639.074L451.851 638.506C452.135 637.843 452.514 637.327 452.987 636.957C453.465 636.583 453.986 636.323 454.55 636.176C455.118 636.025 455.677 635.949 456.226 635.949C456.576 635.949 456.979 635.991 457.433 636.077C457.893 636.157 458.335 636.325 458.761 636.581C459.192 636.837 459.55 637.223 459.834 637.739C460.118 638.255 460.26 638.946 460.26 639.812V647H458.584V645.523H458.499C458.385 645.759 458.196 646.013 457.93 646.283C457.665 646.553 457.313 646.782 456.872 646.972C456.432 647.161 455.894 647.256 455.26 647.256ZM455.516 645.75C456.179 645.75 456.737 645.62 457.192 645.359C457.651 645.099 457.997 644.763 458.229 644.351C458.465 643.939 458.584 643.506 458.584 643.051V641.517C458.513 641.602 458.357 641.68 458.115 641.751C457.878 641.818 457.604 641.877 457.291 641.929C456.983 641.976 456.683 642.019 456.389 642.057C456.1 642.09 455.866 642.118 455.686 642.142C455.25 642.199 454.843 642.291 454.464 642.419C454.09 642.542 453.787 642.729 453.555 642.98C453.328 643.226 453.214 643.562 453.214 643.989C453.214 644.571 453.43 645.011 453.861 645.31C454.296 645.603 454.848 645.75 455.516 645.75ZM463.319 651.091V636.091H464.939V637.824H465.137C465.261 637.634 465.431 637.393 465.649 637.099C465.871 636.801 466.189 636.536 466.6 636.304C467.017 636.067 467.581 635.949 468.291 635.949C469.209 635.949 470.019 636.179 470.72 636.638C471.421 637.097 471.967 637.748 472.36 638.591C472.753 639.434 472.95 640.428 472.95 641.574C472.95 642.729 472.753 643.731 472.36 644.578C471.967 645.421 471.423 646.074 470.727 646.538C470.031 646.998 469.228 647.227 468.319 647.227C467.618 647.227 467.057 647.111 466.636 646.879C466.215 646.643 465.89 646.375 465.663 646.077C465.436 645.774 465.261 645.523 465.137 645.324H464.995V651.091H463.319ZM464.967 641.545C464.967 642.369 465.088 643.096 465.329 643.726C465.571 644.351 465.923 644.841 466.387 645.196C466.851 645.546 467.42 645.722 468.092 645.722C468.793 645.722 469.377 645.537 469.846 645.168C470.32 644.794 470.675 644.292 470.912 643.662C471.153 643.027 471.274 642.322 471.274 641.545C471.274 640.778 471.155 640.087 470.919 639.472C470.687 638.851 470.334 638.361 469.86 638.001C469.392 637.637 468.802 637.455 468.092 637.455C467.41 637.455 466.837 637.627 466.373 637.973C465.909 638.314 465.559 638.792 465.322 639.408C465.085 640.018 464.967 640.731 464.967 641.545ZM476.984 632.455V633.733C476.984 634.121 476.913 634.536 476.771 634.976C476.634 635.411 476.43 635.835 476.16 636.247C475.895 636.654 475.573 637.009 475.194 637.312L474.285 636.574C474.583 636.148 474.842 635.705 475.059 635.246C475.282 634.782 475.393 634.287 475.393 633.761V632.455H476.984ZM479.198 647V636.091H480.874V647H479.198ZM480.05 634.273C479.724 634.273 479.442 634.161 479.205 633.939C478.973 633.716 478.857 633.449 478.857 633.136C478.857 632.824 478.973 632.556 479.205 632.334C479.442 632.111 479.724 632 480.05 632C480.377 632 480.656 632.111 480.888 632.334C481.125 632.556 481.244 632.824 481.244 633.136C481.244 633.449 481.125 633.716 480.888 633.939C480.656 634.161 480.377 634.273 480.05 634.273ZM485.62 640.438V647H483.944V636.091H485.564V637.795H485.706C485.961 637.241 486.35 636.796 486.87 636.46C487.391 636.119 488.064 635.949 488.887 635.949C489.626 635.949 490.272 636.1 490.826 636.403C491.38 636.702 491.811 637.156 492.119 637.767C492.427 638.373 492.581 639.14 492.581 640.068V647H490.904V640.182C490.904 639.325 490.682 638.657 490.237 638.179C489.792 637.696 489.181 637.455 488.404 637.455C487.869 637.455 487.391 637.571 486.97 637.803C486.553 638.035 486.224 638.373 485.983 638.818C485.741 639.263 485.62 639.803 485.62 640.438ZM500.956 647V645.722L507.149 637.767V637.653H501.155V636.091H509.308V637.426L503.286 645.324V645.438H509.507V647H500.956ZM515.299 647.256C514.608 647.256 513.98 647.125 513.417 646.865C512.853 646.6 512.406 646.219 512.075 645.722C511.743 645.22 511.577 644.614 511.577 643.903C511.577 643.278 511.701 642.772 511.947 642.384C512.193 641.991 512.522 641.683 512.934 641.46C513.346 641.238 513.8 641.072 514.298 640.963C514.799 640.849 515.304 640.759 515.81 640.693C516.473 640.608 517.011 640.544 517.423 640.501C517.839 640.454 518.142 640.376 518.332 640.267C518.526 640.158 518.623 639.969 518.623 639.699V639.642C518.623 638.941 518.431 638.397 518.048 638.009C517.669 637.62 517.094 637.426 516.322 637.426C515.522 637.426 514.894 637.601 514.44 637.952C513.985 638.302 513.665 638.676 513.481 639.074L511.89 638.506C512.174 637.843 512.553 637.327 513.026 636.957C513.504 636.583 514.025 636.323 514.589 636.176C515.157 636.025 515.716 635.949 516.265 635.949C516.615 635.949 517.018 635.991 517.472 636.077C517.932 636.157 518.374 636.325 518.8 636.581C519.231 636.837 519.589 637.223 519.873 637.739C520.157 638.255 520.299 638.946 520.299 639.812V647H518.623V645.523H518.538C518.424 645.759 518.235 646.013 517.969 646.283C517.704 646.553 517.352 646.782 516.911 646.972C516.471 647.161 515.933 647.256 515.299 647.256ZM515.555 645.75C516.218 645.75 516.776 645.62 517.231 645.359C517.69 645.099 518.036 644.763 518.268 644.351C518.504 643.939 518.623 643.506 518.623 643.051V641.517C518.552 641.602 518.396 641.68 518.154 641.751C517.917 641.818 517.643 641.877 517.33 641.929C517.022 641.976 516.722 642.019 516.428 642.057C516.139 642.09 515.905 642.118 515.725 642.142C515.29 642.199 514.882 642.291 514.504 642.419C514.129 642.542 513.826 642.729 513.594 642.98C513.367 643.226 513.254 643.562 513.254 643.989C513.254 644.571 513.469 645.011 513.9 645.31C514.335 645.603 514.887 645.75 515.555 645.75ZM523.358 647V636.091H524.978V637.795H525.12C525.347 637.213 525.714 636.761 526.221 636.439C526.727 636.112 527.336 635.949 528.046 635.949C528.766 635.949 529.364 636.112 529.843 636.439C530.326 636.761 530.702 637.213 530.972 637.795H531.086C531.365 637.232 531.784 636.785 532.343 636.453C532.901 636.117 533.571 635.949 534.353 635.949C535.328 635.949 536.126 636.254 536.746 636.865C537.366 637.471 537.676 638.416 537.676 639.699V647H536V639.699C536 638.894 535.78 638.319 535.34 637.973C534.9 637.627 534.381 637.455 533.784 637.455C533.017 637.455 532.423 637.687 532.002 638.151C531.58 638.61 531.37 639.192 531.37 639.898V647H529.665V639.528C529.665 638.908 529.464 638.409 529.061 638.03C528.659 637.646 528.141 637.455 527.506 637.455C527.07 637.455 526.663 637.571 526.284 637.803C525.91 638.035 525.607 638.357 525.375 638.768C525.148 639.176 525.034 639.647 525.034 640.182V647H523.358ZM543.951 647.256C543.26 647.256 542.633 647.125 542.069 646.865C541.506 646.6 541.058 646.219 540.727 645.722C540.395 645.22 540.23 644.614 540.23 643.903C540.23 643.278 540.353 642.772 540.599 642.384C540.845 641.991 541.174 641.683 541.586 641.46C541.998 641.238 542.453 641.072 542.95 640.963C543.452 640.849 543.956 640.759 544.463 640.693C545.126 640.608 545.663 640.544 546.075 640.501C546.492 640.454 546.795 640.376 546.984 640.267C547.178 640.158 547.275 639.969 547.275 639.699V639.642C547.275 638.941 547.083 638.397 546.7 638.009C546.321 637.62 545.746 637.426 544.974 637.426C544.174 637.426 543.547 637.601 543.092 637.952C542.637 638.302 542.318 638.676 542.133 639.074L540.542 638.506C540.826 637.843 541.205 637.327 541.679 636.957C542.157 636.583 542.678 636.323 543.241 636.176C543.809 636.025 544.368 635.949 544.917 635.949C545.268 635.949 545.67 635.991 546.125 636.077C546.584 636.157 547.027 636.325 547.453 636.581C547.884 636.837 548.241 637.223 548.525 637.739C548.809 638.255 548.951 638.946 548.951 639.812V647H547.275V645.523H547.19C547.076 645.759 546.887 646.013 546.622 646.283C546.357 646.553 546.004 646.782 545.564 646.972C545.123 647.161 544.586 647.256 543.951 647.256ZM544.207 645.75C544.87 645.75 545.429 645.62 545.883 645.359C546.342 645.099 546.688 644.763 546.92 644.351C547.157 643.939 547.275 643.506 547.275 643.051V641.517C547.204 641.602 547.048 641.68 546.806 641.751C546.57 641.818 546.295 641.877 545.983 641.929C545.675 641.976 545.374 642.019 545.081 642.057C544.792 642.09 544.557 642.118 544.377 642.142C543.942 642.199 543.535 642.291 543.156 642.419C542.782 642.542 542.479 642.729 542.247 642.98C542.02 643.226 541.906 643.562 541.906 643.989C541.906 644.571 542.121 645.011 542.552 645.31C542.988 645.603 543.539 645.75 544.207 645.75ZM553.687 640.438V647H552.011V636.091H553.63V637.795H553.772C554.028 637.241 554.416 636.796 554.937 636.46C555.458 636.119 556.13 635.949 556.954 635.949C557.692 635.949 558.339 636.1 558.893 636.403C559.447 636.702 559.878 637.156 560.185 637.767C560.493 638.373 560.647 639.14 560.647 640.068V647H558.971V640.182C558.971 639.325 558.748 638.657 558.303 638.179C557.858 637.696 557.247 637.455 556.471 637.455C555.936 637.455 555.458 637.571 555.036 637.803C554.62 638.035 554.29 638.373 554.049 638.818C553.808 639.263 553.687 639.803 553.687 640.438ZM571.437 638.534L569.931 638.96C569.837 638.709 569.697 638.465 569.512 638.229C569.333 637.987 569.086 637.788 568.774 637.632C568.461 637.476 568.061 637.398 567.574 637.398C566.906 637.398 566.35 637.552 565.904 637.859C565.464 638.162 565.244 638.548 565.244 639.017C565.244 639.434 565.395 639.763 565.699 640.004C566.002 640.246 566.475 640.447 567.119 640.608L568.738 641.006C569.714 641.242 570.44 641.605 570.919 642.092C571.397 642.575 571.636 643.198 571.636 643.96C571.636 644.585 571.456 645.144 571.096 645.636C570.741 646.129 570.244 646.517 569.605 646.801C568.966 647.085 568.222 647.227 567.375 647.227C566.262 647.227 565.341 646.986 564.612 646.503C563.883 646.02 563.421 645.314 563.227 644.386L564.818 643.989C564.969 644.576 565.256 645.016 565.677 645.31C566.103 645.603 566.66 645.75 567.346 645.75C568.127 645.75 568.748 645.584 569.207 645.253C569.671 644.917 569.903 644.514 569.903 644.045C569.903 643.667 569.77 643.349 569.505 643.094C569.24 642.833 568.833 642.639 568.284 642.511L566.466 642.085C565.467 641.848 564.733 641.482 564.264 640.984C563.8 640.482 563.568 639.855 563.568 639.102C563.568 638.487 563.741 637.942 564.086 637.469C564.437 636.995 564.913 636.624 565.514 636.354C566.12 636.084 566.806 635.949 567.574 635.949C568.653 635.949 569.501 636.186 570.116 636.659C570.736 637.133 571.177 637.758 571.437 638.534ZM574.159 647V636.091H575.835V647H574.159ZM578.593 647V645.722L584.786 637.767V637.653H578.792V636.091H586.945V637.426L580.922 645.324V645.438H587.144V647H578.593ZM600.095 636.091V637.511H594.441V636.091H600.095ZM596.089 633.477H597.765V643.875C597.765 644.348 597.834 644.704 597.971 644.94C598.113 645.172 598.293 645.329 598.511 645.409C598.734 645.485 598.968 645.523 599.214 645.523C599.399 645.523 599.55 645.513 599.669 645.494C599.787 645.471 599.882 645.452 599.953 645.438L600.294 646.943C600.18 646.986 600.021 647.028 599.818 647.071C599.614 647.118 599.356 647.142 599.044 647.142C598.57 647.142 598.106 647.04 597.652 646.837C597.202 646.633 596.828 646.323 596.529 645.906C596.236 645.49 596.089 644.964 596.089 644.33V633.477ZM605.826 647.256C605.135 647.256 604.508 647.125 603.944 646.865C603.381 646.6 602.933 646.219 602.602 645.722C602.27 645.22 602.105 644.614 602.105 643.903C602.105 643.278 602.228 642.772 602.474 642.384C602.72 641.991 603.049 641.683 603.461 641.46C603.873 641.238 604.328 641.072 604.825 640.963C605.327 640.849 605.831 640.759 606.338 640.693C607.001 640.608 607.538 640.544 607.95 640.501C608.367 640.454 608.67 640.376 608.859 640.267C609.053 640.158 609.15 639.969 609.15 639.699V639.642C609.15 638.941 608.958 638.397 608.575 638.009C608.196 637.62 607.621 637.426 606.849 637.426C606.049 637.426 605.422 637.601 604.967 637.952C604.512 638.302 604.193 638.676 604.008 639.074L602.417 638.506C602.701 637.843 603.08 637.327 603.554 636.957C604.032 636.583 604.553 636.323 605.116 636.176C605.684 636.025 606.243 635.949 606.792 635.949C607.143 635.949 607.545 635.991 608 636.077C608.459 636.157 608.902 636.325 609.328 636.581C609.759 636.837 610.116 637.223 610.4 637.739C610.684 638.255 610.826 638.946 610.826 639.812V647H609.15V645.523H609.065C608.951 645.759 608.762 646.013 608.497 646.283C608.232 646.553 607.879 646.782 607.439 646.972C606.998 647.161 606.461 647.256 605.826 647.256ZM606.082 645.75C606.745 645.75 607.304 645.62 607.758 645.359C608.217 645.099 608.563 644.763 608.795 644.351C609.032 643.939 609.15 643.506 609.15 643.051V641.517C609.079 641.602 608.923 641.68 608.681 641.751C608.445 641.818 608.17 641.877 607.858 641.929C607.55 641.976 607.249 642.019 606.956 642.057C606.667 642.09 606.432 642.118 606.252 642.142C605.817 642.199 605.41 642.291 605.031 642.419C604.657 642.542 604.354 642.729 604.122 642.98C603.895 643.226 603.781 643.562 603.781 643.989C603.781 644.571 603.996 645.011 604.427 645.31C604.863 645.603 605.414 645.75 606.082 645.75ZM613.886 647V636.091H615.505V637.739H615.619C615.817 637.199 616.177 636.761 616.698 636.425C617.219 636.089 617.806 635.92 618.46 635.92C618.583 635.92 618.737 635.923 618.921 635.928C619.106 635.932 619.246 635.939 619.34 635.949V637.653C619.283 637.639 619.153 637.618 618.95 637.589C618.751 637.556 618.54 637.54 618.317 637.54C617.787 637.54 617.314 637.651 616.897 637.874C616.485 638.091 616.158 638.394 615.917 638.783C615.68 639.166 615.562 639.604 615.562 640.097V647H613.886ZM621.015 647V645.722L627.208 637.767V637.653H621.213V636.091H629.367V637.426L623.344 645.324V645.438H629.566V647H621.015ZM632.147 647V636.091H633.824V647H632.147ZM637.973 651.091C637.689 651.091 637.436 651.067 637.213 651.02C636.991 650.977 636.837 650.935 636.751 650.892L637.178 649.415C637.585 649.519 637.945 649.557 638.257 649.528C638.57 649.5 638.847 649.36 639.088 649.109C639.334 648.863 639.559 648.463 639.763 647.909L640.075 647.057L636.041 636.091H637.859L640.871 644.784H640.984L643.996 636.091H645.814L641.183 648.591C640.975 649.154 640.717 649.621 640.409 649.99C640.101 650.364 639.744 650.641 639.337 650.821C638.934 651.001 638.48 651.091 637.973 651.091ZM649.702 632.455V647H648.026V632.455H649.702ZM655.983 647.256C655.291 647.256 654.664 647.125 654.1 646.865C653.537 646.6 653.09 646.219 652.758 645.722C652.427 645.22 652.261 644.614 652.261 643.903C652.261 643.278 652.384 642.772 652.63 642.384C652.877 641.991 653.206 641.683 653.618 641.46C654.029 641.238 654.484 641.072 654.981 640.963C655.483 640.849 655.987 640.759 656.494 640.693C657.157 640.608 657.694 640.544 658.106 640.501C658.523 640.454 658.826 640.376 659.015 640.267C659.209 640.158 659.306 639.969 659.306 639.699V639.642C659.306 638.941 659.115 638.397 658.731 638.009C658.352 637.62 657.777 637.426 657.005 637.426C656.205 637.426 655.578 637.601 655.123 637.952C654.669 638.302 654.349 638.676 654.164 639.074L652.574 638.506C652.858 637.843 653.236 637.327 653.71 636.957C654.188 636.583 654.709 636.323 655.272 636.176C655.841 636.025 656.399 635.949 656.949 635.949C657.299 635.949 657.701 635.991 658.156 636.077C658.615 636.157 659.058 636.325 659.484 636.581C659.915 636.837 660.272 637.223 660.556 637.739C660.841 638.255 660.983 638.946 660.983 639.812V647H659.306V645.523H659.221C659.108 645.759 658.918 646.013 658.653 646.283C658.388 646.553 658.035 646.782 657.595 646.972C657.154 647.161 656.617 647.256 655.983 647.256ZM656.238 645.75C656.901 645.75 657.46 645.62 657.914 645.359C658.374 645.099 658.719 644.763 658.951 644.351C659.188 643.939 659.306 643.506 659.306 643.051V641.517C659.235 641.602 659.079 641.68 658.838 641.751C658.601 641.818 658.326 641.877 658.014 641.929C657.706 641.976 657.405 642.019 657.112 642.057C656.823 642.09 656.589 642.118 656.409 642.142C655.973 642.199 655.566 642.291 655.187 642.419C654.813 642.542 654.51 642.729 654.278 642.98C654.051 643.226 653.937 643.562 653.937 643.989C653.937 644.571 654.153 645.011 654.583 645.31C655.019 645.603 655.571 645.75 656.238 645.75ZM669.894 647V632.455H671.57V637.824H671.712C671.835 637.634 672.006 637.393 672.224 637.099C672.446 636.801 672.763 636.536 673.175 636.304C673.592 636.067 674.156 635.949 674.866 635.949C675.784 635.949 676.594 636.179 677.295 636.638C677.996 637.097 678.542 637.748 678.935 638.591C679.328 639.434 679.525 640.428 679.525 641.574C679.525 642.729 679.328 643.731 678.935 644.578C678.542 645.421 677.998 646.074 677.302 646.538C676.606 646.998 675.803 647.227 674.894 647.227C674.193 647.227 673.632 647.111 673.211 646.879C672.79 646.643 672.465 646.375 672.238 646.077C672.011 645.774 671.835 645.523 671.712 645.324H671.513V647H669.894ZM671.542 641.545C671.542 642.369 671.663 643.096 671.904 643.726C672.146 644.351 672.498 644.841 672.962 645.196C673.426 645.546 673.995 645.722 674.667 645.722C675.368 645.722 675.952 645.537 676.421 645.168C676.895 644.794 677.25 644.292 677.487 643.662C677.728 643.027 677.849 642.322 677.849 641.545C677.849 640.778 677.73 640.087 677.494 639.472C677.262 638.851 676.909 638.361 676.435 638.001C675.967 637.637 675.377 637.455 674.667 637.455C673.985 637.455 673.412 637.627 672.948 637.973C672.484 638.314 672.134 638.792 671.897 639.408C671.66 640.018 671.542 640.731 671.542 641.545ZM682.089 647V636.091H683.765V647H682.089ZM682.941 634.273C682.614 634.273 682.333 634.161 682.096 633.939C681.864 633.716 681.748 633.449 681.748 633.136C681.748 632.824 681.864 632.556 682.096 632.334C682.333 632.111 682.614 632 682.941 632C683.268 632 683.547 632.111 683.779 632.334C684.016 632.556 684.134 632.824 684.134 633.136C684.134 633.449 684.016 633.716 683.779 633.939C683.547 634.161 683.268 634.273 682.941 634.273ZM686.835 647V636.091H688.454V637.739H688.568C688.767 637.199 689.127 636.761 689.647 636.425C690.168 636.089 690.755 635.92 691.409 635.92C691.532 635.92 691.686 635.923 691.87 635.928C692.055 635.932 692.195 635.939 692.289 635.949V637.653C692.233 637.639 692.102 637.618 691.899 637.589C691.7 637.556 691.489 637.54 691.267 637.54C690.736 637.54 690.263 637.651 689.846 637.874C689.434 638.091 689.108 638.394 688.866 638.783C688.629 639.166 688.511 639.604 688.511 640.097V647H686.835ZM703.112 647.256C702.42 647.256 701.793 647.125 701.229 646.865C700.666 646.6 700.219 646.219 699.887 645.722C699.556 645.22 699.39 644.614 699.39 643.903C699.39 643.278 699.513 642.772 699.759 642.384C700.005 641.991 700.335 641.683 700.746 641.46C701.158 641.238 701.613 641.072 702.11 640.963C702.612 640.849 703.116 640.759 703.623 640.693C704.286 640.608 704.823 640.544 705.235 640.501C705.652 640.454 705.955 640.376 706.144 640.267C706.338 640.158 706.435 639.969 706.435 639.699V639.642C706.435 638.941 706.244 638.397 705.86 638.009C705.481 637.62 704.906 637.426 704.134 637.426C703.334 637.426 702.707 637.601 702.252 637.952C701.798 638.302 701.478 638.676 701.293 639.074L699.702 638.506C699.987 637.843 700.365 637.327 700.839 636.957C701.317 636.583 701.838 636.323 702.401 636.176C702.969 636.025 703.528 635.949 704.077 635.949C704.428 635.949 704.83 635.991 705.285 636.077C705.744 636.157 706.187 636.325 706.613 636.581C707.044 636.837 707.401 637.223 707.685 637.739C707.969 638.255 708.112 638.946 708.112 639.812V647H706.435V645.523H706.35C706.237 645.759 706.047 646.013 705.782 646.283C705.517 646.553 705.164 646.782 704.724 646.972C704.283 647.161 703.746 647.256 703.112 647.256ZM703.367 645.75C704.03 645.75 704.589 645.62 705.043 645.359C705.503 645.099 705.848 644.763 706.08 644.351C706.317 643.939 706.435 643.506 706.435 643.051V641.517C706.364 641.602 706.208 641.68 705.967 641.751C705.73 641.818 705.455 641.877 705.143 641.929C704.835 641.976 704.534 642.019 704.241 642.057C703.952 642.09 703.718 642.118 703.538 642.142C703.102 642.199 702.695 642.291 702.316 642.419C701.942 642.542 701.639 642.729 701.407 642.98C701.18 643.226 701.066 643.562 701.066 643.989C701.066 644.571 701.281 645.011 701.712 645.31C702.148 645.603 702.7 645.75 703.367 645.75ZM711.171 647V636.091H712.79V637.739H712.904C713.103 637.199 713.462 636.761 713.983 636.425C714.504 636.089 715.091 635.92 715.745 635.92C715.868 635.92 716.022 635.923 716.206 635.928C716.391 635.932 716.531 635.939 716.625 635.949V637.653C716.569 637.639 716.438 637.618 716.235 637.589C716.036 637.556 715.825 637.54 715.603 637.54C715.072 637.54 714.599 637.651 714.182 637.874C713.77 638.091 713.444 638.394 713.202 638.783C712.965 639.166 712.847 639.604 712.847 640.097V647H711.171ZM721.822 647.256C721.131 647.256 720.504 647.125 719.94 646.865C719.377 646.6 718.929 646.219 718.598 645.722C718.267 645.22 718.101 644.614 718.101 643.903C718.101 643.278 718.224 642.772 718.47 642.384C718.716 641.991 719.045 641.683 719.457 641.46C719.869 641.238 720.324 641.072 720.821 640.963C721.323 640.849 721.827 640.759 722.334 640.693C722.997 640.608 723.534 640.544 723.946 640.501C724.363 640.454 724.666 640.376 724.855 640.267C725.049 640.158 725.146 639.969 725.146 639.699V639.642C725.146 638.941 724.955 638.397 724.571 638.009C724.192 637.62 723.617 637.426 722.845 637.426C722.045 637.426 721.418 637.601 720.963 637.952C720.509 638.302 720.189 638.676 720.004 639.074L718.413 638.506C718.697 637.843 719.076 637.327 719.55 636.957C720.028 636.583 720.549 636.323 721.112 636.176C721.68 636.025 722.239 635.949 722.788 635.949C723.139 635.949 723.541 635.991 723.996 636.077C724.455 636.157 724.898 636.325 725.324 636.581C725.755 636.837 726.112 637.223 726.396 637.739C726.68 638.255 726.822 638.946 726.822 639.812V647H725.146V645.523H725.061C724.947 645.759 724.758 646.013 724.493 646.283C724.228 646.553 723.875 646.782 723.435 646.972C722.994 647.161 722.457 647.256 721.822 647.256ZM722.078 645.75C722.741 645.75 723.3 645.62 723.754 645.359C724.214 645.099 724.559 644.763 724.791 644.351C725.028 643.939 725.146 643.506 725.146 643.051V641.517C725.075 641.602 724.919 641.68 724.678 641.751C724.441 641.818 724.166 641.877 723.854 641.929C723.546 641.976 723.245 642.019 722.952 642.057C722.663 642.09 722.429 642.118 722.249 642.142C721.813 642.199 721.406 642.291 721.027 642.419C720.653 642.542 720.35 642.729 720.118 642.98C719.891 643.226 719.777 643.562 719.777 643.989C719.777 644.571 719.992 645.011 720.423 645.31C720.859 645.603 721.411 645.75 722.078 645.75ZM734.001 647.227C733.092 647.227 732.289 646.998 731.593 646.538C730.897 646.074 730.353 645.421 729.96 644.578C729.567 643.731 729.37 642.729 729.37 641.574C729.37 640.428 729.567 639.434 729.96 638.591C730.353 637.748 730.9 637.097 731.6 636.638C732.301 636.179 733.111 635.949 734.029 635.949C734.74 635.949 735.301 636.067 735.713 636.304C736.129 636.536 736.447 636.801 736.664 637.099C736.887 637.393 737.06 637.634 737.183 637.824H737.325V632.455H739.001V647H737.382V645.324H737.183C737.06 645.523 736.885 645.774 736.657 646.077C736.43 646.375 736.106 646.643 735.684 646.879C735.263 647.111 734.702 647.227 734.001 647.227ZM734.228 645.722C734.901 645.722 735.469 645.546 735.933 645.196C736.397 644.841 736.75 644.351 736.991 643.726C737.233 643.096 737.353 642.369 737.353 641.545C737.353 640.731 737.235 640.018 736.998 639.408C736.761 638.792 736.411 638.314 735.947 637.973C735.483 637.627 734.91 637.455 734.228 637.455C733.518 637.455 732.926 637.637 732.453 638.001C731.984 638.361 731.631 638.851 731.395 639.472C731.163 640.087 731.047 640.778 731.047 641.545C731.047 642.322 731.165 643.027 731.402 643.662C731.643 644.292 731.998 644.794 732.467 645.168C732.94 645.537 733.528 645.722 734.228 645.722ZM745.514 647.256C744.823 647.256 744.195 647.125 743.632 646.865C743.068 646.6 742.621 646.219 742.289 645.722C741.958 645.22 741.792 644.614 741.792 643.903C741.792 643.278 741.915 642.772 742.162 642.384C742.408 641.991 742.737 641.683 743.149 641.46C743.561 641.238 744.015 641.072 744.512 640.963C745.014 640.849 745.519 640.759 746.025 640.693C746.688 640.608 747.225 640.544 747.637 640.501C748.054 640.454 748.357 640.376 748.547 640.267C748.741 640.158 748.838 639.969 748.838 639.699V639.642C748.838 638.941 748.646 638.397 748.262 638.009C747.884 637.62 747.308 637.426 746.537 637.426C745.736 637.426 745.109 637.601 744.654 637.952C744.2 638.302 743.88 638.676 743.696 639.074L742.105 638.506C742.389 637.843 742.768 637.327 743.241 636.957C743.719 636.583 744.24 636.323 744.804 636.176C745.372 636.025 745.931 635.949 746.48 635.949C746.83 635.949 747.233 635.991 747.687 636.077C748.146 636.157 748.589 636.325 749.015 636.581C749.446 636.837 749.804 637.223 750.088 637.739C750.372 638.255 750.514 638.946 750.514 639.812V647H748.838V645.523H748.752C748.639 645.759 748.449 646.013 748.184 646.283C747.919 646.553 747.566 646.782 747.126 646.972C746.686 647.161 746.148 647.256 745.514 647.256ZM745.77 645.75C746.432 645.75 746.991 645.62 747.446 645.359C747.905 645.099 748.251 644.763 748.483 644.351C748.719 643.939 748.838 643.506 748.838 643.051V641.517C748.767 641.602 748.61 641.68 748.369 641.751C748.132 641.818 747.858 641.877 747.545 641.929C747.237 641.976 746.937 642.019 746.643 642.057C746.354 642.09 746.12 642.118 745.94 642.142C745.504 642.199 745.097 642.291 744.718 642.419C744.344 642.542 744.041 642.729 743.809 642.98C743.582 643.226 743.468 643.562 743.468 643.989C743.468 644.571 743.684 645.011 744.115 645.31C744.55 645.603 745.102 645.75 745.77 645.75ZM755.789 632.455L755.647 642.909H753.999L753.857 632.455H755.789ZM754.823 647.114C754.473 647.114 754.172 646.988 753.921 646.737C753.67 646.486 753.545 646.186 753.545 645.835C753.545 645.485 753.67 645.184 753.921 644.933C754.172 644.682 754.473 644.557 754.823 644.557C755.174 644.557 755.474 644.682 755.725 644.933C755.976 645.184 756.102 645.485 756.102 645.835C756.102 646.067 756.042 646.28 755.924 646.474C755.81 646.669 755.656 646.825 755.462 646.943C755.273 647.057 755.06 647.114 754.823 647.114Z" fill="white"/>
</svg>
