<svg width="1920" height="250" viewBox="0 0 1920 250" fill="none" xmlns="http://www.w3.org/2000/svg">
<rect x="1519" y="103" width="122" height="43" rx="4" fill="white"/>
<path d="M1554.87 130V119.818H1556.4V124.68H1556.53L1560.8 119.818H1562.73L1558.63 124.402L1562.75 130H1560.9L1557.61 125.451L1556.4 126.833V130H1554.87ZM1564.17 130V119.818H1570.55V121.141H1565.7V124.243H1570.22V125.56H1565.7V128.678H1570.61V130H1564.17ZM1578.15 122.493C1578.1 122.022 1577.88 121.658 1577.5 121.399C1577.11 121.137 1576.63 121.006 1576.05 121.006C1575.63 121.006 1575.27 121.073 1574.96 121.205C1574.66 121.335 1574.42 121.513 1574.25 121.742C1574.09 121.968 1574 122.224 1574 122.513C1574 122.755 1574.06 122.964 1574.17 123.139C1574.29 123.315 1574.44 123.462 1574.62 123.582C1574.81 123.698 1575.02 123.795 1575.23 123.875C1575.45 123.951 1575.65 124.014 1575.85 124.064L1576.85 124.322C1577.17 124.402 1577.5 124.51 1577.85 124.646C1578.19 124.781 1578.5 124.96 1578.8 125.183C1579.09 125.405 1579.32 125.68 1579.5 126.008C1579.68 126.336 1579.78 126.729 1579.78 127.186C1579.78 127.763 1579.63 128.275 1579.33 128.722C1579.03 129.17 1578.6 129.523 1578.04 129.781C1577.48 130.04 1576.8 130.169 1576.01 130.169C1575.24 130.169 1574.58 130.048 1574.03 129.806C1573.47 129.564 1573.04 129.221 1572.72 128.777C1572.41 128.33 1572.23 127.799 1572.2 127.186H1573.74C1573.77 127.554 1573.89 127.861 1574.1 128.106C1574.31 128.348 1574.58 128.528 1574.91 128.648C1575.24 128.764 1575.6 128.822 1576 128.822C1576.43 128.822 1576.82 128.754 1577.16 128.618C1577.5 128.479 1577.76 128.286 1577.96 128.041C1578.16 127.793 1578.25 127.503 1578.25 127.171C1578.25 126.87 1578.17 126.623 1578 126.43C1577.83 126.238 1577.6 126.079 1577.3 125.953C1577.02 125.827 1576.69 125.716 1576.32 125.62L1575.12 125.292C1574.31 125.07 1573.66 124.743 1573.18 124.312C1572.71 123.882 1572.47 123.312 1572.47 122.602C1572.47 122.016 1572.63 121.504 1572.95 121.066C1573.27 120.629 1573.7 120.289 1574.24 120.047C1574.79 119.802 1575.4 119.679 1576.08 119.679C1576.77 119.679 1577.38 119.8 1577.91 120.042C1578.44 120.284 1578.85 120.617 1579.16 121.041C1579.46 121.462 1579.62 121.946 1579.64 122.493H1578.15ZM1575.49 129.96H1576.46L1576.38 130.368C1576.67 130.414 1576.92 130.53 1577.14 130.716C1577.36 130.902 1577.46 131.182 1577.46 131.556C1577.47 132.004 1577.27 132.366 1576.88 132.645C1576.49 132.923 1575.93 133.062 1575.2 133.062L1575.17 132.232C1575.51 132.232 1575.79 132.183 1576 132.083C1576.22 131.984 1576.33 131.823 1576.33 131.601C1576.33 131.379 1576.25 131.223 1576.08 131.134C1575.92 131.044 1575.65 130.981 1575.29 130.945L1575.49 129.96ZM1581.61 130V119.818H1587.92V121.141H1583.15V124.243H1587.47V125.56H1583.15V130H1581.61ZM1589.81 130V119.818H1596.2V121.141H1591.35V124.243H1595.86V125.56H1591.35V128.678H1596.26V130H1589.81ZM1597.75 121.141V119.818H1605.63V121.141H1602.45V130H1600.92V121.141H1597.75Z" fill="#2B2B2B"/>
<path d="M680.333 162.5V160.518C680.333 159.917 680.439 159.278 680.652 158.603C680.872 157.92 681.188 157.264 681.599 156.632C682.017 155.994 682.52 155.44 683.107 154.97L684.516 156.115C684.053 156.776 683.65 157.465 683.305 158.185C682.967 158.897 682.799 159.66 682.799 160.474V162.5H680.333ZM685.969 162.5V160.518C685.969 159.917 686.075 159.278 686.288 158.603C686.508 157.92 686.824 157.264 687.235 156.632C687.653 155.994 688.156 155.44 688.743 154.97L690.152 156.115C689.69 156.776 689.286 157.465 688.941 158.185C688.604 158.897 688.435 159.66 688.435 160.474V162.5H685.969ZM700.33 178H693.372V155.455H700.638C702.825 155.455 704.696 155.906 706.252 156.809C707.808 157.704 709.001 158.992 709.83 160.673C710.659 162.346 711.074 164.349 711.074 166.683C711.074 169.032 710.656 171.054 709.819 172.749C708.982 174.437 707.764 175.736 706.164 176.646C704.564 177.549 702.619 178 700.33 178ZM696.102 175.578H700.153C702.018 175.578 703.562 175.219 704.788 174.499C706.014 173.78 706.927 172.756 707.529 171.428C708.131 170.1 708.432 168.518 708.432 166.683C708.432 164.863 708.135 163.296 707.54 161.983C706.946 160.662 706.058 159.649 704.876 158.944C703.695 158.232 702.223 157.876 700.462 157.876H696.102V175.578ZM720.277 178.396C719.206 178.396 718.233 178.194 717.36 177.791C716.486 177.38 715.793 176.789 715.279 176.018C714.765 175.241 714.509 174.301 714.509 173.2C714.509 172.232 714.699 171.446 715.081 170.844C715.463 170.235 715.973 169.758 716.611 169.413C717.25 169.068 717.954 168.812 718.725 168.643C719.503 168.467 720.284 168.327 721.07 168.224C722.097 168.092 722.93 167.993 723.569 167.927C724.214 167.854 724.684 167.733 724.978 167.564C725.279 167.395 725.429 167.102 725.429 166.683V166.595C725.429 165.509 725.132 164.665 724.537 164.063C723.95 163.461 723.059 163.161 721.862 163.161C720.622 163.161 719.65 163.432 718.945 163.975C718.24 164.518 717.745 165.098 717.459 165.714L714.993 164.834C715.433 163.806 716.02 163.006 716.754 162.434C717.496 161.854 718.303 161.451 719.176 161.223C720.057 160.988 720.923 160.871 721.774 160.871C722.317 160.871 722.941 160.937 723.646 161.069C724.358 161.194 725.044 161.454 725.704 161.85C726.372 162.247 726.926 162.845 727.367 163.645C727.807 164.445 728.027 165.516 728.027 166.859V178H725.429V175.71H725.297C725.121 176.077 724.827 176.47 724.416 176.888C724.005 177.306 723.458 177.662 722.776 177.956C722.093 178.25 721.26 178.396 720.277 178.396ZM720.673 176.062C721.701 176.062 722.567 175.861 723.271 175.457C723.983 175.053 724.519 174.532 724.879 173.894C725.246 173.255 725.429 172.584 725.429 171.879V169.501C725.319 169.634 725.077 169.755 724.702 169.865C724.336 169.967 723.91 170.059 723.425 170.14C722.948 170.213 722.482 170.279 722.027 170.338C721.58 170.389 721.216 170.433 720.938 170.47C720.262 170.558 719.631 170.701 719.044 170.9C718.464 171.09 717.995 171.38 717.635 171.769C717.283 172.151 717.107 172.672 717.107 173.332C717.107 174.235 717.441 174.918 718.108 175.38C718.784 175.835 719.639 176.062 720.673 176.062ZM735.367 167.828V178H732.769V155.455H735.367V163.733H735.587C735.983 162.86 736.578 162.166 737.371 161.652C738.17 161.131 739.235 160.871 740.563 160.871C741.715 160.871 742.724 161.102 743.59 161.564C744.456 162.019 745.128 162.72 745.605 163.667C746.089 164.606 746.331 165.803 746.331 167.256V178H743.733V167.432C743.733 166.089 743.385 165.05 742.688 164.316C741.998 163.575 741.04 163.205 739.814 163.205C738.963 163.205 738.2 163.384 737.525 163.744C736.857 164.104 736.328 164.628 735.939 165.318C735.558 166.008 735.367 166.845 735.367 167.828ZM756.06 178.396C754.989 178.396 754.016 178.194 753.143 177.791C752.27 177.38 751.576 176.789 751.062 176.018C750.549 175.241 750.292 174.301 750.292 173.2C750.292 172.232 750.483 171.446 750.864 170.844C751.246 170.235 751.756 169.758 752.394 169.413C753.033 169.068 753.737 168.812 754.508 168.643C755.286 168.467 756.068 168.327 756.853 168.224C757.88 168.092 758.713 167.993 759.352 167.927C759.998 167.854 760.467 167.733 760.761 167.564C761.062 167.395 761.212 167.102 761.212 166.683V166.595C761.212 165.509 760.915 164.665 760.321 164.063C759.733 163.461 758.842 163.161 757.645 163.161C756.405 163.161 755.433 163.432 754.728 163.975C754.024 164.518 753.528 165.098 753.242 165.714L750.776 164.834C751.216 163.806 751.804 163.006 752.538 162.434C753.279 161.854 754.086 161.451 754.959 161.223C755.84 160.988 756.706 160.871 757.557 160.871C758.1 160.871 758.724 160.937 759.429 161.069C760.141 161.194 760.827 161.454 761.487 161.85C762.155 162.247 762.709 162.845 763.15 163.645C763.59 164.445 763.81 165.516 763.81 166.859V178H761.212V175.71H761.08C760.904 176.077 760.61 176.47 760.199 176.888C759.788 177.306 759.242 177.662 758.559 177.956C757.877 178.25 757.044 178.396 756.06 178.396ZM756.457 176.062C757.484 176.062 758.35 175.861 759.055 175.457C759.766 175.053 760.302 174.532 760.662 173.894C761.029 173.255 761.212 172.584 761.212 171.879V169.501C761.102 169.634 760.86 169.755 760.486 169.865C760.119 169.967 759.693 170.059 759.209 170.14C758.732 170.213 758.266 170.279 757.811 170.338C757.363 170.389 757 170.433 756.721 170.47C756.046 170.558 755.414 170.701 754.827 170.9C754.247 171.09 753.778 171.38 753.418 171.769C753.066 172.151 752.89 172.672 752.89 173.332C752.89 174.235 753.224 174.918 753.892 175.38C754.567 175.835 755.422 176.062 756.457 176.062ZM777.271 178V161.091H779.869V178H777.271ZM778.592 158.273C778.086 158.273 777.649 158.1 777.282 157.755C776.922 157.41 776.742 156.996 776.742 156.511C776.742 156.027 776.922 155.612 777.282 155.267C777.649 154.922 778.086 154.75 778.592 154.75C779.098 154.75 779.531 154.922 779.891 155.267C780.258 155.612 780.441 156.027 780.441 156.511C780.441 156.996 780.258 157.41 779.891 157.755C779.531 158.1 779.098 158.273 778.592 158.273ZM786.301 184.341C785.86 184.341 785.468 184.304 785.123 184.231C784.778 184.165 784.539 184.099 784.407 184.033L785.068 181.743C785.699 181.904 786.257 181.963 786.741 181.919C787.225 181.875 787.655 181.658 788.029 181.27C788.411 180.888 788.759 180.268 789.075 179.409L789.559 178.088L783.306 161.091H786.125L790.792 174.565H790.968L795.636 161.091H798.454L791.277 180.466C790.954 181.339 790.554 182.062 790.077 182.635C789.6 183.214 789.045 183.644 788.414 183.923C787.79 184.201 787.086 184.341 786.301 184.341ZM801.883 178V161.091H804.481V178H801.883ZM803.204 158.273C802.698 158.273 802.261 158.1 801.894 157.755C801.535 157.41 801.355 156.996 801.355 156.511C801.355 156.027 801.535 155.612 801.894 155.267C802.261 154.922 802.698 154.75 803.204 154.75C803.711 154.75 804.144 154.922 804.503 155.267C804.87 155.612 805.054 156.027 805.054 156.511C805.054 156.996 804.87 157.41 804.503 157.755C804.144 158.1 803.711 158.273 803.204 158.273ZM818.311 178V155.455H820.909V163.777H821.129C821.32 163.483 821.584 163.109 821.921 162.654C822.266 162.192 822.758 161.781 823.397 161.421C824.042 161.054 824.916 160.871 826.017 160.871C827.44 160.871 828.695 161.227 829.782 161.939C830.868 162.65 831.715 163.66 832.325 164.966C832.934 166.272 833.238 167.813 833.238 169.589C833.238 171.38 832.934 172.932 832.325 174.246C831.715 175.552 830.871 176.565 829.793 177.284C828.714 177.996 827.47 178.352 826.061 178.352C824.975 178.352 824.105 178.172 823.452 177.813C822.798 177.446 822.296 177.031 821.943 176.569C821.591 176.099 821.32 175.71 821.129 175.402H820.821V178H818.311ZM820.865 169.545C820.865 170.822 821.052 171.949 821.426 172.925C821.8 173.894 822.347 174.653 823.066 175.204C823.786 175.747 824.666 176.018 825.708 176.018C826.795 176.018 827.701 175.732 828.428 175.16C829.161 174.58 829.712 173.802 830.079 172.826C830.453 171.843 830.64 170.749 830.64 169.545C830.64 168.357 830.457 167.285 830.09 166.331C829.73 165.37 829.183 164.61 828.45 164.052C827.723 163.487 826.809 163.205 825.708 163.205C824.652 163.205 823.764 163.472 823.044 164.008C822.325 164.537 821.782 165.278 821.415 166.232C821.048 167.179 820.865 168.283 820.865 169.545ZM837.212 178V161.091H839.81V178H837.212ZM838.533 158.273C838.027 158.273 837.59 158.1 837.223 157.755C836.864 157.41 836.684 156.996 836.684 156.511C836.684 156.027 836.864 155.612 837.223 155.267C837.59 154.922 838.027 154.75 838.533 154.75C839.04 154.75 839.473 154.922 839.832 155.267C840.199 155.612 840.383 156.027 840.383 156.511C840.383 156.996 840.199 157.41 839.832 157.755C839.473 158.1 839.04 158.273 838.533 158.273ZM844.569 178V161.091H847.079V163.645H847.255C847.563 162.808 848.121 162.129 848.928 161.608C849.735 161.087 850.645 160.827 851.658 160.827C851.849 160.827 852.088 160.83 852.374 160.838C852.66 160.845 852.877 160.856 853.023 160.871V163.513C852.935 163.491 852.733 163.458 852.418 163.414C852.11 163.362 851.783 163.337 851.438 163.337C850.616 163.337 849.882 163.509 849.236 163.854C848.598 164.192 848.091 164.661 847.717 165.263C847.35 165.858 847.167 166.536 847.167 167.3V178H844.569ZM880.586 162.5C880.344 161.759 880.024 161.095 879.628 160.507C879.239 159.913 878.773 159.407 878.23 158.988C877.694 158.57 877.085 158.251 876.403 158.031C875.72 157.81 874.972 157.7 874.157 157.7C872.821 157.7 871.607 158.045 870.513 158.735C869.42 159.425 868.55 160.441 867.904 161.784C867.258 163.127 866.935 164.775 866.935 166.727C866.935 168.679 867.262 170.327 867.915 171.67C868.568 173.013 869.453 174.03 870.568 174.719C871.684 175.409 872.939 175.754 874.333 175.754C875.625 175.754 876.762 175.479 877.746 174.929C878.736 174.371 879.507 173.586 880.057 172.573C880.615 171.553 880.894 170.353 880.894 168.973L881.731 169.149H874.95V166.727H883.536V169.149C883.536 171.006 883.14 172.621 882.347 173.993C881.562 175.365 880.476 176.429 879.089 177.185C877.709 177.934 876.124 178.308 874.333 178.308C872.337 178.308 870.583 177.839 869.071 176.899C867.566 175.96 866.392 174.624 865.548 172.892C864.712 171.16 864.293 169.105 864.293 166.727C864.293 164.944 864.532 163.34 865.009 161.917C865.493 160.485 866.176 159.267 867.056 158.262C867.937 157.256 868.979 156.486 870.183 155.95C871.386 155.414 872.711 155.146 874.157 155.146C875.346 155.146 876.454 155.326 877.481 155.686C878.516 156.038 879.437 156.541 880.245 157.194C881.059 157.84 881.738 158.614 882.281 159.517C882.824 160.412 883.199 161.406 883.404 162.5H880.586ZM892.836 178.396C891.764 178.396 890.792 178.194 889.918 177.791C889.045 177.38 888.351 176.789 887.838 176.018C887.324 175.241 887.067 174.301 887.067 173.2C887.067 172.232 887.258 171.446 887.64 170.844C888.021 170.235 888.531 169.758 889.17 169.413C889.808 169.068 890.513 168.812 891.283 168.643C892.061 168.467 892.843 168.327 893.628 168.224C894.656 168.092 895.489 167.993 896.127 167.927C896.773 167.854 897.243 167.733 897.536 167.564C897.837 167.395 897.988 167.102 897.988 166.683V166.595C897.988 165.509 897.69 164.665 897.096 164.063C896.509 163.461 895.617 163.161 894.421 163.161C893.181 163.161 892.208 163.432 891.504 163.975C890.799 164.518 890.304 165.098 890.017 165.714L887.552 164.834C887.992 163.806 888.579 163.006 889.313 162.434C890.054 161.854 890.861 161.451 891.735 161.223C892.615 160.988 893.481 160.871 894.333 160.871C894.876 160.871 895.5 160.937 896.204 161.069C896.916 161.194 897.602 161.454 898.263 161.85C898.931 162.247 899.485 162.845 899.925 163.645C900.365 164.445 900.586 165.516 900.586 166.859V178H897.988V175.71H897.856C897.679 176.077 897.386 176.47 896.975 176.888C896.564 177.306 896.017 177.662 895.335 177.956C894.652 178.25 893.819 178.396 892.836 178.396ZM893.232 176.062C894.259 176.062 895.125 175.861 895.83 175.457C896.542 175.053 897.078 174.532 897.437 173.894C897.804 173.255 897.988 172.584 897.988 171.879V169.501C897.878 169.634 897.635 169.755 897.261 169.865C896.894 169.967 896.468 170.059 895.984 170.14C895.507 170.213 895.041 170.279 894.586 170.338C894.138 170.389 893.775 170.433 893.496 170.47C892.821 170.558 892.19 170.701 891.603 170.9C891.023 171.09 890.553 171.38 890.194 171.769C889.841 172.151 889.665 172.672 889.665 173.332C889.665 174.235 889.999 174.918 890.667 175.38C891.342 175.835 892.197 176.062 893.232 176.062ZM905.328 184.341V161.091H907.837V163.777H908.146C908.337 163.483 908.601 163.109 908.938 162.654C909.283 162.192 909.775 161.781 910.413 161.421C911.059 161.054 911.933 160.871 913.034 160.871C914.457 160.871 915.712 161.227 916.798 161.939C917.885 162.65 918.732 163.66 919.341 164.966C919.951 166.272 920.255 167.813 920.255 169.589C920.255 171.38 919.951 172.932 919.341 174.246C918.732 175.552 917.888 176.565 916.809 177.284C915.731 177.996 914.487 178.352 913.078 178.352C911.991 178.352 911.122 178.172 910.469 177.813C909.815 177.446 909.313 177.031 908.96 176.569C908.608 176.099 908.337 175.71 908.146 175.402H907.926V184.341H905.328ZM907.882 169.545C907.882 170.822 908.069 171.949 908.443 172.925C908.817 173.894 909.364 174.653 910.083 175.204C910.802 175.747 911.683 176.018 912.725 176.018C913.811 176.018 914.718 175.732 915.444 175.16C916.178 174.58 916.729 173.802 917.096 172.826C917.47 171.843 917.657 170.749 917.657 169.545C917.657 168.357 917.474 167.285 917.107 166.331C916.747 165.37 916.2 164.61 915.466 164.052C914.74 163.487 913.826 163.205 912.725 163.205C911.668 163.205 910.78 163.472 910.061 164.008C909.342 164.537 908.799 165.278 908.432 166.232C908.065 167.179 907.882 168.283 907.882 169.545ZM928.093 174.918L927.917 176.107C927.792 176.943 927.601 177.839 927.345 178.793C927.095 179.747 926.835 180.646 926.563 181.49C926.291 182.334 926.068 183.005 925.891 183.504H923.91C924.005 183.035 924.13 182.414 924.284 181.644C924.438 180.873 924.592 180.011 924.747 179.057C924.908 178.11 925.04 177.141 925.143 176.151L925.275 174.918H928.093ZM948.01 178.352C946.601 178.352 945.357 177.996 944.278 177.284C943.2 176.565 942.356 175.552 941.746 174.246C941.137 172.932 940.833 171.38 940.833 169.589C940.833 167.813 941.137 166.272 941.746 164.966C942.356 163.66 943.203 162.65 944.289 161.939C945.376 161.227 946.631 160.871 948.054 160.871C949.155 160.871 950.025 161.054 950.663 161.421C951.309 161.781 951.801 162.192 952.139 162.654C952.483 163.109 952.751 163.483 952.942 163.777H953.162V155.455H955.76V178H953.25V175.402H952.942C952.751 175.71 952.48 176.099 952.128 176.569C951.775 177.031 951.273 177.446 950.619 177.813C949.966 178.172 949.097 178.352 948.01 178.352ZM948.363 176.018C949.405 176.018 950.285 175.747 951.005 175.204C951.724 174.653 952.271 173.894 952.645 172.925C953.019 171.949 953.206 170.822 953.206 169.545C953.206 168.283 953.023 167.179 952.656 166.232C952.289 165.278 951.746 164.537 951.027 164.008C950.307 163.472 949.419 163.205 948.363 163.205C947.262 163.205 946.344 163.487 945.61 164.052C944.884 164.61 944.337 165.37 943.97 166.331C943.611 167.285 943.431 168.357 943.431 169.545C943.431 170.749 943.614 171.843 943.981 172.826C944.356 173.802 944.906 174.58 945.633 175.16C946.366 175.732 947.276 176.018 948.363 176.018ZM965.855 178.396C964.784 178.396 963.811 178.194 962.938 177.791C962.065 177.38 961.371 176.789 960.857 176.018C960.344 175.241 960.087 174.301 960.087 173.2C960.087 172.232 960.278 171.446 960.659 170.844C961.041 170.235 961.551 169.758 962.189 169.413C962.828 169.068 963.532 168.812 964.303 168.643C965.081 168.467 965.862 168.327 966.648 168.224C967.675 168.092 968.508 167.993 969.147 167.927C969.793 167.854 970.262 167.733 970.556 167.564C970.857 167.395 971.007 167.102 971.007 166.683V166.595C971.007 165.509 970.71 164.665 970.115 164.063C969.528 163.461 968.637 163.161 967.44 163.161C966.2 163.161 965.228 163.432 964.523 163.975C963.819 164.518 963.323 165.098 963.037 165.714L960.571 164.834C961.011 163.806 961.599 163.006 962.332 162.434C963.074 161.854 963.881 161.451 964.754 161.223C965.635 160.988 966.501 160.871 967.352 160.871C967.895 160.871 968.519 160.937 969.224 161.069C969.936 161.194 970.622 161.454 971.282 161.85C971.95 162.247 972.504 162.845 972.945 163.645C973.385 164.445 973.605 165.516 973.605 166.859V178H971.007V175.71H970.875C970.699 176.077 970.405 176.47 969.994 176.888C969.583 177.306 969.037 177.662 968.354 177.956C967.672 178.25 966.839 178.396 965.855 178.396ZM966.251 176.062C967.279 176.062 968.145 175.861 968.849 175.457C969.561 175.053 970.097 174.532 970.457 173.894C970.824 173.255 971.007 172.584 971.007 171.879V169.501C970.897 169.634 970.655 169.755 970.281 169.865C969.914 169.967 969.488 170.059 969.004 170.14C968.527 170.213 968.061 170.279 967.606 170.338C967.158 170.389 966.795 170.433 966.516 170.47C965.84 170.558 965.209 170.701 964.622 170.9C964.042 171.09 963.573 171.38 963.213 171.769C962.861 172.151 962.685 172.672 962.685 173.332C962.685 174.235 963.019 174.918 963.686 175.38C964.362 175.835 965.217 176.062 966.251 176.062ZM980.945 167.828V178H978.347V155.455H980.945V163.733H981.165C981.562 162.86 982.156 162.166 982.949 161.652C983.749 161.131 984.813 160.871 986.141 160.871C987.293 160.871 988.302 161.102 989.168 161.564C990.034 162.019 990.706 162.72 991.183 163.667C991.667 164.606 991.91 165.803 991.91 167.256V178H989.312V167.432C989.312 166.089 988.963 165.05 988.266 164.316C987.576 163.575 986.618 163.205 985.393 163.205C984.541 163.205 983.778 163.384 983.103 163.744C982.435 164.104 981.907 164.628 981.518 165.318C981.136 166.008 980.945 166.845 980.945 167.828ZM1001.64 178.396C1000.57 178.396 999.594 178.194 998.721 177.791C997.848 177.38 997.154 176.789 996.64 176.018C996.127 175.241 995.87 174.301 995.87 173.2C995.87 172.232 996.061 171.446 996.442 170.844C996.824 170.235 997.334 169.758 997.973 169.413C998.611 169.068 999.316 168.812 1000.09 168.643C1000.86 168.467 1001.65 168.327 1002.43 168.224C1003.46 168.092 1004.29 167.993 1004.93 167.927C1005.58 167.854 1006.05 167.733 1006.34 167.564C1006.64 167.395 1006.79 167.102 1006.79 166.683V166.595C1006.79 165.509 1006.49 164.665 1005.9 164.063C1005.31 163.461 1004.42 163.161 1003.22 163.161C1001.98 163.161 1001.01 163.432 1000.31 163.975C999.602 164.518 999.106 165.098 998.82 165.714L996.354 164.834C996.795 163.806 997.382 163.006 998.116 162.434C998.857 161.854 999.664 161.451 1000.54 161.223C1001.42 160.988 1002.28 160.871 1003.14 160.871C1003.68 160.871 1004.3 160.937 1005.01 161.069C1005.72 161.194 1006.41 161.454 1007.07 161.85C1007.73 162.247 1008.29 162.845 1008.73 163.645C1009.17 164.445 1009.39 165.516 1009.39 166.859V178H1006.79V175.71H1006.66C1006.48 176.077 1006.19 176.47 1005.78 176.888C1005.37 177.306 1004.82 177.662 1004.14 177.956C1003.45 178.25 1002.62 178.396 1001.64 178.396ZM1002.03 176.062C1003.06 176.062 1003.93 175.861 1004.63 175.457C1005.34 175.053 1005.88 174.532 1006.24 173.894C1006.61 173.255 1006.79 172.584 1006.79 171.879V169.501C1006.68 169.634 1006.44 169.755 1006.06 169.865C1005.7 169.967 1005.27 170.059 1004.79 170.14C1004.31 170.213 1003.84 170.279 1003.39 170.338C1002.94 170.389 1002.58 170.433 1002.3 170.47C1001.62 170.558 1000.99 170.701 1000.41 170.9C999.826 171.09 999.356 171.38 998.996 171.769C998.644 172.151 998.468 172.672 998.468 173.332C998.468 174.235 998.802 174.918 999.47 175.38C1000.14 175.835 1001 176.062 1002.03 176.062ZM1022.85 178V161.091H1025.45V178H1022.85ZM1024.17 158.273C1023.66 158.273 1023.23 158.1 1022.86 157.755C1022.5 157.41 1022.32 156.996 1022.32 156.511C1022.32 156.027 1022.5 155.612 1022.86 155.267C1023.23 154.922 1023.66 154.75 1024.17 154.75C1024.68 154.75 1025.11 154.922 1025.47 155.267C1025.84 155.612 1026.02 156.027 1026.02 156.511C1026.02 156.996 1025.84 157.41 1025.47 157.755C1025.11 158.1 1024.68 158.273 1024.17 158.273ZM1031.88 184.341C1031.44 184.341 1031.05 184.304 1030.7 184.231C1030.36 184.165 1030.12 184.099 1029.99 184.033L1030.65 181.743C1031.28 181.904 1031.83 181.963 1032.32 181.919C1032.8 181.875 1033.23 181.658 1033.61 181.27C1033.99 180.888 1034.34 180.268 1034.65 179.409L1035.14 178.088L1028.88 161.091H1031.7L1036.37 174.565H1036.55L1041.21 161.091H1044.03L1036.85 180.466C1036.53 181.339 1036.13 182.062 1035.65 182.635C1035.18 183.214 1034.62 183.644 1033.99 183.923C1033.37 184.201 1032.66 184.341 1031.88 184.341ZM1047.46 178V161.091H1050.06V178H1047.46ZM1048.78 158.273C1048.28 158.273 1047.84 158.1 1047.47 157.755C1047.11 157.41 1046.93 156.996 1046.93 156.511C1046.93 156.027 1047.11 155.612 1047.47 155.267C1047.84 154.922 1048.28 154.75 1048.78 154.75C1049.29 154.75 1049.72 154.922 1050.08 155.267C1050.45 155.612 1050.63 156.027 1050.63 156.511C1050.63 156.996 1050.45 157.41 1050.08 157.755C1049.72 158.1 1049.29 158.273 1048.78 158.273ZM1063.89 178V155.455H1066.49V163.777H1066.71C1066.9 163.483 1067.16 163.109 1067.5 162.654C1067.84 162.192 1068.34 161.781 1068.97 161.421C1069.62 161.054 1070.49 160.871 1071.59 160.871C1073.02 160.871 1074.27 161.227 1075.36 161.939C1076.45 162.65 1077.29 163.66 1077.9 164.966C1078.51 166.272 1078.82 167.813 1078.82 169.589C1078.82 171.38 1078.51 172.932 1077.9 174.246C1077.29 175.552 1076.45 176.565 1075.37 177.284C1074.29 177.996 1073.05 178.352 1071.64 178.352C1070.55 178.352 1069.68 178.172 1069.03 177.813C1068.38 177.446 1067.87 177.031 1067.52 176.569C1067.17 176.099 1066.9 175.71 1066.71 175.402H1066.4V178H1063.89ZM1066.44 169.545C1066.44 170.822 1066.63 171.949 1067 172.925C1067.38 173.894 1067.93 174.653 1068.64 175.204C1069.36 175.747 1070.24 176.018 1071.29 176.018C1072.37 176.018 1073.28 175.732 1074.01 175.16C1074.74 174.58 1075.29 173.802 1075.66 172.826C1076.03 171.843 1076.22 170.749 1076.22 169.545C1076.22 168.357 1076.03 167.285 1075.67 166.331C1075.31 165.37 1074.76 164.61 1074.03 164.052C1073.3 163.487 1072.39 163.205 1071.29 163.205C1070.23 163.205 1069.34 163.472 1068.62 164.008C1067.9 164.537 1067.36 165.278 1066.99 166.232C1066.63 167.179 1066.44 168.283 1066.44 169.545ZM1082.79 178V161.091H1085.39V178H1082.79ZM1084.11 158.273C1083.61 158.273 1083.17 158.1 1082.8 157.755C1082.44 157.41 1082.26 156.996 1082.26 156.511C1082.26 156.027 1082.44 155.612 1082.8 155.267C1083.17 154.922 1083.61 154.75 1084.11 154.75C1084.62 154.75 1085.05 154.922 1085.41 155.267C1085.78 155.612 1085.96 156.027 1085.96 156.511C1085.96 156.996 1085.78 157.41 1085.41 157.755C1085.05 158.1 1084.62 158.273 1084.11 158.273ZM1090.15 178V161.091H1092.66V163.645H1092.83C1093.14 162.808 1093.7 162.129 1094.51 161.608C1095.31 161.087 1096.22 160.827 1097.24 160.827C1097.43 160.827 1097.67 160.83 1097.95 160.838C1098.24 160.845 1098.45 160.856 1098.6 160.871V163.513C1098.51 163.491 1098.31 163.458 1098 163.414C1097.69 163.362 1097.36 163.337 1097.02 163.337C1096.19 163.337 1095.46 163.509 1094.81 163.854C1094.18 164.192 1093.67 164.661 1093.3 165.263C1092.93 165.858 1092.74 166.536 1092.74 167.3V178H1090.15ZM1117.23 184.693C1115.97 184.693 1114.89 184.532 1113.99 184.209C1113.09 183.893 1112.33 183.475 1111.73 182.954C1111.14 182.44 1110.66 181.89 1110.31 181.303L1112.38 179.849C1112.62 180.158 1112.91 180.51 1113.27 180.906C1113.63 181.31 1114.12 181.658 1114.75 181.952C1115.38 182.253 1116.2 182.403 1117.23 182.403C1118.59 182.403 1119.72 182.073 1120.6 181.413C1121.49 180.752 1121.94 179.717 1121.94 178.308V174.874H1121.72C1121.53 175.182 1121.25 175.563 1120.9 176.018C1120.56 176.466 1120.06 176.866 1119.4 177.218C1118.76 177.563 1117.89 177.736 1116.78 177.736C1115.42 177.736 1114.19 177.413 1113.11 176.767C1112.03 176.121 1111.17 175.182 1110.54 173.949C1109.92 172.716 1109.61 171.219 1109.61 169.457C1109.61 167.725 1109.91 166.217 1110.52 164.933C1111.13 163.641 1111.98 162.643 1113.06 161.939C1114.15 161.227 1115.41 160.871 1116.83 160.871C1117.93 160.871 1118.8 161.054 1119.45 161.421C1120.1 161.781 1120.6 162.192 1120.95 162.654C1121.3 163.109 1121.57 163.483 1121.76 163.777H1122.02V161.091H1124.53V178.484C1124.53 179.938 1124.2 181.119 1123.54 182.029C1122.89 182.946 1122.01 183.618 1120.9 184.044C1119.8 184.477 1118.58 184.693 1117.23 184.693ZM1117.14 175.402C1118.18 175.402 1119.06 175.163 1119.78 174.686C1120.5 174.209 1121.05 173.523 1121.42 172.628C1121.79 171.732 1121.98 170.661 1121.98 169.413C1121.98 168.195 1121.8 167.12 1121.43 166.188C1121.06 165.256 1120.52 164.526 1119.8 163.997C1119.08 163.469 1118.19 163.205 1117.14 163.205C1116.04 163.205 1115.12 163.483 1114.38 164.041C1113.66 164.599 1113.11 165.348 1112.74 166.287C1112.39 167.226 1112.21 168.268 1112.21 169.413C1112.21 170.588 1112.39 171.626 1112.76 172.529C1113.13 173.424 1113.68 174.129 1114.41 174.642C1115.14 175.149 1116.05 175.402 1117.14 175.402ZM1136.38 178.352C1134.75 178.352 1133.35 177.993 1132.16 177.273C1130.99 176.547 1130.08 175.534 1129.44 174.235C1128.81 172.929 1128.5 171.41 1128.5 169.678C1128.5 167.946 1128.81 166.419 1129.44 165.098C1130.08 163.77 1130.97 162.735 1132.11 161.994C1133.25 161.245 1134.59 160.871 1136.12 160.871C1137 160.871 1137.87 161.018 1138.72 161.311C1139.58 161.605 1140.37 162.082 1141.07 162.742C1141.77 163.395 1142.34 164.261 1142.75 165.34C1143.17 166.419 1143.38 167.747 1143.38 169.325V170.426H1130.35V168.18H1140.74C1140.74 167.226 1140.55 166.375 1140.17 165.626C1139.79 164.878 1139.26 164.287 1138.56 163.854C1137.87 163.421 1137.06 163.205 1136.12 163.205C1135.08 163.205 1134.19 163.461 1133.43 163.975C1132.68 164.482 1132.1 165.142 1131.7 165.957C1131.3 166.771 1131.1 167.645 1131.1 168.577V170.074C1131.1 171.351 1131.32 172.433 1131.76 173.321C1132.2 174.202 1132.82 174.874 1133.62 175.336C1134.41 175.791 1135.33 176.018 1136.38 176.018C1137.06 176.018 1137.68 175.923 1138.23 175.732C1138.79 175.534 1139.27 175.241 1139.67 174.852C1140.08 174.455 1140.39 173.964 1140.61 173.376L1143.12 174.081C1142.85 174.932 1142.41 175.681 1141.79 176.327C1141.16 176.965 1140.39 177.464 1139.47 177.824C1138.56 178.176 1137.52 178.352 1136.38 178.352ZM1149.93 155.455V178H1147.33V155.455H1149.93ZM1161.78 178.352C1160.15 178.352 1158.74 177.993 1157.56 177.273C1156.39 176.547 1155.48 175.534 1154.84 174.235C1154.21 172.929 1153.9 171.41 1153.9 169.678C1153.9 167.946 1154.21 166.419 1154.84 165.098C1155.48 163.77 1156.37 162.735 1157.51 161.994C1158.65 161.245 1159.99 160.871 1161.52 160.871C1162.4 160.871 1163.27 161.018 1164.12 161.311C1164.98 161.605 1165.76 162.082 1166.47 162.742C1167.17 163.395 1167.73 164.261 1168.15 165.34C1168.57 166.419 1168.78 167.747 1168.78 169.325V170.426H1155.75V168.18H1166.14C1166.14 167.226 1165.95 166.375 1165.57 165.626C1165.19 164.878 1164.66 164.287 1163.96 163.854C1163.27 163.421 1162.45 163.205 1161.52 163.205C1160.48 163.205 1159.58 163.461 1158.83 163.975C1158.08 164.482 1157.5 165.142 1157.1 165.957C1156.7 166.771 1156.5 167.645 1156.5 168.577V170.074C1156.5 171.351 1156.72 172.433 1157.16 173.321C1157.6 174.202 1158.22 174.874 1159.02 175.336C1159.81 175.791 1160.73 176.018 1161.78 176.018C1162.46 176.018 1163.08 175.923 1163.63 175.732C1164.19 175.534 1164.67 175.241 1165.07 174.852C1165.47 174.455 1165.79 173.964 1166.01 173.376L1168.52 174.081C1168.25 174.932 1167.81 175.681 1167.18 176.327C1166.56 176.965 1165.79 177.464 1164.87 177.824C1163.96 178.176 1162.92 178.352 1161.78 178.352ZM1179.6 178.352C1178.02 178.352 1176.65 177.978 1175.51 177.229C1174.36 176.481 1173.48 175.45 1172.86 174.136C1172.25 172.822 1171.94 171.321 1171.94 169.634C1171.94 167.916 1172.26 166.401 1172.89 165.087C1173.53 163.766 1174.41 162.735 1175.55 161.994C1176.7 161.245 1178.03 160.871 1179.56 160.871C1180.75 160.871 1181.82 161.091 1182.77 161.531C1183.73 161.972 1184.51 162.588 1185.12 163.381C1185.73 164.173 1186.1 165.098 1186.25 166.155H1183.65C1183.46 165.384 1183.01 164.702 1182.33 164.107C1181.66 163.505 1180.75 163.205 1179.6 163.205C1178.59 163.205 1177.7 163.469 1176.94 163.997C1176.18 164.518 1175.59 165.256 1175.17 166.21C1174.75 167.157 1174.54 168.268 1174.54 169.545C1174.54 170.852 1174.74 171.989 1175.15 172.958C1175.57 173.927 1176.16 174.679 1176.92 175.215C1177.68 175.751 1178.57 176.018 1179.6 176.018C1180.28 176.018 1180.89 175.901 1181.44 175.666C1181.99 175.431 1182.46 175.094 1182.84 174.653C1183.22 174.213 1183.49 173.685 1183.65 173.068H1186.25C1186.1 174.066 1185.74 174.965 1185.16 175.765C1184.59 176.558 1183.83 177.189 1182.88 177.659C1181.94 178.121 1180.85 178.352 1179.6 178.352ZM1197.14 178.352C1195.51 178.352 1194.1 177.993 1192.92 177.273C1191.75 176.547 1190.84 175.534 1190.2 174.235C1189.57 172.929 1189.26 171.41 1189.26 169.678C1189.26 167.946 1189.57 166.419 1190.2 165.098C1190.84 163.77 1191.73 162.735 1192.87 161.994C1194.01 161.245 1195.35 160.871 1196.87 160.871C1197.76 160.871 1198.62 161.018 1199.48 161.311C1200.34 161.605 1201.12 162.082 1201.83 162.742C1202.53 163.395 1203.09 164.261 1203.51 165.34C1203.93 166.419 1204.14 167.747 1204.14 169.325V170.426H1191.11V168.18H1201.5C1201.5 167.226 1201.31 166.375 1200.93 165.626C1200.55 164.878 1200.02 164.287 1199.32 163.854C1198.63 163.421 1197.81 163.205 1196.87 163.205C1195.84 163.205 1194.94 163.461 1194.19 163.975C1193.44 164.482 1192.86 165.142 1192.46 165.957C1192.06 166.771 1191.85 167.645 1191.85 168.577V170.074C1191.85 171.351 1192.07 172.433 1192.52 173.321C1192.96 174.202 1193.58 174.874 1194.38 175.336C1195.17 175.791 1196.09 176.018 1197.14 176.018C1197.82 176.018 1198.44 175.923 1198.99 175.732C1199.55 175.534 1200.03 175.241 1200.43 174.852C1200.83 174.455 1201.15 173.964 1201.37 173.376L1203.88 174.081C1203.61 174.932 1203.17 175.681 1202.54 176.327C1201.92 176.965 1201.15 177.464 1200.23 177.824C1199.31 178.176 1198.28 178.352 1197.14 178.352ZM1210.51 171.835L1210.47 168.621H1211L1218.4 161.091H1221.61L1213.73 169.061H1213.51L1210.51 171.835ZM1208.09 178V155.455H1210.69V178H1208.09ZM1218.84 178L1212.23 169.634L1214.08 167.828L1222.14 178H1218.84ZM1226.85 178.176C1226.3 178.176 1225.84 177.982 1225.45 177.593C1225.06 177.204 1224.87 176.738 1224.87 176.195C1224.87 175.652 1225.06 175.185 1225.45 174.797C1225.84 174.408 1226.3 174.213 1226.85 174.213C1227.39 174.213 1227.86 174.408 1228.25 174.797C1228.64 175.185 1228.83 175.652 1228.83 176.195C1228.83 176.554 1228.74 176.884 1228.55 177.185C1228.38 177.486 1228.14 177.728 1227.84 177.912C1227.55 178.088 1227.21 178.176 1226.85 178.176ZM1234.03 155.455V157.436C1234.03 158.038 1233.92 158.68 1233.7 159.363C1233.48 160.038 1233.17 160.695 1232.75 161.333C1232.34 161.964 1231.84 162.515 1231.25 162.984L1229.84 161.839C1230.3 161.179 1230.7 160.493 1231.04 159.781C1231.39 159.062 1231.56 158.295 1231.56 157.48V155.455H1234.03ZM1239.66 155.455V157.436C1239.66 158.038 1239.55 158.68 1239.33 159.363C1239.12 160.038 1238.8 160.695 1238.38 161.333C1237.97 161.964 1237.47 162.515 1236.89 162.984L1235.48 161.839C1235.94 161.179 1236.34 160.493 1236.68 159.781C1237.02 159.062 1237.2 158.295 1237.2 157.48V155.455H1239.66Z" fill="white"/>
<path d="M818.895 91.6367C818.517 90.4518 818.01 89.3906 817.372 88.4531C816.747 87.5026 815.998 86.6953 815.125 86.0313C814.253 85.3542 813.257 84.8398 812.137 84.4883C811.03 84.1367 809.813 83.9609 808.485 83.9609C806.232 83.9609 804.201 84.5404 802.391 85.6992C800.581 86.8581 799.149 88.5573 798.094 90.7969C797.053 93.0234 796.532 95.7513 796.532 98.9805C796.532 102.223 797.059 104.964 798.114 107.203C799.168 109.443 800.614 111.142 802.45 112.301C804.286 113.46 806.375 114.039 808.719 114.039C810.894 114.039 812.788 113.596 814.403 112.711C816.03 111.826 817.287 110.576 818.172 108.961C819.071 107.333 819.52 105.419 819.52 103.219L821.083 103.512H809.637V98.5312H825.36V103.082C825.36 106.441 824.644 109.358 823.211 111.832C821.792 114.293 819.826 116.194 817.313 117.535C814.813 118.876 811.948 119.547 808.719 119.547C805.099 119.547 801.922 118.714 799.188 117.047C796.467 115.38 794.344 113.017 792.821 109.957C791.297 106.884 790.536 103.238 790.536 99.0195C790.536 95.8294 790.978 92.9648 791.864 90.4258C792.749 87.8867 793.993 85.7318 795.594 83.9609C797.209 82.1771 799.103 80.8164 801.278 79.8789C803.465 78.9284 805.855 78.4531 808.446 78.4531C810.607 78.4531 812.619 78.7721 814.481 79.4102C816.356 80.0482 818.023 80.9531 819.481 82.125C820.952 83.2969 822.17 84.6901 823.133 86.3047C824.097 87.9062 824.748 89.6836 825.086 91.6367H818.895ZM835.165 119H828.758L843.153 79H850.125L864.52 119H858.114L846.805 86.2656H846.493L835.165 119ZM836.239 103.336H857.02V108.414H836.239V103.336ZM870.296 119V79H884.554C887.666 79 890.244 79.5664 892.289 80.6992C894.333 81.832 895.863 83.3815 896.878 85.3477C897.894 87.3008 898.402 89.5013 898.402 91.9492C898.402 94.4102 897.888 96.6237 896.859 98.5898C895.843 100.543 894.307 102.092 892.25 103.238C890.205 104.371 887.634 104.938 884.535 104.938H874.73V99.8203H883.988C885.954 99.8203 887.549 99.4818 888.773 98.8047C889.997 98.1146 890.895 97.1771 891.468 95.9922C892.041 94.8073 892.328 93.4596 892.328 91.9492C892.328 90.4388 892.041 89.0977 891.468 87.9258C890.895 86.7539 889.99 85.8359 888.753 85.1719C887.529 84.5078 885.915 84.1758 883.91 84.1758H876.332V119H870.296ZM920.033 119V79H944.837V84.1953H926.068V96.3828H943.06V101.559H926.068V119H920.033ZM987.005 99C987.005 103.271 986.224 106.943 984.662 110.016C983.099 113.076 980.957 115.432 978.236 117.086C975.528 118.727 972.448 119.547 968.998 119.547C965.534 119.547 962.442 118.727 959.72 117.086C957.012 115.432 954.876 113.069 953.314 109.996C951.751 106.923 950.97 103.258 950.97 99C950.97 94.7292 951.751 91.0638 953.314 88.0039C954.876 84.931 957.012 82.5742 959.72 80.9336C962.442 79.2799 965.534 78.4531 968.998 78.4531C972.448 78.4531 975.528 79.2799 978.236 80.9336C980.957 82.5742 983.099 84.931 984.662 88.0039C986.224 91.0638 987.005 94.7292 987.005 99ZM981.029 99C981.029 95.7448 980.501 93.0039 979.447 90.7773C978.405 88.5378 976.973 86.8451 975.15 85.6992C973.34 84.5404 971.289 83.9609 968.998 83.9609C966.693 83.9609 964.636 84.5404 962.826 85.6992C961.016 86.8451 959.583 88.5378 958.529 90.7773C957.487 93.0039 956.966 95.7448 956.966 99C956.966 102.255 957.487 105.003 958.529 107.242C959.583 109.469 961.016 111.161 962.826 112.32C964.636 113.466 966.693 114.039 968.998 114.039C971.289 114.039 973.34 113.466 975.15 112.32C976.973 111.161 978.405 109.469 979.447 107.242C980.501 105.003 981.029 102.255 981.029 99ZM994.53 119V79H1008.79C1011.89 79 1014.46 79.5339 1016.5 80.6016C1018.56 81.6693 1020.1 83.1471 1021.11 85.0352C1022.13 86.9102 1022.64 89.0781 1022.64 91.5391C1022.64 93.987 1022.12 96.1419 1021.09 98.0039C1020.08 99.8529 1018.54 101.292 1016.48 102.32C1014.44 103.349 1011.87 103.863 1008.77 103.863H997.967V98.668H1008.22C1010.17 98.668 1011.76 98.388 1012.99 97.8281C1014.22 97.2682 1015.13 96.4544 1015.7 95.3867C1016.27 94.319 1016.56 93.0365 1016.56 91.5391C1016.56 90.0286 1016.27 88.7201 1015.68 87.6133C1015.11 86.5065 1014.2 85.6602 1012.97 85.0742C1011.74 84.4753 1010.14 84.1758 1008.14 84.1758H1000.56V119H994.53ZM1014.28 100.953L1024.16 119H1017.28L1007.6 100.953H1014.28ZM1071.6 91.6367C1071.23 90.4518 1070.72 89.3906 1070.08 88.4531C1069.46 87.5026 1068.71 86.6953 1067.84 86.0313C1066.96 85.3542 1065.97 84.8398 1064.85 84.4883C1063.74 84.1367 1062.52 83.9609 1061.19 83.9609C1058.94 83.9609 1056.91 84.5404 1055.1 85.6992C1053.29 86.8581 1051.86 88.5573 1050.8 90.7969C1049.76 93.0234 1049.24 95.7513 1049.24 98.9805C1049.24 102.223 1049.77 104.964 1050.82 107.203C1051.88 109.443 1053.32 111.142 1055.16 112.301C1057 113.46 1059.09 114.039 1061.43 114.039C1063.6 114.039 1065.5 113.596 1067.11 112.711C1068.74 111.826 1070 110.576 1070.88 108.961C1071.78 107.333 1072.23 105.419 1072.23 103.219L1073.79 103.512H1062.35V98.5312H1078.07V103.082C1078.07 106.441 1077.35 109.358 1075.92 111.832C1074.5 114.293 1072.54 116.194 1070.02 117.535C1067.52 118.876 1064.66 119.547 1061.43 119.547C1057.81 119.547 1054.63 118.714 1051.9 117.047C1049.18 115.38 1047.05 113.017 1045.53 109.957C1044.01 106.884 1043.25 103.238 1043.25 99.0195C1043.25 95.8294 1043.69 92.9648 1044.57 90.4258C1045.46 87.8867 1046.7 85.7318 1048.3 83.9609C1049.92 82.1771 1051.81 80.8164 1053.99 79.8789C1056.18 78.9284 1058.56 78.4531 1061.16 78.4531C1063.32 78.4531 1065.33 78.7721 1067.19 79.4102C1069.07 80.0482 1070.73 80.9531 1072.19 82.125C1073.66 83.2969 1074.88 84.6901 1075.84 86.3047C1076.81 87.9062 1077.46 89.6836 1077.8 91.6367H1071.6ZM1120.48 99C1120.48 103.271 1119.7 106.943 1118.13 110.016C1116.57 113.076 1114.43 115.432 1111.71 117.086C1109 118.727 1105.92 119.547 1102.47 119.547C1099.01 119.547 1095.91 118.727 1093.19 117.086C1090.48 115.432 1088.35 113.069 1086.79 109.996C1085.22 106.923 1084.44 103.258 1084.44 99C1084.44 94.7292 1085.22 91.0638 1086.79 88.0039C1088.35 84.931 1090.48 82.5742 1093.19 80.9336C1095.91 79.2799 1099.01 78.4531 1102.47 78.4531C1105.92 78.4531 1109 79.2799 1111.71 80.9336C1114.43 82.5742 1116.57 84.931 1118.13 88.0039C1119.7 91.0638 1120.48 94.7292 1120.48 99ZM1114.5 99C1114.5 95.7448 1113.97 93.0039 1112.92 90.7773C1111.88 88.5378 1110.44 86.8451 1108.62 85.6992C1106.81 84.5404 1104.76 83.9609 1102.47 83.9609C1100.16 83.9609 1098.11 84.5404 1096.3 85.6992C1094.49 86.8451 1093.06 88.5378 1092 90.7773C1090.96 93.0039 1090.44 95.7448 1090.44 99C1090.44 102.255 1090.96 105.003 1092 107.242C1093.06 109.469 1094.49 111.161 1096.3 112.32C1098.11 113.466 1100.16 114.039 1102.47 114.039C1104.76 114.039 1106.81 113.466 1108.62 112.32C1110.44 111.161 1111.88 109.469 1112.92 107.242C1113.97 105.003 1114.5 102.255 1114.5 99ZM1162.75 99C1162.75 103.271 1161.97 106.943 1160.4 110.016C1158.84 113.076 1156.7 115.432 1153.98 117.086C1151.27 118.727 1148.19 119.547 1144.74 119.547C1141.28 119.547 1138.18 118.727 1135.46 117.086C1132.75 115.432 1130.62 113.069 1129.06 109.996C1127.49 106.923 1126.71 103.258 1126.71 99C1126.71 94.7292 1127.49 91.0638 1129.06 88.0039C1130.62 84.931 1132.75 82.5742 1135.46 80.9336C1138.18 79.2799 1141.28 78.4531 1144.74 78.4531C1148.19 78.4531 1151.27 79.2799 1153.98 80.9336C1156.7 82.5742 1158.84 84.931 1160.4 88.0039C1161.97 91.0638 1162.75 94.7292 1162.75 99ZM1156.77 99C1156.77 95.7448 1156.24 93.0039 1155.19 90.7773C1154.15 88.5378 1152.72 86.8451 1150.89 85.6992C1149.08 84.5404 1147.03 83.9609 1144.74 83.9609C1142.44 83.9609 1140.38 84.5404 1138.57 85.6992C1136.76 86.8451 1135.33 88.5378 1134.27 90.7773C1133.23 93.0039 1132.71 95.7448 1132.71 99C1132.71 102.255 1133.23 105.003 1134.27 107.242C1135.33 109.469 1136.76 111.161 1138.57 112.32C1140.38 113.466 1142.44 114.039 1144.74 114.039C1147.03 114.039 1149.08 113.466 1150.89 112.32C1152.72 111.161 1154.15 109.469 1155.19 107.242C1156.24 105.003 1156.77 102.255 1156.77 99ZM1183.22 119H1170.27V79H1183.63C1187.55 79 1190.92 79.8008 1193.73 81.4023C1196.54 82.9909 1198.7 85.276 1200.19 88.2578C1201.7 91.2266 1202.46 94.7878 1202.46 98.9414C1202.46 103.108 1201.7 106.689 1200.17 109.684C1198.66 112.678 1196.48 114.983 1193.61 116.598C1190.75 118.199 1187.28 119 1183.22 119ZM1176.31 113.727H1182.89C1185.94 113.727 1188.47 113.154 1190.49 112.008C1192.51 110.849 1194.02 109.176 1195.02 106.988C1196.02 104.788 1196.52 102.105 1196.52 98.9414C1196.52 95.8034 1196.02 93.1406 1195.02 90.9531C1194.03 88.7656 1192.55 87.1055 1190.58 85.9727C1188.62 84.8398 1186.18 84.2734 1183.26 84.2734H1176.31V113.727Z" fill="white"/>
<g clip-path="url(#clip0_168_245)">
<path d="M757.086 88.3448L757.042 88.2848L756.976 88.1961L756.919 88.1206L756.867 88.0535L756.799 87.9636L756.772 87.93C755.263 85.8668 753.216 84.1746 750.813 83.0041C748.41 81.8336 745.725 81.2211 742.999 81.2211C740.272 81.2211 737.588 81.8336 735.185 83.0041C732.781 84.1746 730.734 85.8668 729.225 87.93L729.199 87.9636L729.13 88.0535L729.079 88.1206L729.022 88.1961L728.956 88.2848L728.911 88.3448L728.801 88.4958C726.703 91.484 725.588 94.9548 725.588 98.4994C725.588 102.044 726.703 105.515 728.801 108.503L728.911 108.654L728.956 108.714L729.022 108.803L729.079 108.878L729.129 108.945L729.197 109.035L729.224 109.069C730.733 111.132 732.78 112.824 735.183 113.995C737.586 115.165 740.271 115.778 742.997 115.778C745.724 115.778 748.408 115.165 750.812 113.995C753.215 112.824 755.262 111.132 756.771 109.069L756.797 109.035L756.866 108.945L756.918 108.878L756.974 108.803L757.04 108.714L757.085 108.654L757.195 108.503C759.293 105.515 760.407 102.044 760.407 98.5C760.407 94.9557 759.293 91.4851 757.195 88.497L757.085 88.346M737.821 83.5737C736.093 85.3996 734.823 87.5456 734.1 89.8624C732.953 89.444 731.859 88.9143 730.837 88.2824C732.643 86.1574 735.061 84.5277 737.824 83.5737M729.976 89.3757C731.12 90.1333 732.36 90.7632 733.67 91.2517C733.094 93.387 732.78 95.5737 732.733 97.7718H727.045C727.171 94.7866 728.181 91.8877 729.969 89.3805M727.045 99.2294H732.728C732.774 101.428 733.088 103.614 733.665 105.749C732.355 106.238 731.115 106.868 729.97 107.626C728.183 105.118 727.173 102.219 727.047 99.2342M730.832 108.724C731.854 108.092 732.948 107.562 734.095 107.144C734.819 109.461 736.089 111.607 737.819 113.432C735.056 112.478 732.638 110.849 730.832 108.724ZM742.192 114.215C739.339 113.754 736.876 110.859 735.463 106.69C737.641 106.057 739.907 105.708 742.192 105.654V114.215ZM742.192 104.146C739.759 104.202 737.348 104.584 735.037 105.28C734.52 103.295 734.237 101.267 734.193 99.2282H742.191L742.192 104.146ZM742.192 97.7694H734.198C734.242 95.7307 734.525 93.7022 735.042 91.7181C737.353 92.4137 739.764 92.7958 742.198 92.8521L742.192 97.7694ZM742.192 91.35C739.907 91.2954 737.641 90.9463 735.463 90.3131C736.878 86.1487 739.34 83.2501 742.192 82.7885V91.35ZM755.157 88.28C754.137 88.9125 753.044 89.443 751.898 89.8624C751.175 87.5453 749.904 85.3993 748.175 83.5737C750.937 84.5276 753.355 86.1573 755.161 88.2824M743.802 82.7897C746.656 83.2513 749.118 86.1463 750.531 90.3143C748.354 90.9475 746.088 91.2966 743.802 91.3512V82.7897ZM743.802 92.8593C746.236 92.8029 748.647 92.4208 750.958 91.7252C751.474 93.7094 751.757 95.738 751.801 97.7766H743.802V92.8593ZM743.802 99.2354H751.801C751.757 101.274 751.474 103.303 750.958 105.287C748.647 104.589 746.236 104.205 743.802 104.147V99.2354ZM743.802 114.22V105.649C746.088 105.703 748.354 106.052 750.531 106.686C749.117 110.85 746.655 113.749 743.802 114.21M748.176 113.426C749.905 111.601 751.176 109.455 751.9 107.138C753.047 107.556 754.141 108.086 755.163 108.719C753.357 110.844 750.939 112.472 748.176 113.426ZM756.024 107.626C754.88 106.868 753.64 106.238 752.33 105.749C752.906 103.614 753.22 101.428 753.267 99.2294H758.949C758.824 102.215 757.813 105.114 756.026 107.621M753.264 97.7742C753.218 95.5761 752.904 93.3894 752.327 91.2541C753.637 90.7656 754.877 90.1357 756.022 89.3781C757.809 91.8853 758.82 94.7842 758.946 97.7694L753.264 97.7742Z" fill="white"/>
<path d="M771 98.853L766.328 94.5099L761.657 98.853L762.623 99.5507L765.412 96.9554C765.457 97.4853 765.479 97.9827 765.479 98.4598C765.479 110.118 755.413 119.601 743.049 119.601C738.201 119.539 733.504 118.062 729.651 115.388C725.798 112.715 722.993 108.986 721.651 104.753L720.242 106.064C721.87 110.392 724.938 114.155 729.021 116.831C733.105 119.507 738.003 120.964 743.038 121C749.54 120.925 755.744 118.51 760.29 114.285C764.835 110.061 767.351 104.371 767.286 98.4634C767.286 97.9839 767.263 97.4781 767.217 96.9374L770.032 99.5543L771 98.853Z" fill="white"/>
<path d="M723.378 97.6663L720.674 100.186C720.621 99.6035 720.594 99.0592 720.594 98.5414C720.594 86.8835 730.661 77.4001 743.025 77.4001C747.874 77.4614 752.572 78.9379 756.426 81.6116C760.28 84.2853 763.086 88.0144 764.428 92.2479L765.837 90.9377C764.209 86.6069 761.14 82.843 757.054 80.1668C752.968 77.4907 748.067 76.0345 743.03 76C736.528 76.0752 730.324 78.4899 725.779 82.7146C721.234 86.9393 718.718 92.6291 718.783 98.5366C718.783 99.1132 718.815 99.7113 718.879 100.372L715.966 97.6663L715 98.3651L719.673 102.708L724.344 98.3651L723.378 97.6663Z" fill="white"/>
</g>
<defs>
<clipPath id="clip0_168_245">
<rect width="56" height="45" fill="white" transform="translate(715 76)"/>
</clipPath>
</defs>
</svg>
