<svg width="950" height="950" viewBox="0 0 950 950" fill="none" xmlns="http://www.w3.org/2000/svg">
<path d="M40.995 500V463.636H54.3118C56.8923 463.636 59.0289 464.062 60.7216 464.915C62.4143 465.755 63.6809 466.897 64.5213 468.342C65.3617 469.774 65.782 471.39 65.782 473.189C65.782 474.704 65.5038 475.982 64.9474 477.024C64.3911 478.054 63.6454 478.883 62.7102 479.51C61.7869 480.125 60.7689 480.575 59.6562 480.859V481.214C60.8636 481.274 62.0414 481.664 63.1896 482.386C64.3497 483.097 65.3085 484.109 66.0661 485.423C66.8236 486.737 67.2024 488.335 67.2024 490.217C67.2024 492.075 66.7644 493.744 65.8885 495.224C65.0244 496.692 63.6868 497.857 61.8757 498.722C60.0646 499.574 57.7505 500 54.9332 500H40.995ZM46.4815 495.295H54.4006C57.0284 495.295 58.9105 494.786 60.0469 493.768C61.1832 492.75 61.7514 491.477 61.7514 489.95C61.7514 488.802 61.4614 487.749 60.8814 486.79C60.3014 485.831 59.4728 485.067 58.3956 484.499C57.3303 483.931 56.0637 483.647 54.5959 483.647H46.4815V495.295ZM46.4815 479.368H53.8324C55.0634 479.368 56.1702 479.131 57.1527 478.658C58.147 478.184 58.9342 477.521 59.5142 476.669C60.1061 475.805 60.402 474.787 60.402 473.615C60.402 472.112 59.8752 470.851 58.8217 469.833C57.7682 468.815 56.1525 468.306 53.9744 468.306H46.4815V479.368ZM81.2205 500.604C79.4923 500.604 77.9298 500.284 76.533 499.645C75.1362 498.994 74.0295 498.053 73.2127 496.822C72.4078 495.591 72.0053 494.081 72.0053 492.294C72.0053 490.755 72.3013 489.489 72.8931 488.494C73.485 487.5 74.284 486.713 75.2901 486.133C76.2963 485.553 77.4208 485.115 78.6637 484.819C79.9066 484.523 81.1732 484.298 82.4634 484.144C84.0969 483.955 85.4227 483.801 86.4407 483.683C87.4587 483.552 88.1985 483.345 88.6602 483.061C89.1218 482.777 89.3526 482.315 89.3526 481.676V481.552C89.3526 480.001 88.9147 478.8 88.0387 477.947C87.1746 477.095 85.8844 476.669 84.168 476.669C82.3806 476.669 80.9719 477.066 79.9421 477.859C78.9241 478.64 78.2198 479.51 77.8292 480.469L72.8398 479.332C73.4317 477.675 74.2958 476.338 75.4322 475.32C76.5804 474.29 77.9002 473.544 79.3917 473.082C80.8832 472.609 82.4516 472.372 84.0969 472.372C85.186 472.372 86.3401 472.502 87.5593 472.763C88.7904 473.011 89.9386 473.473 91.0039 474.148C92.0811 474.822 92.9629 475.787 93.6495 477.042C94.3361 478.285 94.6793 479.901 94.6793 481.889V500H89.4947V496.271H89.2816C88.9383 496.958 88.4234 497.633 87.7369 498.295C87.0503 498.958 86.1684 499.509 85.0913 499.947C84.0141 500.385 82.7238 500.604 81.2205 500.604ZM82.3746 496.342C83.8424 496.342 85.0972 496.052 86.1388 495.472C87.1924 494.892 87.9914 494.135 88.5359 493.2C89.0922 492.253 89.3704 491.241 89.3704 490.163V486.648C89.181 486.837 88.814 487.015 88.2695 487.18C87.7369 487.334 87.1272 487.47 86.4407 487.589C85.7541 487.695 85.0853 487.796 84.4343 487.891C83.7833 487.973 83.2388 488.045 82.8008 488.104C81.771 488.234 80.8299 488.453 79.9776 488.761C79.1372 489.068 78.4625 489.512 77.9535 490.092C77.4563 490.661 77.2077 491.418 77.2077 492.365C77.2077 493.679 77.6931 494.673 78.6637 495.348C79.6344 496.011 80.8713 496.342 82.3746 496.342ZM102.177 500V463.636H107.486V477.148H107.805C108.113 476.58 108.557 475.923 109.137 475.178C109.717 474.432 110.522 473.781 111.552 473.224C112.581 472.656 113.943 472.372 115.635 472.372C117.837 472.372 119.802 472.929 121.53 474.041C123.259 475.154 124.614 476.758 125.596 478.853C126.591 480.948 127.088 483.469 127.088 486.417C127.088 489.364 126.597 491.892 125.614 493.999C124.632 496.094 123.282 497.71 121.566 498.846C119.849 499.97 117.89 500.533 115.689 500.533C114.032 500.533 112.676 500.254 111.623 499.698C110.581 499.142 109.764 498.491 109.172 497.745C108.581 496.999 108.125 496.336 107.805 495.756H107.361V500H102.177ZM107.379 486.364C107.379 488.281 107.657 489.962 108.214 491.406C108.77 492.85 109.575 493.981 110.628 494.798C111.682 495.603 112.972 496.005 114.499 496.005C116.085 496.005 117.411 495.585 118.476 494.744C119.542 493.892 120.347 492.738 120.891 491.282C121.448 489.826 121.726 488.187 121.726 486.364C121.726 484.564 121.453 482.949 120.909 481.516C120.376 480.084 119.571 478.954 118.494 478.125C117.429 477.296 116.097 476.882 114.499 476.882C112.96 476.882 111.658 477.279 110.593 478.072C109.539 478.865 108.74 479.972 108.196 481.392C107.651 482.812 107.379 484.47 107.379 486.364ZM135.477 510.227C134.684 510.227 133.962 510.162 133.311 510.032C132.66 509.914 132.175 509.783 131.855 509.641L133.134 505.291C134.104 505.552 134.968 505.664 135.726 505.629C136.484 505.593 137.152 505.309 137.732 504.776C138.324 504.244 138.845 503.374 139.295 502.166L139.952 500.355L129.973 472.727H135.655L142.562 493.892H142.846L149.753 472.727H155.453L144.213 503.64C143.692 505.06 143.03 506.262 142.225 507.244C141.42 508.239 140.461 508.984 139.348 509.482C138.235 509.979 136.945 510.227 135.477 510.227ZM166.714 463.636V467.045C166.714 468.052 166.525 469.111 166.146 470.224C165.779 471.325 165.258 472.384 164.583 473.402C163.909 474.42 163.116 475.296 162.204 476.03L159.576 474.148C160.275 473.13 160.878 472.047 161.387 470.898C161.908 469.75 162.169 468.484 162.169 467.099V463.636H166.714ZM188.838 479.386L184.026 480.238C183.825 479.622 183.505 479.036 183.067 478.48C182.641 477.924 182.061 477.468 181.327 477.113C180.593 476.758 179.676 476.58 178.575 476.58C177.072 476.58 175.817 476.918 174.811 477.592C173.805 478.255 173.301 479.113 173.301 480.167C173.301 481.078 173.639 481.812 174.314 482.369C174.988 482.925 176.077 483.381 177.581 483.736L181.913 484.73C184.422 485.31 186.293 486.204 187.524 487.411C188.755 488.619 189.37 490.187 189.37 492.116C189.37 493.75 188.897 495.206 187.95 496.484C187.015 497.751 185.707 498.745 184.026 499.467C182.357 500.189 180.422 500.55 178.22 500.55C175.166 500.55 172.674 499.899 170.745 498.597C168.815 497.283 167.632 495.419 167.194 493.004L172.325 492.223C172.645 493.561 173.301 494.573 174.296 495.259C175.29 495.934 176.586 496.271 178.184 496.271C179.924 496.271 181.315 495.91 182.357 495.188C183.399 494.454 183.919 493.561 183.919 492.507C183.919 491.655 183.6 490.939 182.961 490.359C182.333 489.779 181.368 489.341 180.066 489.045L175.45 488.033C172.905 487.453 171.023 486.529 169.804 485.263C168.596 483.996 167.993 482.392 167.993 480.451C167.993 478.841 168.442 477.433 169.342 476.225C170.242 475.018 171.484 474.077 173.071 473.402C174.657 472.715 176.474 472.372 178.522 472.372C181.469 472.372 183.789 473.011 185.482 474.29C187.175 475.556 188.293 477.255 188.838 479.386ZM208.866 500V463.636H231.416V468.359H214.353V479.439H229.8V484.144H214.353V500H208.866ZM237.737 500V472.727H243.046V500H237.737ZM240.418 468.519C239.495 468.519 238.702 468.211 238.039 467.596C237.388 466.969 237.062 466.223 237.062 465.359C237.062 464.483 237.388 463.737 238.039 463.121C238.702 462.494 239.495 462.18 240.418 462.18C241.341 462.18 242.128 462.494 242.779 463.121C243.442 463.737 243.774 464.483 243.774 465.359C243.774 466.223 243.442 466.969 242.779 467.596C242.128 468.211 241.341 468.519 240.418 468.519ZM250.188 500V472.727H255.319V477.06H255.604C256.101 475.592 256.977 474.438 258.231 473.597C259.498 472.745 260.93 472.319 262.528 472.319C262.86 472.319 263.25 472.331 263.7 472.354C264.162 472.378 264.523 472.408 264.783 472.443V477.521C264.57 477.462 264.191 477.397 263.647 477.326C263.102 477.243 262.558 477.202 262.013 477.202C260.759 477.202 259.64 477.468 258.657 478.001C257.687 478.522 256.917 479.25 256.349 480.185C255.781 481.108 255.497 482.161 255.497 483.345V500H250.188ZM289.814 479.386L285.002 480.238C284.801 479.622 284.482 479.036 284.044 478.48C283.618 477.924 283.038 477.468 282.304 477.113C281.57 476.758 280.652 476.58 279.551 476.58C278.048 476.58 276.793 476.918 275.787 477.592C274.781 478.255 274.278 479.113 274.278 480.167C274.278 481.078 274.615 481.812 275.29 482.369C275.965 482.925 277.054 483.381 278.557 483.736L282.89 484.73C285.399 485.31 287.269 486.204 288.5 487.411C289.731 488.619 290.347 490.187 290.347 492.116C290.347 493.75 289.873 495.206 288.926 496.484C287.991 497.751 286.683 498.745 285.002 499.467C283.333 500.189 281.398 500.55 279.196 500.55C276.142 500.55 273.651 499.899 271.721 498.597C269.792 497.283 268.608 495.419 268.17 493.004L273.301 492.223C273.621 493.561 274.278 494.573 275.272 495.259C276.267 495.934 277.563 496.271 279.161 496.271C280.901 496.271 282.292 495.91 283.333 495.188C284.375 494.454 284.896 493.561 284.896 492.507C284.896 491.655 284.576 490.939 283.937 490.359C283.31 489.779 282.345 489.341 281.043 489.045L276.426 488.033C273.882 487.453 271.999 486.529 270.78 485.263C269.573 483.996 268.969 482.392 268.969 480.451C268.969 478.841 269.419 477.433 270.319 476.225C271.218 475.018 272.461 474.077 274.047 473.402C275.633 472.715 277.45 472.372 279.498 472.372C282.446 472.372 284.766 473.011 286.458 474.29C288.151 475.556 289.27 477.255 289.814 479.386ZM308.915 472.727V476.989H294.018V472.727H308.915ZM298.013 466.193H303.322V491.992C303.322 493.022 303.476 493.797 303.784 494.318C304.091 494.827 304.488 495.176 304.973 495.366C305.47 495.543 306.009 495.632 306.589 495.632C307.015 495.632 307.388 495.603 307.708 495.543C308.027 495.484 308.276 495.437 308.453 495.401L309.412 499.787C309.104 499.905 308.666 500.024 308.098 500.142C307.53 500.272 306.82 500.343 305.968 500.355C304.571 500.379 303.269 500.13 302.061 499.609C300.854 499.089 299.877 498.284 299.132 497.195C298.386 496.106 298.013 494.738 298.013 493.093V466.193ZM348.279 473.189C348.09 471.508 347.309 470.206 345.936 469.283C344.562 468.348 342.834 467.88 340.751 467.88C339.259 467.88 337.969 468.117 336.88 468.59C335.791 469.052 334.945 469.691 334.341 470.508C333.749 471.313 333.453 472.23 333.453 473.26C333.453 474.124 333.655 474.87 334.057 475.497C334.471 476.125 335.01 476.651 335.673 477.077C336.347 477.492 337.07 477.841 337.839 478.125C338.608 478.397 339.348 478.622 340.058 478.8L343.61 479.723C344.77 480.007 345.959 480.392 347.178 480.877C348.398 481.362 349.528 482.002 350.57 482.795C351.611 483.588 352.452 484.57 353.091 485.742C353.742 486.914 354.068 488.317 354.068 489.95C354.068 492.01 353.535 493.839 352.47 495.437C351.416 497.035 349.883 498.295 347.871 499.219C345.87 500.142 343.45 500.604 340.609 500.604C337.886 500.604 335.531 500.172 333.542 499.308C331.553 498.443 329.997 497.218 328.872 495.632C327.748 494.034 327.126 492.14 327.008 489.95H332.512C332.619 491.264 333.045 492.359 333.791 493.235C334.548 494.099 335.513 494.744 336.685 495.17C337.869 495.585 339.165 495.792 340.573 495.792C342.124 495.792 343.503 495.549 344.71 495.064C345.93 494.567 346.888 493.88 347.587 493.004C348.285 492.116 348.634 491.081 348.634 489.897C348.634 488.82 348.327 487.938 347.711 487.251C347.107 486.565 346.285 485.997 345.243 485.547C344.213 485.097 343.047 484.701 341.745 484.357L337.448 483.185C334.536 482.392 332.228 481.226 330.524 479.688C328.831 478.149 327.985 476.113 327.985 473.58C327.985 471.484 328.553 469.656 329.689 468.093C330.825 466.531 332.364 465.317 334.306 464.453C336.247 463.577 338.437 463.139 340.875 463.139C343.337 463.139 345.509 463.571 347.392 464.435C349.285 465.299 350.777 466.489 351.866 468.004C352.955 469.508 353.523 471.236 353.57 473.189H348.279ZM360.198 510.227V472.727H365.382V477.148H365.826C366.134 476.58 366.578 475.923 367.158 475.178C367.738 474.432 368.543 473.781 369.573 473.224C370.603 472.656 371.964 472.372 373.657 472.372C375.858 472.372 377.823 472.929 379.551 474.041C381.28 475.154 382.635 476.758 383.618 478.853C384.612 480.948 385.109 483.469 385.109 486.417C385.109 489.364 384.618 491.892 383.635 493.999C382.653 496.094 381.303 497.71 379.587 498.846C377.871 499.97 375.912 500.533 373.71 500.533C372.053 500.533 370.697 500.254 369.644 499.698C368.602 499.142 367.785 498.491 367.194 497.745C366.602 496.999 366.146 496.336 365.826 495.756H365.507V510.227H360.198ZM365.4 486.364C365.4 488.281 365.678 489.962 366.235 491.406C366.791 492.85 367.596 493.981 368.65 494.798C369.703 495.603 370.993 496.005 372.52 496.005C374.106 496.005 375.432 495.585 376.498 494.744C377.563 493.892 378.368 492.738 378.912 491.282C379.469 489.826 379.747 488.187 379.747 486.364C379.747 484.564 379.475 482.949 378.93 481.516C378.397 480.084 377.592 478.954 376.515 478.125C375.45 477.296 374.118 476.882 372.52 476.882C370.981 476.882 369.679 477.279 368.614 478.072C367.56 478.865 366.761 479.972 366.217 481.392C365.672 482.812 365.4 484.47 365.4 486.364ZM391.057 500V472.727H396.189V477.06H396.473C396.97 475.592 397.846 474.438 399.1 473.597C400.367 472.745 401.799 472.319 403.397 472.319C403.729 472.319 404.119 472.331 404.569 472.354C405.031 472.378 405.392 472.408 405.652 472.443V477.521C405.439 477.462 405.06 477.397 404.516 477.326C403.971 477.243 403.427 477.202 402.882 477.202C401.628 477.202 400.509 477.468 399.527 478.001C398.556 478.522 397.787 479.25 397.218 480.185C396.65 481.108 396.366 482.161 396.366 483.345V500H391.057ZM410.247 500V472.727H415.556V500H410.247ZM412.928 468.519C412.004 468.519 411.211 468.211 410.548 467.596C409.897 466.969 409.572 466.223 409.572 465.359C409.572 464.483 409.897 463.737 410.548 463.121C411.211 462.494 412.004 462.18 412.928 462.18C413.851 462.18 414.638 462.494 415.289 463.121C415.952 463.737 416.284 464.483 416.284 465.359C416.284 466.223 415.952 466.969 415.289 467.596C414.638 468.211 413.851 468.519 412.928 468.519ZM428.007 483.807V500H422.698V472.727H427.794V477.166H428.131C428.758 475.722 429.741 474.562 431.078 473.686C432.428 472.81 434.127 472.372 436.174 472.372C438.033 472.372 439.66 472.763 441.057 473.544C442.454 474.313 443.537 475.462 444.306 476.989C445.076 478.516 445.461 480.404 445.461 482.653V500H440.152V483.292C440.152 481.315 439.637 479.77 438.607 478.658C437.577 477.533 436.163 476.971 434.363 476.971C433.132 476.971 432.037 477.237 431.078 477.77C430.132 478.303 429.38 479.084 428.824 480.114C428.279 481.132 428.007 482.363 428.007 483.807ZM464.015 510.795C461.849 510.795 459.985 510.511 458.422 509.943C456.872 509.375 455.605 508.623 454.623 507.688C453.64 506.753 452.906 505.729 452.421 504.616L456.984 502.734C457.304 503.255 457.73 503.806 458.262 504.386C458.807 504.978 459.541 505.481 460.464 505.895C461.399 506.309 462.601 506.516 464.069 506.516C466.081 506.516 467.744 506.025 469.058 505.043C470.372 504.072 471.029 502.521 471.029 500.391V495.028H470.691C470.372 495.608 469.91 496.254 469.306 496.964C468.715 497.674 467.898 498.29 466.856 498.81C465.815 499.331 464.459 499.592 462.79 499.592C460.636 499.592 458.694 499.089 456.966 498.082C455.25 497.064 453.889 495.567 452.882 493.59C451.888 491.602 451.391 489.157 451.391 486.257C451.391 483.357 451.882 480.871 452.865 478.8C453.859 476.728 455.22 475.142 456.949 474.041C458.677 472.929 460.636 472.372 462.826 472.372C464.518 472.372 465.886 472.656 466.927 473.224C467.969 473.781 468.78 474.432 469.36 475.178C469.952 475.923 470.407 476.58 470.727 477.148H471.118V472.727H476.32V500.604C476.32 502.947 475.775 504.871 474.686 506.374C473.597 507.878 472.124 508.99 470.265 509.712C468.419 510.434 466.335 510.795 464.015 510.795ZM463.962 495.188C465.489 495.188 466.779 494.833 467.833 494.123C468.898 493.401 469.703 492.371 470.248 491.033C470.804 489.684 471.082 488.068 471.082 486.186C471.082 484.351 470.81 482.736 470.265 481.339C469.721 479.942 468.922 478.853 467.868 478.072C466.815 477.279 465.513 476.882 463.962 476.882C462.364 476.882 461.032 477.296 459.967 478.125C458.902 478.942 458.097 480.054 457.552 481.463C457.02 482.872 456.753 484.446 456.753 486.186C456.753 487.973 457.025 489.542 457.57 490.891C458.114 492.241 458.919 493.294 459.985 494.052C461.062 494.809 462.388 495.188 463.962 495.188Z" fill="white"/>
<path d="M38.7614 793V778.455H43.8466C44.8598 778.455 45.6955 778.63 46.3537 778.98C47.0118 779.326 47.5019 779.792 47.8239 780.379C48.1458 780.962 48.3068 781.608 48.3068 782.318C48.3068 782.943 48.1955 783.459 47.973 783.866C47.7552 784.274 47.4664 784.596 47.1065 784.832C46.7514 785.069 46.3655 785.244 45.9489 785.358V785.5C46.3939 785.528 46.8414 785.685 47.2912 785.969C47.741 786.253 48.1174 786.66 48.4205 787.19C48.7235 787.721 48.875 788.369 48.875 789.136C48.875 789.866 48.7093 790.521 48.3778 791.104C48.0464 791.686 47.5232 792.148 46.8082 792.489C46.0933 792.83 45.1629 793 44.017 793H38.7614ZM40.5227 791.438H44.017C45.1676 791.438 45.9844 791.215 46.4673 790.77C46.955 790.32 47.1989 789.776 47.1989 789.136C47.1989 788.644 47.0734 788.189 46.8224 787.773C46.5715 787.351 46.214 787.015 45.75 786.764C45.286 786.509 44.7367 786.381 44.1023 786.381H40.5227V791.438ZM40.5227 784.847H43.7898C44.3201 784.847 44.7983 784.742 45.2244 784.534C45.6553 784.326 45.9962 784.032 46.2472 783.653C46.5028 783.275 46.6307 782.83 46.6307 782.318C46.6307 781.679 46.4081 781.137 45.9631 780.692C45.518 780.242 44.8125 780.017 43.8466 780.017H40.5227V784.847ZM56.1158 793.227C55.0646 793.227 54.1579 792.995 53.3956 792.531C52.638 792.062 52.0533 791.409 51.6413 790.571C51.2341 789.728 51.0305 788.748 51.0305 787.631C51.0305 786.513 51.2341 785.528 51.6413 784.676C52.0533 783.819 52.6262 783.152 53.3601 782.673C54.0987 782.19 54.9605 781.949 55.9453 781.949C56.5135 781.949 57.0746 782.044 57.6286 782.233C58.1825 782.422 58.6868 782.73 59.1413 783.156C59.5959 783.578 59.9581 784.136 60.228 784.832C60.4979 785.528 60.6328 786.385 60.6328 787.403V788.114H52.2237V786.665H58.9283C58.9283 786.049 58.8052 785.5 58.5589 785.017C58.3175 784.534 57.9718 784.153 57.522 783.874C57.0769 783.594 56.5514 783.455 55.9453 783.455C55.2777 783.455 54.7 783.62 54.2124 783.952C53.7294 784.278 53.3577 784.705 53.0973 785.23C52.8369 785.756 52.7067 786.319 52.7067 786.92V787.886C52.7067 788.71 52.8487 789.409 53.1328 789.982C53.4216 790.55 53.8217 790.983 54.3331 791.281C54.8445 791.575 55.4387 791.722 56.1158 791.722C56.5561 791.722 56.9538 791.66 57.3089 791.537C57.6688 791.409 57.9789 791.22 58.2393 790.969C58.4998 790.713 58.701 790.396 58.843 790.017L60.4624 790.472C60.2919 791.021 60.0054 791.504 59.603 791.92C59.2005 792.332 58.7034 792.654 58.1115 792.886C57.5196 793.114 56.8544 793.227 56.1158 793.227ZM63.4098 793V778.455H65.0859V783.824H65.228C65.3511 783.634 65.5215 783.393 65.7393 783.099C65.9619 782.801 66.2791 782.536 66.6911 782.304C67.1077 782.067 67.6712 781.949 68.3814 781.949C69.3 781.949 70.1096 782.179 70.8104 782.638C71.5111 783.097 72.058 783.748 72.451 784.591C72.844 785.434 73.0405 786.428 73.0405 787.574C73.0405 788.729 72.844 789.731 72.451 790.578C72.058 791.421 71.5135 792.074 70.8175 792.538C70.1214 792.998 69.3189 793.227 68.4098 793.227C67.709 793.227 67.148 793.111 66.7266 792.879C66.3052 792.643 65.9808 792.375 65.7536 792.077C65.5263 791.774 65.3511 791.523 65.228 791.324H65.0291V793H63.4098ZM65.0575 787.545C65.0575 788.369 65.1783 789.096 65.4197 789.726C65.6612 790.351 66.014 790.841 66.478 791.196C66.942 791.546 67.5102 791.722 68.1825 791.722C68.8833 791.722 69.468 791.537 69.9368 791.168C70.4103 790.794 70.7654 790.292 71.0021 789.662C71.2436 789.027 71.3643 788.322 71.3643 787.545C71.3643 786.778 71.246 786.087 71.0092 785.472C70.7772 784.851 70.4245 784.361 69.951 784.001C69.4822 783.637 68.8928 783.455 68.1825 783.455C67.5007 783.455 66.9278 783.627 66.4638 783.973C65.9998 784.314 65.6494 784.792 65.4126 785.408C65.1759 786.018 65.0575 786.731 65.0575 787.545ZM80.1783 793.227C79.1271 793.227 78.2204 792.995 77.4581 792.531C76.7005 792.062 76.1158 791.409 75.7038 790.571C75.2966 789.728 75.093 788.748 75.093 787.631C75.093 786.513 75.2966 785.528 75.7038 784.676C76.1158 783.819 76.6887 783.152 77.4226 782.673C78.1612 782.19 79.023 781.949 80.0078 781.949C80.576 781.949 81.1371 782.044 81.6911 782.233C82.245 782.422 82.7493 782.73 83.2038 783.156C83.6584 783.578 84.0206 784.136 84.2905 784.832C84.5604 785.528 84.6953 786.385 84.6953 787.403V788.114H76.2862V786.665H82.9908C82.9908 786.049 82.8677 785.5 82.6214 785.017C82.38 784.534 82.0343 784.153 81.5845 783.874C81.1394 783.594 80.6139 783.455 80.0078 783.455C79.3402 783.455 78.7625 783.62 78.2749 783.952C77.7919 784.278 77.4202 784.705 77.1598 785.23C76.8994 785.756 76.7692 786.319 76.7692 786.92V787.886C76.7692 788.71 76.9112 789.409 77.1953 789.982C77.4841 790.55 77.8842 790.983 78.3956 791.281C78.907 791.575 79.5012 791.722 80.1783 791.722C80.6186 791.722 81.0163 791.66 81.3714 791.537C81.7313 791.409 82.0414 791.22 82.3018 790.969C82.5623 790.713 82.7635 790.396 82.9055 790.017L84.5249 790.472C84.3544 791.021 84.0679 791.504 83.6655 791.92C83.263 792.332 82.7659 792.654 82.174 792.886C81.5821 793.114 80.9169 793.227 80.1783 793.227ZM88.8075 789.023L88.7791 786.949H89.12L93.8928 782.091H95.9666L90.8814 787.233H90.7393L88.8075 789.023ZM87.245 793V778.455H88.9212V793H87.245ZM94.1768 793L89.9155 787.602L91.1087 786.438L96.3075 793H94.1768ZM105.311 789.023L105.283 786.949H105.624L110.397 782.091H112.471L107.385 787.233H107.243L105.311 789.023ZM103.749 793V778.455H105.425V793H103.749ZM110.681 793L106.419 787.602L107.613 786.438L112.811 793H110.681ZM118.61 793.227C117.626 793.227 116.761 792.993 116.018 792.524C115.279 792.055 114.702 791.4 114.285 790.557C113.873 789.714 113.667 788.729 113.667 787.602C113.667 786.466 113.873 785.474 114.285 784.626C114.702 783.779 115.279 783.121 116.018 782.652C116.761 782.183 117.626 781.949 118.61 781.949C119.595 781.949 120.457 782.183 121.196 782.652C121.939 783.121 122.517 783.779 122.929 784.626C123.345 785.474 123.554 786.466 123.554 787.602C123.554 788.729 123.345 789.714 122.929 790.557C122.517 791.4 121.939 792.055 121.196 792.524C120.457 792.993 119.595 793.227 118.61 793.227ZM118.61 791.722C119.359 791.722 119.974 791.53 120.457 791.146C120.94 790.763 121.297 790.259 121.529 789.634C121.761 789.009 121.877 788.331 121.877 787.602C121.877 786.873 121.761 786.194 121.529 785.564C121.297 784.934 120.94 784.425 120.457 784.037C119.974 783.649 119.359 783.455 118.61 783.455C117.862 783.455 117.247 783.649 116.764 784.037C116.281 784.425 115.923 784.934 115.691 785.564C115.459 786.194 115.343 786.873 115.343 787.602C115.343 788.331 115.459 789.009 115.691 789.634C115.923 790.259 116.281 790.763 116.764 791.146C117.247 791.53 117.862 791.722 118.61 791.722ZM127.788 778.455V793H126.112V778.455H127.788ZM135.432 793.227C134.381 793.227 133.474 792.995 132.712 792.531C131.954 792.062 131.37 791.409 130.958 790.571C130.551 789.728 130.347 788.748 130.347 787.631C130.347 786.513 130.551 785.528 130.958 784.676C131.37 783.819 131.943 783.152 132.676 782.673C133.415 782.19 134.277 781.949 135.262 781.949C135.83 781.949 136.391 782.044 136.945 782.233C137.499 782.422 138.003 782.73 138.458 783.156C138.912 783.578 139.275 784.136 139.544 784.832C139.814 785.528 139.949 786.385 139.949 787.403V788.114H131.54V786.665H138.245C138.245 786.049 138.122 785.5 137.875 785.017C137.634 784.534 137.288 784.153 136.838 783.874C136.393 783.594 135.868 783.455 135.262 783.455C134.594 783.455 134.016 783.62 133.529 783.952C133.046 784.278 132.674 784.705 132.414 785.23C132.153 785.756 132.023 786.319 132.023 786.92V787.886C132.023 788.71 132.165 789.409 132.449 789.982C132.738 790.55 133.138 790.983 133.65 791.281C134.161 791.575 134.755 791.722 135.432 791.722C135.873 791.722 136.27 791.66 136.625 791.537C136.985 791.409 137.295 791.22 137.556 790.969C137.816 790.713 138.017 790.396 138.159 790.017L139.779 790.472C139.608 791.021 139.322 791.504 138.919 791.92C138.517 792.332 138.02 792.654 137.428 792.886C136.836 793.114 136.171 793.227 135.432 793.227ZM144.061 789.023L144.033 786.949H144.374L149.147 782.091H151.221L146.135 787.233H145.993L144.061 789.023ZM142.499 793V778.455H144.175V793H142.499ZM149.431 793L145.169 787.602L146.363 786.438L151.561 793H149.431ZM161.105 784.534L159.599 784.96C159.505 784.709 159.365 784.465 159.18 784.229C159 783.987 158.754 783.788 158.442 783.632C158.129 783.476 157.729 783.398 157.241 783.398C156.574 783.398 156.018 783.552 155.572 783.859C155.132 784.162 154.912 784.548 154.912 785.017C154.912 785.434 155.063 785.763 155.366 786.004C155.67 786.246 156.143 786.447 156.787 786.608L158.406 787.006C159.382 787.242 160.108 787.605 160.587 788.092C161.065 788.575 161.304 789.198 161.304 789.96C161.304 790.585 161.124 791.144 160.764 791.636C160.409 792.129 159.912 792.517 159.273 792.801C158.634 793.085 157.89 793.227 157.043 793.227C155.93 793.227 155.009 792.986 154.28 792.503C153.551 792.02 153.089 791.314 152.895 790.386L154.486 789.989C154.637 790.576 154.924 791.016 155.345 791.31C155.771 791.603 156.328 791.75 157.014 791.75C157.795 791.75 158.416 791.584 158.875 791.253C159.339 790.917 159.571 790.514 159.571 790.045C159.571 789.667 159.438 789.349 159.173 789.094C158.908 788.833 158.501 788.639 157.952 788.511L156.134 788.085C155.134 787.848 154.401 787.482 153.932 786.984C153.468 786.482 153.236 785.855 153.236 785.102C153.236 784.487 153.409 783.942 153.754 783.469C154.105 782.995 154.58 782.624 155.182 782.354C155.788 782.084 156.474 781.949 157.241 781.949C158.321 781.949 159.169 782.186 159.784 782.659C160.404 783.133 160.845 783.758 161.105 784.534ZM163.827 793V782.091H165.503V793H163.827ZM164.679 780.273C164.353 780.273 164.071 780.161 163.834 779.939C163.602 779.716 163.486 779.449 163.486 779.136C163.486 778.824 163.602 778.556 163.834 778.334C164.071 778.111 164.353 778 164.679 778C165.006 778 165.285 778.111 165.517 778.334C165.754 778.556 165.873 778.824 165.873 779.136C165.873 779.449 165.754 779.716 165.517 779.939C165.285 780.161 165.006 780.273 164.679 780.273ZM169.653 797.091C169.369 797.091 169.115 797.067 168.893 797.02C168.67 796.977 168.516 796.935 168.431 796.892L168.857 795.415C169.264 795.519 169.624 795.557 169.937 795.528C170.249 795.5 170.526 795.36 170.768 795.109C171.014 794.863 171.239 794.463 171.442 793.909L171.755 793.057L167.721 782.091H169.539L172.55 790.784H172.664L175.675 782.091H177.494L172.863 794.591C172.655 795.154 172.397 795.621 172.089 795.99C171.781 796.364 171.424 796.641 171.016 796.821C170.614 797.001 170.159 797.091 169.653 797.091ZM183.747 793.227C182.762 793.227 181.898 792.993 181.155 792.524C180.416 792.055 179.839 791.4 179.422 790.557C179.01 789.714 178.804 788.729 178.804 787.602C178.804 786.466 179.01 785.474 179.422 784.626C179.839 783.779 180.416 783.121 181.155 782.652C181.898 782.183 182.762 781.949 183.747 781.949C184.732 781.949 185.594 782.183 186.332 782.652C187.076 783.121 187.653 783.779 188.065 784.626C188.482 785.474 188.69 786.466 188.69 787.602C188.69 788.729 188.482 789.714 188.065 790.557C187.653 791.4 187.076 792.055 186.332 792.524C185.594 792.993 184.732 793.227 183.747 793.227ZM183.747 791.722C184.495 791.722 185.111 791.53 185.594 791.146C186.077 790.763 186.434 790.259 186.666 789.634C186.898 789.009 187.014 788.331 187.014 787.602C187.014 786.873 186.898 786.194 186.666 785.564C186.434 784.934 186.077 784.425 185.594 784.037C185.111 783.649 184.495 783.455 183.747 783.455C182.999 783.455 182.384 783.649 181.901 784.037C181.418 784.425 181.06 784.934 180.828 785.564C180.596 786.194 180.48 786.873 180.48 787.602C180.48 788.331 180.596 789.009 180.828 789.634C181.06 790.259 181.418 790.763 181.901 791.146C182.384 791.53 182.999 791.722 183.747 791.722ZM192.925 786.438V793H191.249V782.091H192.868V783.795H193.01C193.266 783.241 193.654 782.796 194.175 782.46C194.696 782.119 195.368 781.949 196.192 781.949C196.931 781.949 197.577 782.1 198.131 782.403C198.685 782.702 199.116 783.156 199.424 783.767C199.731 784.373 199.885 785.14 199.885 786.068V793H198.209V786.182C198.209 785.325 197.987 784.657 197.542 784.179C197.096 783.696 196.486 783.455 195.709 783.455C195.174 783.455 194.696 783.571 194.275 783.803C193.858 784.035 193.529 784.373 193.287 784.818C193.046 785.263 192.925 785.803 192.925 786.438ZM209.823 788.54V782.091H211.499V793H209.823V791.153H209.71C209.454 791.707 209.056 792.179 208.516 792.567C207.977 792.95 207.295 793.142 206.471 793.142C205.789 793.142 205.183 792.993 204.653 792.695C204.122 792.392 203.706 791.937 203.403 791.331C203.1 790.72 202.948 789.951 202.948 789.023V782.091H204.624V788.909C204.624 789.705 204.847 790.339 205.292 790.812C205.742 791.286 206.315 791.523 207.011 791.523C207.427 791.523 207.851 791.416 208.282 791.203C208.718 790.99 209.082 790.663 209.376 790.223C209.674 789.783 209.823 789.222 209.823 788.54ZM217.069 791.011L216.956 791.778C216.875 792.318 216.752 792.896 216.586 793.511C216.425 794.127 216.257 794.707 216.082 795.251C215.907 795.796 215.762 796.229 215.649 796.551H214.37C214.432 796.248 214.512 795.848 214.612 795.351C214.711 794.854 214.811 794.297 214.91 793.682C215.014 793.071 215.1 792.446 215.166 791.807L215.251 791.011H217.069ZM226.027 793V778.455H227.703V783.824H227.845C227.968 783.634 228.139 783.393 228.357 783.099C228.579 782.801 228.896 782.536 229.308 782.304C229.725 782.067 230.288 781.949 230.999 781.949C231.917 781.949 232.727 782.179 233.428 782.638C234.128 783.097 234.675 783.748 235.068 784.591C235.461 785.434 235.658 786.428 235.658 787.574C235.658 788.729 235.461 789.731 235.068 790.578C234.675 791.421 234.131 792.074 233.435 792.538C232.739 792.998 231.936 793.227 231.027 793.227C230.326 793.227 229.765 793.111 229.344 792.879C228.922 792.643 228.598 792.375 228.371 792.077C228.143 791.774 227.968 791.523 227.845 791.324H227.646V793H226.027ZM227.675 787.545C227.675 788.369 227.795 789.096 228.037 789.726C228.278 790.351 228.631 790.841 229.095 791.196C229.559 791.546 230.127 791.722 230.8 791.722C231.5 791.722 232.085 791.537 232.554 791.168C233.027 790.794 233.383 790.292 233.619 789.662C233.861 789.027 233.982 788.322 233.982 787.545C233.982 786.778 233.863 786.087 233.626 785.472C233.394 784.851 233.042 784.361 232.568 784.001C232.099 783.637 231.51 783.455 230.8 783.455C230.118 783.455 229.545 783.627 229.081 783.973C228.617 784.314 228.267 784.792 228.03 785.408C227.793 786.018 227.675 786.731 227.675 787.545ZM242.795 793.227C241.744 793.227 240.838 792.995 240.075 792.531C239.318 792.062 238.733 791.409 238.321 790.571C237.914 789.728 237.71 788.748 237.71 787.631C237.71 786.513 237.914 785.528 238.321 784.676C238.733 783.819 239.306 783.152 240.04 782.673C240.778 782.19 241.64 781.949 242.625 781.949C243.193 781.949 243.754 782.044 244.308 782.233C244.862 782.422 245.366 782.73 245.821 783.156C246.276 783.578 246.638 784.136 246.908 784.832C247.178 785.528 247.312 786.385 247.312 787.403V788.114H238.903V786.665H245.608C245.608 786.049 245.485 785.5 245.239 785.017C244.997 784.534 244.652 784.153 244.202 783.874C243.757 783.594 243.231 783.455 242.625 783.455C241.957 783.455 241.38 783.62 240.892 783.952C240.409 784.278 240.037 784.705 239.777 785.23C239.517 785.756 239.386 786.319 239.386 786.92V787.886C239.386 788.71 239.528 789.409 239.812 789.982C240.101 790.55 240.501 790.983 241.013 791.281C241.524 791.575 242.118 791.722 242.795 791.722C243.236 791.722 243.634 791.66 243.989 791.537C244.348 791.409 244.659 791.22 244.919 790.969C245.179 790.713 245.381 790.396 245.523 790.017L247.142 790.472C246.972 791.021 246.685 791.504 246.283 791.92C245.88 792.332 245.383 792.654 244.791 792.886C244.199 793.114 243.534 793.227 242.795 793.227ZM250.089 793V778.455H251.766V783.824H251.908C252.031 783.634 252.201 783.393 252.419 783.099C252.642 782.801 252.959 782.536 253.371 782.304C253.787 782.067 254.351 781.949 255.061 781.949C255.98 781.949 256.789 782.179 257.49 782.638C258.191 783.097 258.738 783.748 259.131 784.591C259.524 785.434 259.72 786.428 259.72 787.574C259.72 788.729 259.524 789.731 259.131 790.578C258.738 791.421 258.193 792.074 257.497 792.538C256.801 792.998 255.999 793.227 255.089 793.227C254.389 793.227 253.828 793.111 253.406 792.879C252.985 792.643 252.661 792.375 252.433 792.077C252.206 791.774 252.031 791.523 251.908 791.324H251.709V793H250.089ZM251.737 787.545C251.737 788.369 251.858 789.096 252.099 789.726C252.341 790.351 252.694 790.841 253.158 791.196C253.622 791.546 254.19 791.722 254.862 791.722C255.563 791.722 256.148 791.537 256.616 791.168C257.09 790.794 257.445 790.292 257.682 789.662C257.923 789.027 258.044 788.322 258.044 787.545C258.044 786.778 257.926 786.087 257.689 785.472C257.457 784.851 257.104 784.361 256.631 784.001C256.162 783.637 255.572 783.455 254.862 783.455C254.18 783.455 253.607 783.627 253.143 783.973C252.679 784.314 252.329 784.792 252.092 785.408C251.856 786.018 251.737 786.731 251.737 787.545ZM266.858 793.227C265.807 793.227 264.9 792.995 264.138 792.531C263.38 792.062 262.795 791.409 262.384 790.571C261.976 789.728 261.773 788.748 261.773 787.631C261.773 786.513 261.976 785.528 262.384 784.676C262.795 783.819 263.368 783.152 264.102 782.673C264.841 782.19 265.703 781.949 266.688 781.949C267.256 781.949 267.817 782.044 268.371 782.233C268.925 782.422 269.429 782.73 269.884 783.156C270.338 783.578 270.7 784.136 270.97 784.832C271.24 785.528 271.375 786.385 271.375 787.403V788.114H262.966V786.665H269.67C269.67 786.049 269.547 785.5 269.301 785.017C269.06 784.534 268.714 784.153 268.264 783.874C267.819 783.594 267.294 783.455 266.688 783.455C266.02 783.455 265.442 783.62 264.955 783.952C264.472 784.278 264.1 784.705 263.839 785.23C263.579 785.756 263.449 786.319 263.449 786.92V787.886C263.449 788.71 263.591 789.409 263.875 789.982C264.164 790.55 264.564 790.983 265.075 791.281C265.587 791.575 266.181 791.722 266.858 791.722C267.298 791.722 267.696 791.66 268.051 791.537C268.411 791.409 268.721 791.22 268.982 790.969C269.242 790.713 269.443 790.396 269.585 790.017L271.205 790.472C271.034 791.021 270.748 791.504 270.345 791.92C269.943 792.332 269.446 792.654 268.854 792.886C268.262 793.114 267.597 793.227 266.858 793.227ZM275.487 789.023L275.459 786.949H275.8L280.572 782.091H282.646L277.561 787.233H277.419L275.487 789.023ZM273.925 793V778.455H275.601V793H273.925ZM280.857 793L276.595 787.602L277.788 786.438L282.987 793H280.857ZM286.48 778.455V793H284.804V778.455H286.48ZM294.124 793.227C293.072 793.227 292.166 792.995 291.403 792.531C290.646 792.062 290.061 791.409 289.649 790.571C289.242 789.728 289.038 788.748 289.038 787.631C289.038 786.513 289.242 785.528 289.649 784.676C290.061 783.819 290.634 783.152 291.368 782.673C292.107 782.19 292.968 781.949 293.953 781.949C294.521 781.949 295.082 782.044 295.636 782.233C296.19 782.422 296.695 782.73 297.149 783.156C297.604 783.578 297.966 784.136 298.236 784.832C298.506 785.528 298.641 786.385 298.641 787.403V788.114H290.232V786.665H296.936C296.936 786.049 296.813 785.5 296.567 785.017C296.325 784.534 295.98 784.153 295.53 783.874C295.085 783.594 294.559 783.455 293.953 783.455C293.286 783.455 292.708 783.62 292.22 783.952C291.737 784.278 291.366 784.705 291.105 785.23C290.845 785.756 290.714 786.319 290.714 786.92V787.886C290.714 788.71 290.857 789.409 291.141 789.982C291.429 790.55 291.83 790.983 292.341 791.281C292.852 791.575 293.446 791.722 294.124 791.722C294.564 791.722 294.962 791.66 295.317 791.537C295.677 791.409 295.987 791.22 296.247 790.969C296.508 790.713 296.709 790.396 296.851 790.017L298.47 790.472C298.3 791.021 298.013 791.504 297.611 791.92C297.208 792.332 296.711 792.654 296.119 792.886C295.527 793.114 294.862 793.227 294.124 793.227ZM301.19 793V782.091H302.81V783.739H302.923C303.122 783.199 303.482 782.761 304.003 782.425C304.524 782.089 305.111 781.92 305.764 781.92C305.887 781.92 306.041 781.923 306.226 781.928C306.411 781.932 306.55 781.939 306.645 781.949V783.653C306.588 783.639 306.458 783.618 306.254 783.589C306.055 783.556 305.845 783.54 305.622 783.54C305.092 783.54 304.618 783.651 304.202 783.874C303.79 784.091 303.463 784.394 303.222 784.783C302.985 785.166 302.866 785.604 302.866 786.097V793H301.19ZM308.632 793V782.091H310.308V793H308.632ZM309.484 780.273C309.157 780.273 308.876 780.161 308.639 779.939C308.407 779.716 308.291 779.449 308.291 779.136C308.291 778.824 308.407 778.556 308.639 778.334C308.876 778.111 309.157 778 309.484 778C309.811 778 310.09 778.111 310.322 778.334C310.559 778.556 310.677 778.824 310.677 779.136C310.677 779.449 310.559 779.716 310.322 779.939C310.09 780.161 309.811 780.273 309.484 780.273ZM315.054 786.438V793H313.378V782.091H314.997V783.795H315.139C315.395 783.241 315.783 782.796 316.304 782.46C316.825 782.119 317.497 781.949 318.321 781.949C319.06 781.949 319.706 782.1 320.26 782.403C320.814 782.702 321.245 783.156 321.553 783.767C321.86 784.373 322.014 785.14 322.014 786.068V793H320.338V786.182C320.338 785.325 320.116 784.657 319.67 784.179C319.225 783.696 318.615 783.455 317.838 783.455C317.303 783.455 316.825 783.571 316.403 783.803C315.987 784.035 315.658 784.373 315.416 784.818C315.175 785.263 315.054 785.803 315.054 786.438ZM335.105 797.318C334.296 797.318 333.6 797.214 333.017 797.006C332.435 796.802 331.95 796.532 331.561 796.196C331.178 795.865 330.873 795.509 330.645 795.131L331.98 794.193C332.132 794.392 332.324 794.619 332.556 794.875C332.788 795.135 333.105 795.36 333.507 795.55C333.915 795.744 334.447 795.841 335.105 795.841C335.986 795.841 336.713 795.628 337.286 795.202C337.859 794.776 338.145 794.108 338.145 793.199V790.983H338.003C337.88 791.182 337.705 791.428 337.478 791.722C337.255 792.01 336.933 792.268 336.512 792.496C336.095 792.718 335.532 792.83 334.821 792.83C333.941 792.83 333.15 792.621 332.449 792.205C331.753 791.788 331.202 791.182 330.794 790.386C330.392 789.591 330.191 788.625 330.191 787.489C330.191 786.371 330.387 785.398 330.78 784.57C331.173 783.736 331.72 783.092 332.421 782.638C333.122 782.179 333.931 781.949 334.85 781.949C335.56 781.949 336.123 782.067 336.54 782.304C336.962 782.536 337.283 782.801 337.506 783.099C337.733 783.393 337.908 783.634 338.032 783.824H338.202V782.091H339.821V793.312C339.821 794.25 339.608 795.012 339.182 795.599C338.761 796.191 338.193 796.625 337.478 796.899C336.767 797.179 335.977 797.318 335.105 797.318ZM335.049 791.324C335.721 791.324 336.289 791.17 336.753 790.862C337.217 790.554 337.57 790.112 337.811 789.534C338.053 788.956 338.174 788.265 338.174 787.46C338.174 786.674 338.055 785.981 337.819 785.379C337.582 784.778 337.231 784.307 336.767 783.966C336.303 783.625 335.73 783.455 335.049 783.455C334.338 783.455 333.747 783.634 333.273 783.994C332.804 784.354 332.452 784.837 332.215 785.443C331.983 786.049 331.867 786.722 331.867 787.46C331.867 788.218 331.985 788.888 332.222 789.47C332.463 790.048 332.819 790.502 333.287 790.834C333.761 791.161 334.348 791.324 335.049 791.324ZM346.1 793.256C345.408 793.256 344.781 793.125 344.218 792.865C343.654 792.6 343.207 792.219 342.875 791.722C342.544 791.22 342.378 790.614 342.378 789.903C342.378 789.278 342.501 788.772 342.748 788.384C342.994 787.991 343.323 787.683 343.735 787.46C344.147 787.238 344.601 787.072 345.098 786.963C345.6 786.849 346.105 786.759 346.611 786.693C347.274 786.608 347.811 786.544 348.223 786.501C348.64 786.454 348.943 786.376 349.132 786.267C349.327 786.158 349.424 785.969 349.424 785.699V785.642C349.424 784.941 349.232 784.397 348.848 784.009C348.47 783.62 347.894 783.426 347.123 783.426C346.322 783.426 345.695 783.601 345.24 783.952C344.786 784.302 344.466 784.676 344.282 785.074L342.691 784.506C342.975 783.843 343.354 783.327 343.827 782.957C344.305 782.583 344.826 782.323 345.39 782.176C345.958 782.025 346.516 781.949 347.066 781.949C347.416 781.949 347.819 781.991 348.273 782.077C348.732 782.157 349.175 782.325 349.601 782.581C350.032 782.837 350.39 783.223 350.674 783.739C350.958 784.255 351.1 784.946 351.1 785.812V793H349.424V791.523H349.338C349.225 791.759 349.035 792.013 348.77 792.283C348.505 792.553 348.152 792.782 347.712 792.972C347.272 793.161 346.734 793.256 346.1 793.256ZM346.355 791.75C347.018 791.75 347.577 791.62 348.032 791.359C348.491 791.099 348.837 790.763 349.069 790.351C349.305 789.939 349.424 789.506 349.424 789.051V787.517C349.353 787.602 349.196 787.68 348.955 787.751C348.718 787.818 348.444 787.877 348.131 787.929C347.823 787.976 347.523 788.019 347.229 788.057C346.94 788.09 346.706 788.118 346.526 788.142C346.09 788.199 345.683 788.291 345.304 788.419C344.93 788.542 344.627 788.729 344.395 788.98C344.168 789.226 344.054 789.562 344.054 789.989C344.054 790.571 344.27 791.011 344.701 791.31C345.136 791.603 345.688 791.75 346.355 791.75ZM354.159 793V782.091H355.778V783.739H355.892C356.091 783.199 356.451 782.761 356.972 782.425C357.492 782.089 358.08 781.92 358.733 781.92C358.856 781.92 359.01 781.923 359.195 781.928C359.379 781.932 359.519 781.939 359.614 781.949V783.653C359.557 783.639 359.427 783.618 359.223 783.589C359.024 783.556 358.813 783.54 358.591 783.54C358.061 783.54 357.587 783.651 357.17 783.874C356.759 784.091 356.432 784.394 356.19 784.783C355.954 785.166 355.835 785.604 355.835 786.097V793H354.159ZM365.388 793.227C364.479 793.227 363.676 792.998 362.98 792.538C362.284 792.074 361.74 791.421 361.347 790.578C360.954 789.731 360.757 788.729 360.757 787.574C360.757 786.428 360.954 785.434 361.347 784.591C361.74 783.748 362.286 783.097 362.987 782.638C363.688 782.179 364.498 781.949 365.416 781.949C366.126 781.949 366.688 782.067 367.099 782.304C367.516 782.536 367.833 782.801 368.051 783.099C368.274 783.393 368.446 783.634 368.57 783.824H368.712V778.455H370.388V793H368.768V791.324H368.57C368.446 791.523 368.271 791.774 368.044 792.077C367.817 792.375 367.492 792.643 367.071 792.879C366.65 793.111 366.089 793.227 365.388 793.227ZM365.615 791.722C366.287 791.722 366.856 791.546 367.32 791.196C367.784 790.841 368.136 790.351 368.378 789.726C368.619 789.096 368.74 788.369 368.74 787.545C368.74 786.731 368.622 786.018 368.385 785.408C368.148 784.792 367.798 784.314 367.334 783.973C366.87 783.627 366.297 783.455 365.615 783.455C364.905 783.455 364.313 783.637 363.839 784.001C363.371 784.361 363.018 784.851 362.781 785.472C362.549 786.087 362.433 786.778 362.433 787.545C362.433 788.322 362.552 789.027 362.788 789.662C363.03 790.292 363.385 790.794 363.854 791.168C364.327 791.537 364.914 791.722 365.615 791.722ZM373.69 793V782.091H375.366V793H373.69ZM378.436 793V782.091H380.056V783.739H380.169C380.368 783.199 380.728 782.761 381.249 782.425C381.77 782.089 382.357 781.92 383.01 781.92C383.133 781.92 383.287 781.923 383.472 781.928C383.657 781.932 383.796 781.939 383.891 781.949V783.653C383.834 783.639 383.704 783.618 383.5 783.589C383.301 783.556 383.091 783.54 382.868 783.54C382.338 783.54 381.864 783.651 381.448 783.874C381.036 784.091 380.709 784.394 380.468 784.783C380.231 785.166 380.113 785.604 380.113 786.097V793H378.436ZM389.978 793.227C388.993 793.227 388.129 792.993 387.385 792.524C386.647 792.055 386.069 791.4 385.652 790.557C385.24 789.714 385.034 788.729 385.034 787.602C385.034 786.466 385.24 785.474 385.652 784.626C386.069 783.779 386.647 783.121 387.385 782.652C388.129 782.183 388.993 781.949 389.978 781.949C390.962 781.949 391.824 782.183 392.563 782.652C393.306 783.121 393.884 783.779 394.296 784.626C394.712 785.474 394.921 786.466 394.921 787.602C394.921 788.729 394.712 789.714 394.296 790.557C393.884 791.4 393.306 792.055 392.563 792.524C391.824 792.993 390.962 793.227 389.978 793.227ZM389.978 791.722C390.726 791.722 391.341 791.53 391.824 791.146C392.307 790.763 392.665 790.259 392.897 789.634C393.129 789.009 393.245 788.331 393.245 787.602C393.245 786.873 393.129 786.194 392.897 785.564C392.665 784.934 392.307 784.425 391.824 784.037C391.341 783.649 390.726 783.455 389.978 783.455C389.23 783.455 388.614 783.649 388.131 784.037C387.648 784.425 387.291 784.934 387.059 785.564C386.827 786.194 386.711 786.873 386.711 787.602C386.711 788.331 386.827 789.009 387.059 789.634C387.291 790.259 387.648 790.763 388.131 791.146C388.614 791.53 389.23 791.722 389.978 791.722ZM397.707 793V778.455H399.383V783.824H399.525C399.648 783.634 399.818 783.393 400.036 783.099C400.259 782.801 400.576 782.536 400.988 782.304C401.405 782.067 401.968 781.949 402.678 781.949C403.597 781.949 404.406 782.179 405.107 782.638C405.808 783.097 406.355 783.748 406.748 784.591C407.141 785.434 407.337 786.428 407.337 787.574C407.337 788.729 407.141 789.731 406.748 790.578C406.355 791.421 405.81 792.074 405.114 792.538C404.418 792.998 403.616 793.227 402.707 793.227C402.006 793.227 401.445 793.111 401.023 792.879C400.602 792.643 400.278 792.375 400.05 792.077C399.823 791.774 399.648 791.523 399.525 791.324H399.326V793H397.707ZM399.354 787.545C399.354 788.369 399.475 789.096 399.717 789.726C399.958 790.351 400.311 790.841 400.775 791.196C401.239 791.546 401.807 791.722 402.479 791.722C403.18 791.722 403.765 791.537 404.234 791.168C404.707 790.794 405.062 790.292 405.299 789.662C405.54 789.027 405.661 788.322 405.661 787.545C405.661 786.778 405.543 786.087 405.306 785.472C405.074 784.851 404.721 784.361 404.248 784.001C403.779 783.637 403.19 783.455 402.479 783.455C401.798 783.455 401.225 783.627 400.761 783.973C400.297 784.314 399.946 784.792 399.71 785.408C399.473 786.018 399.354 786.731 399.354 787.545ZM416.776 788.54V782.091H418.452V793H416.776V791.153H416.663C416.407 791.707 416.009 792.179 415.469 792.567C414.93 792.95 414.248 793.142 413.424 793.142C412.742 793.142 412.136 792.993 411.606 792.695C411.076 792.392 410.659 791.937 410.356 791.331C410.053 790.72 409.901 789.951 409.901 789.023V782.091H411.577V788.909C411.577 789.705 411.8 790.339 412.245 790.812C412.695 791.286 413.268 791.523 413.964 791.523C414.38 791.523 414.804 791.416 415.235 791.203C415.671 790.99 416.035 790.663 416.329 790.223C416.627 789.783 416.776 789.222 416.776 788.54ZM423.199 786.438V793H421.522V782.091H423.142V783.795H423.284C423.539 783.241 423.928 782.796 424.449 782.46C424.969 782.119 425.642 781.949 426.466 781.949C427.204 781.949 427.85 782.1 428.404 782.403C428.958 782.702 429.389 783.156 429.697 783.767C430.005 784.373 430.159 785.14 430.159 786.068V793H428.483V786.182C428.483 785.325 428.26 784.657 427.815 784.179C427.37 783.696 426.759 783.455 425.983 783.455C425.448 783.455 424.969 783.571 424.548 783.803C424.131 784.035 423.802 784.373 423.561 784.818C423.319 785.263 423.199 785.803 423.199 786.438ZM436.432 793.256C435.741 793.256 435.113 793.125 434.55 792.865C433.986 792.6 433.539 792.219 433.207 791.722C432.876 791.22 432.71 790.614 432.71 789.903C432.71 789.278 432.833 788.772 433.08 788.384C433.326 787.991 433.655 787.683 434.067 787.46C434.479 787.238 434.933 787.072 435.43 786.963C435.932 786.849 436.437 786.759 436.943 786.693C437.606 786.608 438.143 786.544 438.555 786.501C438.972 786.454 439.275 786.376 439.464 786.267C439.659 786.158 439.756 785.969 439.756 785.699V785.642C439.756 784.941 439.564 784.397 439.18 784.009C438.802 783.62 438.226 783.426 437.455 783.426C436.654 783.426 436.027 783.601 435.572 783.952C435.118 784.302 434.798 784.676 434.614 785.074L433.023 784.506C433.307 783.843 433.686 783.327 434.159 782.957C434.637 782.583 435.158 782.323 435.722 782.176C436.29 782.025 436.848 781.949 437.398 781.949C437.748 781.949 438.151 781.991 438.605 782.077C439.064 782.157 439.507 782.325 439.933 782.581C440.364 782.837 440.722 783.223 441.006 783.739C441.29 784.255 441.432 784.946 441.432 785.812V793H439.756V791.523H439.67C439.557 791.759 439.367 792.013 439.102 792.283C438.837 792.553 438.484 792.782 438.044 792.972C437.604 793.161 437.066 793.256 436.432 793.256ZM436.688 791.75C437.35 791.75 437.909 791.62 438.364 791.359C438.823 791.099 439.169 790.763 439.401 790.351C439.637 789.939 439.756 789.506 439.756 789.051V787.517C439.685 787.602 439.528 787.68 439.287 787.751C439.05 787.818 438.776 787.877 438.463 787.929C438.155 787.976 437.855 788.019 437.561 788.057C437.272 788.09 437.038 788.118 436.858 788.142C436.422 788.199 436.015 788.291 435.636 788.419C435.262 788.542 434.959 788.729 434.727 788.98C434.5 789.226 434.386 789.562 434.386 789.989C434.386 790.571 434.602 791.011 435.033 791.31C435.468 791.603 436.02 791.75 436.688 791.75ZM450.116 793V782.091H451.735V783.739H451.849C452.048 783.199 452.408 782.761 452.929 782.425C453.449 782.089 454.037 781.92 454.69 781.92C454.813 781.92 454.967 781.923 455.152 781.928C455.336 781.932 455.476 781.939 455.571 781.949V783.653C455.514 783.639 455.384 783.618 455.18 783.589C454.981 783.556 454.77 783.54 454.548 783.54C454.018 783.54 453.544 783.651 453.127 783.874C452.716 784.091 452.389 784.394 452.147 784.783C451.911 785.166 451.792 785.604 451.792 786.097V793H450.116ZM461.799 793.227C460.748 793.227 459.842 792.995 459.079 792.531C458.322 792.062 457.737 791.409 457.325 790.571C456.918 789.728 456.714 788.748 456.714 787.631C456.714 786.513 456.918 785.528 457.325 784.676C457.737 783.819 458.31 783.152 459.044 782.673C459.782 782.19 460.644 781.949 461.629 781.949C462.197 781.949 462.758 782.044 463.312 782.233C463.866 782.422 464.37 782.73 464.825 783.156C465.279 783.578 465.642 784.136 465.912 784.832C466.181 785.528 466.316 786.385 466.316 787.403V788.114H457.907V786.665H464.612C464.612 786.049 464.489 785.5 464.243 785.017C464.001 784.534 463.655 784.153 463.206 783.874C462.761 783.594 462.235 783.455 461.629 783.455C460.961 783.455 460.384 783.62 459.896 783.952C459.413 784.278 459.041 784.705 458.781 785.23C458.52 785.756 458.39 786.319 458.39 786.92V787.886C458.39 788.71 458.532 789.409 458.816 789.982C459.105 790.55 459.505 790.983 460.017 791.281C460.528 791.575 461.122 791.722 461.799 791.722C462.24 791.722 462.637 791.66 462.993 791.537C463.352 791.409 463.663 791.22 463.923 790.969C464.183 790.713 464.385 790.396 464.527 790.017L466.146 790.472C465.975 791.021 465.689 791.504 465.287 791.92C464.884 792.332 464.387 792.654 463.795 792.886C463.203 793.114 462.538 793.227 461.799 793.227ZM470.542 786.438V793H468.866V782.091H470.485V783.795H470.627C470.883 783.241 471.271 782.796 471.792 782.46C472.313 782.119 472.985 781.949 473.809 781.949C474.548 781.949 475.194 782.1 475.748 782.403C476.302 782.702 476.733 783.156 477.041 783.767C477.349 784.373 477.502 785.14 477.502 786.068V793H475.826V786.182C475.826 785.325 475.604 784.657 475.159 784.179C474.714 783.696 474.103 783.455 473.326 783.455C472.791 783.455 472.313 783.571 471.892 783.803C471.475 784.035 471.146 784.373 470.904 784.818C470.663 785.263 470.542 785.803 470.542 786.438ZM482.128 789.023L482.099 786.949H482.44L487.213 782.091H489.287L484.202 787.233H484.06L482.128 789.023ZM480.565 793V778.455H482.241V793H480.565ZM487.497 793L483.236 787.602L484.429 786.438L489.628 793H487.497ZM505.99 782.091L501.956 793H500.251L496.217 782.091H498.035L501.047 790.784H501.16L504.172 782.091H505.99ZM512.385 793.227C511.334 793.227 510.427 792.995 509.665 792.531C508.908 792.062 508.323 791.409 507.911 790.571C507.504 789.728 507.3 788.748 507.3 787.631C507.3 786.513 507.504 785.528 507.911 784.676C508.323 783.819 508.896 783.152 509.63 782.673C510.368 782.19 511.23 781.949 512.215 781.949C512.783 781.949 513.344 782.044 513.898 782.233C514.452 782.422 514.956 782.73 515.411 783.156C515.865 783.578 516.228 784.136 516.498 784.832C516.767 785.528 516.902 786.385 516.902 787.403V788.114H508.493V786.665H515.198C515.198 786.049 515.075 785.5 514.828 785.017C514.587 784.534 514.241 784.153 513.792 783.874C513.346 783.594 512.821 783.455 512.215 783.455C511.547 783.455 510.97 783.62 510.482 783.952C509.999 784.278 509.627 784.705 509.367 785.23C509.106 785.756 508.976 786.319 508.976 786.92V787.886C508.976 788.71 509.118 789.409 509.402 789.982C509.691 790.55 510.091 790.983 510.603 791.281C511.114 791.575 511.708 791.722 512.385 791.722C512.826 791.722 513.223 791.66 513.578 791.537C513.938 791.409 514.248 791.22 514.509 790.969C514.769 790.713 514.971 790.396 515.113 790.017L516.732 790.472C516.561 791.021 516.275 791.504 515.873 791.92C515.47 792.332 514.973 792.654 514.381 792.886C513.789 793.114 513.124 793.227 512.385 793.227ZM529.651 793.227C528.6 793.227 527.693 792.995 526.931 792.531C526.173 792.062 525.588 791.409 525.176 790.571C524.769 789.728 524.566 788.748 524.566 787.631C524.566 786.513 524.769 785.528 525.176 784.676C525.588 783.819 526.161 783.152 526.895 782.673C527.634 782.19 528.496 781.949 529.48 781.949C530.049 781.949 530.61 782.044 531.164 782.233C531.718 782.422 532.222 782.73 532.676 783.156C533.131 783.578 533.493 784.136 533.763 784.832C534.033 785.528 534.168 786.385 534.168 787.403V788.114H525.759V786.665H532.463C532.463 786.049 532.34 785.5 532.094 785.017C531.853 784.534 531.507 784.153 531.057 783.874C530.612 783.594 530.087 783.455 529.48 783.455C528.813 783.455 528.235 783.62 527.748 783.952C527.265 784.278 526.893 784.705 526.632 785.23C526.372 785.756 526.242 786.319 526.242 786.92V787.886C526.242 788.71 526.384 789.409 526.668 789.982C526.957 790.55 527.357 790.983 527.868 791.281C528.38 791.575 528.974 791.722 529.651 791.722C530.091 791.722 530.489 791.66 530.844 791.537C531.204 791.409 531.514 791.22 531.775 790.969C532.035 790.713 532.236 790.396 532.378 790.017L533.998 790.472C533.827 791.021 533.541 791.504 533.138 791.92C532.736 792.332 532.239 792.654 531.647 792.886C531.055 793.114 530.39 793.227 529.651 793.227ZM538.394 786.438V793H536.718V782.091H538.337V783.795H538.479C538.735 783.241 539.123 782.796 539.644 782.46C540.165 782.119 540.837 781.949 541.661 781.949C542.4 781.949 543.046 782.1 543.6 782.403C544.154 782.702 544.585 783.156 544.892 783.767C545.2 784.373 545.354 785.14 545.354 786.068V793H543.678V786.182C543.678 785.325 543.455 784.657 543.01 784.179C542.565 783.696 541.954 783.455 541.178 783.455C540.643 783.455 540.165 783.571 539.743 783.803C539.327 784.035 538.998 784.373 538.756 784.818C538.515 785.263 538.394 785.803 538.394 786.438ZM552.991 793.227C551.94 793.227 551.033 792.995 550.271 792.531C549.513 792.062 548.928 791.409 548.516 790.571C548.109 789.728 547.906 788.748 547.906 787.631C547.906 786.513 548.109 785.528 548.516 784.676C548.928 783.819 549.501 783.152 550.235 782.673C550.974 782.19 551.835 781.949 552.82 781.949C553.388 781.949 553.95 782.044 554.504 782.233C555.058 782.422 555.562 782.73 556.016 783.156C556.471 783.578 556.833 784.136 557.103 784.832C557.373 785.528 557.508 786.385 557.508 787.403V788.114H549.099V786.665H555.803C555.803 786.049 555.68 785.5 555.434 785.017C555.192 784.534 554.847 784.153 554.397 783.874C553.952 783.594 553.426 783.455 552.82 783.455C552.153 783.455 551.575 783.62 551.087 783.952C550.604 784.278 550.233 784.705 549.972 785.23C549.712 785.756 549.582 786.319 549.582 786.92V787.886C549.582 788.71 549.724 789.409 550.008 789.982C550.297 790.55 550.697 790.983 551.208 791.281C551.719 791.575 552.314 791.722 552.991 791.722C553.431 791.722 553.829 791.66 554.184 791.537C554.544 791.409 554.854 791.22 555.114 790.969C555.375 790.713 555.576 790.396 555.718 790.017L557.337 790.472C557.167 791.021 556.88 791.504 556.478 791.92C556.076 792.332 555.578 792.654 554.987 792.886C554.395 793.114 553.729 793.227 552.991 793.227ZM560.058 793V782.091H561.677V783.739H561.79C561.989 783.199 562.349 782.761 562.87 782.425C563.391 782.089 563.978 781.92 564.631 781.92C564.754 781.92 564.908 781.923 565.093 781.928C565.278 781.932 565.417 781.939 565.512 781.949V783.653C565.455 783.639 565.325 783.618 565.121 783.589C564.923 783.556 564.712 783.54 564.489 783.54C563.959 783.54 563.486 783.651 563.069 783.874C562.657 784.091 562.33 784.394 562.089 784.783C561.852 785.166 561.734 785.604 561.734 786.097V793H560.058ZM567.499 782.091H569.175V793.795C569.175 794.468 569.059 795.05 568.827 795.543C568.6 796.035 568.254 796.416 567.79 796.686C567.331 796.956 566.751 797.091 566.05 797.091C565.993 797.091 565.936 797.091 565.88 797.091C565.823 797.091 565.766 797.091 565.709 797.091V795.528C565.766 795.528 565.818 795.528 565.865 795.528C565.913 795.528 565.965 795.528 566.022 795.528C566.533 795.528 566.907 795.377 567.144 795.074C567.381 794.776 567.499 794.349 567.499 793.795V782.091ZM568.323 780.273C567.996 780.273 567.714 780.161 567.478 779.939C567.246 779.716 567.13 779.449 567.13 779.136C567.13 778.824 567.246 778.556 567.478 778.334C567.714 778.111 567.996 778 568.323 778C568.65 778 568.929 778.111 569.161 778.334C569.398 778.556 569.516 778.824 569.516 779.136C569.516 779.449 569.398 779.716 569.161 779.939C568.929 780.161 568.65 780.273 568.323 780.273ZM572.245 793V782.091H573.921V793H572.245ZM573.097 780.273C572.771 780.273 572.489 780.161 572.252 779.939C572.02 779.716 571.904 779.449 571.904 779.136C571.904 778.824 572.02 778.556 572.252 778.334C572.489 778.111 572.771 778 573.097 778C573.424 778 573.703 778.111 573.935 778.334C574.172 778.556 574.29 778.824 574.29 779.136C574.29 779.449 574.172 779.716 573.935 779.939C573.703 780.161 573.424 780.273 573.097 780.273ZM584.179 789.023L584.15 786.949H584.491L589.264 782.091H591.338L586.252 787.233H586.11L584.179 789.023ZM582.616 793V778.455H584.292V793H582.616ZM589.548 793L585.287 787.602L586.48 786.438L591.679 793H589.548ZM596.705 793.256C596.014 793.256 595.387 793.125 594.823 792.865C594.26 792.6 593.812 792.219 593.481 791.722C593.149 791.22 592.984 790.614 592.984 789.903C592.984 789.278 593.107 788.772 593.353 788.384C593.599 787.991 593.928 787.683 594.34 787.46C594.752 787.238 595.207 787.072 595.704 786.963C596.206 786.849 596.71 786.759 597.217 786.693C597.879 786.608 598.417 786.544 598.829 786.501C599.246 786.454 599.549 786.376 599.738 786.267C599.932 786.158 600.029 785.969 600.029 785.699V785.642C600.029 784.941 599.837 784.397 599.454 784.009C599.075 783.62 598.5 783.426 597.728 783.426C596.928 783.426 596.3 783.601 595.846 783.952C595.391 784.302 595.072 784.676 594.887 785.074L593.296 784.506C593.58 783.843 593.959 783.327 594.433 782.957C594.911 782.583 595.432 782.323 595.995 782.176C596.563 782.025 597.122 781.949 597.671 781.949C598.022 781.949 598.424 781.991 598.879 782.077C599.338 782.157 599.781 782.325 600.207 782.581C600.638 782.837 600.995 783.223 601.279 783.739C601.563 784.255 601.705 784.946 601.705 785.812V793H600.029V791.523H599.944C599.83 791.759 599.641 792.013 599.376 792.283C599.111 792.553 598.758 792.782 598.317 792.972C597.877 793.161 597.34 793.256 596.705 793.256ZM596.961 791.75C597.624 791.75 598.183 791.62 598.637 791.359C599.096 791.099 599.442 790.763 599.674 790.351C599.911 789.939 600.029 789.506 600.029 789.051V787.517C599.958 787.602 599.802 787.68 599.56 787.751C599.324 787.818 599.049 787.877 598.737 787.929C598.429 787.976 598.128 788.019 597.835 788.057C597.546 788.09 597.311 788.118 597.131 788.142C596.696 788.199 596.289 788.291 595.91 788.419C595.536 788.542 595.233 788.729 595.001 788.98C594.773 789.226 594.66 789.562 594.66 789.989C594.66 790.571 594.875 791.011 595.306 791.31C595.742 791.603 596.293 791.75 596.961 791.75ZM609.509 782.091V783.511H603.855V782.091H609.509ZM605.503 779.477H607.179V789.875C607.179 790.348 607.248 790.704 607.385 790.94C607.527 791.172 607.707 791.329 607.925 791.409C608.148 791.485 608.382 791.523 608.628 791.523C608.813 791.523 608.964 791.513 609.083 791.494C609.201 791.471 609.296 791.452 609.367 791.438L609.708 792.943C609.594 792.986 609.435 793.028 609.232 793.071C609.028 793.118 608.77 793.142 608.458 793.142C607.984 793.142 607.52 793.04 607.066 792.837C606.616 792.633 606.242 792.323 605.944 791.906C605.65 791.49 605.503 790.964 605.503 790.33V779.477ZM612.03 793V782.091H613.706V793H612.03ZM617.856 797.091C617.572 797.091 617.318 797.067 617.096 797.02C616.873 796.977 616.719 796.935 616.634 796.892L617.06 795.415C617.468 795.519 617.827 795.557 618.14 795.528C618.452 795.5 618.729 795.36 618.971 795.109C619.217 794.863 619.442 794.463 619.646 793.909L619.958 793.057L615.924 782.091H617.742L620.754 790.784H620.867L623.879 782.091H625.697L621.066 794.591C620.858 795.154 620.6 795.621 620.292 795.99C619.984 796.364 619.627 796.641 619.219 796.821C618.817 797.001 618.362 797.091 617.856 797.091ZM631.95 793.227C630.965 793.227 630.101 792.993 629.358 792.524C628.619 792.055 628.042 791.4 627.625 790.557C627.213 789.714 627.007 788.729 627.007 787.602C627.007 786.466 627.213 785.474 627.625 784.626C628.042 783.779 628.619 783.121 629.358 782.652C630.101 782.183 630.965 781.949 631.95 781.949C632.935 781.949 633.797 782.183 634.536 782.652C635.279 783.121 635.857 783.779 636.268 784.626C636.685 785.474 636.893 786.466 636.893 787.602C636.893 788.729 636.685 789.714 636.268 790.557C635.857 791.4 635.279 792.055 634.536 792.524C633.797 792.993 632.935 793.227 631.95 793.227ZM631.95 791.722C632.698 791.722 633.314 791.53 633.797 791.146C634.28 790.763 634.637 790.259 634.869 789.634C635.101 789.009 635.217 788.331 635.217 787.602C635.217 786.873 635.101 786.194 634.869 785.564C634.637 784.934 634.28 784.425 633.797 784.037C633.314 783.649 632.698 783.455 631.95 783.455C631.202 783.455 630.587 783.649 630.104 784.037C629.621 784.425 629.263 784.934 629.031 785.564C628.799 786.194 628.683 786.873 628.683 787.602C628.683 788.331 628.799 789.009 629.031 789.634C629.263 790.259 629.621 790.763 630.104 791.146C630.587 791.53 631.202 791.722 631.95 791.722ZM639.452 793V782.091H641.071V783.739H641.185C641.384 783.199 641.744 782.761 642.265 782.425C642.785 782.089 643.373 781.92 644.026 781.92C644.149 781.92 644.303 781.923 644.488 781.928C644.672 781.932 644.812 781.939 644.907 781.949V783.653C644.85 783.639 644.72 783.618 644.516 783.589C644.317 783.556 644.106 783.54 643.884 783.54C643.354 783.54 642.88 783.651 642.463 783.874C642.051 784.091 641.725 784.394 641.483 784.783C641.247 785.166 641.128 785.604 641.128 786.097V793H639.452ZM649.109 778.455L648.967 788.909H647.32L647.178 778.455H649.109ZM648.143 793.114C647.793 793.114 647.492 792.988 647.241 792.737C646.991 792.486 646.865 792.186 646.865 791.835C646.865 791.485 646.991 791.184 647.241 790.933C647.492 790.682 647.793 790.557 648.143 790.557C648.494 790.557 648.795 790.682 649.045 790.933C649.296 791.184 649.422 791.485 649.422 791.835C649.422 792.067 649.363 792.28 649.244 792.474C649.131 792.669 648.977 792.825 648.783 792.943C648.593 793.057 648.38 793.114 648.143 793.114Z" fill="white"/>
</svg>
