<svg width="780" height="400" viewBox="0 0 780 400" fill="none" xmlns="http://www.w3.org/2000/svg">
<path d="M236.041 119.124C235.698 118.047 235.236 117.082 234.656 116.23C234.088 115.366 233.407 114.632 232.614 114.028C231.821 113.413 230.915 112.945 229.897 112.626C228.891 112.306 227.785 112.146 226.577 112.146C224.529 112.146 222.683 112.673 221.037 113.727C219.392 114.78 218.09 116.325 217.131 118.361C216.184 120.385 215.711 122.865 215.711 125.8C215.711 128.748 216.19 131.24 217.149 133.276C218.108 135.312 219.422 136.856 221.091 137.91C222.76 138.963 224.66 139.49 226.79 139.49C228.767 139.49 230.489 139.088 231.957 138.283C233.437 137.478 234.579 136.341 235.384 134.874C236.201 133.394 236.609 131.654 236.609 129.653L238.03 129.92H227.625V125.392H241.918V129.529C241.918 132.583 241.267 135.235 239.965 137.484C238.675 139.721 236.887 141.449 234.603 142.668C232.33 143.888 229.726 144.497 226.79 144.497C223.499 144.497 220.611 143.74 218.125 142.224C215.651 140.709 213.722 138.561 212.337 135.779C210.952 132.986 210.26 129.671 210.26 125.836C210.26 122.936 210.662 120.332 211.467 118.023C212.272 115.715 213.402 113.756 214.858 112.146C216.326 110.525 218.049 109.288 220.025 108.435C222.014 107.571 224.186 107.139 226.542 107.139C228.507 107.139 230.335 107.429 232.028 108.009C233.733 108.589 235.248 109.412 236.574 110.477C237.911 111.543 239.018 112.809 239.894 114.277C240.77 115.733 241.362 117.349 241.669 119.124H236.041ZM255.831 144H250.008L263.093 107.636H269.432L282.518 144H276.694L266.414 114.241H266.13L255.831 144ZM256.808 129.76H275.7V134.376H256.808V129.76ZM292.769 144V107.636H305.731C308.56 107.636 310.904 108.151 312.762 109.181C314.621 110.211 316.012 111.62 316.935 113.407C317.858 115.183 318.32 117.183 318.32 119.408C318.32 121.646 317.852 123.658 316.917 125.445C315.994 127.221 314.597 128.629 312.727 129.671C310.868 130.701 308.531 131.216 305.713 131.216H296.8V126.564H305.216C307.004 126.564 308.454 126.256 309.566 125.641C310.679 125.013 311.496 124.161 312.017 123.084C312.537 122.007 312.798 120.781 312.798 119.408C312.798 118.035 312.537 116.816 312.017 115.751C311.496 114.685 310.673 113.851 309.549 113.247C308.436 112.643 306.968 112.342 305.145 112.342H298.256V144H292.769ZM347.984 144V107.636H370.534V112.359H353.471V123.439H368.918V128.144H353.471V144H347.984ZM413.869 125.818C413.869 129.701 413.158 133.039 411.738 135.832C410.317 138.614 408.37 140.757 405.896 142.26C403.434 143.751 400.635 144.497 397.498 144.497C394.349 144.497 391.538 143.751 389.064 142.26C386.602 140.757 384.66 138.608 383.24 135.815C381.82 133.021 381.109 129.689 381.109 125.818C381.109 121.936 381.82 118.603 383.24 115.822C384.66 113.028 386.602 110.886 389.064 109.394C391.538 107.891 394.349 107.139 397.498 107.139C400.635 107.139 403.434 107.891 405.896 109.394C408.37 110.886 410.317 113.028 411.738 115.822C413.158 118.603 413.869 121.936 413.869 125.818ZM408.435 125.818C408.435 122.859 407.956 120.367 406.997 118.343C406.05 116.307 404.748 114.768 403.091 113.727C401.445 112.673 399.581 112.146 397.498 112.146C395.403 112.146 393.532 112.673 391.887 113.727C390.242 114.768 388.94 116.307 387.981 118.343C387.034 120.367 386.56 122.859 386.56 125.818C386.56 128.777 387.034 131.275 387.981 133.311C388.94 135.335 390.242 136.874 391.887 137.928C393.532 138.969 395.403 139.49 397.498 139.49C399.581 139.49 401.445 138.969 403.091 137.928C404.748 136.874 406.05 135.335 406.997 133.311C407.956 131.275 408.435 128.777 408.435 125.818ZM425.709 144V107.636H438.671C441.488 107.636 443.826 108.122 445.684 109.092C447.554 110.063 448.951 111.406 449.874 113.123C450.798 114.827 451.259 116.798 451.259 119.036C451.259 121.261 450.792 123.22 449.857 124.913C448.933 126.594 447.537 127.902 445.666 128.837C443.808 129.772 441.47 130.239 438.653 130.239H428.834V125.516H438.156C439.931 125.516 441.375 125.262 442.488 124.753C443.613 124.244 444.435 123.504 444.956 122.533C445.477 121.563 445.737 120.397 445.737 119.036C445.737 117.662 445.471 116.473 444.938 115.467C444.417 114.46 443.595 113.691 442.47 113.158C441.358 112.614 439.896 112.342 438.085 112.342H431.195V144H425.709ZM443.66 127.594L452.644 144H446.394L437.587 127.594H443.66ZM505.777 119.124C505.434 118.047 504.972 117.082 504.392 116.23C503.824 115.366 503.143 114.632 502.35 114.028C501.557 113.413 500.652 112.945 499.634 112.626C498.628 112.306 497.521 112.146 496.313 112.146C494.266 112.146 492.419 112.673 490.774 113.727C489.128 114.78 487.826 116.325 486.867 118.361C485.92 120.385 485.447 122.865 485.447 125.8C485.447 128.748 485.926 131.24 486.885 133.276C487.844 135.312 489.158 136.856 490.827 137.91C492.496 138.963 494.396 139.49 496.527 139.49C498.503 139.49 500.226 139.088 501.693 138.283C503.173 137.478 504.315 136.341 505.12 134.874C505.937 133.394 506.345 131.654 506.345 129.653L507.766 129.92H497.361V125.392H511.654V129.529C511.654 132.583 511.003 135.235 509.701 137.484C508.411 139.721 506.624 141.449 504.339 142.668C502.066 143.888 499.462 144.497 496.527 144.497C493.236 144.497 490.348 143.74 487.862 142.224C485.388 140.709 483.458 138.561 482.073 135.779C480.688 132.986 479.996 129.671 479.996 125.836C479.996 122.936 480.398 120.332 481.203 118.023C482.008 115.715 483.139 113.756 484.595 112.146C486.063 110.525 487.785 109.288 489.762 108.435C491.75 107.571 493.922 107.139 496.278 107.139C498.243 107.139 500.072 107.429 501.764 108.009C503.469 108.589 504.984 109.412 506.31 110.477C507.648 111.543 508.754 112.809 509.63 114.277C510.506 115.733 511.098 117.349 511.406 119.124H505.777ZM555.206 125.818C555.206 129.701 554.496 133.039 553.076 135.832C551.655 138.614 549.708 140.757 547.234 142.26C544.772 143.751 541.973 144.497 538.836 144.497C535.687 144.497 532.876 143.751 530.402 142.26C527.94 140.757 525.998 138.608 524.578 135.815C523.157 133.021 522.447 129.689 522.447 125.818C522.447 121.936 523.157 118.603 524.578 115.822C525.998 113.028 527.94 110.886 530.402 109.394C532.876 107.891 535.687 107.139 538.836 107.139C541.973 107.139 544.772 107.891 547.234 109.394C549.708 110.886 551.655 113.028 553.076 115.822C554.496 118.603 555.206 121.936 555.206 125.818ZM549.773 125.818C549.773 122.859 549.294 120.367 548.335 118.343C547.388 116.307 546.086 114.768 544.429 113.727C542.783 112.673 540.919 112.146 538.836 112.146C536.741 112.146 534.87 112.673 533.225 113.727C531.58 114.768 530.277 116.307 529.319 118.343C528.372 120.367 527.898 122.859 527.898 125.818C527.898 128.777 528.372 131.275 529.319 133.311C530.277 135.335 531.58 136.874 533.225 137.928C534.87 138.969 536.741 139.49 538.836 139.49C540.919 139.49 542.783 138.969 544.429 137.928C546.086 136.874 547.388 135.335 548.335 133.311C549.294 131.275 549.773 128.777 549.773 125.818ZM598.634 125.818C598.634 129.701 597.924 133.039 596.503 135.832C595.083 138.614 593.136 140.757 590.662 142.26C588.2 143.751 585.4 144.497 582.263 144.497C579.115 144.497 576.303 143.751 573.829 142.26C571.367 140.757 569.426 138.608 568.006 135.815C566.585 133.021 565.875 129.689 565.875 125.818C565.875 121.936 566.585 118.603 568.006 115.822C569.426 113.028 571.367 110.886 573.829 109.394C576.303 107.891 579.115 107.139 582.263 107.139C585.4 107.139 588.2 107.891 590.662 109.394C593.136 110.886 595.083 113.028 596.503 115.822C597.924 118.603 598.634 121.936 598.634 125.818ZM593.201 125.818C593.201 122.859 592.722 120.367 591.763 118.343C590.816 116.307 589.514 114.768 587.856 113.727C586.211 112.673 584.347 112.146 582.263 112.146C580.168 112.146 578.298 112.673 576.653 113.727C575.007 114.768 573.705 116.307 572.746 118.343C571.799 120.367 571.326 122.859 571.326 125.818C571.326 128.777 571.799 131.275 572.746 133.311C573.705 135.335 575.007 136.874 576.653 137.928C578.298 138.969 580.168 139.49 582.263 139.49C584.347 139.49 586.211 138.969 587.856 137.928C589.514 136.874 590.816 135.335 591.763 133.311C592.722 131.275 593.201 128.777 593.201 125.818ZM622.247 144H610.475V107.636H622.619C626.182 107.636 629.242 108.364 631.799 109.82C634.356 111.264 636.315 113.342 637.676 116.053C639.049 118.751 639.736 121.989 639.736 125.765C639.736 129.553 639.043 132.808 637.658 135.531C636.285 138.253 634.297 140.348 631.693 141.816C629.088 143.272 625.94 144 622.247 144ZM615.961 139.206H621.945C624.715 139.206 627.017 138.685 628.852 137.643C630.686 136.59 632.06 135.069 632.971 133.08C633.882 131.08 634.338 128.641 634.338 125.765C634.338 122.912 633.882 120.491 632.971 118.503C632.071 116.514 630.728 115.005 628.94 113.975C627.153 112.945 624.934 112.43 622.282 112.43H615.961V139.206Z" fill="white"/>
<path d="M101.311 194V191.955C101.311 191.333 101.421 190.674 101.641 189.977C101.868 189.273 102.194 188.595 102.618 187.943C103.05 187.284 103.569 186.712 104.175 186.227L105.629 187.409C105.152 188.091 104.735 188.803 104.379 189.545C104.031 190.28 103.857 191.068 103.857 191.909V194H101.311ZM107.129 194V191.955C107.129 191.333 107.239 190.674 107.459 189.977C107.686 189.273 108.012 188.595 108.436 187.943C108.868 187.284 109.387 186.712 109.993 186.227L111.447 187.409C110.97 188.091 110.554 188.803 110.197 189.545C109.849 190.28 109.675 191.068 109.675 191.909V194H107.129ZM121.953 210H114.771V186.727H122.271C124.529 186.727 126.461 187.193 128.067 188.125C129.673 189.049 130.904 190.379 131.76 192.114C132.616 193.841 133.044 195.909 133.044 198.318C133.044 200.742 132.612 202.83 131.749 204.58C130.885 206.322 129.627 207.663 127.976 208.602C126.324 209.534 124.317 210 121.953 210ZM117.589 207.5H121.771C123.696 207.5 125.29 207.129 126.555 206.386C127.821 205.644 128.764 204.587 129.385 203.216C130.006 201.845 130.317 200.212 130.317 198.318C130.317 196.439 130.01 194.822 129.396 193.466C128.783 192.102 127.866 191.057 126.646 190.33C125.427 189.595 123.908 189.227 122.089 189.227H117.589V207.5ZM142.544 210.409C141.438 210.409 140.434 210.201 139.533 209.784C138.631 209.36 137.915 208.75 137.385 207.955C136.855 207.152 136.589 206.182 136.589 205.045C136.589 204.045 136.786 203.235 137.18 202.614C137.574 201.985 138.101 201.492 138.76 201.136C139.419 200.78 140.146 200.515 140.942 200.341C141.745 200.159 142.552 200.015 143.362 199.909C144.423 199.773 145.283 199.67 145.942 199.602C146.608 199.527 147.093 199.402 147.396 199.227C147.707 199.053 147.862 198.75 147.862 198.318V198.227C147.862 197.106 147.555 196.235 146.942 195.614C146.336 194.992 145.415 194.682 144.18 194.682C142.9 194.682 141.896 194.962 141.169 195.523C140.442 196.083 139.93 196.682 139.635 197.318L137.089 196.409C137.544 195.348 138.15 194.523 138.908 193.932C139.673 193.333 140.506 192.917 141.408 192.682C142.317 192.439 143.211 192.318 144.089 192.318C144.65 192.318 145.294 192.386 146.021 192.523C146.756 192.652 147.464 192.92 148.146 193.33C148.836 193.739 149.408 194.356 149.862 195.182C150.317 196.008 150.544 197.114 150.544 198.5V210H147.862V207.636H147.726C147.544 208.015 147.241 208.42 146.817 208.852C146.393 209.284 145.828 209.652 145.124 209.955C144.419 210.258 143.559 210.409 142.544 210.409ZM142.953 208C144.014 208 144.908 207.792 145.635 207.375C146.37 206.958 146.923 206.42 147.294 205.761C147.673 205.102 147.862 204.409 147.862 203.682V201.227C147.749 201.364 147.499 201.489 147.112 201.602C146.733 201.708 146.294 201.803 145.794 201.886C145.302 201.962 144.821 202.03 144.351 202.091C143.889 202.144 143.514 202.189 143.226 202.227C142.529 202.318 141.877 202.466 141.271 202.67C140.673 202.867 140.188 203.167 139.817 203.568C139.453 203.962 139.271 204.5 139.271 205.182C139.271 206.114 139.616 206.818 140.305 207.295C141.002 207.765 141.885 208 142.953 208ZM158.121 199.5V210H155.439V186.727H158.121V195.273H158.348C158.757 194.371 159.371 193.655 160.189 193.125C161.015 192.587 162.113 192.318 163.484 192.318C164.674 192.318 165.715 192.557 166.609 193.034C167.503 193.504 168.196 194.227 168.689 195.205C169.189 196.174 169.439 197.409 169.439 198.909V210H166.757V199.091C166.757 197.705 166.397 196.633 165.678 195.875C164.965 195.11 163.977 194.727 162.712 194.727C161.833 194.727 161.045 194.913 160.348 195.284C159.659 195.655 159.113 196.197 158.712 196.909C158.318 197.621 158.121 198.485 158.121 199.5ZM179.482 210.409C178.375 210.409 177.372 210.201 176.47 209.784C175.569 209.36 174.853 208.75 174.322 207.955C173.792 207.152 173.527 206.182 173.527 205.045C173.527 204.045 173.724 203.235 174.118 202.614C174.512 201.985 175.038 201.492 175.697 201.136C176.357 200.78 177.084 200.515 177.879 200.341C178.682 200.159 179.489 200.015 180.3 199.909C181.36 199.773 182.22 199.67 182.879 199.602C183.546 199.527 184.031 199.402 184.334 199.227C184.644 199.053 184.8 198.75 184.8 198.318V198.227C184.8 197.106 184.493 196.235 183.879 195.614C183.273 194.992 182.353 194.682 181.118 194.682C179.838 194.682 178.834 194.962 178.107 195.523C177.379 196.083 176.868 196.682 176.572 197.318L174.027 196.409C174.482 195.348 175.088 194.523 175.845 193.932C176.61 193.333 177.444 192.917 178.345 192.682C179.254 192.439 180.148 192.318 181.027 192.318C181.588 192.318 182.232 192.386 182.959 192.523C183.694 192.652 184.402 192.92 185.084 193.33C185.773 193.739 186.345 194.356 186.8 195.182C187.254 196.008 187.482 197.114 187.482 198.5V210H184.8V207.636H184.663C184.482 208.015 184.179 208.42 183.754 208.852C183.33 209.284 182.766 209.652 182.061 209.955C181.357 210.258 180.497 210.409 179.482 210.409ZM179.891 208C180.951 208 181.845 207.792 182.572 207.375C183.307 206.958 183.86 206.42 184.232 205.761C184.61 205.102 184.8 204.409 184.8 203.682V201.227C184.686 201.364 184.436 201.489 184.05 201.602C183.671 201.708 183.232 201.803 182.732 201.886C182.239 201.962 181.758 202.03 181.288 202.091C180.826 202.144 180.451 202.189 180.163 202.227C179.466 202.318 178.815 202.466 178.209 202.67C177.61 202.867 177.125 203.167 176.754 203.568C176.391 203.962 176.209 204.5 176.209 205.182C176.209 206.114 176.554 206.818 177.243 207.295C177.94 207.765 178.822 208 179.891 208ZM201.376 210V192.545H204.058V210H201.376ZM202.74 189.636C202.217 189.636 201.767 189.458 201.388 189.102C201.017 188.746 200.831 188.318 200.831 187.818C200.831 187.318 201.017 186.89 201.388 186.534C201.767 186.178 202.217 186 202.74 186C203.263 186 203.71 186.178 204.081 186.534C204.46 186.89 204.649 187.318 204.649 187.818C204.649 188.318 204.46 188.746 204.081 189.102C203.71 189.458 203.263 189.636 202.74 189.636ZM210.697 216.545C210.243 216.545 209.838 216.508 209.482 216.432C209.125 216.364 208.879 216.295 208.743 216.227L209.425 213.864C210.076 214.03 210.652 214.091 211.152 214.045C211.652 214 212.095 213.777 212.482 213.375C212.875 212.981 213.235 212.341 213.561 211.455L214.061 210.091L207.607 192.545H210.516L215.334 206.455H215.516L220.334 192.545H223.243L215.834 212.545C215.5 213.447 215.088 214.193 214.595 214.784C214.103 215.383 213.531 215.826 212.879 216.114C212.235 216.402 211.508 216.545 210.697 216.545ZM226.783 210V192.545H229.464V210H226.783ZM228.146 189.636C227.624 189.636 227.173 189.458 226.794 189.102C226.423 188.746 226.237 188.318 226.237 187.818C226.237 187.318 226.423 186.89 226.794 186.534C227.173 186.178 227.624 186 228.146 186C228.669 186 229.116 186.178 229.487 186.534C229.866 186.89 230.055 187.318 230.055 187.818C230.055 188.318 229.866 188.746 229.487 189.102C229.116 189.458 228.669 189.636 228.146 189.636ZM243.74 210V186.727H246.422V195.318H246.649C246.846 195.015 247.119 194.629 247.467 194.159C247.823 193.682 248.331 193.258 248.99 192.886C249.657 192.508 250.558 192.318 251.695 192.318C253.164 192.318 254.46 192.686 255.581 193.42C256.702 194.155 257.577 195.197 258.206 196.545C258.835 197.894 259.149 199.485 259.149 201.318C259.149 203.167 258.835 204.769 258.206 206.125C257.577 207.473 256.706 208.519 255.592 209.261C254.479 209.996 253.195 210.364 251.74 210.364C250.619 210.364 249.721 210.178 249.047 209.807C248.373 209.428 247.854 209 247.49 208.523C247.126 208.038 246.846 207.636 246.649 207.318H246.331V210H243.74ZM246.376 201.273C246.376 202.591 246.57 203.754 246.956 204.761C247.342 205.761 247.907 206.545 248.649 207.114C249.392 207.674 250.301 207.955 251.376 207.955C252.498 207.955 253.433 207.659 254.183 207.068C254.941 206.47 255.509 205.667 255.888 204.659C256.274 203.644 256.467 202.515 256.467 201.273C256.467 200.045 256.278 198.939 255.899 197.955C255.528 196.962 254.964 196.178 254.206 195.602C253.456 195.019 252.513 194.727 251.376 194.727C250.286 194.727 249.369 195.004 248.626 195.557C247.884 196.102 247.323 196.867 246.945 197.852C246.566 198.83 246.376 199.97 246.376 201.273ZM263.251 210V192.545H265.933V210H263.251ZM264.615 189.636C264.092 189.636 263.642 189.458 263.263 189.102C262.892 188.746 262.706 188.318 262.706 187.818C262.706 187.318 262.892 186.89 263.263 186.534C263.642 186.178 264.092 186 264.615 186C265.138 186 265.585 186.178 265.956 186.534C266.335 186.89 266.524 187.318 266.524 187.818C266.524 188.318 266.335 188.746 265.956 189.102C265.585 189.458 265.138 189.636 264.615 189.636ZM270.845 210V192.545H273.436V195.182H273.618C273.936 194.318 274.512 193.617 275.345 193.08C276.179 192.542 277.118 192.273 278.163 192.273C278.36 192.273 278.607 192.277 278.902 192.284C279.197 192.292 279.421 192.303 279.572 192.318V195.045C279.482 195.023 279.273 194.989 278.947 194.943C278.629 194.89 278.292 194.864 277.936 194.864C277.088 194.864 276.33 195.042 275.663 195.398C275.004 195.746 274.482 196.231 274.095 196.852C273.716 197.466 273.527 198.167 273.527 198.955V210H270.845ZM308.024 194C307.774 193.235 307.445 192.549 307.036 191.943C306.634 191.33 306.153 190.807 305.592 190.375C305.039 189.943 304.411 189.614 303.706 189.386C303.001 189.159 302.229 189.045 301.388 189.045C300.009 189.045 298.755 189.402 297.626 190.114C296.498 190.826 295.6 191.875 294.933 193.261C294.267 194.648 293.933 196.348 293.933 198.364C293.933 200.379 294.27 202.08 294.945 203.466C295.619 204.852 296.532 205.902 297.683 206.614C298.835 207.326 300.13 207.682 301.57 207.682C302.903 207.682 304.077 207.398 305.092 206.83C306.115 206.254 306.911 205.443 307.479 204.398C308.054 203.345 308.342 202.106 308.342 200.682L309.206 200.864H302.206V198.364H311.07V200.864C311.07 202.78 310.661 204.447 309.842 205.864C309.032 207.28 307.911 208.379 306.479 209.159C305.054 209.932 303.418 210.318 301.57 210.318C299.509 210.318 297.698 209.833 296.138 208.864C294.585 207.894 293.373 206.515 292.501 204.727C291.638 202.939 291.206 200.818 291.206 198.364C291.206 196.523 291.452 194.867 291.945 193.398C292.445 191.92 293.149 190.663 294.058 189.625C294.967 188.587 296.043 187.792 297.286 187.239C298.528 186.686 299.895 186.409 301.388 186.409C302.615 186.409 303.759 186.595 304.82 186.966C305.888 187.33 306.839 187.848 307.672 188.523C308.513 189.189 309.214 189.989 309.774 190.92C310.335 191.845 310.721 192.871 310.933 194H308.024ZM320.669 210.409C319.563 210.409 318.559 210.201 317.658 209.784C316.756 209.36 316.04 208.75 315.51 207.955C314.98 207.152 314.714 206.182 314.714 205.045C314.714 204.045 314.911 203.235 315.305 202.614C315.699 201.985 316.226 201.492 316.885 201.136C317.544 200.78 318.271 200.515 319.067 200.341C319.87 200.159 320.677 200.015 321.487 199.909C322.548 199.773 323.408 199.67 324.067 199.602C324.733 199.527 325.218 199.402 325.521 199.227C325.832 199.053 325.987 198.75 325.987 198.318V198.227C325.987 197.106 325.68 196.235 325.067 195.614C324.461 194.992 323.54 194.682 322.305 194.682C321.025 194.682 320.021 194.962 319.294 195.523C318.567 196.083 318.055 196.682 317.76 197.318L315.214 196.409C315.669 195.348 316.275 194.523 317.033 193.932C317.798 193.333 318.631 192.917 319.533 192.682C320.442 192.439 321.336 192.318 322.214 192.318C322.775 192.318 323.419 192.386 324.146 192.523C324.881 192.652 325.589 192.92 326.271 193.33C326.961 193.739 327.533 194.356 327.987 195.182C328.442 196.008 328.669 197.114 328.669 198.5V210H325.987V207.636H325.851C325.669 208.015 325.366 208.42 324.942 208.852C324.518 209.284 323.953 209.652 323.249 209.955C322.544 210.258 321.684 210.409 320.669 210.409ZM321.078 208C322.139 208 323.033 207.792 323.76 207.375C324.495 206.958 325.048 206.42 325.419 205.761C325.798 205.102 325.987 204.409 325.987 203.682V201.227C325.874 201.364 325.624 201.489 325.237 201.602C324.858 201.708 324.419 201.803 323.919 201.886C323.427 201.962 322.946 202.03 322.476 202.091C322.014 202.144 321.639 202.189 321.351 202.227C320.654 202.318 320.002 202.466 319.396 202.67C318.798 202.867 318.313 203.167 317.942 203.568C317.578 203.962 317.396 204.5 317.396 205.182C317.396 206.114 317.741 206.818 318.43 207.295C319.127 207.765 320.01 208 321.078 208ZM333.564 216.545V192.545H336.155V195.318H336.473C336.67 195.015 336.943 194.629 337.291 194.159C337.647 193.682 338.155 193.258 338.814 192.886C339.481 192.508 340.382 192.318 341.518 192.318C342.988 192.318 344.284 192.686 345.405 193.42C346.526 194.155 347.401 195.197 348.03 196.545C348.659 197.894 348.973 199.485 348.973 201.318C348.973 203.167 348.659 204.769 348.03 206.125C347.401 207.473 346.53 208.519 345.416 209.261C344.303 209.996 343.018 210.364 341.564 210.364C340.443 210.364 339.545 210.178 338.871 209.807C338.196 209.428 337.678 209 337.314 208.523C336.95 208.038 336.67 207.636 336.473 207.318H336.246V216.545H333.564ZM336.2 201.273C336.2 202.591 336.393 203.754 336.78 204.761C337.166 205.761 337.731 206.545 338.473 207.114C339.215 207.674 340.125 207.955 341.2 207.955C342.321 207.955 343.257 207.659 344.007 207.068C344.765 206.47 345.333 205.667 345.712 204.659C346.098 203.644 346.291 202.515 346.291 201.273C346.291 200.045 346.102 198.939 345.723 197.955C345.352 196.962 344.787 196.178 344.03 195.602C343.28 195.019 342.337 194.727 341.2 194.727C340.109 194.727 339.193 195.004 338.45 195.557C337.708 196.102 337.147 196.867 336.768 197.852C336.39 198.83 336.2 199.97 336.2 201.273ZM357.064 206.818L356.882 208.045C356.753 208.909 356.556 209.833 356.291 210.818C356.034 211.803 355.765 212.731 355.484 213.602C355.204 214.473 354.973 215.167 354.791 215.682H352.746C352.844 215.197 352.973 214.557 353.132 213.761C353.291 212.966 353.45 212.076 353.609 211.091C353.776 210.114 353.912 209.114 354.018 208.091L354.155 206.818H357.064ZM377.624 210.364C376.169 210.364 374.885 209.996 373.771 209.261C372.658 208.519 371.786 207.473 371.158 206.125C370.529 204.769 370.214 203.167 370.214 201.318C370.214 199.485 370.529 197.894 371.158 196.545C371.786 195.197 372.661 194.155 373.783 193.42C374.904 192.686 376.199 192.318 377.669 192.318C378.805 192.318 379.703 192.508 380.362 192.886C381.029 193.258 381.536 193.682 381.885 194.159C382.241 194.629 382.518 195.015 382.714 195.318H382.942V186.727H385.624V210H383.033V207.318H382.714C382.518 207.636 382.237 208.038 381.874 208.523C381.51 209 380.991 209.428 380.317 209.807C379.643 210.178 378.745 210.364 377.624 210.364ZM377.987 207.955C379.063 207.955 379.972 207.674 380.714 207.114C381.457 206.545 382.021 205.761 382.408 204.761C382.794 203.754 382.987 202.591 382.987 201.273C382.987 199.97 382.798 198.83 382.419 197.852C382.04 196.867 381.48 196.102 380.737 195.557C379.995 195.004 379.078 194.727 377.987 194.727C376.851 194.727 375.904 195.019 375.146 195.602C374.396 196.178 373.832 196.962 373.453 197.955C373.082 198.939 372.896 200.045 372.896 201.273C372.896 202.515 373.086 203.644 373.464 204.659C373.851 205.667 374.419 206.47 375.169 207.068C375.927 207.659 376.866 207.955 377.987 207.955ZM396.044 210.409C394.938 210.409 393.934 210.201 393.033 209.784C392.131 209.36 391.415 208.75 390.885 207.955C390.355 207.152 390.089 206.182 390.089 205.045C390.089 204.045 390.286 203.235 390.68 202.614C391.074 201.985 391.601 201.492 392.26 201.136C392.919 200.78 393.646 200.515 394.442 200.341C395.245 200.159 396.052 200.015 396.862 199.909C397.923 199.773 398.783 199.67 399.442 199.602C400.108 199.527 400.593 199.402 400.896 199.227C401.207 199.053 401.362 198.75 401.362 198.318V198.227C401.362 197.106 401.055 196.235 400.442 195.614C399.836 194.992 398.915 194.682 397.68 194.682C396.4 194.682 395.396 194.962 394.669 195.523C393.942 196.083 393.43 196.682 393.135 197.318L390.589 196.409C391.044 195.348 391.65 194.523 392.408 193.932C393.173 193.333 394.006 192.917 394.908 192.682C395.817 192.439 396.711 192.318 397.589 192.318C398.15 192.318 398.794 192.386 399.521 192.523C400.256 192.652 400.964 192.92 401.646 193.33C402.336 193.739 402.908 194.356 403.362 195.182C403.817 196.008 404.044 197.114 404.044 198.5V210H401.362V207.636H401.226C401.044 208.015 400.741 208.42 400.317 208.852C399.893 209.284 399.328 209.652 398.624 209.955C397.919 210.258 397.059 210.409 396.044 210.409ZM396.453 208C397.514 208 398.408 207.792 399.135 207.375C399.87 206.958 400.423 206.42 400.794 205.761C401.173 205.102 401.362 204.409 401.362 203.682V201.227C401.249 201.364 400.999 201.489 400.612 201.602C400.233 201.708 399.794 201.803 399.294 201.886C398.802 201.962 398.321 202.03 397.851 202.091C397.389 202.144 397.014 202.189 396.726 202.227C396.029 202.318 395.377 202.466 394.771 202.67C394.173 202.867 393.688 203.167 393.317 203.568C392.953 203.962 392.771 204.5 392.771 205.182C392.771 206.114 393.116 206.818 393.805 207.295C394.502 207.765 395.385 208 396.453 208ZM411.621 199.5V210H408.939V186.727H411.621V195.273H411.848C412.257 194.371 412.871 193.655 413.689 193.125C414.515 192.587 415.613 192.318 416.984 192.318C418.174 192.318 419.215 192.557 420.109 193.034C421.003 193.504 421.696 194.227 422.189 195.205C422.689 196.174 422.939 197.409 422.939 198.909V210H420.257V199.091C420.257 197.705 419.897 196.633 419.178 195.875C418.465 195.11 417.477 194.727 416.212 194.727C415.333 194.727 414.545 194.913 413.848 195.284C413.159 195.655 412.613 196.197 412.212 196.909C411.818 197.621 411.621 198.485 411.621 199.5ZM432.982 210.409C431.875 210.409 430.872 210.201 429.97 209.784C429.069 209.36 428.353 208.75 427.822 207.955C427.292 207.152 427.027 206.182 427.027 205.045C427.027 204.045 427.224 203.235 427.618 202.614C428.012 201.985 428.538 201.492 429.197 201.136C429.857 200.78 430.584 200.515 431.379 200.341C432.182 200.159 432.989 200.015 433.8 199.909C434.86 199.773 435.72 199.67 436.379 199.602C437.046 199.527 437.531 199.402 437.834 199.227C438.144 199.053 438.3 198.75 438.3 198.318V198.227C438.3 197.106 437.993 196.235 437.379 195.614C436.773 194.992 435.853 194.682 434.618 194.682C433.338 194.682 432.334 194.962 431.607 195.523C430.879 196.083 430.368 196.682 430.072 197.318L427.527 196.409C427.982 195.348 428.588 194.523 429.345 193.932C430.11 193.333 430.944 192.917 431.845 192.682C432.754 192.439 433.648 192.318 434.527 192.318C435.088 192.318 435.732 192.386 436.459 192.523C437.194 192.652 437.902 192.92 438.584 193.33C439.273 193.739 439.845 194.356 440.3 195.182C440.754 196.008 440.982 197.114 440.982 198.5V210H438.3V207.636H438.163C437.982 208.015 437.679 208.42 437.254 208.852C436.83 209.284 436.266 209.652 435.561 209.955C434.857 210.258 433.997 210.409 432.982 210.409ZM433.391 208C434.451 208 435.345 207.792 436.072 207.375C436.807 206.958 437.36 206.42 437.732 205.761C438.11 205.102 438.3 204.409 438.3 203.682V201.227C438.186 201.364 437.936 201.489 437.55 201.602C437.171 201.708 436.732 201.803 436.232 201.886C435.739 201.962 435.258 202.03 434.788 202.091C434.326 202.144 433.951 202.189 433.663 202.227C432.966 202.318 432.315 202.466 431.709 202.67C431.11 202.867 430.625 203.167 430.254 203.568C429.891 203.962 429.709 204.5 429.709 205.182C429.709 206.114 430.054 206.818 430.743 207.295C431.44 207.765 432.322 208 433.391 208ZM454.876 210V192.545H457.558V210H454.876ZM456.24 189.636C455.717 189.636 455.267 189.458 454.888 189.102C454.517 188.746 454.331 188.318 454.331 187.818C454.331 187.318 454.517 186.89 454.888 186.534C455.267 186.178 455.717 186 456.24 186C456.763 186 457.21 186.178 457.581 186.534C457.96 186.89 458.149 187.318 458.149 187.818C458.149 188.318 457.96 188.746 457.581 189.102C457.21 189.458 456.763 189.636 456.24 189.636ZM464.197 216.545C463.743 216.545 463.338 216.508 462.982 216.432C462.625 216.364 462.379 216.295 462.243 216.227L462.925 213.864C463.576 214.03 464.152 214.091 464.652 214.045C465.152 214 465.595 213.777 465.982 213.375C466.375 212.981 466.735 212.341 467.061 211.455L467.561 210.091L461.107 192.545H464.016L468.834 206.455H469.016L473.834 192.545H476.743L469.334 212.545C469 213.447 468.588 214.193 468.095 214.784C467.603 215.383 467.031 215.826 466.379 216.114C465.735 216.402 465.008 216.545 464.197 216.545ZM480.283 210V192.545H482.964V210H480.283ZM481.646 189.636C481.124 189.636 480.673 189.458 480.294 189.102C479.923 188.746 479.737 188.318 479.737 187.818C479.737 187.318 479.923 186.89 480.294 186.534C480.673 186.178 481.124 186 481.646 186C482.169 186 482.616 186.178 482.987 186.534C483.366 186.89 483.555 187.318 483.555 187.818C483.555 188.318 483.366 188.746 482.987 189.102C482.616 189.458 482.169 189.636 481.646 189.636ZM497.24 210V186.727H499.922V195.318H500.149C500.346 195.015 500.619 194.629 500.967 194.159C501.323 193.682 501.831 193.258 502.49 192.886C503.157 192.508 504.058 192.318 505.195 192.318C506.664 192.318 507.96 192.686 509.081 193.42C510.202 194.155 511.077 195.197 511.706 196.545C512.335 197.894 512.649 199.485 512.649 201.318C512.649 203.167 512.335 204.769 511.706 206.125C511.077 207.473 510.206 208.519 509.092 209.261C507.979 209.996 506.695 210.364 505.24 210.364C504.119 210.364 503.221 210.178 502.547 209.807C501.873 209.428 501.354 209 500.99 208.523C500.626 208.038 500.346 207.636 500.149 207.318H499.831V210H497.24ZM499.876 201.273C499.876 202.591 500.07 203.754 500.456 204.761C500.842 205.761 501.407 206.545 502.149 207.114C502.892 207.674 503.801 207.955 504.876 207.955C505.998 207.955 506.933 207.659 507.683 207.068C508.441 206.47 509.009 205.667 509.388 204.659C509.774 203.644 509.967 202.515 509.967 201.273C509.967 200.045 509.778 198.939 509.399 197.955C509.028 196.962 508.464 196.178 507.706 195.602C506.956 195.019 506.013 194.727 504.876 194.727C503.786 194.727 502.869 195.004 502.126 195.557C501.384 196.102 500.823 196.867 500.445 197.852C500.066 198.83 499.876 199.97 499.876 201.273ZM516.751 210V192.545H519.433V210H516.751ZM518.115 189.636C517.592 189.636 517.142 189.458 516.763 189.102C516.392 188.746 516.206 188.318 516.206 187.818C516.206 187.318 516.392 186.89 516.763 186.534C517.142 186.178 517.592 186 518.115 186C518.638 186 519.085 186.178 519.456 186.534C519.835 186.89 520.024 187.318 520.024 187.818C520.024 188.318 519.835 188.746 519.456 189.102C519.085 189.458 518.638 189.636 518.115 189.636ZM524.345 210V192.545H526.936V195.182H527.118C527.436 194.318 528.012 193.617 528.845 193.08C529.679 192.542 530.618 192.273 531.663 192.273C531.86 192.273 532.107 192.277 532.402 192.284C532.697 192.292 532.921 192.303 533.072 192.318V195.045C532.982 195.023 532.773 194.989 532.447 194.943C532.129 194.89 531.792 194.864 531.436 194.864C530.588 194.864 529.83 195.042 529.163 195.398C528.504 195.746 527.982 196.231 527.595 196.852C527.216 197.466 527.027 198.167 527.027 198.955V210H524.345ZM552.297 216.909C551.001 216.909 549.888 216.742 548.956 216.409C548.024 216.083 547.248 215.652 546.626 215.114C546.013 214.583 545.524 214.015 545.161 213.409L547.297 211.909C547.539 212.227 547.846 212.591 548.217 213C548.589 213.417 549.096 213.777 549.74 214.08C550.392 214.39 551.244 214.545 552.297 214.545C553.706 214.545 554.869 214.205 555.786 213.523C556.702 212.841 557.161 211.773 557.161 210.318V206.773H556.933C556.736 207.091 556.456 207.485 556.092 207.955C555.736 208.417 555.221 208.83 554.547 209.193C553.88 209.549 552.979 209.727 551.842 209.727C550.433 209.727 549.168 209.394 548.047 208.727C546.933 208.061 546.051 207.091 545.399 205.818C544.755 204.545 544.433 203 544.433 201.182C544.433 199.394 544.748 197.837 545.376 196.511C546.005 195.178 546.88 194.148 548.001 193.42C549.123 192.686 550.418 192.318 551.888 192.318C553.024 192.318 553.926 192.508 554.592 192.886C555.267 193.258 555.782 193.682 556.138 194.159C556.501 194.629 556.782 195.015 556.979 195.318H557.251V192.545H559.842V210.5C559.842 212 559.501 213.22 558.82 214.159C558.145 215.106 557.236 215.799 556.092 216.239C554.956 216.686 553.691 216.909 552.297 216.909ZM552.206 207.318C553.282 207.318 554.191 207.072 554.933 206.58C555.676 206.087 556.24 205.379 556.626 204.455C557.013 203.53 557.206 202.424 557.206 201.136C557.206 199.879 557.017 198.769 556.638 197.807C556.259 196.845 555.698 196.091 554.956 195.545C554.214 195 553.297 194.727 552.206 194.727C551.07 194.727 550.123 195.015 549.365 195.591C548.615 196.167 548.051 196.939 547.672 197.909C547.301 198.879 547.115 199.955 547.115 201.136C547.115 202.348 547.304 203.42 547.683 204.352C548.07 205.277 548.638 206.004 549.388 206.534C550.145 207.057 551.085 207.318 552.206 207.318ZM572.07 210.364C570.388 210.364 568.937 209.992 567.717 209.25C566.505 208.5 565.57 207.455 564.911 206.114C564.259 204.765 563.933 203.197 563.933 201.409C563.933 199.621 564.259 198.045 564.911 196.682C565.57 195.311 566.486 194.242 567.661 193.477C568.842 192.705 570.221 192.318 571.797 192.318C572.706 192.318 573.604 192.47 574.49 192.773C575.376 193.076 576.183 193.568 576.911 194.25C577.638 194.924 578.217 195.818 578.649 196.932C579.081 198.045 579.297 199.417 579.297 201.045V202.182H565.842V199.864H576.57C576.57 198.879 576.373 198 575.979 197.227C575.592 196.455 575.039 195.845 574.32 195.398C573.607 194.951 572.767 194.727 571.797 194.727C570.729 194.727 569.804 194.992 569.024 195.523C568.251 196.045 567.657 196.727 567.24 197.568C566.823 198.409 566.615 199.311 566.615 200.273V201.818C566.615 203.136 566.842 204.254 567.297 205.17C567.759 206.08 568.399 206.773 569.217 207.25C570.036 207.72 570.986 207.955 572.07 207.955C572.774 207.955 573.411 207.856 573.979 207.659C574.554 207.455 575.051 207.152 575.467 206.75C575.884 206.341 576.206 205.833 576.433 205.227L579.024 205.955C578.751 206.833 578.293 207.606 577.649 208.273C577.005 208.932 576.21 209.447 575.263 209.818C574.316 210.182 573.251 210.364 572.07 210.364ZM586.058 186.727V210H583.376V186.727H586.058ZM598.288 210.364C596.607 210.364 595.156 209.992 593.936 209.25C592.724 208.5 591.788 207.455 591.129 206.114C590.478 204.765 590.152 203.197 590.152 201.409C590.152 199.621 590.478 198.045 591.129 196.682C591.788 195.311 592.705 194.242 593.879 193.477C595.061 192.705 596.44 192.318 598.016 192.318C598.925 192.318 599.822 192.47 600.709 192.773C601.595 193.076 602.402 193.568 603.129 194.25C603.857 194.924 604.436 195.818 604.868 196.932C605.3 198.045 605.516 199.417 605.516 201.045V202.182H592.061V199.864H602.788C602.788 198.879 602.591 198 602.197 197.227C601.811 196.455 601.258 195.845 600.538 195.398C599.826 194.951 598.985 194.727 598.016 194.727C596.947 194.727 596.023 194.992 595.243 195.523C594.47 196.045 593.875 196.727 593.459 197.568C593.042 198.409 592.834 199.311 592.834 200.273V201.818C592.834 203.136 593.061 204.254 593.516 205.17C593.978 206.08 594.618 206.773 595.436 207.25C596.254 207.72 597.205 207.955 598.288 207.955C598.993 207.955 599.629 207.856 600.197 207.659C600.773 207.455 601.269 207.152 601.686 206.75C602.103 206.341 602.425 205.833 602.652 205.227L605.243 205.955C604.97 206.833 604.512 207.606 603.868 208.273C603.224 208.932 602.429 209.447 601.482 209.818C600.535 210.182 599.47 210.364 598.288 210.364ZM616.686 210.364C615.05 210.364 613.641 209.977 612.459 209.205C611.277 208.432 610.368 207.367 609.732 206.011C609.095 204.655 608.777 203.106 608.777 201.364C608.777 199.591 609.103 198.027 609.754 196.67C610.413 195.307 611.33 194.242 612.504 193.477C613.686 192.705 615.065 192.318 616.641 192.318C617.868 192.318 618.974 192.545 619.959 193C620.944 193.455 621.75 194.091 622.379 194.909C623.008 195.727 623.398 196.682 623.55 197.773H620.868C620.663 196.977 620.209 196.273 619.504 195.659C618.807 195.038 617.868 194.727 616.686 194.727C615.641 194.727 614.724 195 613.936 195.545C613.156 196.083 612.546 196.845 612.107 197.83C611.675 198.807 611.459 199.955 611.459 201.273C611.459 202.621 611.671 203.795 612.095 204.795C612.527 205.795 613.133 206.572 613.913 207.125C614.701 207.678 615.625 207.955 616.686 207.955C617.383 207.955 618.016 207.833 618.584 207.591C619.152 207.348 619.633 207 620.027 206.545C620.421 206.091 620.701 205.545 620.868 204.909H623.55C623.398 205.939 623.023 206.867 622.425 207.693C621.834 208.511 621.05 209.163 620.072 209.648C619.103 210.125 617.974 210.364 616.686 210.364ZM634.788 210.364C633.107 210.364 631.656 209.992 630.436 209.25C629.224 208.5 628.288 207.455 627.629 206.114C626.978 204.765 626.652 203.197 626.652 201.409C626.652 199.621 626.978 198.045 627.629 196.682C628.288 195.311 629.205 194.242 630.379 193.477C631.561 192.705 632.94 192.318 634.516 192.318C635.425 192.318 636.322 192.47 637.209 192.773C638.095 193.076 638.902 193.568 639.629 194.25C640.357 194.924 640.936 195.818 641.368 196.932C641.8 198.045 642.016 199.417 642.016 201.045V202.182H628.561V199.864H639.288C639.288 198.879 639.091 198 638.697 197.227C638.311 196.455 637.758 195.845 637.038 195.398C636.326 194.951 635.485 194.727 634.516 194.727C633.447 194.727 632.523 194.992 631.743 195.523C630.97 196.045 630.375 196.727 629.959 197.568C629.542 198.409 629.334 199.311 629.334 200.273V201.818C629.334 203.136 629.561 204.254 630.016 205.17C630.478 206.08 631.118 206.773 631.936 207.25C632.754 207.72 633.705 207.955 634.788 207.955C635.493 207.955 636.129 207.856 636.697 207.659C637.273 207.455 637.769 207.152 638.186 206.75C638.603 206.341 638.925 205.833 639.152 205.227L641.743 205.955C641.47 206.833 641.012 207.606 640.368 208.273C639.724 208.932 638.929 209.447 637.982 209.818C637.035 210.182 635.97 210.364 634.788 210.364ZM648.595 203.636L648.55 200.318H649.095L656.732 192.545H660.05L651.913 200.773H651.686L648.595 203.636ZM646.095 210V186.727H648.777V210H646.095ZM657.186 210L650.368 201.364L652.277 199.5L660.595 210H657.186ZM665.456 210.182C664.895 210.182 664.414 209.981 664.013 209.58C663.611 209.178 663.411 208.697 663.411 208.136C663.411 207.576 663.611 207.095 664.013 206.693C664.414 206.292 664.895 206.091 665.456 206.091C666.017 206.091 666.498 206.292 666.899 206.693C667.301 207.095 667.501 207.576 667.501 208.136C667.501 208.508 667.407 208.848 667.217 209.159C667.036 209.47 666.789 209.72 666.479 209.909C666.176 210.091 665.835 210.182 665.456 210.182ZM672.865 186.727V188.773C672.865 189.394 672.751 190.057 672.524 190.761C672.304 191.458 671.979 192.136 671.547 192.795C671.123 193.447 670.607 194.015 670.001 194.5L668.547 193.318C669.024 192.636 669.437 191.928 669.786 191.193C670.142 190.451 670.32 189.659 670.32 188.818V186.727H672.865ZM678.683 186.727V188.773C678.683 189.394 678.57 190.057 678.342 190.761C678.123 191.458 677.797 192.136 677.365 192.795C676.941 193.447 676.426 194.015 675.82 194.5L674.365 193.318C674.842 192.636 675.255 191.928 675.604 191.193C675.96 190.451 676.138 189.659 676.138 188.818V186.727H678.683Z" fill="white"/>
<rect x="48" y="292" width="683" height="75.1208" rx="4" stroke="white" stroke-width="2"/>
<path d="M696.25 321.506L697.002 320.847L696.25 321.506ZM702.812 329.003L703.565 328.345L703.565 328.345L702.812 329.003ZM703.75 330.075L704.502 329.416L705.079 330.075L704.502 330.733L703.75 330.075ZM696.25 338.644L695.498 337.985L695.498 337.985L696.25 338.644ZM665.312 331.075C664.76 331.075 664.312 330.627 664.312 330.075C664.312 329.522 664.76 329.075 665.312 329.075V331.075ZM697.002 320.847L703.565 328.345L702.06 329.662L695.498 322.164L697.002 320.847ZM703.565 328.345L704.502 329.416L702.998 330.733L702.06 329.662L703.565 328.345ZM704.502 330.733L697.002 339.302L695.498 337.985L702.998 329.416L704.502 330.733ZM703.75 331.075H665.312V329.075H703.75V331.075ZM696.065 319.776L697.002 320.847L695.498 322.164L694.56 321.093L696.065 319.776ZM697.002 339.302L696.065 340.373L694.56 339.056L695.498 337.985L697.002 339.302Z" fill="white"/>
<path d="M85.517 338.82V321.366H89.2074V329.062H89.4375L95.7188 321.366H100.142L93.6648 329.181L100.219 338.82H95.804L91.0227 331.644L89.2074 333.86V338.82H85.517ZM103.264 338.82V321.366H115.025V324.408H106.954V328.567H114.42V331.61H106.954V335.777H115.059V338.82H103.264ZM128.628 326.385C128.56 325.698 128.267 325.164 127.75 324.783C127.233 324.402 126.531 324.212 125.645 324.212C125.043 324.212 124.534 324.297 124.119 324.468C123.705 324.633 123.387 324.863 123.165 325.158C122.949 325.454 122.841 325.789 122.841 326.164C122.83 326.476 122.895 326.749 123.037 326.982C123.185 327.215 123.387 327.417 123.642 327.587C123.898 327.752 124.193 327.897 124.529 328.022C124.864 328.141 125.222 328.243 125.602 328.329L127.171 328.704C127.932 328.874 128.631 329.101 129.267 329.385C129.904 329.669 130.455 330.019 130.921 330.434C131.387 330.848 131.747 331.337 132.003 331.9C132.264 332.462 132.398 333.107 132.404 333.834C132.398 334.902 132.125 335.829 131.585 336.613C131.051 337.391 130.279 337.996 129.267 338.428C128.262 338.854 127.048 339.067 125.628 339.067C124.219 339.067 122.992 338.851 121.946 338.42C120.906 337.988 120.094 337.348 119.509 336.502C118.929 335.65 118.625 334.596 118.597 333.34H122.168C122.208 333.925 122.375 334.414 122.671 334.806C122.972 335.192 123.372 335.485 123.872 335.684C124.378 335.877 124.949 335.973 125.585 335.973C126.21 335.973 126.753 335.883 127.213 335.701C127.679 335.519 128.04 335.266 128.296 334.942C128.551 334.618 128.679 334.246 128.679 333.826C128.679 333.434 128.563 333.104 128.33 332.837C128.102 332.57 127.767 332.343 127.324 332.155C126.887 331.968 126.35 331.797 125.713 331.644L123.813 331.167C122.341 330.809 121.179 330.249 120.327 329.488C119.475 328.726 119.051 327.701 119.057 326.411C119.051 325.354 119.333 324.431 119.901 323.641C120.475 322.851 121.262 322.235 122.262 321.792C123.262 321.348 124.398 321.127 125.671 321.127C126.966 321.127 128.097 321.348 129.063 321.792C130.034 322.235 130.79 322.851 131.33 323.641C131.869 324.431 132.148 325.346 132.165 326.385H128.628ZM124.69 338.752H126.361L126.225 339.493C126.81 339.584 127.287 339.803 127.656 340.15C128.031 340.496 128.222 340.968 128.227 341.564C128.233 342.411 127.841 343.084 127.051 343.584C126.262 344.09 125.154 344.343 123.727 344.343L123.693 342.723C124.409 342.723 124.969 342.635 125.372 342.459C125.781 342.289 125.994 342.022 126.012 341.658C126.023 341.312 125.889 341.047 125.611 340.866C125.333 340.684 124.898 340.556 124.307 340.482L124.69 338.752ZM136.086 338.82V321.366H147.643V324.408H139.776V328.567H146.876V331.61H139.776V338.82H136.086ZM151.325 338.82V321.366H163.086V324.408H155.015V328.567H162.481V331.61H155.015V335.777H163.12V338.82H151.325ZM166.555 324.408V321.366H180.891V324.408H175.547V338.82H171.899V324.408H166.555Z" fill="white"/>
</svg>
