<svg width="1920" height="950" viewBox="0 0 1920 950" fill="none" xmlns="http://www.w3.org/2000/svg">
<path d="M76.2898 466.727C76.0767 464.928 75.2126 463.531 73.6974 462.537C72.1823 461.543 70.3239 461.046 68.1222 461.046C66.5123 461.046 65.1037 461.306 63.8963 461.827C62.7008 462.348 61.7656 463.064 61.0909 463.975C60.428 464.887 60.0966 465.922 60.0966 467.083C60.0966 468.053 60.3274 468.888 60.7891 469.586C61.2625 470.273 61.8662 470.847 62.6001 471.308C63.334 471.758 64.1035 472.131 64.9084 472.427C65.7133 472.711 66.4531 472.942 67.1278 473.119L70.821 474.114C71.768 474.362 72.8215 474.706 73.9815 475.144C75.1534 475.582 76.272 476.179 77.3374 476.937C78.4145 477.683 79.3023 478.641 80.0007 479.813C80.6991 480.985 81.0483 482.423 81.0483 484.128C81.0483 486.093 80.5334 487.868 79.5036 489.455C78.4856 491.041 76.9941 492.301 75.0291 493.237C73.076 494.172 70.7027 494.639 67.9091 494.639C65.3049 494.639 63.05 494.219 61.1442 493.379C59.2502 492.538 57.7588 491.366 56.6697 489.863C55.5926 488.36 54.983 486.614 54.8409 484.625H59.3864C59.5047 485.998 59.9664 487.135 60.7713 488.034C61.5881 488.922 62.6179 489.585 63.8608 490.023C65.1155 490.449 66.465 490.662 67.9091 490.662C69.59 490.662 71.0992 490.39 72.4368 489.845C73.7744 489.289 74.8338 488.52 75.6151 487.537C76.3963 486.543 76.7869 485.383 76.7869 484.057C76.7869 482.85 76.4496 481.867 75.7749 481.109C75.1001 480.352 74.2124 479.736 73.1115 479.263C72.0107 478.789 70.821 478.375 69.5426 478.02L65.0682 476.742C62.2273 475.925 59.9782 474.759 58.321 473.244C56.6638 471.729 55.8352 469.746 55.8352 467.296C55.8352 465.26 56.3857 463.484 57.4865 461.969C58.5992 460.442 60.0907 459.258 61.9609 458.418C63.843 457.565 65.9441 457.139 68.2642 457.139C70.608 457.139 72.6913 457.56 74.5142 458.4C76.3371 459.229 77.7813 460.365 78.8466 461.809C79.9238 463.253 80.492 464.893 80.5511 466.727H76.2898ZM91.9103 477.594V494H87.72V457.636H91.9103V470.989H92.2654C92.9047 469.58 93.8635 468.462 95.1419 467.633C96.4321 466.792 98.1485 466.372 100.291 466.372C102.149 466.372 103.777 466.745 105.174 467.491C106.571 468.225 107.654 469.355 108.423 470.882C109.204 472.397 109.595 474.327 109.595 476.671V494H105.405V476.955C105.405 474.788 104.842 473.114 103.718 471.93C102.605 470.734 101.06 470.136 99.0836 470.136C97.7105 470.136 96.4795 470.426 95.3904 471.007C94.3133 471.587 93.461 472.433 92.8336 473.546C92.2181 474.658 91.9103 476.008 91.9103 477.594ZM128.341 494.568C125.878 494.568 123.718 493.982 121.86 492.81C120.013 491.639 118.569 489.999 117.527 487.892C116.498 485.785 115.983 483.323 115.983 480.506C115.983 477.665 116.498 475.185 117.527 473.066C118.569 470.947 120.013 469.302 121.86 468.13C123.718 466.958 125.878 466.372 128.341 466.372C130.803 466.372 132.957 466.958 134.804 468.13C136.662 469.302 138.106 470.947 139.136 473.066C140.178 475.185 140.699 477.665 140.699 480.506C140.699 483.323 140.178 485.785 139.136 487.892C138.106 489.999 136.662 491.639 134.804 492.81C132.957 493.982 130.803 494.568 128.341 494.568ZM128.341 490.804C130.211 490.804 131.75 490.325 132.957 489.366C134.164 488.407 135.058 487.146 135.638 485.584C136.218 484.021 136.508 482.329 136.508 480.506C136.508 478.683 136.218 476.984 135.638 475.41C135.058 473.836 134.164 472.563 132.957 471.592C131.75 470.622 130.211 470.136 128.341 470.136C126.47 470.136 124.931 470.622 123.724 471.592C122.517 472.563 121.623 473.836 121.043 475.41C120.463 476.984 120.173 478.683 120.173 480.506C120.173 482.329 120.463 484.021 121.043 485.584C121.623 487.146 122.517 488.407 123.724 489.366C124.931 490.325 126.47 490.804 128.341 490.804ZM152.346 494L144.037 466.727H148.44L154.335 487.608H154.619L160.443 466.727H164.917L170.67 487.537H170.954L176.849 466.727H181.252L172.943 494H168.824L162.858 473.048H162.431L156.466 494H152.346ZM201.423 457.636H206.679L219.037 487.821H219.463L231.821 457.636H237.076V494H232.957V466.372H232.602L221.238 494H217.261L205.897 466.372H205.542V494H201.423V457.636ZM262.525 482.85V466.727H266.715V494H262.525V489.384H262.241C261.601 490.769 260.607 491.946 259.258 492.917C257.908 493.876 256.204 494.355 254.144 494.355C252.439 494.355 250.924 493.982 249.599 493.237C248.273 492.479 247.231 491.343 246.474 489.828C245.716 488.301 245.337 486.377 245.337 484.057V466.727H249.528V483.773C249.528 485.761 250.084 487.348 251.197 488.531C252.321 489.715 253.753 490.307 255.493 490.307C256.535 490.307 257.595 490.041 258.672 489.508C259.761 488.975 260.672 488.159 261.406 487.058C262.152 485.957 262.525 484.554 262.525 482.85ZM274.39 494V466.727H278.438V470.989H278.793C279.362 469.533 280.279 468.402 281.545 467.597C282.812 466.781 284.333 466.372 286.109 466.372C287.908 466.372 289.405 466.781 290.601 467.597C291.808 468.402 292.749 469.533 293.424 470.989H293.708C294.406 469.58 295.454 468.462 296.851 467.633C298.248 466.792 299.923 466.372 301.876 466.372C304.314 466.372 306.309 467.136 307.859 468.663C309.41 470.178 310.185 472.539 310.185 475.747V494H305.995V475.747C305.995 473.735 305.445 472.297 304.344 471.433C303.243 470.569 301.947 470.136 300.455 470.136C298.538 470.136 297.052 470.717 295.999 471.877C294.945 473.025 294.418 474.481 294.418 476.244V494H290.157V475.321C290.157 473.77 289.654 472.522 288.648 471.575C287.642 470.616 286.345 470.136 284.759 470.136C283.67 470.136 282.652 470.426 281.705 471.007C280.77 471.587 280.013 472.391 279.433 473.421C278.864 474.439 278.58 475.617 278.58 476.955V494H274.39ZM352.364 466.727C352.151 464.928 351.287 463.531 349.772 462.537C348.257 461.543 346.398 461.046 344.196 461.046C342.587 461.046 341.178 461.306 339.971 461.827C338.775 462.348 337.84 463.064 337.165 463.975C336.502 464.887 336.171 465.922 336.171 467.083C336.171 468.053 336.402 468.888 336.863 469.586C337.337 470.273 337.94 470.847 338.674 471.308C339.408 471.758 340.178 472.131 340.983 472.427C341.788 472.711 342.527 472.942 343.202 473.119L346.895 474.114C347.842 474.362 348.896 474.706 350.056 475.144C351.228 475.582 352.346 476.179 353.412 476.937C354.489 477.683 355.377 478.641 356.075 479.813C356.773 480.985 357.123 482.423 357.123 484.128C357.123 486.093 356.608 487.868 355.578 489.455C354.56 491.041 353.068 492.301 351.103 493.237C349.15 494.172 346.777 494.639 343.983 494.639C341.379 494.639 339.124 494.219 337.218 493.379C335.324 492.538 333.833 491.366 332.744 489.863C331.667 488.36 331.057 486.614 330.915 484.625H335.461C335.579 485.998 336.041 487.135 336.846 488.034C337.662 488.922 338.692 489.585 339.935 490.023C341.19 490.449 342.539 490.662 343.983 490.662C345.664 490.662 347.173 490.39 348.511 489.845C349.849 489.289 350.908 488.52 351.689 487.537C352.471 486.543 352.861 485.383 352.861 484.057C352.861 482.85 352.524 481.867 351.849 481.109C351.174 480.352 350.287 479.736 349.186 479.263C348.085 478.789 346.895 478.375 345.617 478.02L341.142 476.742C338.301 475.925 336.052 474.759 334.395 473.244C332.738 471.729 331.909 469.746 331.909 467.296C331.909 465.26 332.46 463.484 333.561 461.969C334.673 460.442 336.165 459.258 338.035 458.418C339.917 457.565 342.018 457.139 344.338 457.139C346.682 457.139 348.766 457.56 350.588 458.4C352.411 459.229 353.855 460.365 354.921 461.809C355.998 463.253 356.566 464.893 356.625 466.727H352.364ZM374.874 494.568C372.412 494.568 370.251 493.982 368.393 492.81C366.546 491.639 365.102 489.999 364.061 487.892C363.031 485.785 362.516 483.323 362.516 480.506C362.516 477.665 363.031 475.185 364.061 473.066C365.102 470.947 366.546 469.302 368.393 468.13C370.251 466.958 372.412 466.372 374.874 466.372C377.336 466.372 379.49 466.958 381.337 468.13C383.195 469.302 384.639 470.947 385.669 473.066C386.711 475.185 387.232 477.665 387.232 480.506C387.232 483.323 386.711 485.785 385.669 487.892C384.639 489.999 383.195 491.639 381.337 492.81C379.49 493.982 377.336 494.568 374.874 494.568ZM374.874 490.804C376.744 490.804 378.283 490.325 379.49 489.366C380.698 488.407 381.591 487.146 382.171 485.584C382.751 484.021 383.041 482.329 383.041 480.506C383.041 478.683 382.751 476.984 382.171 475.41C381.591 473.836 380.698 472.563 379.49 471.592C378.283 470.622 376.744 470.136 374.874 470.136C373.003 470.136 371.465 470.622 370.257 471.592C369.05 472.563 368.156 473.836 367.576 475.41C366.996 476.984 366.706 478.683 366.706 480.506C366.706 482.329 366.996 484.021 367.576 485.584C368.156 487.146 369.05 488.407 370.257 489.366C371.465 490.325 373.003 490.804 374.874 490.804ZM393.628 494V466.727H397.676V470.989H398.032C398.6 469.533 399.517 468.402 400.784 467.597C402.05 466.781 403.571 466.372 405.347 466.372C407.146 466.372 408.644 466.781 409.839 467.597C411.047 468.402 411.988 469.533 412.662 470.989H412.946C413.645 469.58 414.692 468.462 416.089 467.633C417.486 466.792 419.161 466.372 421.114 466.372C423.552 466.372 425.547 467.136 427.098 468.663C428.648 470.178 429.424 472.539 429.424 475.747V494H425.233V475.747C425.233 473.735 424.683 472.297 423.582 471.433C422.481 470.569 421.185 470.136 419.694 470.136C417.776 470.136 416.29 470.717 415.237 471.877C414.183 473.025 413.657 474.481 413.657 476.244V494H409.395V475.321C409.395 473.77 408.892 472.522 407.886 471.575C406.88 470.616 405.584 470.136 403.998 470.136C402.908 470.136 401.891 470.426 400.944 471.007C400.008 471.587 399.251 472.391 398.671 473.421C398.103 474.439 397.819 475.617 397.819 476.955V494H393.628ZM448.52 494.568C445.892 494.568 443.625 493.988 441.719 492.828C439.826 491.656 438.364 490.023 437.334 487.928C436.316 485.821 435.807 483.37 435.807 480.577C435.807 477.783 436.316 475.321 437.334 473.19C438.364 471.048 439.796 469.379 441.631 468.183C443.477 466.976 445.632 466.372 448.094 466.372C449.514 466.372 450.917 466.609 452.302 467.083C453.687 467.556 454.947 468.325 456.084 469.391C457.22 470.444 458.126 471.841 458.8 473.581C459.475 475.321 459.812 477.464 459.812 480.009V481.784H438.79V478.162H455.551C455.551 476.623 455.243 475.25 454.628 474.043C454.024 472.835 453.16 471.882 452.036 471.184C450.923 470.486 449.609 470.136 448.094 470.136C446.425 470.136 444.981 470.551 443.761 471.379C442.554 472.196 441.625 473.261 440.974 474.575C440.323 475.889 439.997 477.298 439.997 478.801V481.216C439.997 483.276 440.352 485.022 441.062 486.454C441.785 487.874 442.785 488.958 444.063 489.703C445.342 490.437 446.827 490.804 448.52 490.804C449.621 490.804 450.615 490.65 451.503 490.342C452.402 490.023 453.178 489.549 453.829 488.922C454.48 488.283 454.983 487.49 455.338 486.543L459.386 487.679C458.96 489.052 458.244 490.26 457.238 491.301C456.232 492.331 454.989 493.136 453.509 493.716C452.03 494.284 450.366 494.568 448.52 494.568ZM480.817 494V457.636H485.221V490.094H502.124V494H480.817ZM519.454 494.568C516.992 494.568 514.831 493.982 512.973 492.81C511.126 491.639 509.682 489.999 508.641 487.892C507.611 485.785 507.096 483.323 507.096 480.506C507.096 477.665 507.611 475.185 508.641 473.066C509.682 470.947 511.126 469.302 512.973 468.13C514.831 466.958 516.992 466.372 519.454 466.372C521.916 466.372 524.07 466.958 525.917 468.13C527.775 469.302 529.219 470.947 530.249 473.066C531.291 475.185 531.812 477.665 531.812 480.506C531.812 483.323 531.291 485.785 530.249 487.892C529.219 489.999 527.775 491.639 525.917 492.81C524.07 493.982 521.916 494.568 519.454 494.568ZM519.454 490.804C521.324 490.804 522.863 490.325 524.07 489.366C525.278 488.407 526.171 487.146 526.751 485.584C527.331 484.021 527.621 482.329 527.621 480.506C527.621 478.683 527.331 476.984 526.751 475.41C526.171 473.836 525.278 472.563 524.07 471.592C522.863 470.622 521.324 470.136 519.454 470.136C517.584 470.136 516.045 470.622 514.837 471.592C513.63 472.563 512.736 473.836 512.156 475.41C511.576 476.984 511.286 478.683 511.286 480.506C511.286 482.329 511.576 484.021 512.156 485.584C512.736 487.146 513.63 488.407 514.837 489.366C516.045 490.325 517.584 490.804 519.454 490.804ZM559.533 466.727L549.448 494H545.186L535.101 466.727H539.646L547.175 488.46H547.459L554.987 466.727H559.533ZM575.522 494.568C572.894 494.568 570.627 493.988 568.721 492.828C566.827 491.656 565.366 490.023 564.336 487.928C563.318 485.821 562.809 483.37 562.809 480.577C562.809 477.783 563.318 475.321 564.336 473.19C565.366 471.048 566.798 469.379 568.633 468.183C570.479 466.976 572.634 466.372 575.096 466.372C576.516 466.372 577.919 466.609 579.304 467.083C580.689 467.556 581.949 468.325 583.086 469.391C584.222 470.444 585.128 471.841 585.802 473.581C586.477 475.321 586.814 477.464 586.814 480.009V481.784H565.792V478.162H582.553C582.553 476.623 582.245 475.25 581.63 474.043C581.026 472.835 580.162 471.882 579.037 471.184C577.925 470.486 576.611 470.136 575.096 470.136C573.427 470.136 571.983 470.551 570.763 471.379C569.556 472.196 568.627 473.261 567.976 474.575C567.325 475.889 566.999 477.298 566.999 478.801V481.216C566.999 483.276 567.354 485.022 568.064 486.454C568.787 487.874 569.787 488.958 571.065 489.703C572.344 490.437 573.829 490.804 575.522 490.804C576.623 490.804 577.617 490.65 578.505 490.342C579.404 490.023 580.18 489.549 580.831 488.922C581.482 488.283 581.985 487.49 582.34 486.543L586.388 487.679C585.962 489.052 585.246 490.26 584.24 491.301C583.234 492.331 581.991 493.136 580.511 493.716C579.032 494.284 577.368 494.568 575.522 494.568Z" fill="white"/>
</svg>
