<svg width="1920" height="300" viewBox="0 0 1920 300" fill="none" xmlns="http://www.w3.org/2000/svg">
<path d="M860.263 71.5H857.533C857.371 70.7147 857.089 70.0249 856.685 69.4304C856.289 68.8359 855.804 68.3369 855.232 67.9332C854.667 67.5223 854.039 67.214 853.349 67.0085C852.66 66.803 851.94 66.7003 851.192 66.7003C849.827 66.7003 848.59 67.0452 847.482 67.7351C846.381 68.425 845.504 69.4414 844.851 70.7844C844.205 72.1275 843.882 73.7751 843.882 75.7273C843.882 77.6795 844.205 79.3271 844.851 80.6701C845.504 82.0131 846.381 83.0296 847.482 83.7195C848.59 84.4093 849.827 84.7543 851.192 84.7543C851.94 84.7543 852.66 84.6515 853.349 84.446C854.039 84.2405 854.667 83.936 855.232 83.5323C855.804 83.1213 856.289 82.6186 856.685 82.0241C857.089 81.4223 857.371 80.7325 857.533 79.9545H860.263C860.057 81.1068 859.683 82.1379 859.14 83.0479C858.597 83.958 857.922 84.7322 857.114 85.3707C856.307 86.0019 855.401 86.4826 854.395 86.8129C853.397 87.1431 852.329 87.3082 851.192 87.3082C849.269 87.3082 847.559 86.8385 846.062 85.8991C844.565 84.9598 843.387 83.6241 842.528 81.892C841.669 80.16 841.24 78.1051 841.24 75.7273C841.24 73.3494 841.669 71.2945 842.528 69.5625C843.387 67.8305 844.565 66.4948 846.062 65.5554C847.559 64.616 849.269 64.1463 851.192 64.1463C852.329 64.1463 853.397 64.3114 854.395 64.6417C855.401 64.9719 856.307 65.4563 857.114 66.0948C857.922 66.726 858.597 67.4966 859.14 68.4066C859.683 69.3093 860.057 70.3404 860.263 71.5ZM850.047 87.0881H852.205L852.028 87.9688C852.601 88.0568 853.126 88.2953 853.603 88.6843C854.08 89.0806 854.318 89.7081 854.318 90.5668C854.318 91.5135 853.926 92.2841 853.14 92.8786C852.362 93.4804 851.214 93.7812 849.695 93.7812L849.607 92.0639C850.289 92.0639 850.854 91.9538 851.302 91.7337C851.757 91.5208 851.984 91.1612 851.984 90.6548C851.984 90.1484 851.797 89.8035 851.423 89.62C851.049 89.4366 850.443 89.3118 849.607 89.2457L850.047 87.0881ZM883.697 75.7273C883.697 78.1051 883.268 80.16 882.409 81.892C881.551 83.6241 880.373 84.9598 878.875 85.8991C877.378 86.8385 875.668 87.3082 873.745 87.3082C871.823 87.3082 870.113 86.8385 868.616 85.8991C867.118 84.9598 865.94 83.6241 865.082 81.892C864.223 80.16 863.794 78.1051 863.794 75.7273C863.794 73.3494 864.223 71.2945 865.082 69.5625C865.94 67.8305 867.118 66.4948 868.616 65.5554C870.113 64.616 871.823 64.1463 873.745 64.1463C875.668 64.1463 877.378 64.616 878.875 65.5554C880.373 66.4948 881.551 67.8305 882.409 69.5625C883.268 71.2945 883.697 73.3494 883.697 75.7273ZM881.055 75.7273C881.055 73.7751 880.729 72.1275 880.075 70.7844C879.43 69.4414 878.553 68.425 877.444 67.7351C876.343 67.0452 875.111 66.7003 873.745 66.7003C872.38 66.7003 871.144 67.0452 870.036 67.7351C868.935 68.425 868.058 69.4414 867.405 70.7844C866.759 72.1275 866.436 73.7751 866.436 75.7273C866.436 77.6795 866.759 79.3271 867.405 80.6701C868.058 82.0131 868.935 83.0296 870.036 83.7195C871.144 84.4093 872.38 84.7543 873.745 84.7543C875.111 84.7543 876.343 84.4093 877.444 83.7195C878.553 83.0296 879.43 82.0131 880.075 80.6701C880.729 79.3271 881.055 77.6795 881.055 75.7273ZM906.43 71.5H903.7C903.538 70.7147 903.256 70.0249 902.852 69.4304C902.456 68.8359 901.971 68.3369 901.399 67.9332C900.834 67.5223 900.206 67.214 899.516 67.0085C898.827 66.803 898.107 66.7003 897.359 66.7003C895.994 66.7003 894.757 67.0452 893.649 67.7351C892.548 68.425 891.671 69.4414 891.018 70.7844C890.372 72.1275 890.049 73.7751 890.049 75.7273C890.049 77.6795 890.372 79.3271 891.018 80.6701C891.671 82.0131 892.548 83.0296 893.649 83.7195C894.757 84.4093 895.994 84.7543 897.359 84.7543C898.107 84.7543 898.827 84.6515 899.516 84.446C900.206 84.2405 900.834 83.936 901.399 83.5323C901.971 83.1213 902.456 82.6186 902.852 82.0241C903.256 81.4223 903.538 80.7325 903.7 79.9545H906.43C906.224 81.1068 905.85 82.1379 905.307 83.0479C904.764 83.958 904.089 84.7322 903.281 85.3707C902.474 86.0019 901.568 86.4826 900.562 86.8129C899.564 87.1431 898.496 87.3082 897.359 87.3082C895.436 87.3082 893.726 86.8385 892.229 85.8991C890.732 84.9598 889.554 83.6241 888.695 81.892C887.836 80.16 887.407 78.1051 887.407 75.7273C887.407 73.3494 887.836 71.2945 888.695 69.5625C889.554 67.8305 890.732 66.4948 892.229 65.5554C893.726 64.616 895.436 64.1463 897.359 64.1463C898.496 64.1463 899.564 64.3114 900.562 64.6417C901.568 64.9719 902.474 65.4563 903.281 66.0948C904.089 66.726 904.764 67.4966 905.307 68.4066C905.85 69.3093 906.224 70.3404 906.43 71.5ZM925.637 64.4545H928.367V79.3821C928.367 80.9233 928.004 82.2994 927.277 83.5103C926.558 84.7139 925.541 85.6643 924.228 86.3615C922.914 87.0514 921.373 87.3963 919.604 87.3963C917.836 87.3963 916.294 87.0514 914.981 86.3615C913.667 85.6643 912.647 84.7139 911.92 83.5103C911.201 82.2994 910.841 80.9233 910.841 79.3821V64.4545H913.572V79.1619C913.572 80.2628 913.814 81.2425 914.298 82.1012C914.782 82.9525 915.472 83.6241 916.368 84.1158C917.27 84.6001 918.349 84.8423 919.604 84.8423C920.859 84.8423 921.938 84.6001 922.841 84.1158C923.743 83.6241 924.433 82.9525 924.91 82.1012C925.395 81.2425 925.637 80.2628 925.637 79.1619V64.4545ZM933.819 87V64.4545H936.549V75.6392H936.813L946.941 64.4545H950.508L941.041 74.6264L950.508 87H947.205L939.367 76.5199L936.549 79.6903V87H933.819ZM972.096 74.5163V76.9382H962.232V74.5163H972.096ZM985.738 87V64.4545H993.62C995.191 64.4545 996.486 64.7261 997.506 65.2692C998.526 65.8049 999.286 66.5278 999.785 67.4379C1000.28 68.3406 1000.53 69.3423 1000.53 70.4432C1000.53 71.4119 1000.36 72.2119 1000.02 72.843C999.678 73.4742 999.231 73.9732 998.673 74.3402C998.123 74.7071 997.524 74.9787 996.879 75.1548V75.375C997.568 75.419 998.262 75.6612 998.959 76.1016C999.656 76.5419 1000.24 77.1731 1000.71 77.995C1001.18 78.817 1001.41 79.8224 1001.41 81.0114C1001.41 82.1416 1001.16 83.158 1000.64 84.0607C1000.13 84.9634 999.319 85.679 998.211 86.2074C997.102 86.7358 995.66 87 993.884 87H985.738ZM988.468 84.5781H993.884C995.668 84.5781 996.934 84.2332 997.682 83.5433C998.438 82.8461 998.816 82.0021 998.816 81.0114C998.816 80.2481 998.622 79.5436 998.233 78.8977C997.844 78.2446 997.29 77.7235 996.57 77.3345C995.851 76.9382 995 76.7401 994.016 76.7401H988.468V84.5781ZM988.468 74.3622H993.532C994.354 74.3622 995.095 74.2008 995.756 73.8778C996.424 73.5549 996.952 73.0999 997.341 72.5128C997.737 71.9257 997.935 71.2358 997.935 70.4432C997.935 69.4524 997.59 68.6121 996.901 67.9222C996.211 67.225 995.117 66.8764 993.62 66.8764H988.468V74.3622ZM1005.9 87V64.4545H1019.51V66.8764H1008.63V74.4943H1018.8V76.9162H1008.63V84.5781H1019.68V87H1005.9ZM1024.43 87V64.4545H1032.31C1033.88 64.4545 1035.18 64.7261 1036.2 65.2692C1037.22 65.8049 1037.98 66.5278 1038.47 67.4379C1038.97 68.3406 1039.22 69.3423 1039.22 70.4432C1039.22 71.4119 1039.05 72.2119 1038.71 72.843C1038.37 73.4742 1037.92 73.9732 1037.36 74.3402C1036.81 74.7071 1036.21 74.9787 1035.57 75.1548V75.375C1036.26 75.419 1036.95 75.6612 1037.65 76.1016C1038.35 76.5419 1038.93 77.1731 1039.4 77.995C1039.87 78.817 1040.1 79.8224 1040.1 81.0114C1040.1 82.1416 1039.85 83.158 1039.33 84.0607C1038.82 84.9634 1038.01 85.679 1036.9 86.2074C1035.79 86.7358 1034.35 87 1032.57 87H1024.43ZM1027.16 84.5781H1032.57C1034.36 84.5781 1035.62 84.2332 1036.37 83.5433C1037.13 82.8461 1037.51 82.0021 1037.51 81.0114C1037.51 80.2481 1037.31 79.5436 1036.92 78.8977C1036.53 78.2446 1035.98 77.7235 1035.26 77.3345C1034.54 76.9382 1033.69 76.7401 1032.71 76.7401H1027.16V84.5781ZM1027.16 74.3622H1032.22C1033.04 74.3622 1033.78 74.2008 1034.45 73.8778C1035.11 73.5549 1035.64 73.0999 1036.03 72.5128C1036.43 71.9257 1036.62 71.2358 1036.62 70.4432C1036.62 69.4524 1036.28 68.6121 1035.59 67.9222C1034.9 67.225 1033.81 66.8764 1032.31 66.8764H1027.16V74.3622ZM1044.59 87V64.4545H1058.2V66.8764H1047.32V74.4943H1057.49V76.9162H1047.32V84.5781H1058.37V87H1044.59ZM1063.12 87V64.4545H1065.85V75.6392H1066.11L1076.24 64.4545H1079.81L1070.34 74.6264L1079.81 87H1076.5L1068.67 76.5199L1065.85 79.6903V87H1063.12Z" fill="white"/>
<path d="M647.849 167V127H662.498C665.336 127 667.686 127.469 669.548 128.406C671.41 129.331 672.804 130.587 673.728 132.176C674.653 133.751 675.115 135.529 675.115 137.508C675.115 139.174 674.809 140.581 674.197 141.727C673.585 142.859 672.764 143.771 671.736 144.461C670.72 145.138 669.6 145.633 668.376 145.945V146.336C669.705 146.401 671 146.831 672.263 147.625C673.539 148.406 674.594 149.52 675.427 150.965C676.261 152.41 676.677 154.168 676.677 156.238C676.677 158.283 676.195 160.118 675.232 161.746C674.281 163.361 672.81 164.643 670.818 165.594C668.826 166.531 666.28 167 663.181 167H647.849ZM653.884 161.824H662.595C665.486 161.824 667.556 161.264 668.806 160.145C670.056 159.025 670.681 157.625 670.681 155.945C670.681 154.682 670.362 153.523 669.724 152.469C669.086 151.414 668.175 150.574 666.99 149.949C665.818 149.324 664.425 149.012 662.81 149.012H653.884V161.824ZM653.884 144.305H661.97C663.324 144.305 664.542 144.044 665.623 143.523C666.716 143.003 667.582 142.273 668.22 141.336C668.871 140.385 669.197 139.266 669.197 137.977C669.197 136.323 668.617 134.936 667.458 133.816C666.3 132.697 664.522 132.137 662.126 132.137H653.884V144.305ZM687.214 167H680.808L695.203 127H702.175L716.57 167H710.164L698.855 134.266H698.542L687.214 167ZM688.289 151.336H709.07V156.414H688.289V151.336ZM715.178 127H722.034L732.483 145.184H732.913L743.362 127H750.217L735.706 151.297V167H729.69V151.297L715.178 127ZM755.916 167V127H770.173C773.272 127 775.844 127.534 777.888 128.602C779.945 129.669 781.482 131.147 782.498 133.035C783.513 134.91 784.021 137.078 784.021 139.539C784.021 141.987 783.507 144.142 782.478 146.004C781.462 147.853 779.926 149.292 777.869 150.32C775.824 151.349 773.253 151.863 770.154 151.863H759.353V146.668H769.607C771.56 146.668 773.149 146.388 774.373 145.828C775.61 145.268 776.514 144.454 777.087 143.387C777.66 142.319 777.947 141.036 777.947 139.539C777.947 138.029 777.654 136.72 777.068 135.613C776.495 134.507 775.59 133.66 774.353 133.074C773.129 132.475 771.521 132.176 769.529 132.176H761.951V167H755.916ZM775.662 148.953L785.544 167H778.669L768.982 148.953H775.662ZM794.744 167H788.337L802.732 127H809.705L824.099 167H817.693L806.384 134.266H806.072L794.744 167ZM795.818 151.336H816.599V156.414H795.818V151.336ZM829.875 127H837.2L849.934 158.094H850.403L863.137 127H870.461V167H864.719V138.055H864.348L852.551 166.941H847.786L835.989 138.035H835.618V167H829.875V127ZM893.792 167V127H899.827V146.102H900.315L917.092 127H924.69L908.557 145.008L924.749 167H917.483L904.553 149.129L899.827 154.559V167H893.792ZM963.074 147C963.074 151.271 962.292 154.943 960.73 158.016C959.167 161.076 957.026 163.432 954.304 165.086C951.596 166.727 948.516 167.547 945.066 167.547C941.602 167.547 938.51 166.727 935.789 165.086C933.08 163.432 930.945 161.069 929.382 157.996C927.82 154.923 927.039 151.258 927.039 147C927.039 142.729 927.82 139.064 929.382 136.004C930.945 132.931 933.08 130.574 935.789 128.934C938.51 127.28 941.602 126.453 945.066 126.453C948.516 126.453 951.596 127.28 954.304 128.934C957.026 130.574 959.167 132.931 960.73 136.004C962.292 139.064 963.074 142.729 963.074 147ZM957.097 147C957.097 143.745 956.57 141.004 955.515 138.777C954.473 136.538 953.041 134.845 951.218 133.699C949.408 132.54 947.358 131.961 945.066 131.961C942.761 131.961 940.704 132.54 938.894 133.699C937.084 134.845 935.652 136.538 934.597 138.777C933.556 141.004 933.035 143.745 933.035 147C933.035 150.255 933.556 153.003 934.597 155.242C935.652 157.469 937.084 159.161 938.894 160.32C940.704 161.466 942.761 162.039 945.066 162.039C947.358 162.039 949.408 161.466 951.218 160.32C953.041 159.161 954.473 157.469 955.515 155.242C956.57 153.003 957.097 150.255 957.097 147ZM970.598 167V127H976.633V161.805H994.758V167H970.598ZM1001.64 167V127H1026.72V132.195H1007.68V144.383H1025.41V149.559H1007.68V161.805H1026.96V167H1001.64ZM1034.78 167V127H1040.82V146.102H1041.31L1058.08 127H1065.68L1049.55 145.008L1065.74 167H1058.47L1045.54 149.129L1040.82 154.559V167H1034.78ZM1093.02 137.508C1092.81 135.659 1091.95 134.227 1090.44 133.211C1088.93 132.182 1087.03 131.668 1084.73 131.668C1083.09 131.668 1081.67 131.928 1080.48 132.449C1079.28 132.957 1078.35 133.66 1077.68 134.559C1077.03 135.444 1076.71 136.453 1076.71 137.586C1076.71 138.536 1076.93 139.357 1077.37 140.047C1077.83 140.737 1078.42 141.316 1079.15 141.785C1079.89 142.241 1080.68 142.625 1081.53 142.938C1082.38 143.237 1083.19 143.484 1083.97 143.68L1087.88 144.695C1089.15 145.008 1090.46 145.431 1091.8 145.965C1093.15 146.499 1094.39 147.202 1095.53 148.074C1096.68 148.947 1097.6 150.027 1098.31 151.316C1099.02 152.605 1099.38 154.148 1099.38 155.945C1099.38 158.211 1098.8 160.223 1097.62 161.98C1096.47 163.738 1094.78 165.125 1092.57 166.141C1090.37 167.156 1087.7 167.664 1084.58 167.664C1081.58 167.664 1078.99 167.189 1076.8 166.238C1074.62 165.288 1072.9 163.94 1071.67 162.195C1070.43 160.437 1069.75 158.354 1069.62 155.945H1075.67C1075.79 157.391 1076.26 158.595 1077.08 159.559C1077.91 160.509 1078.97 161.219 1080.26 161.687C1081.56 162.143 1082.99 162.371 1084.54 162.371C1086.24 162.371 1087.76 162.104 1089.09 161.57C1090.43 161.023 1091.49 160.268 1092.25 159.305C1093.02 158.328 1093.41 157.189 1093.41 155.887C1093.41 154.702 1093.07 153.732 1092.39 152.977C1091.73 152.221 1090.82 151.596 1089.68 151.102C1088.54 150.607 1087.26 150.171 1085.83 149.793L1081.1 148.504C1077.9 147.632 1075.36 146.349 1073.48 144.656C1071.62 142.964 1070.69 140.724 1070.69 137.937C1070.69 135.633 1071.32 133.621 1072.57 131.902C1073.82 130.184 1075.51 128.849 1077.64 127.898C1079.78 126.935 1082.19 126.453 1084.87 126.453C1087.58 126.453 1089.97 126.928 1092.04 127.879C1094.12 128.829 1095.76 130.138 1096.96 131.805C1098.16 133.458 1098.78 135.359 1098.84 137.508H1093.02ZM1112.63 127V167H1106.59V127H1112.63ZM1109.62 122.371C1108.61 122.371 1107.73 122.033 1107 121.355C1106.29 120.665 1105.93 119.845 1105.93 118.895C1105.93 117.931 1106.29 117.111 1107 116.434C1107.73 115.743 1108.61 115.398 1109.62 115.398C1110.64 115.398 1111.5 115.743 1112.22 116.434C1112.95 117.111 1113.31 117.931 1113.31 118.895C1113.31 119.845 1112.95 120.665 1112.22 121.355C1111.5 122.033 1110.64 122.371 1109.62 122.371ZM1118.33 127H1125.19L1135.64 145.184H1136.07L1146.52 127H1153.37L1138.86 151.297V167H1132.84V151.297L1118.33 127ZM1191.77 147C1191.77 151.271 1190.99 154.943 1189.43 158.016C1187.87 161.076 1185.73 163.432 1183.01 165.086C1180.3 166.727 1177.22 167.547 1173.77 167.547C1170.3 167.547 1167.21 166.727 1164.49 165.086C1161.78 163.432 1159.65 161.069 1158.08 157.996C1156.52 154.923 1155.74 151.258 1155.74 147C1155.74 142.729 1156.52 139.064 1158.08 136.004C1159.65 132.931 1161.78 130.574 1164.49 128.934C1167.21 127.28 1170.3 126.453 1173.77 126.453C1177.22 126.453 1180.3 127.28 1183.01 128.934C1185.73 130.574 1187.87 132.931 1189.43 136.004C1190.99 139.064 1191.77 142.729 1191.77 147ZM1185.8 147C1185.8 143.745 1185.27 141.004 1184.22 138.777C1183.17 136.538 1181.74 134.845 1179.92 133.699C1178.11 132.54 1176.06 131.961 1173.77 131.961C1171.46 131.961 1169.41 132.54 1167.6 133.699C1165.79 134.845 1164.35 136.538 1163.3 138.777C1162.26 141.004 1161.74 143.745 1161.74 147C1161.74 150.255 1162.26 153.003 1163.3 155.242C1164.35 157.469 1165.79 159.161 1167.6 160.32C1169.41 161.466 1171.46 162.039 1173.77 162.039C1176.06 162.039 1178.11 161.466 1179.92 160.32C1181.74 159.161 1183.17 157.469 1184.22 155.242C1185.27 153.003 1185.8 150.255 1185.8 147ZM1231.58 127V167H1226.04L1205.71 137.664H1205.33V167H1199.3V127H1204.89L1225.24 156.375H1225.61V127H1231.58ZM1266.11 127H1272.17V153.309C1272.17 156.108 1271.51 158.589 1270.19 160.75C1268.88 162.898 1267.03 164.591 1264.65 165.828C1262.26 167.052 1259.47 167.664 1256.27 167.664C1253.08 167.664 1250.29 167.052 1247.91 165.828C1245.52 164.591 1243.68 162.898 1242.36 160.75C1241.05 158.589 1240.39 156.108 1240.39 153.309V127H1246.42V152.82C1246.42 154.63 1246.82 156.238 1247.61 157.645C1248.42 159.051 1249.56 160.158 1251.03 160.965C1252.5 161.759 1254.25 162.156 1256.27 162.156C1258.3 162.156 1260.05 161.759 1261.52 160.965C1263.01 160.158 1264.14 159.051 1264.92 157.645C1265.71 156.238 1266.11 154.63 1266.11 152.82V127Z" fill="white"/>
</svg>
