<svg width="640" height="812" viewBox="0 0 640 812" fill="none" xmlns="http://www.w3.org/2000/svg">
<path d="M54.7614 663V648.455H56.5227V654.932H64.2784V648.455H66.0398V663H64.2784V656.494H56.5227V663H54.7614ZM72.549 663.256C71.8577 663.256 71.2304 663.125 70.6669 662.865C70.1035 662.6 69.656 662.219 69.3246 661.722C68.9931 661.22 68.8274 660.614 68.8274 659.903C68.8274 659.278 68.9505 658.772 69.1967 658.384C69.4429 657.991 69.772 657.683 70.1839 657.46C70.5959 657.238 71.0504 657.072 71.5476 656.963C72.0495 656.849 72.5537 656.759 73.0604 656.693C73.7232 656.608 74.2607 656.544 74.6726 656.501C75.0893 656.454 75.3923 656.376 75.5817 656.267C75.7758 656.158 75.8729 655.969 75.8729 655.699V655.642C75.8729 654.941 75.6811 654.397 75.2976 654.009C74.9188 653.62 74.3435 653.426 73.5717 653.426C72.7715 653.426 72.1442 653.601 71.6896 653.952C71.2351 654.302 70.9155 654.676 70.7308 655.074L69.1399 654.506C69.424 653.843 69.8028 653.327 70.2763 652.957C70.7545 652.583 71.2753 652.323 71.8388 652.176C72.407 652.025 72.9657 651.949 73.5149 651.949C73.8653 651.949 74.2678 651.991 74.7223 652.077C75.1816 652.157 75.6243 652.325 76.0504 652.581C76.4813 652.837 76.8388 653.223 77.1229 653.739C77.407 654.255 77.549 654.946 77.549 655.812V663H75.8729V661.523H75.7876C75.674 661.759 75.4846 662.013 75.2195 662.283C74.9543 662.553 74.6016 662.782 74.1612 662.972C73.7209 663.161 73.1835 663.256 72.549 663.256ZM72.8047 661.75C73.4676 661.75 74.0263 661.62 74.4808 661.359C74.9401 661.099 75.2857 660.763 75.5178 660.351C75.7545 659.939 75.8729 659.506 75.8729 659.051V657.517C75.8018 657.602 75.6456 657.68 75.4041 657.751C75.1674 657.818 74.8928 657.877 74.5803 657.929C74.2725 657.976 73.9718 658.019 73.6783 658.057C73.3894 658.09 73.1551 658.118 72.9751 658.142C72.5395 658.199 72.1323 658.291 71.7536 658.419C71.3795 658.542 71.0765 658.729 70.8445 658.98C70.6172 659.226 70.5036 659.562 70.5036 659.989C70.5036 660.571 70.719 661.011 71.1499 661.31C71.5855 661.603 72.1371 661.75 72.8047 661.75ZM80.6083 663V652.091H82.2276V653.739H82.3413C82.5401 653.199 82.9 652.761 83.4208 652.425C83.9416 652.089 84.5288 651.92 85.1822 651.92C85.3053 651.92 85.4592 651.923 85.6438 651.928C85.8285 651.932 85.9682 651.939 86.0629 651.949V653.653C86.006 653.639 85.8758 653.618 85.6722 653.589C85.4734 653.556 85.2627 653.54 85.0401 653.54C84.5098 653.54 84.0363 653.651 83.6197 653.874C83.2077 654.091 82.881 654.394 82.6396 654.783C82.4028 655.166 82.2844 655.604 82.2844 656.097V663H80.6083ZM89.7259 648.455V663H88.0497V648.455H89.7259ZM97.3697 663.227C96.3185 663.227 95.4118 662.995 94.6495 662.531C93.8919 662.062 93.3072 661.409 92.8952 660.571C92.488 659.728 92.2844 658.748 92.2844 657.631C92.2844 656.513 92.488 655.528 92.8952 654.676C93.3072 653.819 93.8801 653.152 94.614 652.673C95.3526 652.19 96.2144 651.949 97.1992 651.949C97.7674 651.949 98.3285 652.044 98.8825 652.233C99.4364 652.422 99.9407 652.73 100.395 653.156C100.85 653.578 101.212 654.136 101.482 654.832C101.752 655.528 101.887 656.385 101.887 657.403V658.114H93.4776V656.665H100.182C100.182 656.049 100.059 655.5 99.8129 655.017C99.5714 654.534 99.2257 654.153 98.7759 653.874C98.3308 653.594 97.8053 653.455 97.1992 653.455C96.5316 653.455 95.954 653.62 95.4663 653.952C94.9833 654.278 94.6116 654.705 94.3512 655.23C94.0908 655.756 93.9606 656.319 93.9606 656.92V657.886C93.9606 658.71 94.1026 659.409 94.3867 659.982C94.6755 660.55 95.0756 660.983 95.587 661.281C96.0984 661.575 96.6926 661.722 97.3697 661.722C97.81 661.722 98.2077 661.66 98.5629 661.537C98.9227 661.409 99.2328 661.22 99.4933 660.969C99.7537 660.713 99.9549 660.396 100.097 660.017L101.716 660.472C101.546 661.021 101.259 661.504 100.857 661.92C100.454 662.332 99.9573 662.654 99.3654 662.886C98.7736 663.114 98.1083 663.227 97.3697 663.227ZM104.436 663V652.091H106.056V653.795H106.198C106.425 653.213 106.792 652.761 107.299 652.439C107.805 652.112 108.414 651.949 109.124 651.949C109.844 651.949 110.443 652.112 110.921 652.439C111.404 652.761 111.78 653.213 112.05 653.795H112.164C112.443 653.232 112.862 652.785 113.421 652.453C113.98 652.117 114.65 651.949 115.431 651.949C116.406 651.949 117.204 652.254 117.824 652.865C118.444 653.471 118.755 654.416 118.755 655.699V663H117.078V655.699C117.078 654.894 116.858 654.319 116.418 653.973C115.978 653.627 115.459 653.455 114.863 653.455C114.096 653.455 113.501 653.687 113.08 654.151C112.658 654.61 112.448 655.192 112.448 655.898V663H110.743V655.528C110.743 654.908 110.542 654.409 110.14 654.03C109.737 653.646 109.219 653.455 108.584 653.455C108.149 653.455 107.741 653.571 107.363 653.803C106.989 654.035 106.685 654.357 106.453 654.768C106.226 655.176 106.113 655.647 106.113 656.182V663H104.436ZM123.297 648.455V649.733C123.297 650.121 123.225 650.536 123.083 650.976C122.946 651.411 122.743 651.835 122.473 652.247C122.208 652.654 121.886 653.009 121.507 653.312L120.598 652.574C120.896 652.148 121.154 651.705 121.372 651.246C121.594 650.782 121.706 650.287 121.706 649.761V648.455H123.297ZM127.187 648.455V663H125.511V648.455H127.187ZM130.257 663V652.091H131.933V663H130.257ZM131.109 650.273C130.782 650.273 130.501 650.161 130.264 649.939C130.032 649.716 129.916 649.449 129.916 649.136C129.916 648.824 130.032 648.556 130.264 648.334C130.501 648.111 130.782 648 131.109 648C131.436 648 131.715 648.111 131.947 648.334C132.184 648.556 132.302 648.824 132.302 649.136C132.302 649.449 132.184 649.716 131.947 649.939C131.715 650.161 131.436 650.273 131.109 650.273ZM147.503 658.54V652.091H149.179V663H147.503V661.153H147.389C147.134 661.707 146.736 662.179 146.196 662.567C145.656 662.95 144.974 663.142 144.151 663.142C143.469 663.142 142.863 662.993 142.332 662.695C141.802 662.392 141.385 661.937 141.082 661.331C140.779 660.72 140.628 659.951 140.628 659.023V652.091H142.304V658.909C142.304 659.705 142.527 660.339 142.972 660.812C143.421 661.286 143.994 661.523 144.69 661.523C145.107 661.523 145.531 661.416 145.962 661.203C146.397 660.99 146.762 660.663 147.055 660.223C147.354 659.783 147.503 659.222 147.503 658.54ZM142.872 650.273C142.574 650.273 142.309 650.159 142.077 649.932C141.849 649.7 141.736 649.435 141.736 649.136C141.736 648.81 141.849 648.54 142.077 648.327C142.309 648.109 142.574 648 142.872 648C143.199 648 143.469 648.109 143.682 648.327C143.9 648.54 144.009 648.81 144.009 649.136C144.009 649.435 143.9 649.7 143.682 649.932C143.469 650.159 143.199 650.273 142.872 650.273ZM146.963 650.273C146.665 650.273 146.4 650.159 146.168 649.932C145.94 649.7 145.827 649.435 145.827 649.136C145.827 648.81 145.94 648.54 146.168 648.327C146.4 648.109 146.665 648 146.963 648C147.29 648 147.56 648.109 147.773 648.327C147.991 648.54 148.099 648.81 148.099 649.136C148.099 649.435 147.991 649.7 147.773 649.932C147.56 650.159 147.29 650.273 146.963 650.273ZM153.925 656.438V663H152.249V652.091H153.868V653.795H154.01C154.266 653.241 154.654 652.796 155.175 652.46C155.696 652.119 156.368 651.949 157.192 651.949C157.931 651.949 158.577 652.1 159.131 652.403C159.685 652.702 160.116 653.156 160.424 653.767C160.731 654.373 160.885 655.14 160.885 656.068V663H159.209V656.182C159.209 655.325 158.987 654.657 158.542 654.179C158.096 653.696 157.486 653.455 156.709 653.455C156.174 653.455 155.696 653.571 155.275 653.803C154.858 654.035 154.529 654.373 154.287 654.818C154.046 655.263 153.925 655.803 153.925 656.438ZM165.624 648.455V663H163.948V648.455H165.624ZM175.569 658.54V652.091H177.245V663H175.569V661.153H175.456C175.2 661.707 174.802 662.179 174.262 662.567C173.723 662.95 173.041 663.142 172.217 663.142C171.535 663.142 170.929 662.993 170.399 662.695C169.868 662.392 169.452 661.937 169.149 661.331C168.846 660.72 168.694 659.951 168.694 659.023V652.091H170.37V658.909C170.37 659.705 170.593 660.339 171.038 660.812C171.488 661.286 172.061 661.523 172.757 661.523C173.173 661.523 173.597 661.416 174.028 661.203C174.464 660.99 174.828 660.663 175.122 660.223C175.42 659.783 175.569 659.222 175.569 658.54ZM170.939 650.273C170.64 650.273 170.375 650.159 170.143 649.932C169.916 649.7 169.802 649.435 169.802 649.136C169.802 648.81 169.916 648.54 170.143 648.327C170.375 648.109 170.64 648 170.939 648C171.265 648 171.535 648.109 171.748 648.327C171.966 648.54 172.075 648.81 172.075 649.136C172.075 649.435 171.966 649.7 171.748 649.932C171.535 650.159 171.265 650.273 170.939 650.273ZM175.029 650.273C174.731 650.273 174.466 650.159 174.234 649.932C174.007 649.7 173.893 649.435 173.893 649.136C173.893 648.81 174.007 648.54 174.234 648.327C174.466 648.109 174.731 648 175.029 648C175.356 648 175.626 648.109 175.839 648.327C176.057 648.54 176.166 648.81 176.166 649.136C176.166 649.435 176.057 649.7 175.839 649.932C175.626 650.159 175.356 650.273 175.029 650.273ZM190.685 652.091V653.511H185.031V652.091H190.685ZM186.679 649.477H188.355V659.875C188.355 660.348 188.424 660.704 188.561 660.94C188.703 661.172 188.883 661.329 189.101 661.409C189.323 661.485 189.558 661.523 189.804 661.523C189.989 661.523 190.14 661.513 190.259 661.494C190.377 661.471 190.472 661.452 190.543 661.438L190.884 662.943C190.77 662.986 190.611 663.028 190.408 663.071C190.204 663.118 189.946 663.142 189.634 663.142C189.16 663.142 188.696 663.04 188.241 662.837C187.792 662.633 187.418 662.323 187.119 661.906C186.826 661.49 186.679 660.964 186.679 660.33V649.477ZM196.416 663.256C195.725 663.256 195.098 663.125 194.534 662.865C193.971 662.6 193.523 662.219 193.192 661.722C192.86 661.22 192.695 660.614 192.695 659.903C192.695 659.278 192.818 658.772 193.064 658.384C193.31 657.991 193.639 657.683 194.051 657.46C194.463 657.238 194.918 657.072 195.415 656.963C195.917 656.849 196.421 656.759 196.928 656.693C197.59 656.608 198.128 656.544 198.54 656.501C198.956 656.454 199.259 656.376 199.449 656.267C199.643 656.158 199.74 655.969 199.74 655.699V655.642C199.74 654.941 199.548 654.397 199.165 654.009C198.786 653.62 198.211 653.426 197.439 653.426C196.639 653.426 196.011 653.601 195.557 653.952C195.102 654.302 194.783 654.676 194.598 655.074L193.007 654.506C193.291 653.843 193.67 653.327 194.143 652.957C194.622 652.583 195.143 652.323 195.706 652.176C196.274 652.025 196.833 651.949 197.382 651.949C197.732 651.949 198.135 651.991 198.589 652.077C199.049 652.157 199.491 652.325 199.918 652.581C200.348 652.837 200.706 653.223 200.99 653.739C201.274 654.255 201.416 654.946 201.416 655.812V663H199.74V661.523H199.655C199.541 661.759 199.352 662.013 199.087 662.283C198.821 662.553 198.469 662.782 198.028 662.972C197.588 663.161 197.051 663.256 196.416 663.256ZM196.672 661.75C197.335 661.75 197.893 661.62 198.348 661.359C198.807 661.099 199.153 660.763 199.385 660.351C199.622 659.939 199.74 659.506 199.74 659.051V657.517C199.669 657.602 199.513 657.68 199.271 657.751C199.035 657.818 198.76 657.877 198.447 657.929C198.14 657.976 197.839 658.019 197.545 658.057C197.257 658.09 197.022 658.118 196.842 658.142C196.407 658.199 196 658.291 195.621 658.419C195.247 658.542 194.944 658.729 194.712 658.98C194.484 659.226 194.371 659.562 194.371 659.989C194.371 660.571 194.586 661.011 195.017 661.31C195.453 661.603 196.004 661.75 196.672 661.75ZM212.203 654.534L210.697 654.96C210.602 654.709 210.463 654.465 210.278 654.229C210.098 653.987 209.852 653.788 209.539 653.632C209.227 653.476 208.827 653.398 208.339 653.398C207.672 653.398 207.115 653.552 206.67 653.859C206.23 654.162 206.01 654.548 206.01 655.017C206.01 655.434 206.161 655.763 206.464 656.004C206.767 656.246 207.241 656.447 207.885 656.608L209.504 657.006C210.479 657.242 211.206 657.605 211.684 658.092C212.163 658.575 212.402 659.198 212.402 659.96C212.402 660.585 212.222 661.144 211.862 661.636C211.507 662.129 211.01 662.517 210.37 662.801C209.731 663.085 208.988 663.227 208.14 663.227C207.028 663.227 206.107 662.986 205.377 662.503C204.648 662.02 204.187 661.314 203.993 660.386L205.583 659.989C205.735 660.576 206.021 661.016 206.443 661.31C206.869 661.603 207.425 661.75 208.112 661.75C208.893 661.75 209.513 661.584 209.973 661.253C210.437 660.917 210.669 660.514 210.669 660.045C210.669 659.667 210.536 659.349 210.271 659.094C210.006 658.833 209.599 658.639 209.049 658.511L207.231 658.085C206.232 657.848 205.498 657.482 205.029 656.984C204.565 656.482 204.333 655.855 204.333 655.102C204.333 654.487 204.506 653.942 204.852 653.469C205.202 652.995 205.678 652.624 206.279 652.354C206.886 652.084 207.572 651.949 208.339 651.949C209.419 651.949 210.266 652.186 210.882 652.659C211.502 653.133 211.942 653.758 212.203 654.534ZM218.135 663.256C217.444 663.256 216.816 663.125 216.253 662.865C215.689 662.6 215.242 662.219 214.911 661.722C214.579 661.22 214.413 660.614 214.413 659.903C214.413 659.278 214.536 658.772 214.783 658.384C215.029 657.991 215.358 657.683 215.77 657.46C216.182 657.238 216.636 657.072 217.134 656.963C217.635 656.849 218.14 656.759 218.646 656.693C219.309 656.608 219.847 656.544 220.259 656.501C220.675 656.454 220.978 656.376 221.168 656.267C221.362 656.158 221.459 655.969 221.459 655.699V655.642C221.459 654.941 221.267 654.397 220.884 654.009C220.505 653.62 219.929 653.426 219.158 653.426C218.357 653.426 217.73 653.601 217.276 653.952C216.821 654.302 216.501 654.676 216.317 655.074L214.726 654.506C215.01 653.843 215.389 653.327 215.862 652.957C216.34 652.583 216.861 652.323 217.425 652.176C217.993 652.025 218.552 651.949 219.101 651.949C219.451 651.949 219.854 651.991 220.308 652.077C220.768 652.157 221.21 652.325 221.636 652.581C222.067 652.837 222.425 653.223 222.709 653.739C222.993 654.255 223.135 654.946 223.135 655.812V663H221.459V661.523H221.374C221.26 661.759 221.071 662.013 220.805 662.283C220.54 662.553 220.188 662.782 219.747 662.972C219.307 663.161 218.769 663.256 218.135 663.256ZM218.391 661.75C219.054 661.75 219.612 661.62 220.067 661.359C220.526 661.099 220.872 660.763 221.104 660.351C221.34 659.939 221.459 659.506 221.459 659.051V657.517C221.388 657.602 221.232 657.68 220.99 657.751C220.753 657.818 220.479 657.877 220.166 657.929C219.858 657.976 219.558 658.019 219.264 658.057C218.975 658.09 218.741 658.118 218.561 658.142C218.125 658.199 217.718 658.291 217.339 658.419C216.965 658.542 216.662 658.729 216.43 658.98C216.203 659.226 216.089 659.562 216.089 659.989C216.089 660.571 216.305 661.011 216.736 661.31C217.171 661.603 217.723 661.75 218.391 661.75ZM226.194 663V652.091H227.814V653.739H227.927C228.126 653.199 228.486 652.761 229.007 652.425C229.528 652.089 230.115 651.92 230.768 651.92C230.891 651.92 231.045 651.923 231.23 651.928C231.414 651.932 231.554 651.939 231.649 651.949V653.653C231.592 653.639 231.462 653.618 231.258 653.589C231.059 653.556 230.849 653.54 230.626 653.54C230.096 653.54 229.622 653.651 229.206 653.874C228.794 654.091 228.467 654.394 228.225 654.783C227.989 655.166 227.87 655.604 227.87 656.097V663H226.194ZM233.636 663V652.091H235.312V663H233.636ZM238.382 663V652.091H240.001V653.795H240.143C240.37 653.213 240.737 652.761 241.244 652.439C241.751 652.112 242.359 651.949 243.069 651.949C243.789 651.949 244.388 652.112 244.866 652.439C245.349 652.761 245.725 653.213 245.995 653.795H246.109C246.388 653.232 246.807 652.785 247.366 652.453C247.925 652.117 248.595 651.949 249.376 651.949C250.351 651.949 251.149 652.254 251.77 652.865C252.39 653.471 252.7 654.416 252.7 655.699V663H251.024V655.699C251.024 654.894 250.804 654.319 250.363 653.973C249.923 653.627 249.404 653.455 248.808 653.455C248.041 653.455 247.447 653.687 247.025 654.151C246.604 654.61 246.393 655.192 246.393 655.898V663H244.689V655.528C244.689 654.908 244.487 654.409 244.085 654.03C243.682 653.646 243.164 653.455 242.529 653.455C242.094 653.455 241.687 653.571 241.308 653.803C240.934 654.035 240.631 654.357 240.399 654.768C240.172 655.176 240.058 655.647 240.058 656.182V663H238.382ZM260.196 663.227C259.174 663.227 258.293 662.986 257.554 662.503C256.816 662.02 256.248 661.355 255.85 660.507C255.452 659.66 255.253 658.691 255.253 657.602C255.253 656.494 255.457 655.517 255.864 654.669C256.276 653.817 256.849 653.152 257.583 652.673C258.321 652.19 259.183 651.949 260.168 651.949C260.935 651.949 261.626 652.091 262.242 652.375C262.857 652.659 263.362 653.057 263.755 653.568C264.148 654.08 264.391 654.676 264.486 655.358H262.81C262.682 654.861 262.398 654.42 261.958 654.037C261.522 653.649 260.935 653.455 260.196 653.455C259.543 653.455 258.97 653.625 258.478 653.966C257.99 654.302 257.609 654.778 257.334 655.393C257.064 656.004 256.929 656.722 256.929 657.545C256.929 658.388 257.062 659.122 257.327 659.747C257.597 660.372 257.976 660.857 258.463 661.203C258.956 661.549 259.533 661.722 260.196 661.722C260.632 661.722 261.027 661.646 261.382 661.494C261.738 661.343 262.038 661.125 262.284 660.841C262.531 660.557 262.706 660.216 262.81 659.818H264.486C264.391 660.462 264.157 661.042 263.783 661.558C263.414 662.07 262.924 662.477 262.313 662.78C261.707 663.078 261.001 663.227 260.196 663.227ZM266.936 663V652.091H268.613V663H266.936ZM282.023 663H277.535V648.455H282.222C283.633 648.455 284.841 648.746 285.844 649.328C286.848 649.906 287.618 650.737 288.153 651.821C288.688 652.901 288.955 654.193 288.955 655.699C288.955 657.214 288.685 658.518 288.146 659.612C287.606 660.701 286.82 661.539 285.788 662.126C284.755 662.709 283.501 663 282.023 663ZM279.296 661.438H281.91C283.112 661.438 284.109 661.205 284.9 660.741C285.691 660.277 286.28 659.617 286.668 658.76C287.057 657.903 287.251 656.883 287.251 655.699C287.251 654.525 287.059 653.514 286.675 652.666C286.292 651.814 285.719 651.161 284.957 650.706C284.194 650.247 283.245 650.017 282.109 650.017H279.296V661.438ZM294.893 663.256C294.201 663.256 293.574 663.125 293.011 662.865C292.447 662.6 292 662.219 291.668 661.722C291.337 661.22 291.171 660.614 291.171 659.903C291.171 659.278 291.294 658.772 291.54 658.384C291.787 657.991 292.116 657.683 292.528 657.46C292.94 657.238 293.394 657.072 293.891 656.963C294.393 656.849 294.897 656.759 295.404 656.693C296.067 656.608 296.604 656.544 297.016 656.501C297.433 656.454 297.736 656.376 297.925 656.267C298.12 656.158 298.217 655.969 298.217 655.699V655.642C298.217 654.941 298.025 654.397 297.641 654.009C297.263 653.62 296.687 653.426 295.915 653.426C295.115 653.426 294.488 653.601 294.033 653.952C293.579 654.302 293.259 654.676 293.075 655.074L291.484 654.506C291.768 653.843 292.147 653.327 292.62 652.957C293.098 652.583 293.619 652.323 294.183 652.176C294.751 652.025 295.309 651.949 295.859 651.949C296.209 651.949 296.612 651.991 297.066 652.077C297.525 652.157 297.968 652.325 298.394 652.581C298.825 652.837 299.183 653.223 299.467 653.739C299.751 654.255 299.893 654.946 299.893 655.812V663H298.217V661.523H298.131C298.018 661.759 297.828 662.013 297.563 662.283C297.298 662.553 296.945 662.782 296.505 662.972C296.065 663.161 295.527 663.256 294.893 663.256ZM295.148 661.75C295.811 661.75 296.37 661.62 296.825 661.359C297.284 661.099 297.629 660.763 297.862 660.351C298.098 659.939 298.217 659.506 298.217 659.051V657.517C298.146 657.602 297.989 657.68 297.748 657.751C297.511 657.818 297.237 657.877 296.924 657.929C296.616 657.976 296.316 658.019 296.022 658.057C295.733 658.09 295.499 658.118 295.319 658.142C294.883 658.199 294.476 658.291 294.097 658.419C293.723 658.542 293.42 658.729 293.188 658.98C292.961 659.226 292.847 659.562 292.847 659.989C292.847 660.571 293.063 661.011 293.494 661.31C293.929 661.603 294.481 661.75 295.148 661.75ZM302.952 667.091V652.091H304.571V653.824H304.77C304.893 653.634 305.064 653.393 305.282 653.099C305.504 652.801 305.821 652.536 306.233 652.304C306.65 652.067 307.213 651.949 307.924 651.949C308.842 651.949 309.652 652.179 310.353 652.638C311.053 653.097 311.6 653.748 311.993 654.591C312.386 655.434 312.583 656.428 312.583 657.574C312.583 658.729 312.386 659.731 311.993 660.578C311.6 661.421 311.056 662.074 310.36 662.538C309.664 662.998 308.861 663.227 307.952 663.227C307.251 663.227 306.69 663.111 306.269 662.879C305.847 662.643 305.523 662.375 305.296 662.077C305.069 661.774 304.893 661.523 304.77 661.324H304.628V667.091H302.952ZM304.6 657.545C304.6 658.369 304.721 659.096 304.962 659.726C305.203 660.351 305.556 660.841 306.02 661.196C306.484 661.546 307.052 661.722 307.725 661.722C308.426 661.722 309.01 661.537 309.479 661.168C309.953 660.794 310.308 660.292 310.544 659.662C310.786 659.027 310.907 658.322 310.907 657.545C310.907 656.778 310.788 656.087 310.551 655.472C310.319 654.851 309.967 654.361 309.493 654.001C309.025 653.637 308.435 653.455 307.725 653.455C307.043 653.455 306.47 653.627 306.006 653.973C305.542 654.314 305.192 654.792 304.955 655.408C304.718 656.018 304.6 656.731 304.6 657.545ZM315.14 667.091V652.091H316.759V653.824H316.958C317.081 653.634 317.251 653.393 317.469 653.099C317.692 652.801 318.009 652.536 318.421 652.304C318.837 652.067 319.401 651.949 320.111 651.949C321.03 651.949 321.839 652.179 322.54 652.638C323.241 653.097 323.788 653.748 324.181 654.591C324.574 655.434 324.77 656.428 324.77 657.574C324.77 658.729 324.574 659.731 324.181 660.578C323.788 661.421 323.243 662.074 322.547 662.538C321.851 662.998 321.049 663.227 320.14 663.227C319.439 663.227 318.878 663.111 318.456 662.879C318.035 662.643 317.711 662.375 317.483 662.077C317.256 661.774 317.081 661.523 316.958 661.324H316.816V667.091H315.14ZM316.787 657.545C316.787 658.369 316.908 659.096 317.15 659.726C317.391 660.351 317.744 660.841 318.208 661.196C318.672 661.546 319.24 661.722 319.912 661.722C320.613 661.722 321.198 661.537 321.667 661.168C322.14 660.794 322.495 660.292 322.732 659.662C322.973 659.027 323.094 658.322 323.094 657.545C323.094 656.778 322.976 656.087 322.739 655.472C322.507 654.851 322.154 654.361 321.681 654.001C321.212 653.637 320.623 653.455 319.912 653.455C319.23 653.455 318.658 653.627 318.194 653.973C317.73 654.314 317.379 654.792 317.142 655.408C316.906 656.018 316.787 656.731 316.787 657.545ZM331.901 663.227C330.85 663.227 329.943 662.995 329.181 662.531C328.423 662.062 327.838 661.409 327.426 660.571C327.019 659.728 326.816 658.748 326.816 657.631C326.816 656.513 327.019 655.528 327.426 654.676C327.838 653.819 328.411 653.152 329.145 652.673C329.884 652.19 330.746 651.949 331.73 651.949C332.299 651.949 332.86 652.044 333.414 652.233C333.968 652.422 334.472 652.73 334.926 653.156C335.381 653.578 335.743 654.136 336.013 654.832C336.283 655.528 336.418 656.385 336.418 657.403V658.114H328.009V656.665H334.713C334.713 656.049 334.59 655.5 334.344 655.017C334.103 654.534 333.757 654.153 333.307 653.874C332.862 653.594 332.337 653.455 331.73 653.455C331.063 653.455 330.485 653.62 329.998 653.952C329.515 654.278 329.143 654.705 328.882 655.23C328.622 655.756 328.492 656.319 328.492 656.92V657.886C328.492 658.71 328.634 659.409 328.918 659.982C329.207 660.55 329.607 660.983 330.118 661.281C330.63 661.575 331.224 661.722 331.901 661.722C332.341 661.722 332.739 661.66 333.094 661.537C333.454 661.409 333.764 661.22 334.025 660.969C334.285 660.713 334.486 660.396 334.628 660.017L336.248 660.472C336.077 661.021 335.791 661.504 335.388 661.92C334.986 662.332 334.489 662.654 333.897 662.886C333.305 663.114 332.64 663.227 331.901 663.227ZM338.968 663V652.091H340.587V653.739H340.701C340.9 653.199 341.259 652.761 341.78 652.425C342.301 652.089 342.888 651.92 343.542 651.92C343.665 651.92 343.819 651.923 344.003 651.928C344.188 651.932 344.328 651.939 344.422 651.949V653.653C344.365 653.639 344.235 653.618 344.032 653.589C343.833 653.556 343.622 653.54 343.4 653.54C342.869 653.54 342.396 653.651 341.979 653.874C341.567 654.091 341.24 654.394 340.999 654.783C340.762 655.166 340.644 655.604 340.644 656.097V663H338.968ZM356.75 663H352.261V648.455H356.949C358.36 648.455 359.567 648.746 360.571 649.328C361.575 649.906 362.344 650.737 362.879 651.821C363.414 652.901 363.682 654.193 363.682 655.699C363.682 657.214 363.412 658.518 362.872 659.612C362.332 660.701 361.546 661.539 360.514 662.126C359.482 662.709 358.227 663 356.75 663ZM354.023 661.438H356.636C357.839 661.438 358.836 661.205 359.626 660.741C360.417 660.277 361.007 659.617 361.395 658.76C361.783 657.903 361.977 656.883 361.977 655.699C361.977 654.525 361.786 653.514 361.402 652.666C361.018 651.814 360.446 651.161 359.683 650.706C358.921 650.247 357.972 650.017 356.835 650.017H354.023V661.438ZM369.619 663.256C368.928 663.256 368.301 663.125 367.737 662.865C367.174 662.6 366.726 662.219 366.395 661.722C366.063 661.22 365.898 660.614 365.898 659.903C365.898 659.278 366.021 658.772 366.267 658.384C366.513 657.991 366.842 657.683 367.254 657.46C367.666 657.238 368.121 657.072 368.618 656.963C369.12 656.849 369.624 656.759 370.131 656.693C370.794 656.608 371.331 656.544 371.743 656.501C372.16 656.454 372.463 656.376 372.652 656.267C372.846 656.158 372.943 655.969 372.943 655.699V655.642C372.943 654.941 372.751 654.397 372.368 654.009C371.989 653.62 371.414 653.426 370.642 653.426C369.842 653.426 369.214 653.601 368.76 653.952C368.305 654.302 367.986 654.676 367.801 655.074L366.21 654.506C366.494 653.843 366.873 653.327 367.347 652.957C367.825 652.583 368.346 652.323 368.909 652.176C369.477 652.025 370.036 651.949 370.585 651.949C370.936 651.949 371.338 651.991 371.793 652.077C372.252 652.157 372.695 652.325 373.121 652.581C373.552 652.837 373.909 653.223 374.193 653.739C374.477 654.255 374.619 654.946 374.619 655.812V663H372.943V661.523H372.858C372.744 661.759 372.555 662.013 372.29 662.283C372.025 662.553 371.672 662.782 371.232 662.972C370.791 663.161 370.254 663.256 369.619 663.256ZM369.875 661.75C370.538 661.75 371.097 661.62 371.551 661.359C372.01 661.099 372.356 660.763 372.588 660.351C372.825 659.939 372.943 659.506 372.943 659.051V657.517C372.872 657.602 372.716 657.68 372.474 657.751C372.238 657.818 371.963 657.877 371.651 657.929C371.343 657.976 371.042 658.019 370.749 658.057C370.46 658.09 370.225 658.118 370.045 658.142C369.61 658.199 369.203 658.291 368.824 658.419C368.45 658.542 368.147 658.729 367.915 658.98C367.688 659.226 367.574 659.562 367.574 659.989C367.574 660.571 367.789 661.011 368.22 661.31C368.656 661.603 369.207 661.75 369.875 661.75ZM379.355 656.438V663H377.679V652.091H379.298V653.795H379.44C379.696 653.241 380.084 652.796 380.605 652.46C381.126 652.119 381.798 651.949 382.622 651.949C383.36 651.949 384.007 652.1 384.561 652.403C385.115 652.702 385.546 653.156 385.853 653.767C386.161 654.373 386.315 655.14 386.315 656.068V663H384.639V656.182C384.639 655.325 384.416 654.657 383.971 654.179C383.526 653.696 382.915 653.455 382.139 653.455C381.604 653.455 381.126 653.571 380.704 653.803C380.288 654.035 379.958 654.373 379.717 654.818C379.475 655.263 379.355 655.803 379.355 656.438ZM402.73 654.534L401.224 654.96C401.13 654.709 400.99 654.465 400.805 654.229C400.625 653.987 400.379 653.788 400.067 653.632C399.754 653.476 399.354 653.398 398.866 653.398C398.199 653.398 397.643 653.552 397.197 653.859C396.757 654.162 396.537 654.548 396.537 655.017C396.537 655.434 396.688 655.763 396.991 656.004C397.295 656.246 397.768 656.447 398.412 656.608L400.031 657.006C401.007 657.242 401.733 657.605 402.212 658.092C402.69 658.575 402.929 659.198 402.929 659.96C402.929 660.585 402.749 661.144 402.389 661.636C402.034 662.129 401.537 662.517 400.898 662.801C400.259 663.085 399.515 663.227 398.668 663.227C397.555 663.227 396.634 662.986 395.905 662.503C395.176 662.02 394.714 661.314 394.52 660.386L396.111 659.989C396.262 660.576 396.549 661.016 396.97 661.31C397.396 661.603 397.953 661.75 398.639 661.75C399.42 661.75 400.041 661.584 400.5 661.253C400.964 660.917 401.196 660.514 401.196 660.045C401.196 659.667 401.063 659.349 400.798 659.094C400.533 658.833 400.126 658.639 399.577 658.511L397.759 658.085C396.759 657.848 396.026 657.482 395.557 656.984C395.093 656.482 394.861 655.855 394.861 655.102C394.861 654.487 395.034 653.942 395.379 653.469C395.73 652.995 396.205 652.624 396.807 652.354C397.413 652.084 398.099 651.949 398.866 651.949C399.946 651.949 400.794 652.186 401.409 652.659C402.029 653.133 402.47 653.758 402.73 654.534ZM410.196 652.091V653.511H404.543V652.091H410.196ZM406.191 649.477H407.867V659.875C407.867 660.348 407.935 660.704 408.073 660.94C408.215 661.172 408.395 661.329 408.613 661.409C408.835 661.485 409.069 661.523 409.316 661.523C409.5 661.523 409.652 661.513 409.77 661.494C409.889 661.471 409.983 661.452 410.054 661.438L410.395 662.943C410.282 662.986 410.123 663.028 409.919 663.071C409.716 663.118 409.458 663.142 409.145 663.142C408.672 663.142 408.208 663.04 407.753 662.837C407.303 662.633 406.929 662.323 406.631 661.906C406.337 661.49 406.191 660.964 406.191 660.33V649.477ZM412.718 663V652.091H414.394V663H412.718ZM413.57 650.273C413.243 650.273 412.962 650.161 412.725 649.939C412.493 649.716 412.377 649.449 412.377 649.136C412.377 648.824 412.493 648.556 412.725 648.334C412.962 648.111 413.243 648 413.57 648C413.897 648 414.176 648.111 414.408 648.334C414.645 648.556 414.763 648.824 414.763 649.136C414.763 649.449 414.645 649.716 414.408 649.939C414.176 650.161 413.897 650.273 413.57 650.273ZM419.14 648.455V663H417.464V648.455H419.14ZM422.21 663V652.091H423.886V663H422.21ZM423.062 650.273C422.735 650.273 422.454 650.161 422.217 649.939C421.985 649.716 421.869 649.449 421.869 649.136C421.869 648.824 421.985 648.556 422.217 648.334C422.454 648.111 422.735 648 423.062 648C423.389 648 423.668 648.111 423.9 648.334C424.137 648.556 424.255 648.824 424.255 649.136C424.255 649.449 424.137 649.716 423.9 649.939C423.668 650.161 423.389 650.273 423.062 650.273ZM429.456 661.011L429.342 661.778C429.262 662.318 429.139 662.896 428.973 663.511C428.812 664.127 428.644 664.707 428.469 665.251C428.294 665.796 428.149 666.229 428.036 666.551H426.757C426.819 666.248 426.899 665.848 426.999 665.351C427.098 664.854 427.197 664.297 427.297 663.682C427.401 663.071 427.486 662.446 427.553 661.807L427.638 661.011H429.456ZM448.357 653C448.201 652.522 447.995 652.093 447.739 651.714C447.488 651.331 447.187 651.004 446.837 650.734C446.491 650.464 446.098 650.259 445.658 650.116C445.218 649.974 444.735 649.903 444.209 649.903C443.347 649.903 442.564 650.126 441.858 650.571C441.153 651.016 440.592 651.672 440.175 652.538C439.758 653.405 439.55 654.468 439.55 655.727C439.55 656.987 439.761 658.05 440.182 658.916C440.604 659.783 441.174 660.438 441.894 660.884C442.614 661.329 443.423 661.551 444.323 661.551C445.156 661.551 445.89 661.374 446.525 661.018C447.164 660.659 447.661 660.152 448.016 659.499C448.376 658.84 448.556 658.066 448.556 657.176L449.096 657.29H444.721V655.727H450.26V657.29C450.26 658.488 450.005 659.529 449.493 660.415C448.987 661.3 448.286 661.987 447.391 662.474C446.501 662.957 445.478 663.199 444.323 663.199C443.035 663.199 441.903 662.896 440.928 662.29C439.957 661.684 439.2 660.822 438.655 659.705C438.115 658.587 437.846 657.261 437.846 655.727C437.846 654.577 437.999 653.542 438.307 652.624C438.62 651.7 439.06 650.914 439.628 650.266C440.196 649.617 440.869 649.12 441.645 648.774C442.422 648.429 443.276 648.256 444.209 648.256C444.976 648.256 445.691 648.372 446.354 648.604C447.022 648.831 447.616 649.155 448.137 649.577C448.662 649.993 449.1 650.493 449.451 651.075C449.801 651.653 450.042 652.295 450.175 653H448.357ZM456.26 663.256C455.569 663.256 454.941 663.125 454.378 662.865C453.814 662.6 453.367 662.219 453.036 661.722C452.704 661.22 452.538 660.614 452.538 659.903C452.538 659.278 452.661 658.772 452.908 658.384C453.154 657.991 453.483 657.683 453.895 657.46C454.307 657.238 454.761 657.072 455.259 656.963C455.76 656.849 456.265 656.759 456.771 656.693C457.434 656.608 457.972 656.544 458.384 656.501C458.8 656.454 459.103 656.376 459.293 656.267C459.487 656.158 459.584 655.969 459.584 655.699V655.642C459.584 654.941 459.392 654.397 459.009 654.009C458.63 653.62 458.054 653.426 457.283 653.426C456.482 653.426 455.855 653.601 455.401 653.952C454.946 654.302 454.626 654.676 454.442 655.074L452.851 654.506C453.135 653.843 453.514 653.327 453.987 652.957C454.465 652.583 454.986 652.323 455.55 652.176C456.118 652.025 456.677 651.949 457.226 651.949C457.576 651.949 457.979 651.991 458.433 652.077C458.893 652.157 459.335 652.325 459.761 652.581C460.192 652.837 460.55 653.223 460.834 653.739C461.118 654.255 461.26 654.946 461.26 655.812V663H459.584V661.523H459.499C459.385 661.759 459.196 662.013 458.93 662.283C458.665 662.553 458.313 662.782 457.872 662.972C457.432 663.161 456.894 663.256 456.26 663.256ZM456.516 661.75C457.179 661.75 457.737 661.62 458.192 661.359C458.651 661.099 458.997 660.763 459.229 660.351C459.465 659.939 459.584 659.506 459.584 659.051V657.517C459.513 657.602 459.357 657.68 459.115 657.751C458.878 657.818 458.604 657.877 458.291 657.929C457.983 657.976 457.683 658.019 457.389 658.057C457.1 658.09 456.866 658.118 456.686 658.142C456.25 658.199 455.843 658.291 455.464 658.419C455.09 658.542 454.787 658.729 454.555 658.98C454.328 659.226 454.214 659.562 454.214 659.989C454.214 660.571 454.43 661.011 454.861 661.31C455.296 661.603 455.848 661.75 456.516 661.75ZM464.319 667.091V652.091H465.939V653.824H466.137C466.261 653.634 466.431 653.393 466.649 653.099C466.871 652.801 467.189 652.536 467.6 652.304C468.017 652.067 468.581 651.949 469.291 651.949C470.209 651.949 471.019 652.179 471.72 652.638C472.421 653.097 472.967 653.748 473.36 654.591C473.753 655.434 473.95 656.428 473.95 657.574C473.95 658.729 473.753 659.731 473.36 660.578C472.967 661.421 472.423 662.074 471.727 662.538C471.031 662.998 470.228 663.227 469.319 663.227C468.618 663.227 468.057 663.111 467.636 662.879C467.215 662.643 466.89 662.375 466.663 662.077C466.436 661.774 466.261 661.523 466.137 661.324H465.995V667.091H464.319ZM465.967 657.545C465.967 658.369 466.088 659.096 466.329 659.726C466.571 660.351 466.923 660.841 467.387 661.196C467.851 661.546 468.42 661.722 469.092 661.722C469.793 661.722 470.377 661.537 470.846 661.168C471.32 660.794 471.675 660.292 471.912 659.662C472.153 659.027 472.274 658.322 472.274 657.545C472.274 656.778 472.155 656.087 471.919 655.472C471.687 654.851 471.334 654.361 470.86 654.001C470.392 653.637 469.802 653.455 469.092 653.455C468.41 653.455 467.837 653.627 467.373 653.973C466.909 654.314 466.559 654.792 466.322 655.408C466.085 656.018 465.967 656.731 465.967 657.545ZM477.984 648.455V649.733C477.984 650.121 477.913 650.536 477.771 650.976C477.634 651.411 477.43 651.835 477.16 652.247C476.895 652.654 476.573 653.009 476.194 653.312L475.285 652.574C475.583 652.148 475.842 651.705 476.059 651.246C476.282 650.782 476.393 650.287 476.393 649.761V648.455H477.984ZM480.198 663V652.091H481.874V663H480.198ZM481.05 650.273C480.724 650.273 480.442 650.161 480.205 649.939C479.973 649.716 479.857 649.449 479.857 649.136C479.857 648.824 479.973 648.556 480.205 648.334C480.442 648.111 480.724 648 481.05 648C481.377 648 481.656 648.111 481.888 648.334C482.125 648.556 482.244 648.824 482.244 649.136C482.244 649.449 482.125 649.716 481.888 649.939C481.656 650.161 481.377 650.273 481.05 650.273ZM486.62 656.438V663H484.944V652.091H486.564V653.795H486.706C486.961 653.241 487.35 652.796 487.87 652.46C488.391 652.119 489.064 651.949 489.887 651.949C490.626 651.949 491.272 652.1 491.826 652.403C492.38 652.702 492.811 653.156 493.119 653.767C493.427 654.373 493.581 655.14 493.581 656.068V663H491.904V656.182C491.904 655.325 491.682 654.657 491.237 654.179C490.792 653.696 490.181 653.455 489.404 653.455C488.869 653.455 488.391 653.571 487.97 653.803C487.553 654.035 487.224 654.373 486.983 654.818C486.741 655.263 486.62 655.803 486.62 656.438ZM501.956 663V661.722L508.149 653.767V653.653H502.155V652.091H510.308V653.426L504.286 661.324V661.438H510.507V663H501.956ZM516.299 663.256C515.608 663.256 514.98 663.125 514.417 662.865C513.853 662.6 513.406 662.219 513.075 661.722C512.743 661.22 512.577 660.614 512.577 659.903C512.577 659.278 512.701 658.772 512.947 658.384C513.193 657.991 513.522 657.683 513.934 657.46C514.346 657.238 514.8 657.072 515.298 656.963C515.799 656.849 516.304 656.759 516.81 656.693C517.473 656.608 518.011 656.544 518.423 656.501C518.839 656.454 519.142 656.376 519.332 656.267C519.526 656.158 519.623 655.969 519.623 655.699V655.642C519.623 654.941 519.431 654.397 519.048 654.009C518.669 653.62 518.094 653.426 517.322 653.426C516.522 653.426 515.894 653.601 515.44 653.952C514.985 654.302 514.665 654.676 514.481 655.074L512.89 654.506C513.174 653.843 513.553 653.327 514.026 652.957C514.504 652.583 515.025 652.323 515.589 652.176C516.157 652.025 516.716 651.949 517.265 651.949C517.615 651.949 518.018 651.991 518.472 652.077C518.932 652.157 519.374 652.325 519.8 652.581C520.231 652.837 520.589 653.223 520.873 653.739C521.157 654.255 521.299 654.946 521.299 655.812V663H519.623V661.523H519.538C519.424 661.759 519.235 662.013 518.969 662.283C518.704 662.553 518.352 662.782 517.911 662.972C517.471 663.161 516.933 663.256 516.299 663.256ZM516.555 661.75C517.218 661.75 517.776 661.62 518.231 661.359C518.69 661.099 519.036 660.763 519.268 660.351C519.504 659.939 519.623 659.506 519.623 659.051V657.517C519.552 657.602 519.396 657.68 519.154 657.751C518.917 657.818 518.643 657.877 518.33 657.929C518.022 657.976 517.722 658.019 517.428 658.057C517.139 658.09 516.905 658.118 516.725 658.142C516.29 658.199 515.882 658.291 515.504 658.419C515.129 658.542 514.826 658.729 514.594 658.98C514.367 659.226 514.254 659.562 514.254 659.989C514.254 660.571 514.469 661.011 514.9 661.31C515.335 661.603 515.887 661.75 516.555 661.75ZM524.358 663V652.091H525.978V653.795H526.12C526.347 653.213 526.714 652.761 527.221 652.439C527.727 652.112 528.336 651.949 529.046 651.949C529.766 651.949 530.364 652.112 530.843 652.439C531.326 652.761 531.702 653.213 531.972 653.795H532.086C532.365 653.232 532.784 652.785 533.343 652.453C533.901 652.117 534.571 651.949 535.353 651.949C536.328 651.949 537.126 652.254 537.746 652.865C538.366 653.471 538.676 654.416 538.676 655.699V663H537V655.699C537 654.894 536.78 654.319 536.34 653.973C535.9 653.627 535.381 653.455 534.784 653.455C534.017 653.455 533.423 653.687 533.002 654.151C532.58 654.61 532.37 655.192 532.37 655.898V663H530.665V655.528C530.665 654.908 530.464 654.409 530.061 654.03C529.659 653.646 529.141 653.455 528.506 653.455C528.07 653.455 527.663 653.571 527.284 653.803C526.91 654.035 526.607 654.357 526.375 654.768C526.148 655.176 526.034 655.647 526.034 656.182V663H524.358ZM544.951 663.256C544.26 663.256 543.633 663.125 543.069 662.865C542.506 662.6 542.058 662.219 541.727 661.722C541.395 661.22 541.23 660.614 541.23 659.903C541.23 659.278 541.353 658.772 541.599 658.384C541.845 657.991 542.174 657.683 542.586 657.46C542.998 657.238 543.453 657.072 543.95 656.963C544.452 656.849 544.956 656.759 545.463 656.693C546.126 656.608 546.663 656.544 547.075 656.501C547.492 656.454 547.795 656.376 547.984 656.267C548.178 656.158 548.275 655.969 548.275 655.699V655.642C548.275 654.941 548.083 654.397 547.7 654.009C547.321 653.62 546.746 653.426 545.974 653.426C545.174 653.426 544.547 653.601 544.092 653.952C543.637 654.302 543.318 654.676 543.133 655.074L541.542 654.506C541.826 653.843 542.205 653.327 542.679 652.957C543.157 652.583 543.678 652.323 544.241 652.176C544.809 652.025 545.368 651.949 545.917 651.949C546.268 651.949 546.67 651.991 547.125 652.077C547.584 652.157 548.027 652.325 548.453 652.581C548.884 652.837 549.241 653.223 549.525 653.739C549.809 654.255 549.951 654.946 549.951 655.812V663H548.275V661.523H548.19C548.076 661.759 547.887 662.013 547.622 662.283C547.357 662.553 547.004 662.782 546.564 662.972C546.123 663.161 545.586 663.256 544.951 663.256ZM545.207 661.75C545.87 661.75 546.429 661.62 546.883 661.359C547.342 661.099 547.688 660.763 547.92 660.351C548.157 659.939 548.275 659.506 548.275 659.051V657.517C548.204 657.602 548.048 657.68 547.806 657.751C547.57 657.818 547.295 657.877 546.983 657.929C546.675 657.976 546.374 658.019 546.081 658.057C545.792 658.09 545.557 658.118 545.377 658.142C544.942 658.199 544.535 658.291 544.156 658.419C543.782 658.542 543.479 658.729 543.247 658.98C543.02 659.226 542.906 659.562 542.906 659.989C542.906 660.571 543.121 661.011 543.552 661.31C543.988 661.603 544.539 661.75 545.207 661.75ZM554.687 656.438V663H553.011V652.091H554.63V653.795H554.772C555.028 653.241 555.416 652.796 555.937 652.46C556.458 652.119 557.13 651.949 557.954 651.949C558.692 651.949 559.339 652.1 559.893 652.403C560.447 652.702 560.878 653.156 561.185 653.767C561.493 654.373 561.647 655.14 561.647 656.068V663H559.971V656.182C559.971 655.325 559.748 654.657 559.303 654.179C558.858 653.696 558.247 653.455 557.471 653.455C556.936 653.455 556.458 653.571 556.036 653.803C555.62 654.035 555.29 654.373 555.049 654.818C554.808 655.263 554.687 655.803 554.687 656.438ZM572.437 654.534L570.931 654.96C570.837 654.709 570.697 654.465 570.512 654.229C570.333 653.987 570.086 653.788 569.774 653.632C569.461 653.476 569.061 653.398 568.574 653.398C567.906 653.398 567.35 653.552 566.904 653.859C566.464 654.162 566.244 654.548 566.244 655.017C566.244 655.434 566.395 655.763 566.699 656.004C567.002 656.246 567.475 656.447 568.119 656.608L569.738 657.006C570.714 657.242 571.44 657.605 571.919 658.092C572.397 658.575 572.636 659.198 572.636 659.96C572.636 660.585 572.456 661.144 572.096 661.636C571.741 662.129 571.244 662.517 570.605 662.801C569.966 663.085 569.222 663.227 568.375 663.227C567.262 663.227 566.341 662.986 565.612 662.503C564.883 662.02 564.421 661.314 564.227 660.386L565.818 659.989C565.969 660.576 566.256 661.016 566.677 661.31C567.103 661.603 567.66 661.75 568.346 661.75C569.127 661.75 569.748 661.584 570.207 661.253C570.671 660.917 570.903 660.514 570.903 660.045C570.903 659.667 570.77 659.349 570.505 659.094C570.24 658.833 569.833 658.639 569.284 658.511L567.466 658.085C566.467 657.848 565.733 657.482 565.264 656.984C564.8 656.482 564.568 655.855 564.568 655.102C564.568 654.487 564.741 653.942 565.086 653.469C565.437 652.995 565.913 652.624 566.514 652.354C567.12 652.084 567.806 651.949 568.574 651.949C569.653 651.949 570.501 652.186 571.116 652.659C571.736 653.133 572.177 653.758 572.437 654.534ZM575.159 663V652.091H576.835V663H575.159ZM579.593 663V661.722L585.786 653.767V653.653H579.792V652.091H587.945V653.426L581.922 661.324V661.438H588.144V663H579.593ZM59.2784 676.091V677.511H53.625V676.091H59.2784ZM55.2727 673.477H56.9489V683.875C56.9489 684.348 57.0175 684.704 57.1548 684.94C57.2969 685.172 57.4768 685.329 57.6946 685.409C57.9171 685.485 58.1515 685.523 58.3977 685.523C58.5824 685.523 58.7339 685.513 58.8523 685.494C58.9706 685.471 59.0653 685.452 59.1364 685.438L59.4773 686.943C59.3636 686.986 59.205 687.028 59.0014 687.071C58.7978 687.118 58.5398 687.142 58.2273 687.142C57.7538 687.142 57.2898 687.04 56.8352 686.837C56.3854 686.633 56.0114 686.323 55.7131 685.906C55.4195 685.49 55.2727 684.964 55.2727 684.33V673.477ZM65.0099 687.256C64.3187 687.256 63.6913 687.125 63.1278 686.865C62.5644 686.6 62.117 686.219 61.7855 685.722C61.4541 685.22 61.2884 684.614 61.2884 683.903C61.2884 683.278 61.4115 682.772 61.6577 682.384C61.9039 681.991 62.233 681.683 62.6449 681.46C63.0568 681.238 63.5114 681.072 64.0085 680.963C64.5104 680.849 65.0147 680.759 65.5213 680.693C66.1842 680.608 66.7216 680.544 67.1335 680.501C67.5502 680.454 67.8532 680.376 68.0426 680.267C68.2367 680.158 68.3338 679.969 68.3338 679.699V679.642C68.3338 678.941 68.142 678.397 67.7585 678.009C67.3797 677.62 66.8045 677.426 66.0327 677.426C65.2325 677.426 64.6051 677.601 64.1506 677.952C63.696 678.302 63.3764 678.676 63.1918 679.074L61.6009 678.506C61.8849 677.843 62.2637 677.327 62.7372 676.957C63.2154 676.583 63.7363 676.323 64.2997 676.176C64.8679 676.025 65.4266 675.949 65.9759 675.949C66.3262 675.949 66.7287 675.991 67.1832 676.077C67.6425 676.157 68.0852 676.325 68.5114 676.581C68.9422 676.837 69.2997 677.223 69.5838 677.739C69.8679 678.255 70.0099 678.946 70.0099 679.812V687H68.3338V685.523H68.2486C68.1349 685.759 67.9455 686.013 67.6804 686.283C67.4152 686.553 67.0625 686.782 66.6222 686.972C66.1818 687.161 65.6444 687.256 65.0099 687.256ZM65.2656 685.75C65.9285 685.75 66.4872 685.62 66.9418 685.359C67.401 685.099 67.7467 684.763 67.9787 684.351C68.2154 683.939 68.3338 683.506 68.3338 683.051V681.517C68.2628 681.602 68.1065 681.68 67.8651 681.751C67.6283 681.818 67.3537 681.877 67.0412 681.929C66.7334 681.976 66.4328 682.019 66.1392 682.057C65.8504 682.09 65.616 682.118 65.4361 682.142C65.0005 682.199 64.5933 682.291 64.2145 682.419C63.8404 682.542 63.5374 682.729 63.3054 682.98C63.0781 683.226 62.9645 683.562 62.9645 683.989C62.9645 684.571 63.1799 685.011 63.6108 685.31C64.0464 685.603 64.598 685.75 65.2656 685.75ZM73.0692 687V676.091H74.6886V677.739H74.8022C75.0011 677.199 75.3609 676.761 75.8817 676.425C76.4026 676.089 76.9897 675.92 77.6431 675.92C77.7662 675.92 77.9201 675.923 78.1048 675.928C78.2894 675.932 78.4291 675.939 78.5238 675.949V677.653C78.467 677.639 78.3368 677.618 78.1332 677.589C77.9343 677.556 77.7236 677.54 77.5011 677.54C76.9708 677.54 76.4973 677.651 76.0806 677.874C75.6687 678.091 75.342 678.394 75.1005 678.783C74.8638 679.166 74.7454 679.604 74.7454 680.097V687H73.0692ZM80.1982 687V685.722L86.3913 677.767V677.653H80.397V676.091H88.5504V677.426L82.5277 685.324V685.438H88.7493V687H80.1982ZM91.331 687V676.091H93.0071V687H91.331ZM97.1566 691.091C96.8725 691.091 96.6192 691.067 96.3967 691.02C96.1741 690.977 96.0202 690.935 95.935 690.892L96.3612 689.415C96.7683 689.519 97.1282 689.557 97.4407 689.528C97.7532 689.5 98.0302 689.36 98.2717 689.109C98.5179 688.863 98.7428 688.463 98.9464 687.909L99.2589 687.057L95.2248 676.091H97.043L100.054 684.784H100.168L103.179 676.091H104.998L100.367 688.591C100.158 689.154 99.9004 689.621 99.5927 689.99C99.2849 690.364 98.9274 690.641 98.5202 690.821C98.1178 691.001 97.6632 691.091 97.1566 691.091ZM108.886 672.455V687H107.21V672.455H108.886ZM115.166 687.256C114.475 687.256 113.848 687.125 113.284 686.865C112.721 686.6 112.273 686.219 111.942 685.722C111.61 685.22 111.445 684.614 111.445 683.903C111.445 683.278 111.568 682.772 111.814 682.384C112.06 681.991 112.389 681.683 112.801 681.46C113.213 681.238 113.668 681.072 114.165 680.963C114.667 680.849 115.171 680.759 115.678 680.693C116.34 680.608 116.878 680.544 117.29 680.501C117.706 680.454 118.009 680.376 118.199 680.267C118.393 680.158 118.49 679.969 118.49 679.699V679.642C118.49 678.941 118.298 678.397 117.915 678.009C117.536 677.62 116.961 677.426 116.189 677.426C115.389 677.426 114.761 677.601 114.307 677.952C113.852 678.302 113.533 678.676 113.348 679.074L111.757 678.506C112.041 677.843 112.42 677.327 112.893 676.957C113.372 676.583 113.893 676.323 114.456 676.176C115.024 676.025 115.583 675.949 116.132 675.949C116.482 675.949 116.885 675.991 117.339 676.077C117.799 676.157 118.241 676.325 118.668 676.581C119.098 676.837 119.456 677.223 119.74 677.739C120.024 678.255 120.166 678.946 120.166 679.812V687H118.49V685.523H118.405C118.291 685.759 118.102 686.013 117.837 686.283C117.571 686.553 117.219 686.782 116.778 686.972C116.338 687.161 115.801 687.256 115.166 687.256ZM115.422 685.75C116.085 685.75 116.643 685.62 117.098 685.359C117.557 685.099 117.903 684.763 118.135 684.351C118.372 683.939 118.49 683.506 118.49 683.051V681.517C118.419 681.602 118.263 681.68 118.021 681.751C117.785 681.818 117.51 681.877 117.197 681.929C116.89 681.976 116.589 682.019 116.295 682.057C116.007 682.09 115.772 682.118 115.592 682.142C115.157 682.199 114.75 682.291 114.371 682.419C113.997 682.542 113.694 682.729 113.462 682.98C113.234 683.226 113.121 683.562 113.121 683.989C113.121 684.571 113.336 685.011 113.767 685.31C114.203 685.603 114.754 685.75 115.422 685.75ZM129.078 687V672.455H130.754V677.824H130.896C131.019 677.634 131.19 677.393 131.407 677.099C131.63 676.801 131.947 676.536 132.359 676.304C132.776 676.067 133.339 675.949 134.049 675.949C134.968 675.949 135.778 676.179 136.478 676.638C137.179 677.097 137.726 677.748 138.119 678.591C138.512 679.434 138.708 680.428 138.708 681.574C138.708 682.729 138.512 683.731 138.119 684.578C137.726 685.421 137.181 686.074 136.485 686.538C135.789 686.998 134.987 687.227 134.078 687.227C133.377 687.227 132.816 687.111 132.395 686.879C131.973 686.643 131.649 686.375 131.422 686.077C131.194 685.774 131.019 685.523 130.896 685.324H130.697V687H129.078ZM130.725 681.545C130.725 682.369 130.846 683.096 131.088 683.726C131.329 684.351 131.682 684.841 132.146 685.196C132.61 685.546 133.178 685.722 133.85 685.722C134.551 685.722 135.136 685.537 135.605 685.168C136.078 684.794 136.433 684.292 136.67 683.662C136.912 683.027 137.032 682.322 137.032 681.545C137.032 680.778 136.914 680.087 136.677 679.472C136.445 678.851 136.092 678.361 135.619 678.001C135.15 677.637 134.561 677.455 133.85 677.455C133.169 677.455 132.596 677.627 132.132 677.973C131.668 678.314 131.317 678.792 131.081 679.408C130.844 680.018 130.725 680.731 130.725 681.545ZM141.272 687V676.091H142.949V687H141.272ZM142.125 674.273C141.798 674.273 141.516 674.161 141.279 673.939C141.047 673.716 140.931 673.449 140.931 673.136C140.931 672.824 141.047 672.556 141.279 672.334C141.516 672.111 141.798 672 142.125 672C142.451 672 142.731 672.111 142.963 672.334C143.199 672.556 143.318 672.824 143.318 673.136C143.318 673.449 143.199 673.716 142.963 673.939C142.731 674.161 142.451 674.273 142.125 674.273ZM146.018 687V676.091H147.638V677.739H147.751C147.95 677.199 148.31 676.761 148.831 676.425C149.352 676.089 149.939 675.92 150.592 675.92C150.715 675.92 150.869 675.923 151.054 675.928C151.239 675.932 151.378 675.939 151.473 675.949V677.653C151.416 677.639 151.286 677.618 151.082 677.589C150.884 677.556 150.673 677.54 150.45 677.54C149.92 677.54 149.446 677.651 149.03 677.874C148.618 678.091 148.291 678.394 148.05 678.783C147.813 679.166 147.695 679.604 147.695 680.097V687H146.018ZM162.295 687.256C161.604 687.256 160.976 687.125 160.413 686.865C159.85 686.6 159.402 686.219 159.071 685.722C158.739 685.22 158.574 684.614 158.574 683.903C158.574 683.278 158.697 682.772 158.943 682.384C159.189 681.991 159.518 681.683 159.93 681.46C160.342 681.238 160.797 681.072 161.294 680.963C161.796 680.849 162.3 680.759 162.806 680.693C163.469 680.608 164.007 680.544 164.419 680.501C164.835 680.454 165.138 680.376 165.328 680.267C165.522 680.158 165.619 679.969 165.619 679.699V679.642C165.619 678.941 165.427 678.397 165.044 678.009C164.665 677.62 164.09 677.426 163.318 677.426C162.518 677.426 161.89 677.601 161.436 677.952C160.981 678.302 160.662 678.676 160.477 679.074L158.886 678.506C159.17 677.843 159.549 677.327 160.022 676.957C160.501 676.583 161.021 676.323 161.585 676.176C162.153 676.025 162.712 675.949 163.261 675.949C163.611 675.949 164.014 675.991 164.468 676.077C164.928 676.157 165.37 676.325 165.797 676.581C166.227 676.837 166.585 677.223 166.869 677.739C167.153 678.255 167.295 678.946 167.295 679.812V687H165.619V685.523H165.534C165.42 685.759 165.231 686.013 164.966 686.283C164.7 686.553 164.348 686.782 163.907 686.972C163.467 687.161 162.93 687.256 162.295 687.256ZM162.551 685.75C163.214 685.75 163.772 685.62 164.227 685.359C164.686 685.099 165.032 684.763 165.264 684.351C165.501 683.939 165.619 683.506 165.619 683.051V681.517C165.548 681.602 165.392 681.68 165.15 681.751C164.913 681.818 164.639 681.877 164.326 681.929C164.019 681.976 163.718 682.019 163.424 682.057C163.136 682.09 162.901 682.118 162.721 682.142C162.286 682.199 161.878 682.291 161.5 682.419C161.126 682.542 160.823 682.729 160.591 682.98C160.363 683.226 160.25 683.562 160.25 683.989C160.25 684.571 160.465 685.011 160.896 685.31C161.332 685.603 161.883 685.75 162.551 685.75ZM170.354 687V676.091H171.974V677.739H172.087C172.286 677.199 172.646 676.761 173.167 676.425C173.688 676.089 174.275 675.92 174.928 675.92C175.051 675.92 175.205 675.923 175.39 675.928C175.575 675.932 175.714 675.939 175.809 675.949V677.653C175.752 677.639 175.622 677.618 175.418 677.589C175.219 677.556 175.009 677.54 174.786 677.54C174.256 677.54 173.782 677.651 173.366 677.874C172.954 678.091 172.627 678.394 172.386 678.783C172.149 679.166 172.031 679.604 172.031 680.097V687H170.354ZM181.006 687.256C180.315 687.256 179.687 687.125 179.124 686.865C178.56 686.6 178.113 686.219 177.782 685.722C177.45 685.22 177.284 684.614 177.284 683.903C177.284 683.278 177.408 682.772 177.654 682.384C177.9 681.991 178.229 681.683 178.641 681.46C179.053 681.238 179.507 681.072 180.005 680.963C180.507 680.849 181.011 680.759 181.517 680.693C182.18 680.608 182.718 680.544 183.13 680.501C183.546 680.454 183.849 680.376 184.039 680.267C184.233 680.158 184.33 679.969 184.33 679.699V679.642C184.33 678.941 184.138 678.397 183.755 678.009C183.376 677.62 182.801 677.426 182.029 677.426C181.229 677.426 180.601 677.601 180.147 677.952C179.692 678.302 179.373 678.676 179.188 679.074L177.597 678.506C177.881 677.843 178.26 677.327 178.733 676.957C179.212 676.583 179.732 676.323 180.296 676.176C180.864 676.025 181.423 675.949 181.972 675.949C182.322 675.949 182.725 675.991 183.179 676.077C183.639 676.157 184.081 676.325 184.507 676.581C184.938 676.837 185.296 677.223 185.58 677.739C185.864 678.255 186.006 678.946 186.006 679.812V687H184.33V685.523H184.245C184.131 685.759 183.942 686.013 183.676 686.283C183.411 686.553 183.059 686.782 182.618 686.972C182.178 687.161 181.641 687.256 181.006 687.256ZM181.262 685.75C181.925 685.75 182.483 685.62 182.938 685.359C183.397 685.099 183.743 684.763 183.975 684.351C184.212 683.939 184.33 683.506 184.33 683.051V681.517C184.259 681.602 184.103 681.68 183.861 681.751C183.624 681.818 183.35 681.877 183.037 681.929C182.73 681.976 182.429 682.019 182.135 682.057C181.846 682.09 181.612 682.118 181.432 682.142C180.997 682.199 180.589 682.291 180.211 682.419C179.837 682.542 179.533 682.729 179.301 682.98C179.074 683.226 178.961 683.562 178.961 683.989C178.961 684.571 179.176 685.011 179.607 685.31C180.042 685.603 180.594 685.75 181.262 685.75ZM193.185 687.227C192.276 687.227 191.473 686.998 190.777 686.538C190.081 686.074 189.536 685.421 189.143 684.578C188.75 683.731 188.554 682.729 188.554 681.574C188.554 680.428 188.75 679.434 189.143 678.591C189.536 677.748 190.083 677.097 190.784 676.638C191.485 676.179 192.295 675.949 193.213 675.949C193.923 675.949 194.484 676.067 194.896 676.304C195.313 676.536 195.63 676.801 195.848 677.099C196.071 677.393 196.243 677.634 196.366 677.824H196.509V672.455H198.185V687H196.565V685.324H196.366C196.243 685.523 196.068 685.774 195.841 686.077C195.614 686.375 195.289 686.643 194.868 686.879C194.446 687.111 193.885 687.227 193.185 687.227ZM193.412 685.722C194.084 685.722 194.652 685.546 195.116 685.196C195.58 684.841 195.933 684.351 196.175 683.726C196.416 683.096 196.537 682.369 196.537 681.545C196.537 680.731 196.419 680.018 196.182 679.408C195.945 678.792 195.595 678.314 195.131 677.973C194.667 677.627 194.094 677.455 193.412 677.455C192.702 677.455 192.11 677.637 191.636 678.001C191.168 678.361 190.815 678.851 190.578 679.472C190.346 680.087 190.23 680.778 190.23 681.545C190.23 682.322 190.348 683.027 190.585 683.662C190.827 684.292 191.182 684.794 191.651 685.168C192.124 685.537 192.711 685.722 193.412 685.722ZM204.697 687.256C204.006 687.256 203.379 687.125 202.815 686.865C202.252 686.6 201.804 686.219 201.473 685.722C201.142 685.22 200.976 684.614 200.976 683.903C200.976 683.278 201.099 682.772 201.345 682.384C201.591 681.991 201.92 681.683 202.332 681.46C202.744 681.238 203.199 681.072 203.696 680.963C204.198 680.849 204.702 680.759 205.209 680.693C205.872 680.608 206.409 680.544 206.821 680.501C207.238 680.454 207.541 680.376 207.73 680.267C207.924 680.158 208.021 679.969 208.021 679.699V679.642C208.021 678.941 207.83 678.397 207.446 678.009C207.067 677.62 206.492 677.426 205.72 677.426C204.92 677.426 204.293 677.601 203.838 677.952C203.384 678.302 203.064 678.676 202.879 679.074L201.288 678.506C201.572 677.843 201.951 677.327 202.425 676.957C202.903 676.583 203.424 676.323 203.987 676.176C204.555 676.025 205.114 675.949 205.663 675.949C206.014 675.949 206.416 675.991 206.871 676.077C207.33 676.157 207.773 676.325 208.199 676.581C208.63 676.837 208.987 677.223 209.271 677.739C209.555 678.255 209.697 678.946 209.697 679.812V687H208.021V685.523H207.936C207.822 685.759 207.633 686.013 207.368 686.283C207.103 686.553 206.75 686.782 206.31 686.972C205.869 687.161 205.332 687.256 204.697 687.256ZM204.953 685.75C205.616 685.75 206.175 685.62 206.629 685.359C207.089 685.099 207.434 684.763 207.666 684.351C207.903 683.939 208.021 683.506 208.021 683.051V681.517C207.95 681.602 207.794 681.68 207.553 681.751C207.316 681.818 207.041 681.877 206.729 681.929C206.421 681.976 206.12 682.019 205.827 682.057C205.538 682.09 205.304 682.118 205.124 682.142C204.688 682.199 204.281 682.291 203.902 682.419C203.528 682.542 203.225 682.729 202.993 682.98C202.766 683.226 202.652 683.562 202.652 683.989C202.652 684.571 202.867 685.011 203.298 685.31C203.734 685.603 204.286 685.75 204.953 685.75ZM214.973 672.455L214.831 682.909H213.183L213.041 672.455H214.973ZM214.007 687.114C213.656 687.114 213.356 686.988 213.105 686.737C212.854 686.486 212.728 686.186 212.728 685.835C212.728 685.485 212.854 685.184 213.105 684.933C213.356 684.682 213.656 684.557 214.007 684.557C214.357 684.557 214.658 684.682 214.909 684.933C215.16 685.184 215.285 685.485 215.285 685.835C215.285 686.067 215.226 686.28 215.108 686.474C214.994 686.669 214.84 686.825 214.646 686.943C214.457 687.057 214.243 687.114 214.007 687.114Z" fill="white"/>
</svg>
