<svg width="780" height="463" viewBox="0 0 780 463" fill="none" xmlns="http://www.w3.org/2000/svg">
<path d="M88.5256 399.82H84.571L90.5966 382.366H95.3523L101.369 399.82H97.4148L93.0426 386.354H92.9062L88.5256 399.82ZM88.2784 392.959H97.6193V395.84H88.2784V392.959ZM104.67 399.82V382.366H108.361V396.777H115.843V399.82H104.67ZM123.178 382.366V399.82H119.487V382.366H123.178ZM136.883 387.385C136.814 386.698 136.522 386.164 136.005 385.783C135.488 385.402 134.786 385.212 133.9 385.212C133.297 385.212 132.789 385.297 132.374 385.468C131.959 385.633 131.641 385.863 131.42 386.158C131.204 386.454 131.096 386.789 131.096 387.164C131.084 387.476 131.15 387.749 131.292 387.982C131.439 388.215 131.641 388.417 131.897 388.587C132.153 388.752 132.448 388.897 132.783 389.022C133.118 389.141 133.476 389.243 133.857 389.329L135.425 389.704C136.187 389.874 136.886 390.101 137.522 390.385C138.158 390.669 138.709 391.019 139.175 391.434C139.641 391.848 140.002 392.337 140.258 392.9C140.519 393.462 140.653 394.107 140.658 394.834C140.653 395.902 140.38 396.829 139.84 397.613C139.306 398.391 138.533 398.996 137.522 399.428C136.516 399.854 135.303 400.067 133.883 400.067C132.474 400.067 131.246 399.851 130.201 399.42C129.161 398.988 128.349 398.348 127.763 397.502C127.184 396.65 126.88 395.596 126.851 394.34H130.422C130.462 394.925 130.63 395.414 130.925 395.806C131.226 396.192 131.627 396.485 132.127 396.684C132.633 396.877 133.204 396.973 133.84 396.973C134.465 396.973 135.008 396.883 135.468 396.701C135.934 396.519 136.295 396.266 136.55 395.942C136.806 395.618 136.934 395.246 136.934 394.826C136.934 394.434 136.817 394.104 136.584 393.837C136.357 393.57 136.022 393.343 135.579 393.155C135.141 392.968 134.604 392.797 133.968 392.644L132.067 392.167C130.596 391.809 129.434 391.249 128.582 390.488C127.729 389.726 127.306 388.701 127.312 387.411C127.306 386.354 127.587 385.431 128.155 384.641C128.729 383.851 129.516 383.235 130.516 382.792C131.516 382.348 132.653 382.127 133.925 382.127C135.221 382.127 136.351 382.348 137.317 382.792C138.289 383.235 139.045 383.851 139.584 384.641C140.124 385.431 140.403 386.346 140.42 387.385H136.883ZM132.945 399.752H134.616L134.479 400.493C135.064 400.584 135.542 400.803 135.911 401.15C136.286 401.496 136.476 401.968 136.482 402.564C136.488 403.411 136.096 404.084 135.306 404.584C134.516 405.09 133.408 405.343 131.982 405.343L131.948 403.723C132.664 403.723 133.224 403.635 133.627 403.459C134.036 403.289 134.249 403.022 134.266 402.658C134.278 402.312 134.144 402.047 133.866 401.866C133.587 401.684 133.153 401.556 132.562 401.482L132.945 399.752ZM147.494 382.366L151.713 395.627H151.875L156.102 382.366H160.193L154.176 399.82H149.42L143.394 382.366H147.494ZM163.494 399.82V382.366H175.255V385.408H167.184V389.567H174.65V392.61H167.184V396.777H175.289V399.82H163.494ZM179.389 399.82V382.366H186.275C187.593 382.366 188.718 382.601 189.65 383.073C190.588 383.539 191.301 384.201 191.789 385.059C192.284 385.911 192.531 386.914 192.531 388.067C192.531 389.226 192.281 390.223 191.781 391.059C191.281 391.888 190.557 392.525 189.608 392.968C188.664 393.411 187.522 393.633 186.182 393.633H181.571V390.667H185.585C186.289 390.667 186.875 390.57 187.341 390.377C187.807 390.184 188.153 389.894 188.38 389.508C188.613 389.121 188.73 388.641 188.73 388.067C188.73 387.488 188.613 386.999 188.38 386.601C188.153 386.204 187.804 385.902 187.332 385.698C186.866 385.488 186.278 385.383 185.568 385.383H183.079V399.82H179.389ZM188.815 391.877L193.153 399.82H189.079L184.835 391.877H188.815ZM200.029 382.366V399.82H196.339V382.366H200.029ZM198.205 380.678C197.666 380.678 197.203 380.499 196.816 380.141C196.43 379.777 196.237 379.343 196.237 378.837C196.237 378.337 196.43 377.908 196.816 377.55C197.203 377.187 197.663 377.005 198.197 377.005C198.742 377.005 199.205 377.187 199.586 377.55C199.972 377.908 200.166 378.337 200.166 378.837C200.166 379.343 199.972 379.777 199.586 380.141C199.205 380.499 198.745 380.678 198.205 380.678ZM213.734 387.385C213.666 386.698 213.373 386.164 212.856 385.783C212.339 385.402 211.638 385.212 210.751 385.212C210.149 385.212 209.64 385.297 209.226 385.468C208.811 385.633 208.493 385.863 208.271 386.158C208.055 386.454 207.947 386.789 207.947 387.164C207.936 387.476 208.001 387.749 208.143 387.982C208.291 388.215 208.493 388.417 208.748 388.587C209.004 388.752 209.3 388.897 209.635 389.022C209.97 389.141 210.328 389.243 210.709 389.329L212.277 389.704C213.038 389.874 213.737 390.101 214.373 390.385C215.01 390.669 215.561 391.019 216.027 391.434C216.493 391.848 216.854 392.337 217.109 392.9C217.371 393.462 217.504 394.107 217.51 394.834C217.504 395.902 217.231 396.829 216.692 397.613C216.158 398.391 215.385 398.996 214.373 399.428C213.368 399.854 212.155 400.067 210.734 400.067C209.325 400.067 208.098 399.851 207.052 399.42C206.013 398.988 205.2 398.348 204.615 397.502C204.035 396.65 203.731 395.596 203.703 394.34H207.274C207.314 394.925 207.481 395.414 207.777 395.806C208.078 396.192 208.479 396.485 208.979 396.684C209.484 396.877 210.055 396.973 210.692 396.973C211.317 396.973 211.859 396.883 212.319 396.701C212.785 396.519 213.146 396.266 213.402 395.942C213.658 395.618 213.785 395.246 213.785 394.826C213.785 394.434 213.669 394.104 213.436 393.837C213.209 393.57 212.873 393.343 212.43 393.155C211.993 392.968 211.456 392.797 210.819 392.644L208.919 392.167C207.447 391.809 206.285 391.249 205.433 390.488C204.581 389.726 204.158 388.701 204.163 387.411C204.158 386.354 204.439 385.431 205.007 384.641C205.581 383.851 206.368 383.235 207.368 382.792C208.368 382.348 209.504 382.127 210.777 382.127C212.072 382.127 213.203 382.348 214.169 382.792C215.14 383.235 215.896 383.851 216.436 384.641C216.976 385.431 217.254 386.346 217.271 387.385H213.734ZM209.797 399.752H211.467L211.331 400.493C211.916 400.584 212.393 400.803 212.763 401.15C213.138 401.496 213.328 401.968 213.334 402.564C213.339 403.411 212.947 404.084 212.158 404.584C211.368 405.09 210.26 405.343 208.834 405.343L208.8 403.723C209.515 403.723 210.075 403.635 210.479 403.459C210.888 403.289 211.101 403.022 211.118 402.658C211.129 402.312 210.996 402.047 210.717 401.866C210.439 401.684 210.004 401.556 209.413 401.482L209.797 399.752ZM221.192 399.82V382.366H232.953V385.408H224.882V389.567H232.348V392.61H224.882V396.777H232.988V399.82H221.192ZM243.842 399.82V382.366H250.831C252.115 382.366 253.186 382.556 254.044 382.937C254.902 383.317 255.547 383.846 255.978 384.522C256.41 385.192 256.626 385.965 256.626 386.84C256.626 387.522 256.49 388.121 256.217 388.638C255.944 389.15 255.569 389.57 255.092 389.9C254.62 390.223 254.081 390.454 253.473 390.59V390.76C254.137 390.789 254.76 390.976 255.339 391.323C255.924 391.669 256.399 392.155 256.762 392.78C257.126 393.4 257.308 394.138 257.308 394.996C257.308 395.922 257.078 396.749 256.618 397.476C256.163 398.198 255.49 398.769 254.598 399.189C253.706 399.61 252.606 399.82 251.299 399.82H243.842ZM247.532 396.803H250.541C251.569 396.803 252.319 396.607 252.791 396.215C253.262 395.817 253.498 395.289 253.498 394.63C253.498 394.147 253.382 393.721 253.149 393.351C252.916 392.982 252.584 392.692 252.152 392.482C251.726 392.272 251.217 392.167 250.626 392.167H247.532V396.803ZM247.532 389.67H250.268C250.774 389.67 251.223 389.581 251.615 389.405C252.012 389.223 252.325 388.968 252.552 388.638C252.785 388.309 252.902 387.914 252.902 387.454C252.902 386.823 252.677 386.314 252.228 385.928C251.785 385.542 251.155 385.348 250.336 385.348H247.532V389.67ZM263.918 399.82H259.963L265.989 382.366H270.744L276.762 399.82H272.807L268.435 386.354H268.298L263.918 399.82ZM263.671 392.959H273.012V395.84H263.671V392.959ZM289.133 387.385C289.064 386.698 288.772 386.164 288.255 385.783C287.738 385.402 287.036 385.212 286.15 385.212C285.547 385.212 285.039 385.297 284.624 385.468C284.209 385.633 283.891 385.863 283.67 386.158C283.454 386.454 283.346 386.789 283.346 387.164C283.334 387.476 283.4 387.749 283.542 387.982C283.689 388.215 283.891 388.417 284.147 388.587C284.403 388.752 284.698 388.897 285.033 389.022C285.368 389.141 285.726 389.243 286.107 389.329L287.675 389.704C288.437 389.874 289.136 390.101 289.772 390.385C290.408 390.669 290.959 391.019 291.425 391.434C291.891 391.848 292.252 392.337 292.508 392.9C292.769 393.462 292.903 394.107 292.908 394.834C292.903 395.902 292.63 396.829 292.09 397.613C291.556 398.391 290.783 398.996 289.772 399.428C288.766 399.854 287.553 400.067 286.133 400.067C284.724 400.067 283.496 399.851 282.451 399.42C281.411 398.988 280.599 398.348 280.013 397.502C279.434 396.65 279.13 395.596 279.101 394.34H282.672C282.712 394.925 282.88 395.414 283.175 395.806C283.476 396.192 283.877 396.485 284.377 396.684C284.883 396.877 285.454 396.973 286.09 396.973C286.715 396.973 287.258 396.883 287.718 396.701C288.184 396.519 288.545 396.266 288.8 395.942C289.056 395.618 289.184 395.246 289.184 394.826C289.184 394.434 289.067 394.104 288.834 393.837C288.607 393.57 288.272 393.343 287.829 393.155C287.391 392.968 286.854 392.797 286.218 392.644L284.317 392.167C282.846 391.809 281.684 391.249 280.832 390.488C279.979 389.726 279.556 388.701 279.562 387.411C279.556 386.354 279.837 385.431 280.405 384.641C280.979 383.851 281.766 383.235 282.766 382.792C283.766 382.348 284.903 382.127 286.175 382.127C287.471 382.127 288.601 382.348 289.567 382.792C290.539 383.235 291.295 383.851 291.834 384.641C292.374 385.431 292.653 386.346 292.67 387.385H289.133ZM285.195 399.752H286.866L286.729 400.493C287.314 400.584 287.792 400.803 288.161 401.15C288.536 401.496 288.726 401.968 288.732 402.564C288.738 403.411 288.346 404.084 287.556 404.584C286.766 405.09 285.658 405.343 284.232 405.343L284.198 403.723C284.914 403.723 285.474 403.635 285.877 403.459C286.286 403.289 286.499 403.022 286.516 402.658C286.528 402.312 286.394 402.047 286.116 401.866C285.837 401.684 285.403 401.556 284.812 401.482L285.195 399.752ZM296.59 399.82V382.366H300.281V396.777H307.764V399.82H296.59ZM314.862 399.82H310.907L316.933 382.366H321.688L327.705 399.82H323.751L319.379 386.354H319.242L314.862 399.82ZM314.614 392.959H323.955V395.84H314.614V392.959Z" fill="white"/>
<rect x="48" y="353" width="683" height="75.1208" rx="4" stroke="white" stroke-width="2"/>
<path d="M696.25 382.506L697.002 381.847L696.25 382.506ZM702.812 390.003L703.565 389.345L703.565 389.345L702.812 390.003ZM703.75 391.075L704.502 390.416L705.079 391.075L704.502 391.733L703.75 391.075ZM696.25 399.644L695.498 398.985L695.498 398.985L696.25 399.644ZM665.312 392.075C664.76 392.075 664.312 391.627 664.312 391.075C664.312 390.522 664.76 390.075 665.312 390.075V392.075ZM697.002 381.847L703.565 389.345L702.06 390.662L695.498 383.164L697.002 381.847ZM703.565 389.345L704.502 390.416L702.998 391.733L702.06 390.662L703.565 389.345ZM704.502 391.733L697.002 400.302L695.498 398.985L702.998 390.416L704.502 391.733ZM703.75 392.075H665.312V390.075H703.75V392.075ZM696.065 380.776L697.002 381.847L695.498 383.164L694.56 382.093L696.065 380.776ZM697.002 400.302L696.065 401.373L694.56 400.056L695.498 398.985L697.002 400.302Z" fill="white"/>
<path d="M287.545 166H284.727C284.561 165.189 284.269 164.477 283.852 163.864C283.443 163.25 282.943 162.735 282.352 162.318C281.769 161.894 281.121 161.576 280.409 161.364C279.697 161.152 278.955 161.045 278.182 161.045C276.773 161.045 275.496 161.402 274.352 162.114C273.216 162.826 272.311 163.875 271.636 165.261C270.97 166.648 270.636 168.348 270.636 170.364C270.636 172.379 270.97 174.08 271.636 175.466C272.311 176.852 273.216 177.902 274.352 178.614C275.496 179.326 276.773 179.682 278.182 179.682C278.955 179.682 279.697 179.576 280.409 179.364C281.121 179.152 281.769 178.837 282.352 178.42C282.943 177.996 283.443 177.477 283.852 176.864C284.269 176.242 284.561 175.53 284.727 174.727H287.545C287.333 175.917 286.947 176.981 286.386 177.92C285.826 178.86 285.129 179.659 284.295 180.318C283.462 180.97 282.527 181.466 281.489 181.807C280.458 182.148 279.356 182.318 278.182 182.318C276.197 182.318 274.432 181.833 272.886 180.864C271.341 179.894 270.125 178.515 269.239 176.727C268.352 174.939 267.909 172.818 267.909 170.364C267.909 167.909 268.352 165.788 269.239 164C270.125 162.212 271.341 160.833 272.886 159.864C274.432 158.894 276.197 158.409 278.182 158.409C279.356 158.409 280.458 158.58 281.489 158.92C282.527 159.261 283.462 159.761 284.295 160.42C285.129 161.072 285.826 161.867 286.386 162.807C286.947 163.739 287.333 164.803 287.545 166ZM277 182.091H279.227L279.045 183C279.636 183.091 280.178 183.337 280.67 183.739C281.163 184.148 281.409 184.795 281.409 185.682C281.409 186.659 281.004 187.455 280.193 188.068C279.39 188.689 278.205 189 276.636 189L276.545 187.227C277.25 187.227 277.833 187.114 278.295 186.886C278.765 186.667 279 186.295 279 185.773C279 185.25 278.807 184.894 278.42 184.705C278.034 184.515 277.409 184.386 276.545 184.318L277 182.091ZM311.736 170.364C311.736 172.818 311.293 174.939 310.406 176.727C309.52 178.515 308.304 179.894 306.759 180.864C305.213 181.833 303.448 182.318 301.463 182.318C299.478 182.318 297.713 181.833 296.168 180.864C294.622 179.894 293.406 178.515 292.52 176.727C291.634 174.939 291.19 172.818 291.19 170.364C291.19 167.909 291.634 165.788 292.52 164C293.406 162.212 294.622 160.833 296.168 159.864C297.713 158.894 299.478 158.409 301.463 158.409C303.448 158.409 305.213 158.894 306.759 159.864C308.304 160.833 309.52 162.212 310.406 164C311.293 165.788 311.736 167.909 311.736 170.364ZM309.009 170.364C309.009 168.348 308.671 166.648 307.997 165.261C307.33 163.875 306.425 162.826 305.281 162.114C304.145 161.402 302.872 161.045 301.463 161.045C300.054 161.045 298.777 161.402 297.634 162.114C296.497 162.826 295.592 163.875 294.918 165.261C294.251 166.648 293.918 168.348 293.918 170.364C293.918 172.379 294.251 174.08 294.918 175.466C295.592 176.852 296.497 177.902 297.634 178.614C298.777 179.326 300.054 179.682 301.463 179.682C302.872 179.682 304.145 179.326 305.281 178.614C306.425 177.902 307.33 176.852 307.997 175.466C308.671 174.08 309.009 172.379 309.009 170.364ZM335.202 166H332.384C332.217 165.189 331.925 164.477 331.509 163.864C331.099 163.25 330.599 162.735 330.009 162.318C329.425 161.894 328.777 161.576 328.065 161.364C327.353 161.152 326.611 161.045 325.838 161.045C324.429 161.045 323.152 161.402 322.009 162.114C320.872 162.826 319.967 163.875 319.293 165.261C318.626 166.648 318.293 168.348 318.293 170.364C318.293 172.379 318.626 174.08 319.293 175.466C319.967 176.852 320.872 177.902 322.009 178.614C323.152 179.326 324.429 179.682 325.838 179.682C326.611 179.682 327.353 179.576 328.065 179.364C328.777 179.152 329.425 178.837 330.009 178.42C330.599 177.996 331.099 177.477 331.509 176.864C331.925 176.242 332.217 175.53 332.384 174.727H335.202C334.99 175.917 334.603 176.981 334.043 177.92C333.482 178.86 332.785 179.659 331.952 180.318C331.118 180.97 330.183 181.466 329.145 181.807C328.115 182.148 327.012 182.318 325.838 182.318C323.853 182.318 322.088 181.833 320.543 180.864C318.997 179.894 317.781 178.515 316.895 176.727C316.009 174.939 315.565 172.818 315.565 170.364C315.565 167.909 316.009 165.788 316.895 164C317.781 162.212 318.997 160.833 320.543 159.864C322.088 158.894 323.853 158.409 325.838 158.409C327.012 158.409 328.115 158.58 329.145 158.92C330.183 159.261 331.118 159.761 331.952 160.42C332.785 161.072 333.482 161.867 334.043 162.807C334.603 163.739 334.99 164.803 335.202 166ZM355.028 158.727H357.847V174.136C357.847 175.727 357.472 177.148 356.722 178.398C355.979 179.64 354.93 180.621 353.574 181.341C352.218 182.053 350.627 182.409 348.801 182.409C346.975 182.409 345.384 182.053 344.028 181.341C342.672 180.621 341.619 179.64 340.869 178.398C340.127 177.148 339.756 175.727 339.756 174.136V158.727H342.574V173.909C342.574 175.045 342.824 176.057 343.324 176.943C343.824 177.822 344.536 178.515 345.46 179.023C346.392 179.523 347.506 179.773 348.801 179.773C350.097 179.773 351.21 179.523 352.142 179.023C353.074 178.515 353.786 177.822 354.278 176.943C354.778 176.057 355.028 175.045 355.028 173.909V158.727ZM363.474 182V158.727H366.293V170.273H366.565L377.02 158.727H380.702L370.929 169.227L380.702 182H377.293L369.202 171.182L366.293 174.455V182H363.474ZM402.986 169.114V171.614H392.804V169.114H402.986ZM417.068 182V158.727H425.205C426.826 158.727 428.163 159.008 429.216 159.568C430.269 160.121 431.053 160.867 431.568 161.807C432.083 162.739 432.341 163.773 432.341 164.909C432.341 165.909 432.163 166.735 431.807 167.386C431.458 168.038 430.996 168.553 430.42 168.932C429.852 169.311 429.235 169.591 428.568 169.773V170C429.28 170.045 429.996 170.295 430.716 170.75C431.436 171.205 432.038 171.856 432.523 172.705C433.008 173.553 433.25 174.591 433.25 175.818C433.25 176.985 432.985 178.034 432.455 178.966C431.924 179.898 431.087 180.636 429.943 181.182C428.799 181.727 427.311 182 425.477 182H417.068ZM419.886 179.5H425.477C427.318 179.5 428.625 179.144 429.398 178.432C430.178 177.712 430.568 176.841 430.568 175.818C430.568 175.03 430.367 174.303 429.966 173.636C429.564 172.962 428.992 172.424 428.25 172.023C427.508 171.614 426.629 171.409 425.614 171.409H419.886V179.5ZM419.886 168.955H425.114C425.962 168.955 426.727 168.788 427.409 168.455C428.098 168.121 428.644 167.652 429.045 167.045C429.455 166.439 429.659 165.727 429.659 164.909C429.659 163.886 429.303 163.019 428.591 162.307C427.879 161.587 426.75 161.227 425.205 161.227H419.886V168.955ZM437.881 182V158.727H451.926V161.227H440.699V169.091H451.199V171.591H440.699V179.5H452.108V182H437.881ZM457.006 182V158.727H465.142C466.763 158.727 468.1 159.008 469.153 159.568C470.206 160.121 470.991 160.867 471.506 161.807C472.021 162.739 472.278 163.773 472.278 164.909C472.278 165.909 472.1 166.735 471.744 167.386C471.396 168.038 470.934 168.553 470.358 168.932C469.79 169.311 469.172 169.591 468.506 169.773V170C469.218 170.045 469.934 170.295 470.653 170.75C471.373 171.205 471.975 171.856 472.46 172.705C472.945 173.553 473.188 174.591 473.188 175.818C473.188 176.985 472.922 178.034 472.392 178.966C471.862 179.898 471.025 180.636 469.881 181.182C468.737 181.727 467.248 182 465.415 182H457.006ZM459.824 179.5H465.415C467.256 179.5 468.563 179.144 469.335 178.432C470.116 177.712 470.506 176.841 470.506 175.818C470.506 175.03 470.305 174.303 469.903 173.636C469.502 172.962 468.93 172.424 468.188 172.023C467.445 171.614 466.566 171.409 465.551 171.409H459.824V179.5ZM459.824 168.955H465.051C465.9 168.955 466.665 168.788 467.347 168.455C468.036 168.121 468.581 167.652 468.983 167.045C469.392 166.439 469.597 165.727 469.597 164.909C469.597 163.886 469.241 163.019 468.528 162.307C467.816 161.587 466.688 161.227 465.142 161.227H459.824V168.955ZM477.818 182V158.727H491.864V161.227H480.636V169.091H491.136V171.591H480.636V179.5H492.045V182H477.818ZM496.943 182V158.727H499.761V170.273H500.034L510.489 158.727H514.17L504.398 169.227L514.17 182H510.761L502.67 171.182L499.761 174.455V182H496.943Z" fill="white"/>
<path d="M106.726 256V219.636H120.043C122.624 219.636 124.76 220.062 126.453 220.915C128.146 221.755 129.412 222.897 130.253 224.342C131.093 225.774 131.513 227.39 131.513 229.189C131.513 230.704 131.235 231.982 130.679 233.024C130.123 234.054 129.377 234.883 128.442 235.51C127.518 236.125 126.5 236.575 125.388 236.859V237.214C126.595 237.274 127.773 237.664 128.921 238.386C130.081 239.097 131.04 240.109 131.797 241.423C132.555 242.737 132.934 244.335 132.934 246.217C132.934 248.075 132.496 249.744 131.62 251.224C130.756 252.692 129.418 253.857 127.607 254.722C125.796 255.574 123.482 256 120.665 256H106.726ZM112.213 251.295H120.132C122.76 251.295 124.642 250.786 125.778 249.768C126.915 248.75 127.483 247.477 127.483 245.95C127.483 244.802 127.193 243.749 126.613 242.79C126.033 241.831 125.204 241.067 124.127 240.499C123.062 239.931 121.795 239.647 120.327 239.647H112.213V251.295ZM112.213 235.368H119.564C120.795 235.368 121.902 235.131 122.884 234.658C123.878 234.184 124.666 233.521 125.246 232.669C125.838 231.805 126.133 230.787 126.133 229.615C126.133 228.112 125.607 226.851 124.553 225.833C123.5 224.815 121.884 224.306 119.706 224.306H112.213V235.368ZM142.513 256H136.689L149.775 219.636H156.114L169.2 256H163.376L153.095 226.241H152.811L142.513 256ZM143.49 241.76H162.382V246.376H143.49V241.76ZM167.935 219.636H174.167L183.666 236.167H184.057L193.556 219.636H199.788L186.596 241.724V256H181.127V241.724L167.935 219.636ZM204.969 256V219.636H217.93C220.748 219.636 223.085 220.122 224.944 221.092C226.814 222.063 228.211 223.406 229.134 225.123C230.057 226.827 230.519 228.798 230.519 231.036C230.519 233.261 230.052 235.22 229.116 236.913C228.193 238.594 226.796 239.902 224.926 240.837C223.068 241.772 220.73 242.239 217.913 242.239H208.094V237.516H217.415C219.191 237.516 220.635 237.262 221.748 236.753C222.872 236.244 223.695 235.504 224.216 234.533C224.737 233.563 224.997 232.397 224.997 231.036C224.997 229.662 224.731 228.473 224.198 227.467C223.677 226.46 222.855 225.691 221.73 225.158C220.617 224.614 219.155 224.342 217.344 224.342H210.455V256H204.969ZM222.92 239.594L231.904 256H225.654L216.847 239.594H222.92ZM240.267 256H234.443L247.529 219.636H253.868L266.954 256H261.13L250.849 226.241H250.565L240.267 256ZM241.244 241.76H260.136V246.376H241.244V241.76ZM272.205 219.636H278.863L290.44 247.903H290.866L302.443 219.636H309.101V256H303.881V229.686H303.544L292.819 255.947H288.487L277.763 229.668H277.425V256H272.205V219.636ZM330.31 256V219.636H335.797V237.001H336.241L351.493 219.636H358.4L343.734 236.007L358.453 256H351.848L340.094 239.754L335.797 244.69V256H330.31ZM393.294 237.818C393.294 241.701 392.584 245.039 391.164 247.832C389.743 250.614 387.796 252.757 385.322 254.26C382.86 255.751 380.06 256.497 376.924 256.497C373.775 256.497 370.964 255.751 368.49 254.26C366.027 252.757 364.086 250.608 362.666 247.815C361.245 245.021 360.535 241.689 360.535 237.818C360.535 233.936 361.245 230.603 362.666 227.822C364.086 225.028 366.027 222.886 368.49 221.394C370.964 219.891 373.775 219.139 376.924 219.139C380.06 219.139 382.86 219.891 385.322 221.394C387.796 222.886 389.743 225.028 391.164 227.822C392.584 230.603 393.294 233.936 393.294 237.818ZM387.861 237.818C387.861 234.859 387.382 232.367 386.423 230.343C385.476 228.307 384.174 226.768 382.517 225.727C380.871 224.673 379.007 224.146 376.924 224.146C374.828 224.146 372.958 224.673 371.313 225.727C369.667 226.768 368.365 228.307 367.407 230.343C366.46 232.367 365.986 234.859 365.986 237.818C365.986 240.777 366.46 243.275 367.407 245.311C368.365 247.335 369.667 248.874 371.313 249.928C372.958 250.969 374.828 251.49 376.924 251.49C379.007 251.49 380.871 250.969 382.517 249.928C384.174 248.874 385.476 247.335 386.423 245.311C387.382 243.275 387.861 240.777 387.861 237.818ZM400.135 256V219.636H405.621V251.277H422.098V256H400.135ZM428.357 256V219.636H451.156V224.359H433.844V235.439H449.966V240.144H433.844V251.277H451.369V256H428.357ZM458.484 256V219.636H463.971V237.001H464.415L479.667 219.636H486.574L471.908 236.007L486.627 256H480.022L468.268 239.754L463.971 244.69V256H458.484ZM511.423 229.189C511.233 227.508 510.452 226.206 509.079 225.283C507.706 224.348 505.978 223.88 503.894 223.88C502.403 223.88 501.113 224.117 500.024 224.59C498.935 225.052 498.088 225.691 497.485 226.508C496.893 227.313 496.597 228.23 496.597 229.26C496.597 230.124 496.798 230.87 497.201 231.497C497.615 232.125 498.153 232.651 498.816 233.077C499.491 233.492 500.213 233.841 500.983 234.125C501.752 234.397 502.492 234.622 503.202 234.8L506.753 235.723C507.913 236.007 509.103 236.392 510.322 236.877C511.541 237.362 512.672 238.002 513.713 238.795C514.755 239.588 515.595 240.57 516.235 241.742C516.886 242.914 517.211 244.317 517.211 245.95C517.211 248.01 516.679 249.839 515.613 251.437C514.56 253.035 513.027 254.295 511.014 255.219C509.014 256.142 506.593 256.604 503.752 256.604C501.03 256.604 498.674 256.172 496.686 255.308C494.697 254.443 493.14 253.218 492.016 251.632C490.891 250.034 490.27 248.14 490.152 245.95H495.656C495.762 247.264 496.188 248.359 496.934 249.235C497.692 250.099 498.657 250.744 499.828 251.17C501.012 251.585 502.308 251.792 503.717 251.792C505.268 251.792 506.647 251.549 507.854 251.064C509.073 250.567 510.032 249.88 510.73 249.004C511.429 248.116 511.778 247.081 511.778 245.897C511.778 244.82 511.47 243.938 510.855 243.251C510.251 242.565 509.428 241.997 508.387 241.547C507.357 241.097 506.191 240.701 504.889 240.357L500.592 239.185C497.68 238.392 495.372 237.226 493.667 235.688C491.974 234.149 491.128 232.113 491.128 229.58C491.128 227.484 491.696 225.656 492.833 224.093C493.969 222.531 495.508 221.317 497.449 220.453C499.39 219.577 501.58 219.139 504.019 219.139C506.481 219.139 508.653 219.571 510.535 220.435C512.429 221.299 513.92 222.489 515.01 224.004C516.099 225.508 516.667 227.236 516.714 229.189H511.423ZM529.254 219.636V256H523.767V219.636H529.254ZM526.52 215.428C525.596 215.428 524.803 215.121 524.14 214.505C523.489 213.878 523.164 213.132 523.164 212.268C523.164 211.392 523.489 210.646 524.14 210.031C524.803 209.403 525.596 209.089 526.52 209.089C527.443 209.089 528.23 209.403 528.881 210.031C529.544 210.646 529.875 211.392 529.875 212.268C529.875 213.132 529.544 213.878 528.881 214.505C528.23 215.121 527.443 215.428 526.52 215.428ZM534.439 219.636H540.671L550.17 236.167H550.561L560.06 219.636H566.292L553.1 241.724V256H547.631V241.724L534.439 219.636ZM601.204 237.818C601.204 241.701 600.494 245.039 599.074 247.832C597.653 250.614 595.706 252.757 593.232 254.26C590.77 255.751 587.971 256.497 584.834 256.497C581.685 256.497 578.874 255.751 576.4 254.26C573.938 252.757 571.996 250.608 570.576 247.815C569.155 245.021 568.445 241.689 568.445 237.818C568.445 233.936 569.155 230.603 570.576 227.822C571.996 225.028 573.938 222.886 576.4 221.394C578.874 219.891 581.685 219.139 584.834 219.139C587.971 219.139 590.77 219.891 593.232 221.394C595.706 222.886 597.653 225.028 599.074 227.822C600.494 230.603 601.204 233.936 601.204 237.818ZM595.771 237.818C595.771 234.859 595.292 232.367 594.333 230.343C593.386 228.307 592.084 226.768 590.427 225.727C588.781 224.673 586.917 224.146 584.834 224.146C582.739 224.146 580.868 224.673 579.223 225.727C577.578 226.768 576.275 228.307 575.317 230.343C574.37 232.367 573.896 234.859 573.896 237.818C573.896 240.777 574.37 243.275 575.317 245.311C576.275 247.335 577.578 248.874 579.223 249.928C580.868 250.969 582.739 251.49 584.834 251.49C586.917 251.49 588.781 250.969 590.427 249.928C592.084 248.874 593.386 247.335 594.333 245.311C595.292 243.275 595.771 240.777 595.771 237.818ZM637.395 219.636V256H632.352L613.869 229.331H613.531V256H608.045V219.636H613.123L631.624 246.341H631.962V219.636H637.395ZM668.783 219.636H674.287V243.553C674.287 246.098 673.689 248.353 672.494 250.318C671.298 252.271 669.617 253.81 667.451 254.935C665.285 256.047 662.746 256.604 659.834 256.604C656.934 256.604 654.4 256.047 652.234 254.935C650.068 253.81 648.387 252.271 647.192 250.318C645.996 248.353 645.398 246.098 645.398 243.553V219.636H650.885V243.109C650.885 244.755 651.246 246.217 651.968 247.495C652.702 248.773 653.738 249.78 655.075 250.513C656.413 251.236 657.999 251.597 659.834 251.597C661.68 251.597 663.272 251.236 664.61 250.513C665.959 249.78 666.989 248.773 667.699 247.495C668.422 246.217 668.783 244.755 668.783 243.109V219.636Z" fill="white"/>
</svg>
