<svg width="640" height="164" viewBox="0 0 640 164" fill="none" xmlns="http://www.w3.org/2000/svg">
<rect x="228.5" y="63.5" width="184" height="74" stroke="white" stroke-width="3"/>
<path d="M273.947 89.8267C273.72 87.8097 272.782 86.2472 271.135 85.1392C269.487 84.017 267.413 83.456 264.913 83.456C263.123 83.456 261.575 83.7401 260.268 84.3082C258.961 84.8622 257.946 85.6293 257.221 86.6094C256.511 87.5753 256.156 88.6761 256.156 89.9119C256.156 90.9489 256.398 91.8437 256.881 92.5966C257.378 93.3494 258.024 93.9815 258.819 94.4929C259.629 94.9901 260.496 95.4091 261.419 95.75C262.342 96.0767 263.23 96.3466 264.082 96.5597L268.344 97.6676C269.736 98.0085 271.163 98.4702 272.626 99.0526C274.089 99.6349 275.446 100.402 276.696 101.354C277.946 102.305 278.954 103.484 279.721 104.891C280.503 106.297 280.893 107.98 280.893 109.94C280.893 112.412 280.254 114.607 278.976 116.524C277.711 118.442 275.872 119.955 273.457 121.062C271.057 122.17 268.152 122.724 264.743 122.724C261.476 122.724 258.649 122.206 256.263 121.169C253.876 120.132 252.008 118.662 250.659 116.759C249.309 114.841 248.564 112.568 248.422 109.94H255.027C255.155 111.517 255.666 112.831 256.561 113.882C257.47 114.919 258.628 115.693 260.034 116.205C261.454 116.702 263.01 116.95 264.7 116.95C266.561 116.95 268.216 116.659 269.665 116.077C271.128 115.48 272.278 114.656 273.116 113.605C273.954 112.54 274.373 111.297 274.373 109.876C274.373 108.584 274.004 107.526 273.265 106.702C272.541 105.878 271.554 105.196 270.304 104.656C269.068 104.116 267.669 103.641 266.106 103.229L260.95 101.822C257.456 100.871 254.686 99.4716 252.64 97.625C250.609 95.7784 249.594 93.3352 249.594 90.2955C249.594 87.7812 250.275 85.5866 251.639 83.7116C253.003 81.8366 254.849 80.3807 257.179 79.3438C259.508 78.2926 262.136 77.767 265.062 77.767C268.017 77.767 270.623 78.2855 272.882 79.3224C275.155 80.3594 276.944 81.7869 278.251 83.6051C279.558 85.4091 280.24 87.483 280.297 89.8267H273.947ZM292.095 122H285.107L300.81 78.3636H308.416L324.119 122H317.131L304.794 86.2898H304.453L292.095 122ZM293.267 104.912H315.938V110.452H293.267V104.912ZM330.421 122V78.3636H337.005V116.332H356.778V122H330.421ZM364.288 122V78.3636H391.646V84.0312H370.872V97.3267H390.219V102.973H370.872V116.332H391.902V122H364.288Z" fill="white"/>
<path d="M227.58 21.8182H231.641L238.703 39.0611H238.963L246.025 21.8182H250.087V44H246.902V27.9485H246.696L240.155 43.9675H237.512L230.97 27.9377H230.764V44H227.58V21.8182ZM258.299 21.8182V44H254.952V21.8182H258.299ZM270.354 44H263.173V21.8182H270.581C272.755 21.8182 274.621 22.2623 276.181 23.1504C277.741 24.0313 278.936 25.2985 279.766 26.9521C280.604 28.5984 281.022 30.5732 281.022 32.8766C281.022 35.1872 280.6 37.1729 279.755 38.8336C278.918 40.4944 277.705 41.7724 276.116 42.6678C274.528 43.5559 272.607 44 270.354 44ZM266.52 41.0756H270.17C271.859 41.0756 273.264 40.7579 274.383 40.1225C275.502 39.4799 276.34 38.552 276.896 37.339C277.452 36.1187 277.73 34.6312 277.73 32.8766C277.73 31.1364 277.452 29.6598 276.896 28.4467C276.347 27.2337 275.528 26.313 274.437 25.6848C273.347 25.0566 271.993 24.7425 270.376 24.7425H266.52V41.0756ZM305.354 27.6452C305.239 26.6199 304.762 25.8256 303.925 25.2624C303.087 24.692 302.033 24.4068 300.762 24.4068C299.852 24.4068 299.065 24.5512 298.401 24.84C297.736 25.1216 297.22 25.5115 296.852 26.0098C296.491 26.5008 296.31 27.0604 296.31 27.6886C296.31 28.2157 296.433 28.6706 296.679 29.0533C296.931 29.436 297.26 29.7573 297.664 30.0172C298.076 30.2699 298.516 30.483 298.986 30.6562C299.455 30.8223 299.906 30.9595 300.34 31.0678L302.506 31.631C303.213 31.8043 303.939 32.039 304.683 32.335C305.426 32.6311 306.116 33.021 306.751 33.5048C307.387 33.9886 307.9 34.5879 308.289 35.3027C308.687 36.0176 308.885 36.8732 308.885 37.8697C308.885 39.1261 308.56 40.2417 307.91 41.2164C307.268 42.1912 306.333 42.9602 305.105 43.5234C303.885 44.0866 302.408 44.3683 300.675 44.3683C299.015 44.3683 297.578 44.1047 296.365 43.5776C295.151 43.0505 294.202 42.3031 293.516 41.3356C292.83 40.3608 292.451 39.2055 292.379 37.8697H295.736C295.801 38.6712 296.061 39.3391 296.516 39.8734C296.978 40.4005 297.567 40.794 298.282 41.054C299.004 41.3067 299.794 41.4331 300.654 41.4331C301.6 41.4331 302.441 41.285 303.177 40.989C303.921 40.6857 304.506 40.2669 304.932 39.7326C305.358 39.1911 305.571 38.5592 305.571 37.8372C305.571 37.1801 305.383 36.6422 305.008 36.2234C304.639 35.8046 304.138 35.458 303.502 35.1836C302.874 34.9092 302.163 34.6673 301.368 34.4579L298.747 33.7431C296.971 33.2593 295.563 32.5481 294.523 31.6094C293.491 30.6707 292.974 29.4287 292.974 27.8835C292.974 26.6055 293.321 25.4899 294.014 24.5368C294.707 23.5836 295.646 22.8435 296.83 22.3164C298.014 21.7821 299.35 21.5149 300.838 21.5149C302.34 21.5149 303.665 21.7785 304.813 22.3056C305.968 22.8327 306.878 23.5584 307.542 24.4826C308.206 25.3996 308.553 26.4538 308.582 27.6452H305.354ZM312.884 44V21.8182H326.791V24.6992H316.231V31.4577H326.066V34.3279H316.231V41.119H326.921V44H312.884ZM333.136 44H329.583L337.566 21.8182H341.432L349.415 44H345.862L339.591 25.8473H339.418L333.136 44ZM333.731 35.3136H345.256V38.1296H333.731V35.3136ZM364.537 27.6452C364.422 26.6199 363.945 25.8256 363.108 25.2624C362.27 24.692 361.216 24.4068 359.945 24.4068C359.035 24.4068 358.248 24.5512 357.584 24.84C356.92 25.1216 356.403 25.5115 356.035 26.0098C355.674 26.5008 355.493 27.0604 355.493 27.6886C355.493 28.2157 355.616 28.6706 355.862 29.0533C356.114 29.436 356.443 29.7573 356.847 30.0172C357.259 30.2699 357.699 30.483 358.169 30.6562C358.638 30.8223 359.089 30.9595 359.523 31.0678L361.689 31.631C362.396 31.8043 363.122 32.039 363.866 32.335C364.61 32.6311 365.299 33.021 365.935 33.5048C366.57 33.9886 367.083 34.5879 367.473 35.3027C367.87 36.0176 368.068 36.8732 368.068 37.8697C368.068 39.1261 367.743 40.2417 367.093 41.2164C366.451 42.1912 365.516 42.9602 364.288 43.5234C363.068 44.0866 361.591 44.3683 359.858 44.3683C358.198 44.3683 356.761 44.1047 355.548 43.5776C354.335 43.0505 353.385 42.3031 352.699 41.3356C352.013 40.3608 351.634 39.2055 351.562 37.8697H354.919C354.984 38.6712 355.244 39.3391 355.699 39.8734C356.161 40.4005 356.75 40.794 357.465 41.054C358.187 41.3067 358.977 41.4331 359.837 41.4331C360.783 41.4331 361.624 41.285 362.36 40.989C363.104 40.6857 363.689 40.2669 364.115 39.7326C364.541 39.1911 364.754 38.5592 364.754 37.8372C364.754 37.1801 364.566 36.6422 364.191 36.2234C363.823 35.8046 363.321 35.458 362.685 35.1836C362.057 34.9092 361.346 34.6673 360.552 34.4579L357.93 33.7431C356.154 33.2593 354.746 32.5481 353.706 31.6094C352.674 30.6707 352.158 29.4287 352.158 27.8835C352.158 26.6055 352.504 25.4899 353.197 24.5368C353.891 23.5836 354.829 22.8435 356.013 22.3164C357.198 21.7821 358.533 21.5149 360.021 21.5149C361.523 21.5149 362.848 21.7785 363.996 22.3056C365.151 22.8327 366.061 23.5584 366.725 24.4826C367.39 25.3996 367.736 26.4538 367.765 27.6452H364.537ZM391.336 32.9091C391.336 35.2775 390.903 37.3137 390.036 39.0178C389.17 40.7146 387.982 42.0215 386.473 42.9386C384.971 43.8484 383.263 44.3033 381.35 44.3033C379.429 44.3033 377.714 43.8484 376.205 42.9386C374.703 42.0215 373.519 40.711 372.652 39.0069C371.786 37.3029 371.353 35.2702 371.353 32.9091C371.353 30.5407 371.786 28.5081 372.652 26.8113C373.519 25.1072 374.703 23.8002 376.205 22.8904C377.714 21.9734 379.429 21.5149 381.35 21.5149C383.263 21.5149 384.971 21.9734 386.473 22.8904C387.982 23.8002 389.17 25.1072 390.036 26.8113C390.903 28.5081 391.336 30.5407 391.336 32.9091ZM388.022 32.9091C388.022 31.1039 387.729 29.584 387.144 28.3493C386.567 27.1073 385.772 26.1686 384.761 25.5332C383.758 24.8906 382.621 24.5692 381.35 24.5692C380.072 24.5692 378.931 24.8906 377.927 25.5332C376.923 26.1686 376.129 27.1073 375.544 28.3493C374.967 29.584 374.678 31.1039 374.678 32.9091C374.678 34.7143 374.967 36.2378 375.544 37.4798C376.129 38.7145 376.923 39.6532 377.927 40.2958C378.931 40.9312 380.072 41.2489 381.35 41.2489C382.621 41.2489 383.758 40.9312 384.761 40.2958C385.772 39.6532 386.567 38.7145 387.144 37.4798C387.729 36.2378 388.022 34.7143 388.022 32.9091ZM413.412 21.8182V44H410.336L399.061 27.7319H398.855V44H395.509V21.8182H398.606L409.892 38.108H410.098V21.8182H413.412Z" fill="white"/>
</svg>
