<svg width="1920" height="150" viewBox="0 0 1920 150" fill="none" xmlns="http://www.w3.org/2000/svg">
<rect x="882.5" y="60.5" width="154" height="58" stroke="white" stroke-width="3"/>
<path d="M923.534 81.7976C923.356 80.2176 922.621 78.9936 921.331 78.1257C920.04 77.2467 918.415 76.8072 916.457 76.8072C915.055 76.8072 913.842 77.0297 912.818 77.4748C911.795 77.9087 910.999 78.5096 910.432 79.2773C909.875 80.034 909.597 80.8963 909.597 81.8643C909.597 82.6766 909.786 83.3776 910.165 83.9673C910.554 84.5571 911.06 85.0522 911.684 85.4528C912.318 85.8422 912.997 86.1705 913.72 86.4375C914.443 86.6934 915.138 86.9048 915.806 87.0717L919.144 87.9396C920.235 88.2067 921.353 88.5683 922.499 89.0245C923.645 89.4807 924.708 90.0816 925.687 90.8271C926.666 91.5726 927.456 92.4961 928.057 93.5977C928.669 94.6992 928.975 96.0178 928.975 97.5533C928.975 99.4893 928.474 101.208 927.473 102.711C926.482 104.213 925.041 105.398 923.15 106.266C921.269 107.134 918.994 107.567 916.323 107.567C913.764 107.567 911.55 107.161 909.681 106.349C907.811 105.537 906.348 104.385 905.291 102.894C904.234 101.392 903.65 99.6117 903.539 97.5533H908.713C908.813 98.7884 909.213 99.8176 909.914 100.641C910.626 101.453 911.533 102.06 912.635 102.46C913.748 102.85 914.966 103.044 916.29 103.044C917.748 103.044 919.044 102.816 920.179 102.36C921.325 101.893 922.226 101.247 922.883 100.424C923.539 99.5895 923.867 98.6159 923.867 97.5032C923.867 96.4906 923.578 95.6617 923 95.0163C922.432 94.371 921.659 93.8369 920.68 93.4141C919.712 92.9912 918.616 92.6185 917.392 92.2958L913.353 91.1942C910.615 90.4487 908.446 89.3527 906.843 87.9062C905.252 86.4598 904.457 84.5459 904.457 82.1648C904.457 80.1953 904.991 78.4762 906.059 77.0075C907.127 75.5387 908.574 74.3982 910.398 73.5859C912.223 72.7625 914.282 72.3509 916.574 72.3509C918.888 72.3509 920.93 72.757 922.699 73.5692C924.479 74.3815 925.881 75.4998 926.905 76.924C927.929 78.3371 928.463 79.9616 928.507 81.7976H923.534ZM937.75 107H932.275L944.576 72.8182H950.534L962.835 107H957.361L947.697 79.027H947.43L937.75 107ZM938.668 93.6143H956.426V97.9538H938.668V93.6143ZM967.771 107V72.8182H972.929V102.56H988.417V107H967.771ZM994.301 107V72.8182H1015.73V77.2578H999.458V87.6726H1014.61V92.0955H999.458V102.56H1015.93V107H994.301Z" fill="white"/>
<path d="M881.813 29.4545H885.208L891.113 43.8707H891.33L897.234 29.4545H900.63V48H897.967V34.5799H897.795L892.326 47.9728H890.116L884.647 34.5708H884.475V48H881.813V29.4545ZM907.496 29.4545V48H904.698V29.4545H907.496ZM917.575 48H911.571V29.4545H917.765C919.582 29.4545 921.142 29.8258 922.446 30.5684C923.75 31.3049 924.75 32.3643 925.444 33.7468C926.144 35.1232 926.494 36.7743 926.494 38.7001C926.494 40.6319 926.141 42.2921 925.435 43.6806C924.734 45.0691 923.72 46.1376 922.392 46.8862C921.064 47.6287 919.458 48 917.575 48ZM914.369 45.555H917.421C918.833 45.555 920.008 45.2894 920.943 44.7582C921.879 44.2209 922.579 43.4451 923.044 42.4309C923.509 41.4107 923.741 40.1671 923.741 38.7001C923.741 37.2452 923.509 36.0107 923.044 34.9964C922.585 33.9822 921.9 33.2125 920.989 32.6873C920.077 32.1621 918.945 31.8995 917.593 31.8995H914.369V45.555ZM946.837 34.3263C946.741 33.4691 946.342 32.805 945.642 32.3342C944.942 31.8572 944.06 31.6188 942.998 31.6188C942.237 31.6188 941.579 31.7395 941.024 31.981C940.468 32.2164 940.037 32.5424 939.729 32.959C939.427 33.3695 939.276 33.8374 939.276 34.3626C939.276 34.8033 939.379 35.1836 939.584 35.5036C939.795 35.8235 940.07 36.0922 940.408 36.3095C940.752 36.5208 941.12 36.6989 941.513 36.8438C941.905 36.9826 942.282 37.0973 942.645 37.1879L944.456 37.6587C945.047 37.8036 945.654 37.9998 946.276 38.2473C946.898 38.4949 947.474 38.8208 948.005 39.2253C948.537 39.6298 948.965 40.1309 949.291 40.7285C949.623 41.3262 949.789 42.0415 949.789 42.8746C949.789 43.9251 949.518 44.8578 948.974 45.6728C948.437 46.4877 947.655 47.1307 946.629 47.6016C945.609 48.0724 944.374 48.3079 942.925 48.3079C941.537 48.3079 940.335 48.0875 939.321 47.6468C938.307 47.2061 937.513 46.5813 936.94 45.7724C936.366 44.9574 936.049 43.9915 935.989 42.8746H938.796C938.85 43.5447 939.068 44.1032 939.448 44.5499C939.834 44.9906 940.326 45.3196 940.924 45.5369C941.528 45.7482 942.189 45.8539 942.907 45.8539C943.698 45.8539 944.401 45.7301 945.017 45.4826C945.639 45.229 946.128 44.8789 946.484 44.4322C946.84 43.9794 947.018 43.4512 947.018 42.8475C947.018 42.2981 946.861 41.8484 946.547 41.4982C946.24 41.1481 945.82 40.8583 945.289 40.6289C944.763 40.3995 944.169 40.1973 943.505 40.0222L941.313 39.4245C939.828 39.0201 938.651 38.4254 937.782 37.6406C936.918 36.8558 936.487 35.8175 936.487 34.5256C936.487 33.457 936.777 32.5243 937.356 31.7274C937.936 30.9306 938.721 30.3118 939.711 29.8711C940.701 29.4244 941.817 29.201 943.061 29.201C944.317 29.201 945.425 29.4213 946.384 29.862C947.35 30.3027 948.111 30.9094 948.666 31.6822C949.222 32.4489 949.512 33.3303 949.536 34.3263H946.837ZM953.133 48V29.4545H964.76V31.8633H955.931V37.5138H964.153V39.9135H955.931V45.5913H964.869V48H953.133ZM970.064 48H967.094L973.768 29.4545H977.001L983.675 48H980.704L975.461 32.8232H975.316L970.064 48ZM970.562 40.7376H980.197V43.092H970.562V40.7376ZM996.318 34.3263C996.222 33.4691 995.823 32.805 995.123 32.3342C994.423 31.8572 993.541 31.6188 992.479 31.6188C991.718 31.6188 991.06 31.7395 990.505 31.981C989.949 32.2164 989.518 32.5424 989.21 32.959C988.908 33.3695 988.757 33.8374 988.757 34.3626C988.757 34.8033 988.859 35.1836 989.065 35.5036C989.276 35.8235 989.551 36.0922 989.889 36.3095C990.233 36.5208 990.601 36.6989 990.994 36.8438C991.386 36.9826 991.763 37.0973 992.125 37.1879L993.937 37.6587C994.528 37.8036 995.135 37.9998 995.757 38.2473C996.378 38.4949 996.955 38.8208 997.486 39.2253C998.018 39.6298 998.446 40.1309 998.772 40.7285C999.104 41.3262 999.27 42.0415 999.27 42.8746C999.27 43.9251 998.999 44.8578 998.455 45.6728C997.918 46.4877 997.136 47.1307 996.11 47.6016C995.09 48.0724 993.855 48.3079 992.406 48.3079C991.018 48.3079 989.816 48.0875 988.802 47.6468C987.788 47.2061 986.994 46.5813 986.421 45.7724C985.847 44.9574 985.53 43.9915 985.47 42.8746H988.277C988.331 43.5447 988.549 44.1032 988.929 44.5499C989.315 44.9906 989.807 45.3196 990.405 45.5369C991.009 45.7482 991.67 45.8539 992.388 45.8539C993.179 45.8539 993.882 45.7301 994.498 45.4826C995.12 45.229 995.609 44.8789 995.965 44.4322C996.321 43.9794 996.499 43.4512 996.499 42.8475C996.499 42.2981 996.342 41.8484 996.028 41.4982C995.72 41.1481 995.301 40.8583 994.77 40.6289C994.244 40.3995 993.65 40.1973 992.986 40.0222L990.794 39.4245C989.309 39.0201 988.132 38.4254 987.263 37.6406C986.399 36.8558 985.968 35.8175 985.968 34.5256C985.968 33.457 986.258 32.5243 986.837 31.7274C987.417 30.9306 988.201 30.3118 989.192 29.8711C990.182 29.4244 991.298 29.201 992.542 29.201C993.798 29.201 994.905 29.4213 995.865 29.862C996.831 30.3027 997.592 30.9094 998.147 31.6822C998.703 32.4489 998.992 33.3303 999.017 34.3263H996.318ZM1018.72 38.7273C1018.72 40.7074 1018.36 42.4098 1017.64 43.8345C1016.91 45.2532 1015.92 46.3459 1014.66 47.1126C1013.4 47.8732 1011.97 48.2536 1010.37 48.2536C1008.77 48.2536 1007.33 47.8732 1006.07 47.1126C1004.82 46.3459 1003.83 45.2502 1003.1 43.8255C1002.38 42.4007 1002.02 40.7013 1002.02 38.7273C1002.02 36.7472 1002.38 35.0478 1003.1 33.6291C1003.83 32.2044 1004.82 31.1117 1006.07 30.351C1007.33 29.5843 1008.77 29.201 1010.37 29.201C1011.97 29.201 1013.4 29.5843 1014.66 30.351C1015.92 31.1117 1016.91 32.2044 1017.64 33.6291C1018.36 35.0478 1018.72 36.7472 1018.72 38.7273ZM1015.95 38.7273C1015.95 37.218 1015.71 35.9473 1015.22 34.9149C1014.74 33.8766 1014.07 33.0918 1013.23 32.5605C1012.39 32.0233 1011.44 31.7546 1010.37 31.7546C1009.31 31.7546 1008.35 32.0233 1007.51 32.5605C1006.67 33.0918 1006.01 33.8766 1005.52 34.9149C1005.04 35.9473 1004.8 37.218 1004.8 38.7273C1004.8 40.2365 1005.04 41.5103 1005.52 42.5487C1006.01 43.581 1006.67 44.3658 1007.51 44.9031C1008.35 45.4343 1009.31 45.6999 1010.37 45.6999C1011.44 45.6999 1012.39 45.4343 1013.23 44.9031C1014.07 44.3658 1014.74 43.581 1015.22 42.5487C1015.71 41.5103 1015.95 40.2365 1015.95 38.7273ZM1037.18 29.4545V48H1034.61L1025.18 34.3988H1025.01V48H1022.21V29.4545H1024.8L1034.24 43.0739H1034.41V29.4545H1037.18Z" fill="white"/>
<rect x="1599" y="53" width="171" height="43" rx="4" fill="white"/>
<path d="M1622.08 80H1620.45L1624.12 69.8182H1625.89L1629.56 80H1627.93L1625.05 71.6676H1624.97L1622.08 80ZM1622.36 76.0128H1627.65V77.3054H1622.36V76.0128ZM1631.03 80V69.8182H1632.56V78.6776H1637.18V80H1631.03ZM1640.47 69.8182V80H1638.93V69.8182H1640.47ZM1648.26 72.4929C1648.2 72.0223 1647.98 71.6577 1647.6 71.3991C1647.22 71.1373 1646.73 71.0064 1646.15 71.0064C1645.73 71.0064 1645.37 71.0727 1645.06 71.2053C1644.76 71.3345 1644.52 71.5135 1644.35 71.7422C1644.19 71.9676 1644.1 72.2244 1644.1 72.5128C1644.1 72.7547 1644.16 72.9635 1644.27 73.1392C1644.39 73.3149 1644.54 73.4624 1644.73 73.5817C1644.91 73.6977 1645.12 73.7955 1645.33 73.875C1645.55 73.9512 1645.76 74.0142 1645.95 74.0639L1646.95 74.3224C1647.27 74.402 1647.61 74.5097 1647.95 74.6456C1648.29 74.7815 1648.61 74.9605 1648.9 75.1825C1649.19 75.4046 1649.42 75.6797 1649.6 76.0078C1649.79 76.3359 1649.88 76.7287 1649.88 77.1861C1649.88 77.7628 1649.73 78.2749 1649.43 78.7223C1649.13 79.1697 1648.7 79.5227 1648.14 79.7812C1647.58 80.0398 1646.9 80.169 1646.11 80.169C1645.35 80.169 1644.69 80.0481 1644.13 79.8061C1643.57 79.5642 1643.14 79.2211 1642.82 78.777C1642.51 78.3295 1642.33 77.7992 1642.3 77.1861H1643.84C1643.87 77.554 1643.99 77.8606 1644.2 78.1058C1644.41 78.3478 1644.68 78.5284 1645.01 78.6477C1645.34 78.7637 1645.7 78.8217 1646.1 78.8217C1646.53 78.8217 1646.92 78.7538 1647.26 78.6179C1647.6 78.4787 1647.87 78.2865 1648.06 78.0412C1648.26 77.7926 1648.36 77.5026 1648.36 77.1712C1648.36 76.8696 1648.27 76.6226 1648.1 76.4304C1647.93 76.2382 1647.7 76.0791 1647.41 75.9531C1647.12 75.8272 1646.79 75.7161 1646.43 75.62L1645.22 75.2919C1644.41 75.0698 1643.76 74.7434 1643.28 74.3125C1642.81 73.8816 1642.57 73.3116 1642.57 72.6023C1642.57 72.0156 1642.73 71.5036 1643.05 71.0661C1643.37 70.6286 1643.8 70.2888 1644.34 70.0469C1644.89 69.8016 1645.5 69.679 1646.18 69.679C1646.87 69.679 1647.48 69.8 1648.01 70.0419C1648.54 70.2839 1648.96 70.617 1649.26 71.0412C1649.57 71.4621 1649.72 71.946 1649.74 72.4929H1648.26ZM1645.59 79.9602H1646.57L1646.49 80.3679C1646.77 80.4143 1647.03 80.5303 1647.24 80.7159C1647.46 80.9015 1647.56 81.1816 1647.56 81.5561C1647.57 82.0036 1647.37 82.3665 1646.98 82.6449C1646.6 82.9233 1646.03 83.0625 1645.3 83.0625L1645.27 82.2322C1645.61 82.2322 1645.89 82.1825 1646.1 82.0831C1646.32 81.9837 1646.43 81.8229 1646.43 81.6009C1646.43 81.3788 1646.35 81.223 1646.18 81.1335C1646.02 81.044 1645.75 80.9811 1645.39 80.9446L1645.59 79.9602ZM1652.6 69.8182L1655.44 78.1108H1655.55L1658.38 69.8182H1660.04L1656.38 80H1654.61L1650.94 69.8182H1652.6ZM1661.52 80V69.8182H1667.9V71.1406H1663.05V74.2429H1667.57V75.5604H1663.05V78.6776H1667.96V80H1661.52ZM1669.95 80V69.8182H1673.58C1674.37 69.8182 1675.02 69.9541 1675.54 70.2259C1676.07 70.4976 1676.46 70.8738 1676.72 71.3544C1676.98 71.8317 1677.1 72.3835 1677.1 73.0099C1677.1 73.633 1676.97 74.1816 1676.71 74.6555C1676.45 75.1262 1676.06 75.4924 1675.54 75.7543C1675.02 76.0161 1674.36 76.147 1673.57 76.147H1670.83V74.8246H1673.44C1673.93 74.8246 1674.34 74.7533 1674.65 74.6108C1674.96 74.4683 1675.19 74.2611 1675.34 73.9893C1675.49 73.7176 1675.56 73.3911 1675.56 73.0099C1675.56 72.6255 1675.48 72.2924 1675.33 72.0107C1675.19 71.7289 1674.96 71.5135 1674.64 71.3643C1674.33 71.2119 1673.92 71.1357 1673.42 71.1357H1671.49V80H1669.95ZM1674.98 75.4062L1677.49 80H1675.74L1673.28 75.4062H1674.98ZM1680.51 69.8182V80H1678.97V69.8182H1680.51ZM1679.74 68.6399C1679.49 68.6399 1679.26 68.5537 1679.08 68.3814C1678.9 68.2057 1678.81 67.9969 1678.81 67.755C1678.81 67.5097 1678.9 67.3009 1679.08 67.1286C1679.26 66.9529 1679.49 66.8651 1679.74 66.8651C1680 66.8651 1680.22 66.9529 1680.41 67.1286C1680.59 67.3009 1680.68 67.5097 1680.68 67.755C1680.68 67.9969 1680.59 68.2057 1680.41 68.3814C1680.22 68.5537 1680 68.6399 1679.74 68.6399ZM1688.3 72.4929C1688.25 72.0223 1688.03 71.6577 1687.64 71.3991C1687.26 71.1373 1686.78 71.0064 1686.19 71.0064C1685.78 71.0064 1685.41 71.0727 1685.11 71.2053C1684.8 71.3345 1684.57 71.5135 1684.4 71.7422C1684.23 71.9676 1684.15 72.2244 1684.15 72.5128C1684.15 72.7547 1684.21 72.9635 1684.32 73.1392C1684.43 73.3149 1684.59 73.4624 1684.77 73.5817C1684.96 73.6977 1685.16 73.7955 1685.38 73.875C1685.59 73.9512 1685.8 74.0142 1686 74.0639L1686.99 74.3224C1687.32 74.402 1687.65 74.5097 1687.99 74.6456C1688.33 74.7815 1688.65 74.9605 1688.94 75.1825C1689.23 75.4046 1689.47 75.6797 1689.65 76.0078C1689.83 76.3359 1689.92 76.7287 1689.92 77.1861C1689.92 77.7628 1689.77 78.2749 1689.47 78.7223C1689.18 79.1697 1688.75 79.5227 1688.19 79.7812C1687.63 80.0398 1686.95 80.169 1686.15 80.169C1685.39 80.169 1684.73 80.0481 1684.17 79.8061C1683.62 79.5642 1683.18 79.2211 1682.87 78.777C1682.55 78.3295 1682.38 77.7992 1682.34 77.1861H1683.89C1683.92 77.554 1684.04 77.8606 1684.24 78.1058C1684.46 78.3478 1684.73 78.5284 1685.05 78.6477C1685.39 78.7637 1685.75 78.8217 1686.14 78.8217C1686.58 78.8217 1686.96 78.7538 1687.3 78.6179C1687.64 78.4787 1687.91 78.2865 1688.11 78.0412C1688.3 77.7926 1688.4 77.5026 1688.4 77.1712C1688.4 76.8696 1688.31 76.6226 1688.14 76.4304C1687.97 76.2382 1687.74 76.0791 1687.45 75.9531C1687.16 75.8272 1686.84 75.7161 1686.47 75.62L1685.27 75.2919C1684.45 75.0698 1683.81 74.7434 1683.33 74.3125C1682.86 73.8816 1682.62 73.3116 1682.62 72.6023C1682.62 72.0156 1682.78 71.5036 1683.1 71.0661C1683.41 70.6286 1683.84 70.2888 1684.39 70.0469C1684.93 69.8016 1685.54 69.679 1686.23 69.679C1686.92 69.679 1687.53 69.8 1688.05 70.0419C1688.58 70.2839 1689 70.617 1689.31 71.0412C1689.61 71.4621 1689.77 71.946 1689.78 72.4929H1688.3ZM1685.64 79.9602H1686.61L1686.53 80.3679C1686.82 80.4143 1687.07 80.5303 1687.29 80.7159C1687.5 80.9015 1687.61 81.1816 1687.61 81.5561C1687.61 82.0036 1687.42 82.3665 1687.03 82.6449C1686.64 82.9233 1686.08 83.0625 1685.34 83.0625L1685.31 82.2322C1685.66 82.2322 1685.94 82.1825 1686.15 82.0831C1686.36 81.9837 1686.47 81.8229 1686.48 81.6009C1686.48 81.3788 1686.4 81.223 1686.23 81.1335C1686.06 81.044 1685.8 80.9811 1685.43 80.9446L1685.64 79.9602ZM1691.76 80V69.8182H1698.14V71.1406H1693.29V74.2429H1697.81V75.5604H1693.29V78.6776H1698.2V80H1691.76ZM1703.9 80V69.8182H1707.63C1708.35 69.8182 1708.95 69.9375 1709.42 70.1761C1709.9 70.4115 1710.25 70.7313 1710.49 71.1357C1710.72 71.5367 1710.84 71.9891 1710.84 72.4929C1710.84 72.9171 1710.76 73.2751 1710.6 73.5668C1710.45 73.8551 1710.24 74.0871 1709.98 74.2628C1709.72 74.4351 1709.43 74.5611 1709.12 74.6406V74.7401C1709.46 74.7566 1709.79 74.866 1710.11 75.0682C1710.44 75.267 1710.71 75.5504 1710.92 75.9183C1711.13 76.2862 1711.24 76.7337 1711.24 77.2607C1711.24 77.781 1711.11 78.2483 1710.87 78.6626C1710.63 79.0736 1710.25 79.4001 1709.74 79.642C1709.24 79.8807 1708.59 80 1707.8 80H1703.9ZM1705.43 78.6825H1707.65C1708.39 78.6825 1708.91 78.54 1709.23 78.255C1709.55 77.9699 1709.71 77.6136 1709.71 77.1861C1709.71 76.8646 1709.63 76.5696 1709.47 76.3011C1709.3 76.0327 1709.07 75.8189 1708.77 75.6598C1708.47 75.5007 1708.12 75.4212 1707.71 75.4212H1705.43V78.6825ZM1705.43 74.223H1707.49C1707.84 74.223 1708.15 74.1567 1708.42 74.0241C1708.7 73.8916 1708.92 73.706 1709.08 73.4673C1709.25 73.2254 1709.33 72.9403 1709.33 72.6122C1709.33 72.1913 1709.18 71.8383 1708.89 71.5533C1708.59 71.2682 1708.14 71.1257 1707.53 71.1257H1705.43V74.223ZM1713.92 80H1712.29L1715.95 69.8182H1717.73L1721.39 80H1719.76L1716.88 71.6676H1716.8L1713.92 80ZM1714.19 76.0128H1719.48V77.3054H1714.19V76.0128ZM1728.33 72.4929C1728.28 72.0223 1728.06 71.6577 1727.68 71.3991C1727.29 71.1373 1726.81 71.0064 1726.22 71.0064C1725.81 71.0064 1725.45 71.0727 1725.14 71.2053C1724.84 71.3345 1724.6 71.5135 1724.43 71.7422C1724.26 71.9676 1724.18 72.2244 1724.18 72.5128C1724.18 72.7547 1724.24 72.9635 1724.35 73.1392C1724.47 73.3149 1724.62 73.4624 1724.8 73.5817C1724.99 73.6977 1725.19 73.7955 1725.41 73.875C1725.62 73.9512 1725.83 74.0142 1726.03 74.0639L1727.02 74.3224C1727.35 74.402 1727.68 74.5097 1728.02 74.6456C1728.37 74.7815 1728.68 74.9605 1728.97 75.1825C1729.27 75.4046 1729.5 75.6797 1729.68 76.0078C1729.86 76.3359 1729.95 76.7287 1729.95 77.1861C1729.95 77.7628 1729.8 78.2749 1729.51 78.7223C1729.21 79.1697 1728.78 79.5227 1728.22 79.7812C1727.66 80.0398 1726.98 80.169 1726.18 80.169C1725.42 80.169 1724.76 80.0481 1724.21 79.8061C1723.65 79.5642 1723.21 79.2211 1722.9 78.777C1722.58 78.3295 1722.41 77.7992 1722.38 77.1861H1723.92C1723.95 77.554 1724.07 77.8606 1724.28 78.1058C1724.49 78.3478 1724.76 78.5284 1725.09 78.6477C1725.42 78.7637 1725.78 78.8217 1726.17 78.8217C1726.61 78.8217 1726.99 78.7538 1727.33 78.6179C1727.67 78.4787 1727.94 78.2865 1728.14 78.0412C1728.33 77.7926 1728.43 77.5026 1728.43 77.1712C1728.43 76.8696 1728.35 76.6226 1728.17 76.4304C1728 76.2382 1727.77 76.0791 1727.48 75.9531C1727.19 75.8272 1726.87 75.7161 1726.5 75.62L1725.3 75.2919C1724.48 75.0698 1723.84 74.7434 1723.36 74.3125C1722.89 73.8816 1722.65 73.3116 1722.65 72.6023C1722.65 72.0156 1722.81 71.5036 1723.13 71.0661C1723.44 70.6286 1723.88 70.2888 1724.42 70.0469C1724.96 69.8016 1725.58 69.679 1726.26 69.679C1726.95 69.679 1727.56 69.8 1728.08 70.0419C1728.61 70.2839 1729.03 70.617 1729.34 71.0412C1729.64 71.4621 1729.8 71.946 1729.81 72.4929H1728.33ZM1725.67 79.9602H1726.64L1726.56 80.3679C1726.85 80.4143 1727.1 80.5303 1727.32 80.7159C1727.53 80.9015 1727.64 81.1816 1727.64 81.5561C1727.64 82.0036 1727.45 82.3665 1727.06 82.6449C1726.67 82.9233 1726.11 83.0625 1725.37 83.0625L1725.34 82.2322C1725.69 82.2322 1725.97 82.1825 1726.18 82.0831C1726.39 81.9837 1726.5 81.8229 1726.51 81.6009C1726.51 81.3788 1726.43 81.223 1726.26 81.1335C1726.09 81.044 1725.83 80.9811 1725.46 80.9446L1725.67 79.9602ZM1731.79 80V69.8182H1733.32V78.6776H1737.94V80H1731.79ZM1741.07 80H1739.44L1743.1 69.8182H1744.88L1748.54 80H1746.91L1744.03 71.6676H1743.95L1741.07 80ZM1741.34 76.0128H1746.63V77.3054H1741.34V76.0128Z" fill="#2B2B2B"/>
</svg>
