<svg width="640" height="812" viewBox="0 0 640 812" fill="none" xmlns="http://www.w3.org/2000/svg">
<path d="M54.7614 520.688V516.909H77.2756V520.688H68.1989V546H63.8239V520.688H54.7614ZM86.157 533.045V546H81.9098V516.909H86.1001V527.733H86.37C86.8814 526.559 87.6626 525.626 88.7138 524.935C89.7649 524.243 91.138 523.898 92.8331 523.898C94.3293 523.898 95.6361 524.205 96.7536 524.821C97.8804 525.437 98.7517 526.355 99.3672 527.577C99.9922 528.789 100.305 530.304 100.305 532.122V546H96.0575V532.634C96.0575 531.033 95.6456 529.793 94.8217 528.912C93.9979 528.022 92.852 527.577 91.3842 527.577C90.3804 527.577 89.4808 527.79 88.6854 528.216C87.8994 528.642 87.2791 529.267 86.8246 530.091C86.3795 530.905 86.157 531.89 86.157 533.045ZM115.376 546.44C113.226 546.44 111.375 545.981 109.822 545.062C108.278 544.134 107.085 542.832 106.242 541.156C105.409 539.471 104.992 537.496 104.992 535.233C104.992 532.998 105.409 531.028 106.242 529.324C107.085 527.619 108.259 526.289 109.765 525.332C111.28 524.376 113.051 523.898 115.077 523.898C116.308 523.898 117.502 524.101 118.657 524.509C119.812 524.916 120.849 525.555 121.768 526.426C122.686 527.297 123.411 528.429 123.941 529.821C124.471 531.204 124.737 532.884 124.737 534.864V536.369H107.393V533.188H120.575C120.575 532.07 120.347 531.08 119.893 530.219C119.438 529.348 118.799 528.661 117.975 528.159C117.161 527.657 116.204 527.406 115.106 527.406C113.913 527.406 112.871 527.7 111.981 528.287C111.1 528.865 110.418 529.622 109.935 530.56C109.462 531.488 109.225 532.496 109.225 533.585V536.071C109.225 537.529 109.481 538.77 109.992 539.793C110.513 540.815 111.237 541.597 112.165 542.136C113.094 542.667 114.178 542.932 115.418 542.932C116.223 542.932 116.957 542.818 117.62 542.591C118.283 542.354 118.856 542.004 119.339 541.54C119.822 541.076 120.191 540.503 120.447 539.821L124.467 540.545C124.145 541.729 123.567 542.766 122.734 543.656C121.91 544.537 120.873 545.223 119.623 545.716C118.382 546.199 116.967 546.44 115.376 546.44ZM138.941 520.688V516.909H161.455V520.688H152.379V546H148.004V520.688H138.941ZM172.329 546.44C170.179 546.44 168.328 545.981 166.775 545.062C165.231 544.134 164.038 542.832 163.195 541.156C162.362 539.471 161.945 537.496 161.945 535.233C161.945 532.998 162.362 531.028 163.195 529.324C164.038 527.619 165.212 526.289 166.718 525.332C168.233 524.376 170.004 523.898 172.031 523.898C173.262 523.898 174.455 524.101 175.61 524.509C176.765 524.916 177.802 525.555 178.721 526.426C179.639 527.297 180.364 528.429 180.894 529.821C181.424 531.204 181.69 532.884 181.69 534.864V536.369H164.346V533.188H177.528C177.528 532.07 177.3 531.08 176.846 530.219C176.391 529.348 175.752 528.661 174.928 528.159C174.114 527.657 173.157 527.406 172.059 527.406C170.866 527.406 169.824 527.7 168.934 528.287C168.053 528.865 167.371 529.622 166.888 530.56C166.415 531.488 166.178 532.496 166.178 533.585V536.071C166.178 537.529 166.434 538.77 166.945 539.793C167.466 540.815 168.191 541.597 169.119 542.136C170.047 542.667 171.131 542.932 172.371 542.932C173.176 542.932 173.91 542.818 174.573 542.591C175.236 542.354 175.809 542.004 176.292 541.54C176.775 541.076 177.144 540.503 177.4 539.821L181.42 540.545C181.098 541.729 180.52 542.766 179.687 543.656C178.863 544.537 177.826 545.223 176.576 545.716C175.335 546.199 173.92 546.44 172.329 546.44ZM195.805 546.44C193.656 546.44 191.804 545.981 190.251 545.062C188.708 544.134 187.515 542.832 186.672 541.156C185.839 539.471 185.422 537.496 185.422 535.233C185.422 532.998 185.839 531.028 186.672 529.324C187.515 527.619 188.689 526.289 190.195 525.332C191.71 524.376 193.481 523.898 195.507 523.898C196.738 523.898 197.931 524.101 199.087 524.509C200.242 524.916 201.279 525.555 202.197 526.426C203.116 527.297 203.84 528.429 204.371 529.821C204.901 531.204 205.166 532.884 205.166 534.864V536.369H187.822V533.188H201.004C201.004 532.07 200.777 531.08 200.322 530.219C199.868 529.348 199.229 528.661 198.405 528.159C197.59 527.657 196.634 527.406 195.536 527.406C194.342 527.406 193.301 527.7 192.411 528.287C191.53 528.865 190.848 529.622 190.365 530.56C189.892 531.488 189.655 532.496 189.655 533.585V536.071C189.655 537.529 189.911 538.77 190.422 539.793C190.943 540.815 191.667 541.597 192.595 542.136C193.523 542.667 194.607 542.932 195.848 542.932C196.653 542.932 197.387 542.818 198.05 542.591C198.713 542.354 199.286 542.004 199.768 541.54C200.251 541.076 200.621 540.503 200.876 539.821L204.896 540.545C204.574 541.729 203.997 542.766 203.163 543.656C202.339 544.537 201.303 545.223 200.053 545.716C198.812 546.199 197.396 546.44 195.805 546.44ZM236.672 524.551C236.52 523.206 235.895 522.165 234.797 521.426C233.698 520.678 232.316 520.304 230.649 520.304C229.456 520.304 228.424 520.493 227.553 520.872C226.681 521.241 226.004 521.753 225.521 522.406C225.048 523.05 224.811 523.784 224.811 524.608C224.811 525.299 224.972 525.896 225.294 526.398C225.625 526.9 226.056 527.321 226.587 527.662C227.126 527.993 227.704 528.273 228.32 528.5C228.935 528.718 229.527 528.898 230.095 529.04L232.936 529.778C233.864 530.006 234.816 530.313 235.791 530.702C236.767 531.09 237.671 531.601 238.504 532.236C239.338 532.87 240.01 533.656 240.521 534.594C241.042 535.531 241.303 536.653 241.303 537.96C241.303 539.608 240.876 541.071 240.024 542.349C239.181 543.628 237.955 544.636 236.345 545.375C234.745 546.114 232.808 546.483 230.536 546.483C228.357 546.483 226.473 546.137 224.882 545.446C223.291 544.755 222.046 543.775 221.146 542.506C220.247 541.227 219.75 539.712 219.655 537.96H224.058C224.143 539.011 224.484 539.887 225.081 540.588C225.687 541.279 226.459 541.795 227.396 542.136C228.343 542.468 229.38 542.634 230.507 542.634C231.748 542.634 232.851 542.439 233.817 542.051C234.792 541.653 235.559 541.104 236.118 540.403C236.677 539.693 236.956 538.865 236.956 537.918C236.956 537.056 236.71 536.35 236.217 535.801C235.734 535.252 235.076 534.797 234.243 534.438C233.419 534.078 232.486 533.76 231.445 533.486L228.007 532.548C225.678 531.914 223.831 530.981 222.467 529.75C221.113 528.519 220.436 526.89 220.436 524.864C220.436 523.187 220.891 521.724 221.8 520.474C222.709 519.224 223.94 518.254 225.493 517.562C227.046 516.862 228.798 516.511 230.749 516.511C232.718 516.511 234.456 516.857 235.962 517.548C237.477 518.24 238.67 519.191 239.541 520.403C240.412 521.606 240.867 522.989 240.905 524.551H236.672ZM250.454 533.045V546H246.207V516.909H250.397V527.733H250.667C251.178 526.559 251.96 525.626 253.011 524.935C254.062 524.243 255.435 523.898 257.13 523.898C258.626 523.898 259.933 524.205 261.05 524.821C262.177 525.437 263.049 526.355 263.664 527.577C264.289 528.789 264.602 530.304 264.602 532.122V546H260.354V532.634C260.354 531.033 259.942 529.793 259.119 528.912C258.295 528.022 257.149 527.577 255.681 527.577C254.677 527.577 253.778 527.79 252.982 528.216C252.196 528.642 251.576 529.267 251.121 530.091C250.676 530.905 250.454 531.89 250.454 533.045ZM279.46 546.44C277.414 546.44 275.629 545.972 274.104 545.034C272.58 544.097 271.396 542.785 270.553 541.099C269.71 539.414 269.289 537.444 269.289 535.19C269.289 532.927 269.71 530.948 270.553 529.253C271.396 527.558 272.58 526.241 274.104 525.304C275.629 524.366 277.414 523.898 279.46 523.898C281.505 523.898 283.29 524.366 284.815 525.304C286.339 526.241 287.523 527.558 288.366 529.253C289.209 530.948 289.63 532.927 289.63 535.19C289.63 537.444 289.209 539.414 288.366 541.099C287.523 542.785 286.339 544.097 284.815 545.034C283.29 545.972 281.505 546.44 279.46 546.44ZM279.474 542.875C280.799 542.875 281.898 542.525 282.769 541.824C283.64 541.123 284.284 540.19 284.701 539.026C285.127 537.861 285.34 536.578 285.34 535.176C285.34 533.784 285.127 532.506 284.701 531.341C284.284 530.167 283.64 529.224 282.769 528.514C281.898 527.804 280.799 527.449 279.474 527.449C278.138 527.449 277.031 527.804 276.15 528.514C275.279 529.224 274.63 530.167 274.204 531.341C273.787 532.506 273.579 533.784 273.579 535.176C273.579 536.578 273.787 537.861 274.204 539.026C274.63 540.19 275.279 541.123 276.15 541.824C277.031 542.525 278.138 542.875 279.474 542.875ZM294.371 554.182V524.182H298.518V527.719H298.874C299.12 527.264 299.475 526.739 299.939 526.142C300.403 525.545 301.047 525.025 301.871 524.58C302.695 524.125 303.784 523.898 305.138 523.898C306.899 523.898 308.471 524.343 309.854 525.233C311.236 526.123 312.321 527.406 313.107 529.082C313.902 530.759 314.3 532.776 314.3 535.134C314.3 537.491 313.907 539.513 313.121 541.199C312.335 542.875 311.255 544.168 309.882 545.077C308.509 545.976 306.942 546.426 305.18 546.426C303.855 546.426 302.77 546.204 301.928 545.759C301.094 545.313 300.441 544.793 299.967 544.196C299.494 543.599 299.129 543.069 298.874 542.605H298.618V554.182H294.371ZM298.533 535.091C298.533 536.625 298.755 537.97 299.2 539.125C299.645 540.28 300.289 541.185 301.132 541.838C301.975 542.482 303.007 542.804 304.229 542.804C305.498 542.804 306.558 542.468 307.411 541.795C308.263 541.114 308.907 540.19 309.342 539.026C309.787 537.861 310.01 536.549 310.01 535.091C310.01 533.652 309.792 532.359 309.357 531.213C308.93 530.067 308.286 529.163 307.425 528.5C306.572 527.837 305.507 527.506 304.229 527.506C302.998 527.506 301.956 527.823 301.104 528.457C300.261 529.092 299.622 529.977 299.186 531.114C298.75 532.25 298.533 533.576 298.533 535.091Z" fill="white"/>
<path d="M64.7045 600C64.5483 599.522 64.3423 599.093 64.0866 598.714C63.8357 598.331 63.535 598.004 63.1847 597.734C62.839 597.464 62.446 597.259 62.0057 597.116C61.5653 596.974 61.0824 596.903 60.5568 596.903C59.6951 596.903 58.9115 597.126 58.206 597.571C57.5005 598.016 56.9394 598.672 56.5227 599.538C56.1061 600.405 55.8977 601.468 55.8977 602.727C55.8977 603.987 56.1084 605.05 56.5298 605.916C56.9512 606.783 57.5218 607.438 58.2415 607.884C58.9612 608.329 59.7708 608.551 60.6705 608.551C61.5038 608.551 62.2377 608.374 62.8722 608.018C63.5114 607.659 64.0085 607.152 64.3636 606.499C64.7235 605.84 64.9034 605.066 64.9034 604.176L65.4432 604.29H61.0682V602.727H66.608V604.29C66.608 605.488 66.3523 606.529 65.8409 607.415C65.3343 608.3 64.6335 608.987 63.7386 609.474C62.8485 609.957 61.8258 610.199 60.6705 610.199C59.3826 610.199 58.2509 609.896 57.2756 609.29C56.3049 608.684 55.5473 607.822 55.0028 606.705C54.4631 605.587 54.1932 604.261 54.1932 602.727C54.1932 601.577 54.3471 600.542 54.6548 599.624C54.9673 598.7 55.4077 597.914 55.9759 597.266C56.544 596.617 57.2164 596.12 57.9929 595.774C58.7694 595.429 59.6241 595.256 60.5568 595.256C61.3239 595.256 62.0388 595.372 62.7017 595.604C63.3693 595.831 63.9635 596.155 64.4844 596.577C65.0099 596.993 65.4479 597.493 65.7983 598.075C66.1487 598.653 66.3902 599.295 66.5227 600H64.7045ZM76.2724 605.54V599.091H77.9485V610H76.2724V608.153H76.1587C75.9031 608.707 75.5053 609.179 74.9656 609.567C74.4258 609.95 73.744 610.142 72.9201 610.142C72.2383 610.142 71.6322 609.993 71.1019 609.695C70.5716 609.392 70.1549 608.937 69.8519 608.331C69.5489 607.72 69.3974 606.951 69.3974 606.023V599.091H71.0735V605.909C71.0735 606.705 71.296 607.339 71.7411 607.812C72.1909 608.286 72.7638 608.523 73.4599 608.523C73.8765 608.523 74.3003 608.416 74.7312 608.203C75.1668 607.99 75.5314 607.663 75.8249 607.223C76.1232 606.783 76.2724 606.222 76.2724 605.54ZM71.6417 597.273C71.3434 597.273 71.0782 597.159 70.8462 596.932C70.619 596.7 70.5053 596.435 70.5053 596.136C70.5053 595.81 70.619 595.54 70.8462 595.327C71.0782 595.109 71.3434 595 71.6417 595C71.9684 595 72.2383 595.109 72.4513 595.327C72.6692 595.54 72.7781 595.81 72.7781 596.136C72.7781 596.435 72.6692 596.7 72.4513 596.932C72.2383 597.159 71.9684 597.273 71.6417 597.273ZM75.7326 597.273C75.4343 597.273 75.1692 597.159 74.9371 596.932C74.7099 596.7 74.5962 596.435 74.5962 596.136C74.5962 595.81 74.7099 595.54 74.9371 595.327C75.1692 595.109 75.4343 595 75.7326 595C76.0593 595 76.3292 595.109 76.5423 595.327C76.7601 595.54 76.869 595.81 76.869 596.136C76.869 596.435 76.7601 596.7 76.5423 596.932C76.3292 597.159 76.0593 597.273 75.7326 597.273ZM82.6946 603.438V610H81.0185V599.091H82.6378V600.795H82.7798C83.0355 600.241 83.4238 599.796 83.9446 599.46C84.4654 599.119 85.1378 598.949 85.9616 598.949C86.7003 598.949 87.3466 599.1 87.9006 599.403C88.4545 599.702 88.8854 600.156 89.1932 600.767C89.5009 601.373 89.6548 602.14 89.6548 603.068V610H87.9787V603.182C87.9787 602.325 87.7562 601.657 87.3111 601.179C86.866 600.696 86.2552 600.455 85.4787 600.455C84.9437 600.455 84.4654 600.571 84.044 600.803C83.6274 601.035 83.2983 601.373 83.0568 601.818C82.8153 602.263 82.6946 602.803 82.6946 603.438ZM97.2915 610.227C96.2404 610.227 95.3337 609.995 94.5714 609.531C93.8138 609.062 93.229 608.409 92.8171 607.571C92.4099 606.728 92.2063 605.748 92.2063 604.631C92.2063 603.513 92.4099 602.528 92.8171 601.676C93.229 600.819 93.802 600.152 94.5359 599.673C95.2745 599.19 96.1362 598.949 97.1211 598.949C97.6893 598.949 98.2504 599.044 98.8043 599.233C99.3583 599.422 99.8626 599.73 100.317 600.156C100.772 600.578 101.134 601.136 101.404 601.832C101.674 602.528 101.809 603.385 101.809 604.403V605.114H93.3995V603.665H100.104C100.104 603.049 99.9809 602.5 99.7347 602.017C99.4933 601.534 99.1476 601.153 98.6978 600.874C98.2527 600.594 97.7272 600.455 97.1211 600.455C96.4535 600.455 95.8758 600.62 95.3881 600.952C94.9052 601.278 94.5335 601.705 94.2731 602.23C94.0127 602.756 93.8825 603.319 93.8825 603.92V604.886C93.8825 605.71 94.0245 606.409 94.3086 606.982C94.5974 607.55 94.9975 607.983 95.5089 608.281C96.0202 608.575 96.6145 608.722 97.2915 608.722C97.7319 608.722 98.1296 608.66 98.4847 608.537C98.8446 608.409 99.1547 608.22 99.4151 607.969C99.6755 607.713 99.8768 607.396 100.019 607.017L101.638 607.472C101.468 608.021 101.181 608.504 100.779 608.92C100.376 609.332 99.8791 609.654 99.2873 609.886C98.6954 610.114 98.0302 610.227 97.2915 610.227ZM112.086 601.534L110.58 601.96C110.485 601.709 110.346 601.465 110.161 601.229C109.981 600.987 109.735 600.788 109.422 600.632C109.11 600.476 108.71 600.398 108.222 600.398C107.554 600.398 106.998 600.552 106.553 600.859C106.113 601.162 105.892 601.548 105.892 602.017C105.892 602.434 106.044 602.763 106.347 603.004C106.65 603.246 107.123 603.447 107.767 603.608L109.387 604.006C110.362 604.242 111.089 604.605 111.567 605.092C112.045 605.575 112.284 606.198 112.284 606.96C112.284 607.585 112.105 608.144 111.745 608.636C111.39 609.129 110.892 609.517 110.253 609.801C109.614 610.085 108.871 610.227 108.023 610.227C106.91 610.227 105.989 609.986 105.26 609.503C104.531 609.02 104.069 608.314 103.875 607.386L105.466 606.989C105.618 607.576 105.904 608.016 106.326 608.31C106.752 608.603 107.308 608.75 107.995 608.75C108.776 608.75 109.396 608.584 109.855 608.253C110.319 607.917 110.551 607.514 110.551 607.045C110.551 606.667 110.419 606.349 110.154 606.094C109.889 605.833 109.481 605.639 108.932 605.511L107.114 605.085C106.115 604.848 105.381 604.482 104.912 603.984C104.448 603.482 104.216 602.855 104.216 602.102C104.216 601.487 104.389 600.942 104.735 600.469C105.085 599.995 105.561 599.624 106.162 599.354C106.768 599.084 107.455 598.949 108.222 598.949C109.301 598.949 110.149 599.186 110.765 599.659C111.385 600.133 111.825 600.758 112.086 601.534ZM107.398 609.943H108.79L108.676 610.511C109.046 610.568 109.384 610.722 109.692 610.973C110 611.229 110.154 611.634 110.154 612.188C110.154 612.798 109.9 613.295 109.394 613.679C108.892 614.067 108.151 614.261 107.171 614.261L107.114 613.153C107.554 613.153 107.919 613.082 108.208 612.94C108.501 612.803 108.648 612.571 108.648 612.244C108.648 611.918 108.527 611.695 108.286 611.577C108.044 611.458 107.654 611.378 107.114 611.335L107.398 609.943ZM116.484 595.455V610H114.808V595.455H116.484ZM119.554 610V599.091H121.23V610H119.554ZM120.406 597.273C120.079 597.273 119.797 597.161 119.561 596.939C119.329 596.716 119.213 596.449 119.213 596.136C119.213 595.824 119.329 595.556 119.561 595.334C119.797 595.111 120.079 595 120.406 595C120.733 595 121.012 595.111 121.244 595.334C121.481 595.556 121.599 595.824 121.599 596.136C121.599 596.449 121.481 596.716 121.244 596.939C121.012 597.161 120.733 597.273 120.406 597.273ZM134.328 614.318C133.518 614.318 132.822 614.214 132.24 614.006C131.658 613.802 131.172 613.532 130.784 613.196C130.401 612.865 130.095 612.509 129.868 612.131L131.203 611.193C131.355 611.392 131.546 611.619 131.778 611.875C132.01 612.135 132.328 612.36 132.73 612.55C133.137 612.744 133.67 612.841 134.328 612.841C135.209 612.841 135.936 612.628 136.509 612.202C137.081 611.776 137.368 611.108 137.368 610.199V607.983H137.226C137.103 608.182 136.928 608.428 136.7 608.722C136.478 609.01 136.156 609.268 135.734 609.496C135.318 609.718 134.754 609.83 134.044 609.83C133.163 609.83 132.373 609.621 131.672 609.205C130.976 608.788 130.424 608.182 130.017 607.386C129.615 606.591 129.413 605.625 129.413 604.489C129.413 603.371 129.61 602.398 130.003 601.57C130.396 600.736 130.943 600.092 131.643 599.638C132.344 599.179 133.154 598.949 134.072 598.949C134.783 598.949 135.346 599.067 135.763 599.304C136.184 599.536 136.506 599.801 136.729 600.099C136.956 600.393 137.131 600.634 137.254 600.824H137.425V599.091H139.044V610.312C139.044 611.25 138.831 612.012 138.405 612.599C137.983 613.191 137.415 613.625 136.7 613.899C135.99 614.179 135.199 614.318 134.328 614.318ZM134.271 608.324C134.944 608.324 135.512 608.17 135.976 607.862C136.44 607.554 136.793 607.112 137.034 606.534C137.276 605.956 137.396 605.265 137.396 604.46C137.396 603.674 137.278 602.981 137.041 602.379C136.804 601.778 136.454 601.307 135.99 600.966C135.526 600.625 134.953 600.455 134.271 600.455C133.561 600.455 132.969 600.634 132.496 600.994C132.027 601.354 131.674 601.837 131.438 602.443C131.205 603.049 131.089 603.722 131.089 604.46C131.089 605.218 131.208 605.888 131.445 606.47C131.686 607.048 132.041 607.502 132.51 607.834C132.983 608.161 133.571 608.324 134.271 608.324ZM148.987 605.54V599.091H150.663V610H148.987V608.153H148.874C148.618 608.707 148.22 609.179 147.68 609.567C147.141 609.95 146.459 610.142 145.635 610.142C144.953 610.142 144.347 609.993 143.817 609.695C143.286 609.392 142.87 608.937 142.567 608.331C142.264 607.72 142.112 606.951 142.112 606.023V599.091H143.788V605.909C143.788 606.705 144.011 607.339 144.456 607.812C144.906 608.286 145.479 608.523 146.175 608.523C146.591 608.523 147.015 608.416 147.446 608.203C147.882 607.99 148.246 607.663 148.54 607.223C148.838 606.783 148.987 606.222 148.987 605.54ZM144.357 597.273C144.058 597.273 143.793 597.159 143.561 596.932C143.334 596.7 143.22 596.435 143.22 596.136C143.22 595.81 143.334 595.54 143.561 595.327C143.793 595.109 144.058 595 144.357 595C144.683 595 144.953 595.109 145.166 595.327C145.384 595.54 145.493 595.81 145.493 596.136C145.493 596.435 145.384 596.7 145.166 596.932C144.953 597.159 144.683 597.273 144.357 597.273ZM148.447 597.273C148.149 597.273 147.884 597.159 147.652 596.932C147.425 596.7 147.311 596.435 147.311 596.136C147.311 595.81 147.425 595.54 147.652 595.327C147.884 595.109 148.149 595 148.447 595C148.774 595 149.044 595.109 149.257 595.327C149.475 595.54 149.584 595.81 149.584 596.136C149.584 596.435 149.475 596.7 149.257 596.932C149.044 597.159 148.774 597.273 148.447 597.273ZM155.409 603.438V610H153.733V599.091H155.353V600.795H155.495C155.75 600.241 156.139 599.796 156.659 599.46C157.18 599.119 157.853 598.949 158.676 598.949C159.415 598.949 160.061 599.1 160.615 599.403C161.169 599.702 161.6 600.156 161.908 600.767C162.216 601.373 162.37 602.14 162.37 603.068V610H160.694V603.182C160.694 602.325 160.471 601.657 160.026 601.179C159.581 600.696 158.97 600.455 158.194 600.455C157.658 600.455 157.18 600.571 156.759 600.803C156.342 601.035 156.013 601.373 155.772 601.818C155.53 602.263 155.409 602.803 155.409 603.438ZM167.109 595.455V610H165.433V595.455H167.109ZM174.752 610.227C173.701 610.227 172.795 609.995 172.032 609.531C171.275 609.062 170.69 608.409 170.278 607.571C169.871 606.728 169.667 605.748 169.667 604.631C169.667 603.513 169.871 602.528 170.278 601.676C170.69 600.819 171.263 600.152 171.997 599.673C172.735 599.19 173.597 598.949 174.582 598.949C175.15 598.949 175.711 599.044 176.265 599.233C176.819 599.422 177.324 599.73 177.778 600.156C178.233 600.578 178.595 601.136 178.865 601.832C179.135 602.528 179.27 603.385 179.27 604.403V605.114H170.86V603.665H177.565C177.565 603.049 177.442 602.5 177.196 602.017C176.954 601.534 176.609 601.153 176.159 600.874C175.714 600.594 175.188 600.455 174.582 600.455C173.914 600.455 173.337 600.62 172.849 600.952C172.366 601.278 171.994 601.705 171.734 602.23C171.474 602.756 171.343 603.319 171.343 603.92V604.886C171.343 605.71 171.485 606.409 171.77 606.982C172.058 607.55 172.458 607.983 172.97 608.281C173.481 608.575 174.075 608.722 174.752 608.722C175.193 608.722 175.591 608.66 175.946 608.537C176.306 608.409 176.616 608.22 176.876 607.969C177.136 607.713 177.338 607.396 177.48 607.017L179.099 607.472C178.929 608.021 178.642 608.504 178.24 608.92C177.837 609.332 177.34 609.654 176.748 609.886C176.156 610.114 175.491 610.227 174.752 610.227ZM181.819 610V599.091H183.439V600.739H183.552C183.751 600.199 184.111 599.761 184.632 599.425C185.153 599.089 185.74 598.92 186.393 598.92C186.516 598.92 186.67 598.923 186.855 598.928C187.039 598.932 187.179 598.939 187.274 598.949V600.653C187.217 600.639 187.087 600.618 186.883 600.589C186.684 600.556 186.474 600.54 186.251 600.54C185.721 600.54 185.247 600.651 184.831 600.874C184.419 601.091 184.092 601.394 183.85 601.783C183.614 602.166 183.495 602.604 183.495 603.097V610H181.819ZM203.806 599.091L199.772 610H198.067L194.033 599.091H195.852L198.863 607.784H198.977L201.988 599.091H203.806ZM210.202 610.227C209.151 610.227 208.244 609.995 207.482 609.531C206.724 609.062 206.139 608.409 205.727 607.571C205.32 606.728 205.116 605.748 205.116 604.631C205.116 603.513 205.32 602.528 205.727 601.676C206.139 600.819 206.712 600.152 207.446 599.673C208.185 599.19 209.046 598.949 210.031 598.949C210.599 598.949 211.161 599.044 211.714 599.233C212.268 599.422 212.773 599.73 213.227 600.156C213.682 600.578 214.044 601.136 214.314 601.832C214.584 602.528 214.719 603.385 214.719 604.403V605.114H206.31V603.665H213.014C213.014 603.049 212.891 602.5 212.645 602.017C212.403 601.534 212.058 601.153 211.608 600.874C211.163 600.594 210.637 600.455 210.031 600.455C209.364 600.455 208.786 600.62 208.298 600.952C207.815 601.278 207.444 601.705 207.183 602.23C206.923 602.756 206.793 603.319 206.793 603.92V604.886C206.793 605.71 206.935 606.409 207.219 606.982C207.508 607.55 207.908 607.983 208.419 608.281C208.93 608.575 209.525 608.722 210.202 608.722C210.642 608.722 211.04 608.66 211.395 608.537C211.755 608.409 212.065 608.22 212.325 607.969C212.586 607.713 212.787 607.396 212.929 607.017L214.548 607.472C214.378 608.021 214.091 608.504 213.689 608.92C213.286 609.332 212.789 609.654 212.197 609.886C211.606 610.114 210.94 610.227 210.202 610.227ZM222.893 610V599.091H224.513V600.739H224.626C224.825 600.199 225.185 599.761 225.706 599.425C226.227 599.089 226.814 598.92 227.467 598.92C227.59 598.92 227.744 598.923 227.929 598.928C228.114 598.932 228.253 598.939 228.348 598.949V600.653C228.291 600.639 228.161 600.618 227.957 600.589C227.759 600.556 227.548 600.54 227.325 600.54C226.795 600.54 226.321 600.651 225.905 600.874C225.493 601.091 225.166 601.394 224.925 601.783C224.688 602.166 224.57 602.604 224.57 603.097V610H222.893ZM234.577 610.227C233.526 610.227 232.619 609.995 231.857 609.531C231.099 609.062 230.514 608.409 230.102 607.571C229.695 606.728 229.491 605.748 229.491 604.631C229.491 603.513 229.695 602.528 230.102 601.676C230.514 600.819 231.087 600.152 231.821 599.673C232.56 599.19 233.421 598.949 234.406 598.949C234.974 598.949 235.536 599.044 236.089 599.233C236.643 599.422 237.148 599.73 237.602 600.156C238.057 600.578 238.419 601.136 238.689 601.832C238.959 602.528 239.094 603.385 239.094 604.403V605.114H230.685V603.665H237.389C237.389 603.049 237.266 602.5 237.02 602.017C236.778 601.534 236.433 601.153 235.983 600.874C235.538 600.594 235.012 600.455 234.406 600.455C233.739 600.455 233.161 600.62 232.673 600.952C232.19 601.278 231.819 601.705 231.558 602.23C231.298 602.756 231.168 603.319 231.168 603.92V604.886C231.168 605.71 231.31 606.409 231.594 606.982C231.883 607.55 232.283 607.983 232.794 608.281C233.305 608.575 233.9 608.722 234.577 608.722C235.017 608.722 235.415 608.66 235.77 608.537C236.13 608.409 236.44 608.22 236.7 607.969C236.961 607.713 237.162 607.396 237.304 607.017L238.923 607.472C238.753 608.021 238.466 608.504 238.064 608.92C237.661 609.332 237.164 609.654 236.572 609.886C235.981 610.114 235.315 610.227 234.577 610.227ZM243.32 603.438V610H241.643V599.091H243.263V600.795H243.405C243.661 600.241 244.049 599.796 244.57 599.46C245.09 599.119 245.763 598.949 246.587 598.949C247.325 598.949 247.972 599.1 248.526 599.403C249.08 599.702 249.51 600.156 249.818 600.767C250.126 601.373 250.28 602.14 250.28 603.068V610H248.604V603.182C248.604 602.325 248.381 601.657 247.936 601.179C247.491 600.696 246.88 600.455 246.104 600.455C245.569 600.455 245.09 600.571 244.669 600.803C244.252 601.035 243.923 601.373 243.682 601.818C243.44 602.263 243.32 602.803 243.32 603.438ZM254.905 606.023L254.877 603.949H255.218L259.99 599.091H262.064L256.979 604.233H256.837L254.905 606.023ZM253.343 610V595.455H255.019V610H253.343ZM260.275 610L256.013 604.602L257.206 603.438L262.405 610H260.275ZM265.898 595.455V610H264.222V595.455H265.898ZM268.968 610V599.091H270.644V610H268.968ZM269.82 597.273C269.493 597.273 269.212 597.161 268.975 596.939C268.743 596.716 268.627 596.449 268.627 596.136C268.627 595.824 268.743 595.556 268.975 595.334C269.212 595.111 269.493 595 269.82 595C270.147 595 270.426 595.111 270.658 595.334C270.895 595.556 271.013 595.824 271.013 596.136C271.013 596.449 270.895 596.716 270.658 596.939C270.426 597.161 270.147 597.273 269.82 597.273ZM283.742 614.318C282.933 614.318 282.237 614.214 281.654 614.006C281.072 613.802 280.586 613.532 280.198 613.196C279.815 612.865 279.509 612.509 279.282 612.131L280.617 611.193C280.769 611.392 280.96 611.619 281.192 611.875C281.424 612.135 281.742 612.36 282.144 612.55C282.551 612.744 283.084 612.841 283.742 612.841C284.623 612.841 285.35 612.628 285.923 612.202C286.496 611.776 286.782 611.108 286.782 610.199V607.983H286.64C286.517 608.182 286.342 608.428 286.114 608.722C285.892 609.01 285.57 609.268 285.148 609.496C284.732 609.718 284.168 609.83 283.458 609.83C282.577 609.83 281.787 609.621 281.086 609.205C280.39 608.788 279.838 608.182 279.431 607.386C279.029 606.591 278.827 605.625 278.827 604.489C278.827 603.371 279.024 602.398 279.417 601.57C279.81 600.736 280.357 600.092 281.058 599.638C281.758 599.179 282.568 598.949 283.487 598.949C284.197 598.949 284.76 599.067 285.177 599.304C285.598 599.536 285.92 599.801 286.143 600.099C286.37 600.393 286.545 600.634 286.668 600.824H286.839V599.091H288.458V610.312C288.458 611.25 288.245 612.012 287.819 612.599C287.397 613.191 286.829 613.625 286.114 613.899C285.404 614.179 284.613 614.318 283.742 614.318ZM283.685 608.324C284.358 608.324 284.926 608.17 285.39 607.862C285.854 607.554 286.207 607.112 286.448 606.534C286.69 605.956 286.81 605.265 286.81 604.46C286.81 603.674 286.692 602.981 286.455 602.379C286.219 601.778 285.868 601.307 285.404 600.966C284.94 600.625 284.367 600.455 283.685 600.455C282.975 600.455 282.383 600.634 281.91 600.994C281.441 601.354 281.088 601.837 280.852 602.443C280.62 603.049 280.504 603.722 280.504 604.46C280.504 605.218 280.622 605.888 280.859 606.47C281.1 607.048 281.455 607.502 281.924 607.834C282.397 608.161 282.985 608.324 283.685 608.324ZM295.958 610.227C294.973 610.227 294.109 609.993 293.366 609.524C292.627 609.055 292.049 608.4 291.633 607.557C291.221 606.714 291.015 605.729 291.015 604.602C291.015 603.466 291.221 602.474 291.633 601.626C292.049 600.779 292.627 600.121 293.366 599.652C294.109 599.183 294.973 598.949 295.958 598.949C296.943 598.949 297.805 599.183 298.543 599.652C299.287 600.121 299.864 600.779 300.276 601.626C300.693 602.474 300.901 603.466 300.901 604.602C300.901 605.729 300.693 606.714 300.276 607.557C299.864 608.4 299.287 609.055 298.543 609.524C297.805 609.993 296.943 610.227 295.958 610.227ZM295.958 608.722C296.706 608.722 297.322 608.53 297.805 608.146C298.288 607.763 298.645 607.259 298.877 606.634C299.109 606.009 299.225 605.331 299.225 604.602C299.225 603.873 299.109 603.194 298.877 602.564C298.645 601.934 298.288 601.425 297.805 601.037C297.322 600.649 296.706 600.455 295.958 600.455C295.21 600.455 294.594 600.649 294.112 601.037C293.629 601.425 293.271 601.934 293.039 602.564C292.807 603.194 292.691 603.873 292.691 604.602C292.691 605.331 292.807 606.009 293.039 606.634C293.271 607.259 293.629 607.763 294.112 608.146C294.594 608.53 295.21 608.722 295.958 608.722ZM293.913 597.273C293.614 597.273 293.349 597.159 293.117 596.932C292.89 596.7 292.776 596.435 292.776 596.136C292.776 595.81 292.89 595.54 293.117 595.327C293.349 595.109 293.614 595 293.913 595C294.239 595 294.509 595.109 294.722 595.327C294.94 595.54 295.049 595.81 295.049 596.136C295.049 596.435 294.94 596.7 294.722 596.932C294.509 597.159 294.239 597.273 293.913 597.273ZM298.004 597.273C297.705 597.273 297.44 597.159 297.208 596.932C296.981 596.7 296.867 596.435 296.867 596.136C296.867 595.81 296.981 595.54 297.208 595.327C297.44 595.109 297.705 595 298.004 595C298.33 595 298.6 595.109 298.813 595.327C299.031 595.54 299.14 595.81 299.14 596.136C299.14 596.435 299.031 596.7 298.813 596.932C298.6 597.159 298.33 597.273 298.004 597.273ZM303.46 610V599.091H305.079V600.739H305.193C305.392 600.199 305.752 599.761 306.272 599.425C306.793 599.089 307.38 598.92 308.034 598.92C308.157 598.92 308.311 598.923 308.495 598.928C308.68 598.932 308.82 598.939 308.914 598.949V600.653C308.858 600.639 308.727 600.618 308.524 600.589C308.325 600.556 308.114 600.54 307.892 600.54C307.361 600.54 306.888 600.651 306.471 600.874C306.059 601.091 305.733 601.394 305.491 601.783C305.254 602.166 305.136 602.604 305.136 603.097V610H303.46ZM317.776 605.54V599.091H319.452V610H317.776V608.153H317.663C317.407 608.707 317.009 609.179 316.469 609.567C315.93 609.95 315.248 610.142 314.424 610.142C313.742 610.142 313.136 609.993 312.606 609.695C312.076 609.392 311.659 608.937 311.356 608.331C311.053 607.72 310.901 606.951 310.901 606.023V599.091H312.577V605.909C312.577 606.705 312.8 607.339 313.245 607.812C313.695 608.286 314.268 608.523 314.964 608.523C315.38 608.523 315.804 608.416 316.235 608.203C316.671 607.99 317.035 607.663 317.329 607.223C317.627 606.783 317.776 606.222 317.776 605.54ZM313.146 597.273C312.847 597.273 312.582 597.159 312.35 596.932C312.123 596.7 312.009 596.435 312.009 596.136C312.009 595.81 312.123 595.54 312.35 595.327C312.582 595.109 312.847 595 313.146 595C313.472 595 313.742 595.109 313.955 595.327C314.173 595.54 314.282 595.81 314.282 596.136C314.282 596.435 314.173 596.7 313.955 596.932C313.742 597.159 313.472 597.273 313.146 597.273ZM317.237 597.273C316.938 597.273 316.673 597.159 316.441 596.932C316.214 596.7 316.1 596.435 316.1 596.136C316.1 595.81 316.214 595.54 316.441 595.327C316.673 595.109 316.938 595 317.237 595C317.563 595 317.833 595.109 318.046 595.327C318.264 595.54 318.373 595.81 318.373 596.136C318.373 596.435 318.264 596.7 318.046 596.932C317.833 597.159 317.563 597.273 317.237 597.273ZM324.199 603.438V610H322.522V599.091H324.142V600.795H324.284C324.539 600.241 324.928 599.796 325.449 599.46C325.969 599.119 326.642 598.949 327.466 598.949C328.204 598.949 328.85 599.1 329.404 599.403C329.958 599.702 330.389 600.156 330.697 600.767C331.005 601.373 331.159 602.14 331.159 603.068V610H329.483V603.182C329.483 602.325 329.26 601.657 328.815 601.179C328.37 600.696 327.759 600.455 326.983 600.455C326.448 600.455 325.969 600.571 325.548 600.803C325.131 601.035 324.802 601.373 324.561 601.818C324.319 602.263 324.199 602.803 324.199 603.438ZM341.097 605.54V599.091H342.773V610H341.097V608.153H340.983C340.727 608.707 340.33 609.179 339.79 609.567C339.25 609.95 338.568 610.142 337.744 610.142C337.062 610.142 336.456 609.993 335.926 609.695C335.396 609.392 334.979 608.937 334.676 608.331C334.373 607.72 334.222 606.951 334.222 606.023V599.091H335.898V605.909C335.898 606.705 336.12 607.339 336.565 607.812C337.015 608.286 337.588 608.523 338.284 608.523C338.701 608.523 339.125 608.416 339.555 608.203C339.991 607.99 340.356 607.663 340.649 607.223C340.947 606.783 341.097 606.222 341.097 605.54ZM336.466 597.273C336.168 597.273 335.902 597.159 335.67 596.932C335.443 596.7 335.33 596.435 335.33 596.136C335.33 595.81 335.443 595.54 335.67 595.327C335.902 595.109 336.168 595 336.466 595C336.793 595 337.063 595.109 337.276 595.327C337.493 595.54 337.602 595.81 337.602 596.136C337.602 596.435 337.493 596.7 337.276 596.932C337.063 597.159 336.793 597.273 336.466 597.273ZM340.557 597.273C340.259 597.273 339.993 597.159 339.761 596.932C339.534 596.7 339.42 596.435 339.42 596.136C339.42 595.81 339.534 595.54 339.761 595.327C339.993 595.109 340.259 595 340.557 595C340.884 595 341.153 595.109 341.366 595.327C341.584 595.54 341.693 595.81 341.693 596.136C341.693 596.435 341.584 596.7 341.366 596.932C341.153 597.159 340.884 597.273 340.557 597.273ZM345.843 610V599.091H347.462V600.795H347.604C347.831 600.213 348.198 599.761 348.705 599.439C349.212 599.112 349.82 598.949 350.53 598.949C351.25 598.949 351.849 599.112 352.327 599.439C352.81 599.761 353.186 600.213 353.456 600.795H353.57C353.849 600.232 354.268 599.785 354.827 599.453C355.386 599.117 356.056 598.949 356.837 598.949C357.812 598.949 358.61 599.254 359.23 599.865C359.851 600.471 360.161 601.416 360.161 602.699V610H358.485V602.699C358.485 601.894 358.265 601.319 357.824 600.973C357.384 600.627 356.865 600.455 356.269 600.455C355.502 600.455 354.908 600.687 354.486 601.151C354.065 601.61 353.854 602.192 353.854 602.898V610H352.15V602.528C352.15 601.908 351.948 601.409 351.546 601.03C351.143 600.646 350.625 600.455 349.99 600.455C349.555 600.455 349.148 600.571 348.769 600.803C348.395 601.035 348.092 601.357 347.86 601.768C347.632 602.176 347.519 602.647 347.519 603.182V610H345.843ZM364.902 595.455V610H363.225V595.455H364.902ZM372.545 610.227C371.494 610.227 370.588 609.995 369.825 609.531C369.068 609.062 368.483 608.409 368.071 607.571C367.664 606.728 367.46 605.748 367.46 604.631C367.46 603.513 367.664 602.528 368.071 601.676C368.483 600.819 369.056 600.152 369.79 599.673C370.528 599.19 371.39 598.949 372.375 598.949C372.943 598.949 373.504 599.044 374.058 599.233C374.612 599.422 375.116 599.73 375.571 600.156C376.026 600.578 376.388 601.136 376.658 601.832C376.928 602.528 377.062 603.385 377.062 604.403V605.114H368.653V603.665H375.358C375.358 603.049 375.235 602.5 374.989 602.017C374.747 601.534 374.402 601.153 373.952 600.874C373.507 600.594 372.981 600.455 372.375 600.455C371.707 600.455 371.13 600.62 370.642 600.952C370.159 601.278 369.787 601.705 369.527 602.23C369.267 602.756 369.136 603.319 369.136 603.92V604.886C369.136 605.71 369.278 606.409 369.562 606.982C369.851 607.55 370.251 607.983 370.763 608.281C371.274 608.575 371.868 608.722 372.545 608.722C372.986 608.722 373.384 608.66 373.739 608.537C374.098 608.409 374.409 608.22 374.669 607.969C374.929 607.713 375.131 607.396 375.273 607.017L376.892 607.472C376.722 608.021 376.435 608.504 376.033 608.92C375.63 609.332 375.133 609.654 374.541 609.886C373.949 610.114 373.284 610.227 372.545 610.227ZM379.612 610V599.091H381.232V600.739H381.345C381.544 600.199 381.904 599.761 382.425 599.425C382.946 599.089 383.533 598.92 384.186 598.92C384.309 598.92 384.463 598.923 384.648 598.928C384.832 598.932 384.972 598.939 385.067 598.949V600.653C385.01 600.639 384.88 600.618 384.676 600.589C384.477 600.556 384.267 600.54 384.044 600.54C383.514 600.54 383.04 600.651 382.624 600.874C382.212 601.091 381.885 601.394 381.643 601.783C381.407 602.166 381.288 602.604 381.288 603.097V610H379.612ZM392.679 610V599.091H394.355V610H392.679ZM393.531 597.273C393.204 597.273 392.922 597.161 392.686 596.939C392.454 596.716 392.338 596.449 392.338 596.136C392.338 595.824 392.454 595.556 392.686 595.334C392.922 595.111 393.204 595 393.531 595C393.858 595 394.137 595.111 394.369 595.334C394.606 595.556 394.724 595.824 394.724 596.136C394.724 596.449 394.606 596.716 394.369 596.939C394.137 597.161 393.858 597.273 393.531 597.273ZM401.857 610.227C400.834 610.227 399.953 609.986 399.214 609.503C398.476 609.02 397.908 608.355 397.51 607.507C397.112 606.66 396.913 605.691 396.913 604.602C396.913 603.494 397.117 602.517 397.524 601.669C397.936 600.817 398.509 600.152 399.243 599.673C399.982 599.19 400.843 598.949 401.828 598.949C402.595 598.949 403.286 599.091 403.902 599.375C404.518 599.659 405.022 600.057 405.415 600.568C405.808 601.08 406.052 601.676 406.146 602.358H404.47C404.342 601.861 404.058 601.42 403.618 601.037C403.182 600.649 402.595 600.455 401.857 600.455C401.203 600.455 400.63 600.625 400.138 600.966C399.65 601.302 399.269 601.778 398.994 602.393C398.724 603.004 398.589 603.722 398.589 604.545C398.589 605.388 398.722 606.122 398.987 606.747C399.257 607.372 399.636 607.857 400.124 608.203C400.616 608.549 401.194 608.722 401.857 608.722C402.292 608.722 402.688 608.646 403.043 608.494C403.398 608.343 403.698 608.125 403.945 607.841C404.191 607.557 404.366 607.216 404.47 606.818H406.146C406.052 607.462 405.817 608.042 405.443 608.558C405.074 609.07 404.584 609.477 403.973 609.78C403.367 610.078 402.661 610.227 401.857 610.227ZM401.061 609.943H402.453L402.339 610.511C402.709 610.568 403.047 610.722 403.355 610.973C403.663 611.229 403.817 611.634 403.817 612.188C403.817 612.798 403.563 613.295 403.057 613.679C402.555 614.067 401.814 614.261 400.834 614.261L400.777 613.153C401.217 613.153 401.582 613.082 401.871 612.94C402.164 612.803 402.311 612.571 402.311 612.244C402.311 611.918 402.19 611.695 401.949 611.577C401.707 611.458 401.317 611.378 400.777 611.335L401.061 609.943ZM408.597 610V599.091H410.273V610H408.597ZM409.449 597.273C409.122 597.273 408.84 597.161 408.604 596.939C408.372 596.716 408.256 596.449 408.256 596.136C408.256 595.824 408.372 595.556 408.604 595.334C408.84 595.111 409.122 595 409.449 595C409.776 595 410.055 595.111 410.287 595.334C410.524 595.556 410.642 595.824 410.642 596.136C410.642 596.449 410.524 596.716 410.287 596.939C410.055 597.161 409.776 597.273 409.449 597.273ZM415.019 603.438V610H413.343V599.091H414.962V600.795H415.104C415.36 600.241 415.748 599.796 416.269 599.46C416.79 599.119 417.462 598.949 418.286 598.949C419.025 598.949 419.671 599.1 420.225 599.403C420.779 599.702 421.21 600.156 421.517 600.767C421.825 601.373 421.979 602.14 421.979 603.068V610H420.303V603.182C420.303 602.325 420.08 601.657 419.635 601.179C419.19 600.696 418.579 600.455 417.803 600.455C417.268 600.455 416.79 600.571 416.368 600.803C415.952 601.035 415.623 601.373 415.381 601.818C415.14 602.263 415.019 602.803 415.019 603.438ZM435.411 599.091V600.511H429.758V599.091H435.411ZM431.406 596.477H433.082V606.875C433.082 607.348 433.15 607.704 433.288 607.94C433.43 608.172 433.61 608.329 433.827 608.409C434.05 608.485 434.284 608.523 434.531 608.523C434.715 608.523 434.867 608.513 434.985 608.494C435.103 608.471 435.198 608.452 435.269 608.438L435.61 609.943C435.496 609.986 435.338 610.028 435.134 610.071C434.931 610.118 434.673 610.142 434.36 610.142C433.887 610.142 433.423 610.04 432.968 609.837C432.518 609.633 432.144 609.323 431.846 608.906C431.552 608.49 431.406 607.964 431.406 607.33V596.477ZM443.792 602.983V604.545H437.428V602.983H443.792ZM454.468 601.534L452.963 601.96C452.868 601.709 452.728 601.465 452.544 601.229C452.364 600.987 452.118 600.788 451.805 600.632C451.493 600.476 451.092 600.398 450.605 600.398C449.937 600.398 449.381 600.552 448.936 600.859C448.495 601.162 448.275 601.548 448.275 602.017C448.275 602.434 448.427 602.763 448.73 603.004C449.033 603.246 449.506 603.447 450.15 603.608L451.77 604.006C452.745 604.242 453.472 604.605 453.95 605.092C454.428 605.575 454.667 606.198 454.667 606.96C454.667 607.585 454.487 608.144 454.127 608.636C453.772 609.129 453.275 609.517 452.636 609.801C451.997 610.085 451.253 610.227 450.406 610.227C449.293 610.227 448.372 609.986 447.643 609.503C446.914 609.02 446.452 608.314 446.258 607.386L447.849 606.989C448.001 607.576 448.287 608.016 448.708 608.31C449.135 608.603 449.691 608.75 450.377 608.75C451.159 608.75 451.779 608.584 452.238 608.253C452.702 607.917 452.934 607.514 452.934 607.045C452.934 606.667 452.802 606.349 452.537 606.094C452.271 605.833 451.864 605.639 451.315 605.511L449.497 605.085C448.498 604.848 447.764 604.482 447.295 603.984C446.831 603.482 446.599 602.855 446.599 602.102C446.599 601.487 446.772 600.942 447.118 600.469C447.468 599.995 447.944 599.624 448.545 599.354C449.151 599.084 449.838 598.949 450.605 598.949C451.684 598.949 452.532 599.186 453.147 599.659C453.768 600.133 454.208 600.758 454.468 601.534ZM458.866 603.438V610H457.19V595.455H458.866V600.795H459.009C459.264 600.232 459.648 599.785 460.159 599.453C460.675 599.117 461.362 598.949 462.219 598.949C462.962 598.949 463.613 599.098 464.172 599.396C464.731 599.69 465.164 600.142 465.472 600.753C465.784 601.359 465.94 602.131 465.94 603.068V610H464.264V603.182C464.264 602.315 464.039 601.645 463.589 601.172C463.144 600.694 462.527 600.455 461.736 600.455C461.187 600.455 460.694 600.571 460.259 600.803C459.828 601.035 459.487 601.373 459.236 601.818C458.99 602.263 458.866 602.803 458.866 603.438ZM469.007 610V599.091H470.683V610H469.007ZM469.859 597.273C469.532 597.273 469.251 597.161 469.014 596.939C468.782 596.716 468.666 596.449 468.666 596.136C468.666 595.824 468.782 595.556 469.014 595.334C469.251 595.111 469.532 595 469.859 595C470.186 595 470.465 595.111 470.697 595.334C470.934 595.556 471.052 595.824 471.052 596.136C471.052 596.449 470.934 596.716 470.697 596.939C470.465 597.161 470.186 597.273 469.859 597.273ZM473.753 610V599.091H475.372V600.739H475.486C475.685 600.199 476.045 599.761 476.565 599.425C477.086 599.089 477.673 598.92 478.327 598.92C478.45 598.92 478.604 598.923 478.788 598.928C478.973 598.932 479.113 598.939 479.207 598.949V600.653C479.151 600.639 479.02 600.618 478.817 600.589C478.618 600.556 478.407 600.54 478.185 600.54C477.654 600.54 477.181 600.651 476.764 600.874C476.352 601.091 476.026 601.394 475.784 601.783C475.547 602.166 475.429 602.604 475.429 603.097V610H473.753ZM486.622 599.091V600.511H480.969V599.091H486.622ZM482.616 596.477H484.293V606.875C484.293 607.348 484.361 607.704 484.499 607.94C484.641 608.172 484.821 608.329 485.038 608.409C485.261 608.485 485.495 608.523 485.741 608.523C485.926 608.523 486.078 608.513 486.196 608.494C486.314 608.471 486.409 608.452 486.48 608.438L486.821 609.943C486.707 609.986 486.549 610.028 486.345 610.071C486.142 610.118 485.884 610.142 485.571 610.142C485.098 610.142 484.634 610.04 484.179 609.837C483.729 609.633 483.355 609.323 483.057 608.906C482.763 608.49 482.616 607.964 482.616 607.33V596.477ZM491.187 595.455V596.733C491.187 597.121 491.116 597.536 490.974 597.976C490.837 598.411 490.633 598.835 490.363 599.247C490.098 599.654 489.776 600.009 489.397 600.312L488.488 599.574C488.787 599.148 489.045 598.705 489.262 598.246C489.485 597.782 489.596 597.287 489.596 596.761V595.455H491.187ZM495.077 595.455V610H493.401V595.455H495.077ZM502.721 610.227C501.67 610.227 500.763 609.995 500.001 609.531C499.243 609.062 498.659 608.409 498.247 607.571C497.84 606.728 497.636 605.748 497.636 604.631C497.636 603.513 497.84 602.528 498.247 601.676C498.659 600.819 499.232 600.152 499.966 599.673C500.704 599.19 501.566 598.949 502.551 598.949C503.119 598.949 503.68 599.044 504.234 599.233C504.788 599.422 505.292 599.73 505.747 600.156C506.201 600.578 506.564 601.136 506.833 601.832C507.103 602.528 507.238 603.385 507.238 604.403V605.114H498.829V603.665H505.534C505.534 603.049 505.411 602.5 505.164 602.017C504.923 601.534 504.577 601.153 504.127 600.874C503.682 600.594 503.157 600.455 502.551 600.455C501.883 600.455 501.306 600.62 500.818 600.952C500.335 601.278 499.963 601.705 499.703 602.23C499.442 602.756 499.312 603.319 499.312 603.92V604.886C499.312 605.71 499.454 606.409 499.738 606.982C500.027 607.55 500.427 607.983 500.939 608.281C501.45 608.575 502.044 608.722 502.721 608.722C503.162 608.722 503.559 608.66 503.914 608.537C504.274 608.409 504.584 608.22 504.845 607.969C505.105 607.713 505.306 607.396 505.449 607.017L507.068 607.472C506.897 608.021 506.611 608.504 506.208 608.92C505.806 609.332 505.309 609.654 504.717 609.886C504.125 610.114 503.46 610.227 502.721 610.227ZM509.788 610V599.091H511.407V600.739H511.521C511.72 600.199 512.08 599.761 512.6 599.425C513.121 599.089 513.708 598.92 514.362 598.92C514.485 598.92 514.639 598.923 514.824 598.928C515.008 598.932 515.148 598.939 515.243 598.949V600.653C515.186 600.639 515.056 600.618 514.852 600.589C514.653 600.556 514.442 600.54 514.22 600.54C513.69 600.54 513.216 600.651 512.799 600.874C512.387 601.091 512.061 601.394 511.819 601.783C511.583 602.166 511.464 602.604 511.464 603.097V610H509.788ZM517.229 610V599.091H518.906V610H517.229ZM518.082 597.273C517.755 597.273 517.473 597.161 517.237 596.939C517.004 596.716 516.888 596.449 516.888 596.136C516.888 595.824 517.004 595.556 517.237 595.334C517.473 595.111 517.755 595 518.082 595C518.408 595 518.688 595.111 518.92 595.334C519.156 595.556 519.275 595.824 519.275 596.136C519.275 596.449 519.156 596.716 518.92 596.939C518.688 597.161 518.408 597.273 518.082 597.273ZM529.163 606.023L529.135 603.949H529.475L534.248 599.091H536.322L531.237 604.233H531.095L529.163 606.023ZM527.6 610V595.455H529.277V610H527.6ZM534.532 610L530.271 604.602L531.464 603.438L536.663 610H534.532ZM542.604 610.227C541.553 610.227 540.646 609.995 539.884 609.531C539.126 609.062 538.542 608.409 538.13 607.571C537.722 606.728 537.519 605.748 537.519 604.631C537.519 603.513 537.722 602.528 538.13 601.676C538.542 600.819 539.114 600.152 539.848 599.673C540.587 599.19 541.449 598.949 542.434 598.949C543.002 598.949 543.563 599.044 544.117 599.233C544.671 599.422 545.175 599.73 545.63 600.156C546.084 600.578 546.446 601.136 546.716 601.832C546.986 602.528 547.121 603.385 547.121 604.403V605.114H538.712V603.665H545.417C545.417 603.049 545.293 602.5 545.047 602.017C544.806 601.534 544.46 601.153 544.01 600.874C543.565 600.594 543.04 600.455 542.434 600.455C541.766 600.455 541.188 600.62 540.701 600.952C540.218 601.278 539.846 601.705 539.586 602.23C539.325 602.756 539.195 603.319 539.195 603.92V604.886C539.195 605.71 539.337 606.409 539.621 606.982C539.91 607.55 540.31 607.983 540.821 608.281C541.333 608.575 541.927 608.722 542.604 608.722C543.044 608.722 543.442 608.66 543.797 608.537C544.157 608.409 544.467 608.22 544.728 607.969C544.988 607.713 545.189 607.396 545.331 607.017L546.951 607.472C546.78 608.021 546.494 608.504 546.091 608.92C545.689 609.332 545.192 609.654 544.6 609.886C544.008 610.114 543.343 610.227 542.604 610.227ZM557.398 601.534L555.892 601.96C555.798 601.709 555.658 601.465 555.473 601.229C555.293 600.987 555.047 600.788 554.735 600.632C554.422 600.476 554.022 600.398 553.534 600.398C552.867 600.398 552.31 600.552 551.865 600.859C551.425 601.162 551.205 601.548 551.205 602.017C551.205 602.434 551.356 602.763 551.659 603.004C551.962 603.246 552.436 603.447 553.08 603.608L554.699 604.006C555.675 604.242 556.401 604.605 556.88 605.092C557.358 605.575 557.597 606.198 557.597 606.96C557.597 607.585 557.417 608.144 557.057 608.636C556.702 609.129 556.205 609.517 555.566 609.801C554.926 610.085 554.183 610.227 553.336 610.227C552.223 610.227 551.302 609.986 550.573 609.503C549.844 609.02 549.382 608.314 549.188 607.386L550.779 606.989C550.93 607.576 551.217 608.016 551.638 608.31C552.064 608.603 552.621 608.75 553.307 608.75C554.088 608.75 554.709 608.584 555.168 608.253C555.632 607.917 555.864 607.514 555.864 607.045C555.864 606.667 555.731 606.349 555.466 606.094C555.201 605.833 554.794 605.639 554.245 605.511L552.426 605.085C551.427 604.848 550.694 604.482 550.225 603.984C549.761 603.482 549.529 602.855 549.529 602.102C549.529 601.487 549.702 600.942 550.047 600.469C550.398 599.995 550.873 599.624 551.475 599.354C552.081 599.084 552.767 598.949 553.534 598.949C554.614 598.949 555.462 599.186 556.077 599.659C556.697 600.133 557.138 600.758 557.398 601.534ZM552.711 609.943H554.103L553.989 610.511C554.358 610.568 554.697 610.722 555.005 610.973C555.312 611.229 555.466 611.634 555.466 612.188C555.466 612.798 555.213 613.295 554.706 613.679C554.204 614.067 553.463 614.261 552.483 614.261L552.426 613.153C552.867 613.153 553.231 613.082 553.52 612.94C553.814 612.803 553.961 612.571 553.961 612.244C553.961 611.918 553.84 611.695 553.598 611.577C553.357 611.458 552.966 611.378 552.426 611.335L552.711 609.943ZM564.978 599.091V600.511H559.097V599.091H564.978ZM560.859 610V597.585C560.859 596.96 561.005 596.439 561.299 596.023C561.593 595.606 561.974 595.294 562.442 595.085C562.911 594.877 563.406 594.773 563.927 594.773C564.339 594.773 564.675 594.806 564.935 594.872C565.196 594.938 565.39 595 565.518 595.057L565.035 596.506C564.95 596.477 564.831 596.442 564.68 596.399C564.533 596.357 564.339 596.335 564.097 596.335C563.543 596.335 563.143 596.475 562.897 596.754C562.656 597.034 562.535 597.443 562.535 597.983V610H560.859ZM571.452 610.227C570.401 610.227 569.494 609.995 568.732 609.531C567.974 609.062 567.389 608.409 566.977 607.571C566.57 606.728 566.366 605.748 566.366 604.631C566.366 603.513 566.57 602.528 566.977 601.676C567.389 600.819 567.962 600.152 568.696 599.673C569.435 599.19 570.296 598.949 571.281 598.949C571.849 598.949 572.411 599.044 572.964 599.233C573.518 599.422 574.023 599.73 574.477 600.156C574.932 600.578 575.294 601.136 575.564 601.832C575.834 602.528 575.969 603.385 575.969 604.403V605.114H567.56V603.665H574.264C574.264 603.049 574.141 602.5 573.895 602.017C573.653 601.534 573.308 601.153 572.858 600.874C572.413 600.594 571.887 600.455 571.281 600.455C570.614 600.455 570.036 600.62 569.548 600.952C569.065 601.278 568.694 601.705 568.433 602.23C568.173 602.756 568.043 603.319 568.043 603.92V604.886C568.043 605.71 568.185 606.409 568.469 606.982C568.758 607.55 569.158 607.983 569.669 608.281C570.18 608.575 570.775 608.722 571.452 608.722C571.892 608.722 572.29 608.66 572.645 608.537C573.005 608.409 573.315 608.22 573.575 607.969C573.836 607.713 574.037 607.396 574.179 607.017L575.798 607.472C575.628 608.021 575.341 608.504 574.939 608.92C574.536 609.332 574.039 609.654 573.447 609.886C572.856 610.114 572.19 610.227 571.452 610.227ZM583.263 599.091V600.511H577.609V599.091H583.263ZM579.257 596.477H580.933V606.875C580.933 607.348 581.002 607.704 581.139 607.94C581.281 608.172 581.461 608.329 581.679 608.409C581.902 608.485 582.136 608.523 582.382 608.523C582.567 608.523 582.718 608.513 582.837 608.494C582.955 608.471 583.05 608.452 583.121 608.438L583.462 609.943C583.348 609.986 583.189 610.028 582.986 610.071C582.782 610.118 582.524 610.142 582.212 610.142C581.738 610.142 581.274 610.04 580.82 609.837C580.37 609.633 579.996 609.323 579.697 608.906C579.404 608.49 579.257 607.964 579.257 607.33V596.477ZM588 595.455L587.858 605.909H586.21L586.068 595.455H588ZM587.034 610.114C586.684 610.114 586.383 609.988 586.132 609.737C585.881 609.486 585.756 609.186 585.756 608.835C585.756 608.485 585.881 608.184 586.132 607.933C586.383 607.682 586.684 607.557 587.034 607.557C587.384 607.557 587.685 607.682 587.936 607.933C588.187 608.184 588.312 608.485 588.312 608.835C588.312 609.067 588.253 609.28 588.135 609.474C588.021 609.669 587.867 609.825 587.673 609.943C587.484 610.057 587.271 610.114 587.034 610.114Z" fill="white"/>
</svg>
