<svg width="950" height="950" viewBox="0 0 950 950" fill="none" xmlns="http://www.w3.org/2000/svg">
<path d="M39.2017 468.359V463.636H67.3445V468.359H55.9986V500H50.5298V468.359H39.2017ZM78.4462 483.807V500H73.1373V463.636H78.3752V477.166H78.7125C79.3517 475.698 80.3283 474.532 81.6422 473.668C82.9561 472.804 84.6725 472.372 86.7914 472.372C88.6616 472.372 90.2952 472.757 91.6919 473.526C93.1006 474.296 94.1896 475.444 94.959 476.971C95.7402 478.486 96.1309 480.38 96.1309 482.653V500H90.8219V483.292C90.8219 481.291 90.307 479.741 89.2772 478.64C88.2473 477.527 86.815 476.971 84.9803 476.971C83.7256 476.971 82.601 477.237 81.6067 477.77C80.6242 478.303 79.8489 479.084 79.2807 480.114C78.7244 481.132 78.4462 482.363 78.4462 483.807ZM114.97 500.55C112.283 500.55 109.968 499.976 108.027 498.828C106.098 497.668 104.606 496.04 103.553 493.945C102.511 491.838 101.99 489.37 101.99 486.541C101.99 483.748 102.511 481.286 103.553 479.155C104.606 477.024 106.074 475.361 107.956 474.165C109.85 472.97 112.064 472.372 114.597 472.372C116.136 472.372 117.627 472.627 119.071 473.136C120.515 473.645 121.811 474.444 122.96 475.533C124.108 476.622 125.013 478.036 125.676 479.776C126.339 481.504 126.671 483.606 126.671 486.08V487.962H104.991V483.984H121.468C121.468 482.588 121.184 481.351 120.616 480.273C120.048 479.184 119.249 478.326 118.219 477.699C117.201 477.071 116.005 476.758 114.632 476.758C113.141 476.758 111.839 477.125 110.726 477.859C109.625 478.581 108.773 479.528 108.169 480.7C107.577 481.86 107.281 483.12 107.281 484.482V487.589C107.281 489.412 107.601 490.962 108.24 492.241C108.891 493.519 109.797 494.496 110.957 495.17C112.117 495.833 113.472 496.165 115.023 496.165C116.029 496.165 116.946 496.023 117.775 495.739C118.604 495.443 119.32 495.005 119.923 494.425C120.527 493.845 120.989 493.129 121.308 492.276L126.333 493.182C125.931 494.661 125.209 495.958 124.167 497.07C123.137 498.171 121.841 499.029 120.279 499.645C118.728 500.249 116.958 500.55 114.97 500.55ZM144.426 468.359V463.636H172.569V468.359H161.223V500H155.754V468.359H144.426ZM186.161 500.55C183.474 500.55 181.16 499.976 179.219 498.828C177.289 497.668 175.798 496.04 174.744 493.945C173.702 491.838 173.182 489.37 173.182 486.541C173.182 483.748 173.702 481.286 174.744 479.155C175.798 477.024 177.265 475.361 179.148 474.165C181.041 472.97 183.255 472.372 185.788 472.372C187.327 472.372 188.818 472.627 190.263 473.136C191.707 473.645 193.003 474.444 194.151 475.533C195.299 476.622 196.205 478.036 196.868 479.776C197.531 481.504 197.862 483.606 197.862 486.08V487.962H176.182V483.984H192.66C192.66 482.588 192.376 481.351 191.807 480.273C191.239 479.184 190.44 478.326 189.41 477.699C188.392 477.071 187.197 476.758 185.824 476.758C184.332 476.758 183.03 477.125 181.917 477.859C180.817 478.581 179.964 479.528 179.361 480.7C178.769 481.86 178.473 483.12 178.473 484.482V487.589C178.473 489.412 178.792 490.962 179.432 492.241C180.083 493.519 180.988 494.496 182.148 495.17C183.308 495.833 184.664 496.165 186.214 496.165C187.22 496.165 188.138 496.023 188.966 495.739C189.795 495.443 190.511 495.005 191.115 494.425C191.719 493.845 192.18 493.129 192.5 492.276L197.525 493.182C197.122 494.661 196.4 495.958 195.358 497.07C194.329 498.171 193.032 499.029 191.47 499.645C189.919 500.249 188.15 500.55 186.161 500.55ZM215.507 500.55C212.82 500.55 210.506 499.976 208.564 498.828C206.635 497.668 205.143 496.04 204.09 493.945C203.048 491.838 202.527 489.37 202.527 486.541C202.527 483.748 203.048 481.286 204.09 479.155C205.143 477.024 206.611 475.361 208.493 474.165C210.387 472.97 212.601 472.372 215.134 472.372C216.673 472.372 218.164 472.627 219.608 473.136C221.052 473.645 222.349 474.444 223.497 475.533C224.645 476.622 225.551 478.036 226.213 479.776C226.876 481.504 227.208 483.606 227.208 486.08V487.962H205.528V483.984H222.005C222.005 482.588 221.721 481.351 221.153 480.273C220.585 479.184 219.786 478.326 218.756 477.699C217.738 477.071 216.542 476.758 215.169 476.758C213.678 476.758 212.376 477.125 211.263 477.859C210.162 478.581 209.31 479.528 208.706 480.7C208.114 481.86 207.819 483.12 207.819 484.482V487.589C207.819 489.412 208.138 490.962 208.777 492.241C209.428 493.519 210.334 494.496 211.494 495.17C212.654 495.833 214.009 496.165 215.56 496.165C216.566 496.165 217.484 496.023 218.312 495.739C219.141 495.443 219.857 495.005 220.461 494.425C221.064 493.845 221.526 493.129 221.846 492.276L226.87 493.182C226.468 494.661 225.746 495.958 224.704 497.07C223.674 498.171 222.378 499.029 220.816 499.645C219.265 500.249 217.495 500.55 215.507 500.55ZM266.59 473.189C266.4 471.508 265.619 470.206 264.246 469.283C262.873 468.348 261.145 467.88 259.061 467.88C257.57 467.88 256.28 468.117 255.191 468.59C254.102 469.052 253.255 469.691 252.652 470.508C252.06 471.313 251.764 472.23 251.764 473.26C251.764 474.124 251.965 474.87 252.368 475.497C252.782 476.125 253.32 476.651 253.983 477.077C254.658 477.492 255.38 477.841 256.15 478.125C256.919 478.397 257.659 478.622 258.369 478.8L261.92 479.723C263.08 480.007 264.27 480.392 265.489 480.877C266.708 481.362 267.839 482.002 268.88 482.795C269.922 483.588 270.762 484.57 271.402 485.742C272.053 486.914 272.378 488.317 272.378 489.95C272.378 492.01 271.846 493.839 270.78 495.437C269.727 497.035 268.194 498.295 266.181 499.219C264.181 500.142 261.76 500.604 258.919 500.604C256.197 500.604 253.841 500.172 251.853 499.308C249.864 498.443 248.307 497.218 247.183 495.632C246.058 494.034 245.437 492.14 245.319 489.95H250.823C250.929 491.264 251.355 492.359 252.101 493.235C252.859 494.099 253.824 494.744 254.995 495.17C256.179 495.585 257.475 495.792 258.884 495.792C260.435 495.792 261.814 495.549 263.021 495.064C264.24 494.567 265.199 493.88 265.897 493.004C266.596 492.116 266.945 491.081 266.945 489.897C266.945 488.82 266.637 487.938 266.022 487.251C265.418 486.565 264.595 485.997 263.554 485.547C262.524 485.097 261.358 484.701 260.056 484.357L255.759 483.185C252.847 482.392 250.539 481.226 248.834 479.688C247.141 478.149 246.295 476.113 246.295 473.58C246.295 471.484 246.863 469.656 248 468.093C249.136 466.531 250.675 465.317 252.616 464.453C254.557 463.577 256.747 463.139 259.186 463.139C261.648 463.139 263.82 463.571 265.702 464.435C267.596 465.299 269.087 466.489 270.176 468.004C271.266 469.508 271.834 471.236 271.881 473.189H266.59ZM283.817 483.807V500H278.508V463.636H283.746V477.166H284.084C284.723 475.698 285.699 474.532 287.013 473.668C288.327 472.804 290.044 472.372 292.162 472.372C294.033 472.372 295.666 472.757 297.063 473.526C298.472 474.296 299.561 475.444 300.33 476.971C301.111 478.486 301.502 480.38 301.502 482.653V500H296.193V483.292C296.193 481.291 295.678 479.741 294.648 478.64C293.618 477.527 292.186 476.971 290.351 476.971C289.097 476.971 287.972 477.237 286.978 477.77C285.995 478.303 285.22 479.084 284.652 480.114C284.095 481.132 283.817 482.363 283.817 483.807ZM320.074 500.55C317.518 500.55 315.286 499.964 313.381 498.793C311.475 497.621 309.995 495.981 308.942 493.874C307.888 491.767 307.361 489.305 307.361 486.488C307.361 483.659 307.888 481.185 308.942 479.066C309.995 476.947 311.475 475.302 313.381 474.13C315.286 472.958 317.518 472.372 320.074 472.372C322.631 472.372 324.863 472.958 326.768 474.13C328.674 475.302 330.154 476.947 331.207 479.066C332.261 481.185 332.787 483.659 332.787 486.488C332.787 489.305 332.261 491.767 331.207 493.874C330.154 495.981 328.674 497.621 326.768 498.793C324.863 499.964 322.631 500.55 320.074 500.55ZM320.092 496.094C321.749 496.094 323.122 495.656 324.211 494.78C325.3 493.904 326.105 492.738 326.626 491.282C327.159 489.826 327.425 488.222 327.425 486.47C327.425 484.73 327.159 483.132 326.626 481.676C326.105 480.208 325.3 479.031 324.211 478.143C323.122 477.255 321.749 476.811 320.092 476.811C318.423 476.811 317.038 477.255 315.937 478.143C314.848 479.031 314.037 480.208 313.505 481.676C312.984 483.132 312.724 484.73 312.724 486.47C312.724 488.222 312.984 489.826 313.505 491.282C314.037 492.738 314.848 493.904 315.937 494.78C317.038 495.656 318.423 496.094 320.092 496.094ZM338.713 510.227V472.727H343.898V477.148H344.342C344.65 476.58 345.094 475.923 345.674 475.178C346.254 474.432 347.059 473.781 348.088 473.224C349.118 472.656 350.48 472.372 352.172 472.372C354.374 472.372 356.339 472.929 358.067 474.041C359.795 475.154 361.151 476.758 362.133 478.853C363.127 480.948 363.625 483.469 363.625 486.417C363.625 489.364 363.133 491.892 362.151 493.999C361.168 496.094 359.819 497.71 358.103 498.846C356.386 499.97 354.427 500.533 352.225 500.533C350.568 500.533 349.213 500.254 348.159 499.698C347.118 499.142 346.301 498.491 345.709 497.745C345.117 496.999 344.662 496.336 344.342 495.756H344.022V510.227H338.713ZM343.916 486.364C343.916 488.281 344.194 489.962 344.75 491.406C345.307 492.85 346.112 493.981 347.165 494.798C348.219 495.603 349.509 496.005 351.036 496.005C352.622 496.005 353.948 495.585 355.013 494.744C356.078 493.892 356.883 492.738 357.428 491.282C357.984 489.826 358.262 488.187 358.262 486.364C358.262 484.564 357.99 482.949 357.446 481.516C356.913 480.084 356.108 478.954 355.031 478.125C353.966 477.296 352.634 476.882 351.036 476.882C349.497 476.882 348.195 477.279 347.13 478.072C346.076 478.865 345.277 479.972 344.733 481.392C344.188 482.812 343.916 484.47 343.916 486.364Z" fill="white"/>
<path d="M48.7045 783C48.5483 782.522 48.3423 782.093 48.0866 781.714C47.8357 781.331 47.535 781.004 47.1847 780.734C46.839 780.464 46.446 780.259 46.0057 780.116C45.5653 779.974 45.0824 779.903 44.5568 779.903C43.6951 779.903 42.9115 780.126 42.206 780.571C41.5005 781.016 40.9394 781.672 40.5227 782.538C40.1061 783.405 39.8977 784.468 39.8977 785.727C39.8977 786.987 40.1084 788.05 40.5298 788.916C40.9512 789.783 41.5218 790.438 42.2415 790.884C42.9612 791.329 43.7708 791.551 44.6705 791.551C45.5038 791.551 46.2377 791.374 46.8722 791.018C47.5114 790.659 48.0085 790.152 48.3636 789.499C48.7235 788.84 48.9034 788.066 48.9034 787.176L49.4432 787.29H45.0682V785.727H50.608V787.29C50.608 788.488 50.3523 789.529 49.8409 790.415C49.3343 791.3 48.6335 791.987 47.7386 792.474C46.8485 792.957 45.8258 793.199 44.6705 793.199C43.3826 793.199 42.2509 792.896 41.2756 792.29C40.3049 791.684 39.5473 790.822 39.0028 789.705C38.4631 788.587 38.1932 787.261 38.1932 785.727C38.1932 784.577 38.3471 783.542 38.6548 782.624C38.9673 781.7 39.4077 780.914 39.9759 780.266C40.544 779.617 41.2164 779.12 41.9929 778.774C42.7694 778.429 43.6241 778.256 44.5568 778.256C45.3239 778.256 46.0388 778.372 46.7017 778.604C47.3693 778.831 47.9635 779.155 48.4844 779.577C49.0099 779.993 49.4479 780.493 49.7983 781.075C50.1487 781.653 50.3902 782.295 50.5227 783H48.7045ZM60.2724 788.54V782.091H61.9485V793H60.2724V791.153H60.1587C59.9031 791.707 59.5053 792.179 58.9656 792.567C58.4258 792.95 57.744 793.142 56.9201 793.142C56.2383 793.142 55.6322 792.993 55.1019 792.695C54.5716 792.392 54.1549 791.937 53.8519 791.331C53.5489 790.72 53.3974 789.951 53.3974 789.023V782.091H55.0735V788.909C55.0735 789.705 55.296 790.339 55.7411 790.812C56.1909 791.286 56.7638 791.523 57.4599 791.523C57.8765 791.523 58.3003 791.416 58.7312 791.203C59.1668 790.99 59.5314 790.663 59.8249 790.223C60.1232 789.783 60.2724 789.222 60.2724 788.54ZM55.6417 780.273C55.3434 780.273 55.0782 780.159 54.8462 779.932C54.619 779.7 54.5053 779.435 54.5053 779.136C54.5053 778.81 54.619 778.54 54.8462 778.327C55.0782 778.109 55.3434 778 55.6417 778C55.9684 778 56.2383 778.109 56.4513 778.327C56.6692 778.54 56.7781 778.81 56.7781 779.136C56.7781 779.435 56.6692 779.7 56.4513 779.932C56.2383 780.159 55.9684 780.273 55.6417 780.273ZM59.7326 780.273C59.4343 780.273 59.1692 780.159 58.9371 779.932C58.7099 779.7 58.5962 779.435 58.5962 779.136C58.5962 778.81 58.7099 778.54 58.9371 778.327C59.1692 778.109 59.4343 778 59.7326 778C60.0593 778 60.3292 778.109 60.5423 778.327C60.7601 778.54 60.869 778.81 60.869 779.136C60.869 779.435 60.7601 779.7 60.5423 779.932C60.3292 780.159 60.0593 780.273 59.7326 780.273ZM66.6946 786.438V793H65.0185V782.091H66.6378V783.795H66.7798C67.0355 783.241 67.4238 782.796 67.9446 782.46C68.4654 782.119 69.1378 781.949 69.9616 781.949C70.7003 781.949 71.3466 782.1 71.9006 782.403C72.4545 782.702 72.8854 783.156 73.1932 783.767C73.5009 784.373 73.6548 785.14 73.6548 786.068V793H71.9787V786.182C71.9787 785.325 71.7562 784.657 71.3111 784.179C70.866 783.696 70.2552 783.455 69.4787 783.455C68.9437 783.455 68.4654 783.571 68.044 783.803C67.6274 784.035 67.2983 784.373 67.0568 784.818C66.8153 785.263 66.6946 785.803 66.6946 786.438ZM81.2915 793.227C80.2404 793.227 79.3337 792.995 78.5714 792.531C77.8138 792.062 77.229 791.409 76.8171 790.571C76.4099 789.728 76.2063 788.748 76.2063 787.631C76.2063 786.513 76.4099 785.528 76.8171 784.676C77.229 783.819 77.802 783.152 78.5359 782.673C79.2745 782.19 80.1362 781.949 81.1211 781.949C81.6893 781.949 82.2504 782.044 82.8043 782.233C83.3583 782.422 83.8626 782.73 84.3171 783.156C84.7717 783.578 85.1339 784.136 85.4038 784.832C85.6737 785.528 85.8086 786.385 85.8086 787.403V788.114H77.3995V786.665H84.104C84.104 786.049 83.9809 785.5 83.7347 785.017C83.4933 784.534 83.1476 784.153 82.6978 783.874C82.2527 783.594 81.7272 783.455 81.1211 783.455C80.4535 783.455 79.8758 783.62 79.3881 783.952C78.9052 784.278 78.5335 784.705 78.2731 785.23C78.0127 785.756 77.8825 786.319 77.8825 786.92V787.886C77.8825 788.71 78.0245 789.409 78.3086 789.982C78.5974 790.55 78.9975 790.983 79.5089 791.281C80.0202 791.575 80.6145 791.722 81.2915 791.722C81.7319 791.722 82.1296 791.66 82.4847 791.537C82.8446 791.409 83.1547 791.22 83.4151 790.969C83.6755 790.713 83.8768 790.396 84.0188 790.017L85.6381 790.472C85.4677 791.021 85.1812 791.504 84.7788 791.92C84.3763 792.332 83.8791 792.654 83.2873 792.886C82.6954 793.114 82.0302 793.227 81.2915 793.227ZM96.0856 784.534L94.5799 784.96C94.4852 784.709 94.3455 784.465 94.1609 784.229C93.9809 783.987 93.7347 783.788 93.4222 783.632C93.1097 783.476 92.7096 783.398 92.2219 783.398C91.5543 783.398 90.998 783.552 90.5529 783.859C90.1126 784.162 89.8924 784.548 89.8924 785.017C89.8924 785.434 90.0439 785.763 90.3469 786.004C90.65 786.246 91.1235 786.447 91.7674 786.608L93.3867 787.006C94.3621 787.242 95.0889 787.605 95.5671 788.092C96.0453 788.575 96.2844 789.198 96.2844 789.96C96.2844 790.585 96.1045 791.144 95.7447 791.636C95.3896 792.129 94.8924 792.517 94.2532 792.801C93.614 793.085 92.8706 793.227 92.0231 793.227C90.9104 793.227 89.9895 792.986 89.2603 792.503C88.5311 792.02 88.0695 791.314 87.8754 790.386L89.4663 789.989C89.6178 790.576 89.9042 791.016 90.3256 791.31C90.7518 791.603 91.3081 791.75 91.9947 791.75C92.7759 791.75 93.3962 791.584 93.8555 791.253C94.3195 790.917 94.5515 790.514 94.5515 790.045C94.5515 789.667 94.4189 789.349 94.1538 789.094C93.8886 788.833 93.4814 788.639 92.9322 788.511L91.114 788.085C90.1149 787.848 89.381 787.482 88.9123 786.984C88.4483 786.482 88.2163 785.855 88.2163 785.102C88.2163 784.487 88.3891 783.942 88.7347 783.469C89.0851 782.995 89.561 782.624 90.1623 782.354C90.7683 782.084 91.4549 781.949 92.2219 781.949C93.3015 781.949 94.149 782.186 94.7646 782.659C95.3848 783.133 95.8252 783.758 96.0856 784.534ZM91.3981 792.943H92.7901L92.6765 793.511C93.0458 793.568 93.3844 793.722 93.6921 793.973C93.9999 794.229 94.1538 794.634 94.1538 795.188C94.1538 795.798 93.9004 796.295 93.3938 796.679C92.8919 797.067 92.1509 797.261 91.1708 797.261L91.114 796.153C91.5543 796.153 91.9189 796.082 92.2077 795.94C92.5013 795.803 92.6481 795.571 92.6481 795.244C92.6481 794.918 92.5273 794.695 92.2859 794.577C92.0444 794.458 91.6538 794.378 91.114 794.335L91.3981 792.943ZM100.484 778.455V793H98.8075V778.455H100.484ZM103.554 793V782.091H105.23V793H103.554ZM104.406 780.273C104.079 780.273 103.797 780.161 103.561 779.939C103.329 779.716 103.213 779.449 103.213 779.136C103.213 778.824 103.329 778.556 103.561 778.334C103.797 778.111 104.079 778 104.406 778C104.733 778 105.012 778.111 105.244 778.334C105.481 778.556 105.599 778.824 105.599 779.136C105.599 779.449 105.481 779.716 105.244 779.939C105.012 780.161 104.733 780.273 104.406 780.273ZM118.328 797.318C117.518 797.318 116.822 797.214 116.24 797.006C115.658 796.802 115.172 796.532 114.784 796.196C114.401 795.865 114.095 795.509 113.868 795.131L115.203 794.193C115.355 794.392 115.546 794.619 115.778 794.875C116.01 795.135 116.328 795.36 116.73 795.55C117.137 795.744 117.67 795.841 118.328 795.841C119.209 795.841 119.936 795.628 120.509 795.202C121.081 794.776 121.368 794.108 121.368 793.199V790.983H121.226C121.103 791.182 120.928 791.428 120.7 791.722C120.478 792.01 120.156 792.268 119.734 792.496C119.318 792.718 118.754 792.83 118.044 792.83C117.163 792.83 116.373 792.621 115.672 792.205C114.976 791.788 114.424 791.182 114.017 790.386C113.615 789.591 113.413 788.625 113.413 787.489C113.413 786.371 113.61 785.398 114.003 784.57C114.396 783.736 114.943 783.092 115.643 782.638C116.344 782.179 117.154 781.949 118.072 781.949C118.783 781.949 119.346 782.067 119.763 782.304C120.184 782.536 120.506 782.801 120.729 783.099C120.956 783.393 121.131 783.634 121.254 783.824H121.425V782.091H123.044V793.312C123.044 794.25 122.831 795.012 122.405 795.599C121.983 796.191 121.415 796.625 120.7 796.899C119.99 797.179 119.199 797.318 118.328 797.318ZM118.271 791.324C118.944 791.324 119.512 791.17 119.976 790.862C120.44 790.554 120.793 790.112 121.034 789.534C121.276 788.956 121.396 788.265 121.396 787.46C121.396 786.674 121.278 785.981 121.041 785.379C120.804 784.778 120.454 784.307 119.99 783.966C119.526 783.625 118.953 783.455 118.271 783.455C117.561 783.455 116.969 783.634 116.496 783.994C116.027 784.354 115.674 784.837 115.438 785.443C115.205 786.049 115.089 786.722 115.089 787.46C115.089 788.218 115.208 788.888 115.445 789.47C115.686 790.048 116.041 790.502 116.51 790.834C116.983 791.161 117.571 791.324 118.271 791.324ZM132.987 788.54V782.091H134.663V793H132.987V791.153H132.874C132.618 791.707 132.22 792.179 131.68 792.567C131.141 792.95 130.459 793.142 129.635 793.142C128.953 793.142 128.347 792.993 127.817 792.695C127.286 792.392 126.87 791.937 126.567 791.331C126.264 790.72 126.112 789.951 126.112 789.023V782.091H127.788V788.909C127.788 789.705 128.011 790.339 128.456 790.812C128.906 791.286 129.479 791.523 130.175 791.523C130.591 791.523 131.015 791.416 131.446 791.203C131.882 790.99 132.246 790.663 132.54 790.223C132.838 789.783 132.987 789.222 132.987 788.54ZM128.357 780.273C128.058 780.273 127.793 780.159 127.561 779.932C127.334 779.7 127.22 779.435 127.22 779.136C127.22 778.81 127.334 778.54 127.561 778.327C127.793 778.109 128.058 778 128.357 778C128.683 778 128.953 778.109 129.166 778.327C129.384 778.54 129.493 778.81 129.493 779.136C129.493 779.435 129.384 779.7 129.166 779.932C128.953 780.159 128.683 780.273 128.357 780.273ZM132.447 780.273C132.149 780.273 131.884 780.159 131.652 779.932C131.425 779.7 131.311 779.435 131.311 779.136C131.311 778.81 131.425 778.54 131.652 778.327C131.884 778.109 132.149 778 132.447 778C132.774 778 133.044 778.109 133.257 778.327C133.475 778.54 133.584 778.81 133.584 779.136C133.584 779.435 133.475 779.7 133.257 779.932C133.044 780.159 132.774 780.273 132.447 780.273ZM139.409 786.438V793H137.733V782.091H139.353V783.795H139.495C139.75 783.241 140.139 782.796 140.659 782.46C141.18 782.119 141.853 781.949 142.676 781.949C143.415 781.949 144.061 782.1 144.615 782.403C145.169 782.702 145.6 783.156 145.908 783.767C146.216 784.373 146.37 785.14 146.37 786.068V793H144.694V786.182C144.694 785.325 144.471 784.657 144.026 784.179C143.581 783.696 142.97 783.455 142.194 783.455C141.658 783.455 141.18 783.571 140.759 783.803C140.342 784.035 140.013 784.373 139.772 784.818C139.53 785.263 139.409 785.803 139.409 786.438ZM151.109 778.455V793H149.433V778.455H151.109ZM158.752 793.227C157.701 793.227 156.795 792.995 156.032 792.531C155.275 792.062 154.69 791.409 154.278 790.571C153.871 789.728 153.667 788.748 153.667 787.631C153.667 786.513 153.871 785.528 154.278 784.676C154.69 783.819 155.263 783.152 155.997 782.673C156.735 782.19 157.597 781.949 158.582 781.949C159.15 781.949 159.711 782.044 160.265 782.233C160.819 782.422 161.324 782.73 161.778 783.156C162.233 783.578 162.595 784.136 162.865 784.832C163.135 785.528 163.27 786.385 163.27 787.403V788.114H154.86V786.665H161.565C161.565 786.049 161.442 785.5 161.196 785.017C160.954 784.534 160.609 784.153 160.159 783.874C159.714 783.594 159.188 783.455 158.582 783.455C157.914 783.455 157.337 783.62 156.849 783.952C156.366 784.278 155.994 784.705 155.734 785.23C155.474 785.756 155.343 786.319 155.343 786.92V787.886C155.343 788.71 155.485 789.409 155.77 789.982C156.058 790.55 156.458 790.983 156.97 791.281C157.481 791.575 158.075 791.722 158.752 791.722C159.193 791.722 159.591 791.66 159.946 791.537C160.306 791.409 160.616 791.22 160.876 790.969C161.136 790.713 161.338 790.396 161.48 790.017L163.099 790.472C162.929 791.021 162.642 791.504 162.24 791.92C161.837 792.332 161.34 792.654 160.748 792.886C160.156 793.114 159.491 793.227 158.752 793.227ZM165.819 793V782.091H167.439V783.739H167.552C167.751 783.199 168.111 782.761 168.632 782.425C169.153 782.089 169.74 781.92 170.393 781.92C170.516 781.92 170.67 781.923 170.855 781.928C171.039 781.932 171.179 781.939 171.274 781.949V783.653C171.217 783.639 171.087 783.618 170.883 783.589C170.684 783.556 170.474 783.54 170.251 783.54C169.721 783.54 169.247 783.651 168.831 783.874C168.419 784.091 168.092 784.394 167.85 784.783C167.614 785.166 167.495 785.604 167.495 786.097V793H165.819ZM187.806 782.091L183.772 793H182.067L178.033 782.091H179.852L182.863 790.784H182.977L185.988 782.091H187.806ZM194.202 793.227C193.151 793.227 192.244 792.995 191.482 792.531C190.724 792.062 190.139 791.409 189.727 790.571C189.32 789.728 189.116 788.748 189.116 787.631C189.116 786.513 189.32 785.528 189.727 784.676C190.139 783.819 190.712 783.152 191.446 782.673C192.185 782.19 193.046 781.949 194.031 781.949C194.599 781.949 195.161 782.044 195.714 782.233C196.268 782.422 196.773 782.73 197.227 783.156C197.682 783.578 198.044 784.136 198.314 784.832C198.584 785.528 198.719 786.385 198.719 787.403V788.114H190.31V786.665H197.014C197.014 786.049 196.891 785.5 196.645 785.017C196.403 784.534 196.058 784.153 195.608 783.874C195.163 783.594 194.637 783.455 194.031 783.455C193.364 783.455 192.786 783.62 192.298 783.952C191.815 784.278 191.444 784.705 191.183 785.23C190.923 785.756 190.793 786.319 190.793 786.92V787.886C190.793 788.71 190.935 789.409 191.219 789.982C191.508 790.55 191.908 790.983 192.419 791.281C192.93 791.575 193.525 791.722 194.202 791.722C194.642 791.722 195.04 791.66 195.395 791.537C195.755 791.409 196.065 791.22 196.325 790.969C196.586 790.713 196.787 790.396 196.929 790.017L198.548 790.472C198.378 791.021 198.091 791.504 197.689 791.92C197.286 792.332 196.789 792.654 196.197 792.886C195.606 793.114 194.94 793.227 194.202 793.227ZM206.893 793V782.091H208.513V783.739H208.626C208.825 783.199 209.185 782.761 209.706 782.425C210.227 782.089 210.814 781.92 211.467 781.92C211.59 781.92 211.744 781.923 211.929 781.928C212.114 781.932 212.253 781.939 212.348 781.949V783.653C212.291 783.639 212.161 783.618 211.957 783.589C211.759 783.556 211.548 783.54 211.325 783.54C210.795 783.54 210.321 783.651 209.905 783.874C209.493 784.091 209.166 784.394 208.925 784.783C208.688 785.166 208.57 785.604 208.57 786.097V793H206.893ZM218.577 793.227C217.526 793.227 216.619 792.995 215.857 792.531C215.099 792.062 214.514 791.409 214.102 790.571C213.695 789.728 213.491 788.748 213.491 787.631C213.491 786.513 213.695 785.528 214.102 784.676C214.514 783.819 215.087 783.152 215.821 782.673C216.56 782.19 217.421 781.949 218.406 781.949C218.974 781.949 219.536 782.044 220.089 782.233C220.643 782.422 221.148 782.73 221.602 783.156C222.057 783.578 222.419 784.136 222.689 784.832C222.959 785.528 223.094 786.385 223.094 787.403V788.114H214.685V786.665H221.389C221.389 786.049 221.266 785.5 221.02 785.017C220.778 784.534 220.433 784.153 219.983 783.874C219.538 783.594 219.012 783.455 218.406 783.455C217.739 783.455 217.161 783.62 216.673 783.952C216.19 784.278 215.819 784.705 215.558 785.23C215.298 785.756 215.168 786.319 215.168 786.92V787.886C215.168 788.71 215.31 789.409 215.594 789.982C215.883 790.55 216.283 790.983 216.794 791.281C217.305 791.575 217.9 791.722 218.577 791.722C219.017 791.722 219.415 791.66 219.77 791.537C220.13 791.409 220.44 791.22 220.7 790.969C220.961 790.713 221.162 790.396 221.304 790.017L222.923 790.472C222.753 791.021 222.466 791.504 222.064 791.92C221.661 792.332 221.164 792.654 220.572 792.886C219.981 793.114 219.315 793.227 218.577 793.227ZM227.32 786.438V793H225.643V782.091H227.263V783.795H227.405C227.661 783.241 228.049 782.796 228.57 782.46C229.09 782.119 229.763 781.949 230.587 781.949C231.325 781.949 231.972 782.1 232.526 782.403C233.08 782.702 233.51 783.156 233.818 783.767C234.126 784.373 234.28 785.14 234.28 786.068V793H232.604V786.182C232.604 785.325 232.381 784.657 231.936 784.179C231.491 783.696 230.88 783.455 230.104 783.455C229.569 783.455 229.09 783.571 228.669 783.803C228.252 784.035 227.923 784.373 227.682 784.818C227.44 785.263 227.32 785.803 227.32 786.438ZM238.905 789.023L238.877 786.949H239.218L243.99 782.091H246.064L240.979 787.233H240.837L238.905 789.023ZM237.343 793V778.455H239.019V793H237.343ZM244.275 793L240.013 787.602L241.206 786.438L246.405 793H244.275ZM249.898 778.455V793H248.222V778.455H249.898ZM252.968 793V782.091H254.644V793H252.968ZM253.82 780.273C253.493 780.273 253.212 780.161 252.975 779.939C252.743 779.716 252.627 779.449 252.627 779.136C252.627 778.824 252.743 778.556 252.975 778.334C253.212 778.111 253.493 778 253.82 778C254.147 778 254.426 778.111 254.658 778.334C254.895 778.556 255.013 778.824 255.013 779.136C255.013 779.449 254.895 779.716 254.658 779.939C254.426 780.161 254.147 780.273 253.82 780.273ZM267.742 797.318C266.933 797.318 266.237 797.214 265.654 797.006C265.072 796.802 264.586 796.532 264.198 796.196C263.815 795.865 263.509 795.509 263.282 795.131L264.617 794.193C264.769 794.392 264.96 794.619 265.192 794.875C265.424 795.135 265.742 795.36 266.144 795.55C266.551 795.744 267.084 795.841 267.742 795.841C268.623 795.841 269.35 795.628 269.923 795.202C270.496 794.776 270.782 794.108 270.782 793.199V790.983H270.64C270.517 791.182 270.342 791.428 270.114 791.722C269.892 792.01 269.57 792.268 269.148 792.496C268.732 792.718 268.168 792.83 267.458 792.83C266.577 792.83 265.787 792.621 265.086 792.205C264.39 791.788 263.838 791.182 263.431 790.386C263.029 789.591 262.827 788.625 262.827 787.489C262.827 786.371 263.024 785.398 263.417 784.57C263.81 783.736 264.357 783.092 265.058 782.638C265.758 782.179 266.568 781.949 267.487 781.949C268.197 781.949 268.76 782.067 269.177 782.304C269.598 782.536 269.92 782.801 270.143 783.099C270.37 783.393 270.545 783.634 270.668 783.824H270.839V782.091H272.458V793.312C272.458 794.25 272.245 795.012 271.819 795.599C271.397 796.191 270.829 796.625 270.114 796.899C269.404 797.179 268.613 797.318 267.742 797.318ZM267.685 791.324C268.358 791.324 268.926 791.17 269.39 790.862C269.854 790.554 270.207 790.112 270.448 789.534C270.69 788.956 270.81 788.265 270.81 787.46C270.81 786.674 270.692 785.981 270.455 785.379C270.219 784.778 269.868 784.307 269.404 783.966C268.94 783.625 268.367 783.455 267.685 783.455C266.975 783.455 266.383 783.634 265.91 783.994C265.441 784.354 265.088 784.837 264.852 785.443C264.62 786.049 264.504 786.722 264.504 787.46C264.504 788.218 264.622 788.888 264.859 789.47C265.1 790.048 265.455 790.502 265.924 790.834C266.397 791.161 266.985 791.324 267.685 791.324ZM279.958 793.227C278.973 793.227 278.109 792.993 277.366 792.524C276.627 792.055 276.049 791.4 275.633 790.557C275.221 789.714 275.015 788.729 275.015 787.602C275.015 786.466 275.221 785.474 275.633 784.626C276.049 783.779 276.627 783.121 277.366 782.652C278.109 782.183 278.973 781.949 279.958 781.949C280.943 781.949 281.805 782.183 282.543 782.652C283.287 783.121 283.864 783.779 284.276 784.626C284.693 785.474 284.901 786.466 284.901 787.602C284.901 788.729 284.693 789.714 284.276 790.557C283.864 791.4 283.287 792.055 282.543 792.524C281.805 792.993 280.943 793.227 279.958 793.227ZM279.958 791.722C280.706 791.722 281.322 791.53 281.805 791.146C282.288 790.763 282.645 790.259 282.877 789.634C283.109 789.009 283.225 788.331 283.225 787.602C283.225 786.873 283.109 786.194 282.877 785.564C282.645 784.934 282.288 784.425 281.805 784.037C281.322 783.649 280.706 783.455 279.958 783.455C279.21 783.455 278.594 783.649 278.112 784.037C277.629 784.425 277.271 784.934 277.039 785.564C276.807 786.194 276.691 786.873 276.691 787.602C276.691 788.331 276.807 789.009 277.039 789.634C277.271 790.259 277.629 790.763 278.112 791.146C278.594 791.53 279.21 791.722 279.958 791.722ZM277.913 780.273C277.614 780.273 277.349 780.159 277.117 779.932C276.89 779.7 276.776 779.435 276.776 779.136C276.776 778.81 276.89 778.54 277.117 778.327C277.349 778.109 277.614 778 277.913 778C278.239 778 278.509 778.109 278.722 778.327C278.94 778.54 279.049 778.81 279.049 779.136C279.049 779.435 278.94 779.7 278.722 779.932C278.509 780.159 278.239 780.273 277.913 780.273ZM282.004 780.273C281.705 780.273 281.44 780.159 281.208 779.932C280.981 779.7 280.867 779.435 280.867 779.136C280.867 778.81 280.981 778.54 281.208 778.327C281.44 778.109 281.705 778 282.004 778C282.33 778 282.6 778.109 282.813 778.327C283.031 778.54 283.14 778.81 283.14 779.136C283.14 779.435 283.031 779.7 282.813 779.932C282.6 780.159 282.33 780.273 282.004 780.273ZM287.46 793V782.091H289.079V783.739H289.193C289.392 783.199 289.752 782.761 290.272 782.425C290.793 782.089 291.38 781.92 292.034 781.92C292.157 781.92 292.311 781.923 292.495 781.928C292.68 781.932 292.82 781.939 292.914 781.949V783.653C292.858 783.639 292.727 783.618 292.524 783.589C292.325 783.556 292.114 783.54 291.892 783.54C291.361 783.54 290.888 783.651 290.471 783.874C290.059 784.091 289.733 784.394 289.491 784.783C289.254 785.166 289.136 785.604 289.136 786.097V793H287.46ZM301.776 788.54V782.091H303.452V793H301.776V791.153H301.663C301.407 791.707 301.009 792.179 300.469 792.567C299.93 792.95 299.248 793.142 298.424 793.142C297.742 793.142 297.136 792.993 296.606 792.695C296.076 792.392 295.659 791.937 295.356 791.331C295.053 790.72 294.901 789.951 294.901 789.023V782.091H296.577V788.909C296.577 789.705 296.8 790.339 297.245 790.812C297.695 791.286 298.268 791.523 298.964 791.523C299.38 791.523 299.804 791.416 300.235 791.203C300.671 790.99 301.035 790.663 301.329 790.223C301.627 789.783 301.776 789.222 301.776 788.54ZM297.146 780.273C296.847 780.273 296.582 780.159 296.35 779.932C296.123 779.7 296.009 779.435 296.009 779.136C296.009 778.81 296.123 778.54 296.35 778.327C296.582 778.109 296.847 778 297.146 778C297.472 778 297.742 778.109 297.955 778.327C298.173 778.54 298.282 778.81 298.282 779.136C298.282 779.435 298.173 779.7 297.955 779.932C297.742 780.159 297.472 780.273 297.146 780.273ZM301.237 780.273C300.938 780.273 300.673 780.159 300.441 779.932C300.214 779.7 300.1 779.435 300.1 779.136C300.1 778.81 300.214 778.54 300.441 778.327C300.673 778.109 300.938 778 301.237 778C301.563 778 301.833 778.109 302.046 778.327C302.264 778.54 302.373 778.81 302.373 779.136C302.373 779.435 302.264 779.7 302.046 779.932C301.833 780.159 301.563 780.273 301.237 780.273ZM308.199 786.438V793H306.522V782.091H308.142V783.795H308.284C308.539 783.241 308.928 782.796 309.449 782.46C309.969 782.119 310.642 781.949 311.466 781.949C312.204 781.949 312.85 782.1 313.404 782.403C313.958 782.702 314.389 783.156 314.697 783.767C315.005 784.373 315.159 785.14 315.159 786.068V793H313.483V786.182C313.483 785.325 313.26 784.657 312.815 784.179C312.37 783.696 311.759 783.455 310.983 783.455C310.448 783.455 309.969 783.571 309.548 783.803C309.131 784.035 308.802 784.373 308.561 784.818C308.319 785.263 308.199 785.803 308.199 786.438ZM325.097 788.54V782.091H326.773V793H325.097V791.153H324.983C324.727 791.707 324.33 792.179 323.79 792.567C323.25 792.95 322.568 793.142 321.744 793.142C321.062 793.142 320.456 792.993 319.926 792.695C319.396 792.392 318.979 791.937 318.676 791.331C318.373 790.72 318.222 789.951 318.222 789.023V782.091H319.898V788.909C319.898 789.705 320.12 790.339 320.565 790.812C321.015 791.286 321.588 791.523 322.284 791.523C322.701 791.523 323.125 791.416 323.555 791.203C323.991 790.99 324.356 790.663 324.649 790.223C324.947 789.783 325.097 789.222 325.097 788.54ZM320.466 780.273C320.168 780.273 319.902 780.159 319.67 779.932C319.443 779.7 319.33 779.435 319.33 779.136C319.33 778.81 319.443 778.54 319.67 778.327C319.902 778.109 320.168 778 320.466 778C320.793 778 321.063 778.109 321.276 778.327C321.493 778.54 321.602 778.81 321.602 779.136C321.602 779.435 321.493 779.7 321.276 779.932C321.063 780.159 320.793 780.273 320.466 780.273ZM324.557 780.273C324.259 780.273 323.993 780.159 323.761 779.932C323.534 779.7 323.42 779.435 323.42 779.136C323.42 778.81 323.534 778.54 323.761 778.327C323.993 778.109 324.259 778 324.557 778C324.884 778 325.153 778.109 325.366 778.327C325.584 778.54 325.693 778.81 325.693 779.136C325.693 779.435 325.584 779.7 325.366 779.932C325.153 780.159 324.884 780.273 324.557 780.273ZM329.843 793V782.091H331.462V783.795H331.604C331.831 783.213 332.198 782.761 332.705 782.439C333.212 782.112 333.82 781.949 334.53 781.949C335.25 781.949 335.849 782.112 336.327 782.439C336.81 782.761 337.186 783.213 337.456 783.795H337.57C337.849 783.232 338.268 782.785 338.827 782.453C339.386 782.117 340.056 781.949 340.837 781.949C341.812 781.949 342.61 782.254 343.23 782.865C343.851 783.471 344.161 784.416 344.161 785.699V793H342.485V785.699C342.485 784.894 342.265 784.319 341.824 783.973C341.384 783.627 340.865 783.455 340.269 783.455C339.502 783.455 338.908 783.687 338.486 784.151C338.065 784.61 337.854 785.192 337.854 785.898V793H336.15V785.528C336.15 784.908 335.948 784.409 335.546 784.03C335.143 783.646 334.625 783.455 333.99 783.455C333.555 783.455 333.148 783.571 332.769 783.803C332.395 784.035 332.092 784.357 331.86 784.768C331.632 785.176 331.519 785.647 331.519 786.182V793H329.843ZM348.902 778.455V793H347.225V778.455H348.902ZM356.545 793.227C355.494 793.227 354.588 792.995 353.825 792.531C353.068 792.062 352.483 791.409 352.071 790.571C351.664 789.728 351.46 788.748 351.46 787.631C351.46 786.513 351.664 785.528 352.071 784.676C352.483 783.819 353.056 783.152 353.79 782.673C354.528 782.19 355.39 781.949 356.375 781.949C356.943 781.949 357.504 782.044 358.058 782.233C358.612 782.422 359.116 782.73 359.571 783.156C360.026 783.578 360.388 784.136 360.658 784.832C360.928 785.528 361.062 786.385 361.062 787.403V788.114H352.653V786.665H359.358C359.358 786.049 359.235 785.5 358.989 785.017C358.747 784.534 358.402 784.153 357.952 783.874C357.507 783.594 356.981 783.455 356.375 783.455C355.707 783.455 355.13 783.62 354.642 783.952C354.159 784.278 353.787 784.705 353.527 785.23C353.267 785.756 353.136 786.319 353.136 786.92V787.886C353.136 788.71 353.278 789.409 353.562 789.982C353.851 790.55 354.251 790.983 354.763 791.281C355.274 791.575 355.868 791.722 356.545 791.722C356.986 791.722 357.384 791.66 357.739 791.537C358.098 791.409 358.409 791.22 358.669 790.969C358.929 790.713 359.131 790.396 359.273 790.017L360.892 790.472C360.722 791.021 360.435 791.504 360.033 791.92C359.63 792.332 359.133 792.654 358.541 792.886C357.949 793.114 357.284 793.227 356.545 793.227ZM363.612 793V782.091H365.232V783.739H365.345C365.544 783.199 365.904 782.761 366.425 782.425C366.946 782.089 367.533 781.92 368.186 781.92C368.309 781.92 368.463 781.923 368.648 781.928C368.832 781.932 368.972 781.939 369.067 781.949V783.653C369.01 783.639 368.88 783.618 368.676 783.589C368.477 783.556 368.267 783.54 368.044 783.54C367.514 783.54 367.04 783.651 366.624 783.874C366.212 784.091 365.885 784.394 365.643 784.783C365.407 785.166 365.288 785.604 365.288 786.097V793H363.612ZM376.679 793V782.091H378.355V793H376.679ZM377.531 780.273C377.204 780.273 376.922 780.161 376.686 779.939C376.454 779.716 376.338 779.449 376.338 779.136C376.338 778.824 376.454 778.556 376.686 778.334C376.922 778.111 377.204 778 377.531 778C377.858 778 378.137 778.111 378.369 778.334C378.606 778.556 378.724 778.824 378.724 779.136C378.724 779.449 378.606 779.716 378.369 779.939C378.137 780.161 377.858 780.273 377.531 780.273ZM385.857 793.227C384.834 793.227 383.953 792.986 383.214 792.503C382.476 792.02 381.908 791.355 381.51 790.507C381.112 789.66 380.913 788.691 380.913 787.602C380.913 786.494 381.117 785.517 381.524 784.669C381.936 783.817 382.509 783.152 383.243 782.673C383.982 782.19 384.843 781.949 385.828 781.949C386.595 781.949 387.286 782.091 387.902 782.375C388.518 782.659 389.022 783.057 389.415 783.568C389.808 784.08 390.052 784.676 390.146 785.358H388.47C388.342 784.861 388.058 784.42 387.618 784.037C387.182 783.649 386.595 783.455 385.857 783.455C385.203 783.455 384.63 783.625 384.138 783.966C383.65 784.302 383.269 784.778 382.994 785.393C382.724 786.004 382.589 786.722 382.589 787.545C382.589 788.388 382.722 789.122 382.987 789.747C383.257 790.372 383.636 790.857 384.124 791.203C384.616 791.549 385.194 791.722 385.857 791.722C386.292 791.722 386.688 791.646 387.043 791.494C387.398 791.343 387.698 791.125 387.945 790.841C388.191 790.557 388.366 790.216 388.47 789.818H390.146C390.052 790.462 389.817 791.042 389.443 791.558C389.074 792.07 388.584 792.477 387.973 792.78C387.367 793.078 386.661 793.227 385.857 793.227ZM385.061 792.943H386.453L386.339 793.511C386.709 793.568 387.047 793.722 387.355 793.973C387.663 794.229 387.817 794.634 387.817 795.188C387.817 795.798 387.563 796.295 387.057 796.679C386.555 797.067 385.814 797.261 384.834 797.261L384.777 796.153C385.217 796.153 385.582 796.082 385.871 795.94C386.164 795.803 386.311 795.571 386.311 795.244C386.311 794.918 386.19 794.695 385.949 794.577C385.707 794.458 385.317 794.378 384.777 794.335L385.061 792.943ZM392.597 793V782.091H394.273V793H392.597ZM393.449 780.273C393.122 780.273 392.84 780.161 392.604 779.939C392.372 779.716 392.256 779.449 392.256 779.136C392.256 778.824 392.372 778.556 392.604 778.334C392.84 778.111 393.122 778 393.449 778C393.776 778 394.055 778.111 394.287 778.334C394.524 778.556 394.642 778.824 394.642 779.136C394.642 779.449 394.524 779.716 394.287 779.939C394.055 780.161 393.776 780.273 393.449 780.273ZM399.019 786.438V793H397.343V782.091H398.962V783.795H399.104C399.36 783.241 399.748 782.796 400.269 782.46C400.79 782.119 401.462 781.949 402.286 781.949C403.025 781.949 403.671 782.1 404.225 782.403C404.779 782.702 405.21 783.156 405.517 783.767C405.825 784.373 405.979 785.14 405.979 786.068V793H404.303V786.182C404.303 785.325 404.08 784.657 403.635 784.179C403.19 783.696 402.579 783.455 401.803 783.455C401.268 783.455 400.79 783.571 400.368 783.803C399.952 784.035 399.623 784.373 399.381 784.818C399.14 785.263 399.019 785.803 399.019 786.438ZM419.411 782.091V783.511H413.758V782.091H419.411ZM415.406 779.477H417.082V789.875C417.082 790.348 417.15 790.704 417.288 790.94C417.43 791.172 417.61 791.329 417.827 791.409C418.05 791.485 418.284 791.523 418.531 791.523C418.715 791.523 418.867 791.513 418.985 791.494C419.103 791.471 419.198 791.452 419.269 791.438L419.61 792.943C419.496 792.986 419.338 793.028 419.134 793.071C418.931 793.118 418.673 793.142 418.36 793.142C417.887 793.142 417.423 793.04 416.968 792.837C416.518 792.633 416.144 792.323 415.846 791.906C415.552 791.49 415.406 790.964 415.406 790.33V779.477ZM427.792 785.983V787.545H421.428V785.983H427.792ZM438.468 784.534L436.963 784.96C436.868 784.709 436.728 784.465 436.544 784.229C436.364 783.987 436.118 783.788 435.805 783.632C435.493 783.476 435.092 783.398 434.605 783.398C433.937 783.398 433.381 783.552 432.936 783.859C432.495 784.162 432.275 784.548 432.275 785.017C432.275 785.434 432.427 785.763 432.73 786.004C433.033 786.246 433.506 786.447 434.15 786.608L435.77 787.006C436.745 787.242 437.472 787.605 437.95 788.092C438.428 788.575 438.667 789.198 438.667 789.96C438.667 790.585 438.487 791.144 438.127 791.636C437.772 792.129 437.275 792.517 436.636 792.801C435.997 793.085 435.253 793.227 434.406 793.227C433.293 793.227 432.372 792.986 431.643 792.503C430.914 792.02 430.452 791.314 430.258 790.386L431.849 789.989C432.001 790.576 432.287 791.016 432.708 791.31C433.135 791.603 433.691 791.75 434.377 791.75C435.159 791.75 435.779 791.584 436.238 791.253C436.702 790.917 436.934 790.514 436.934 790.045C436.934 789.667 436.802 789.349 436.537 789.094C436.271 788.833 435.864 788.639 435.315 788.511L433.497 788.085C432.498 787.848 431.764 787.482 431.295 786.984C430.831 786.482 430.599 785.855 430.599 785.102C430.599 784.487 430.772 783.942 431.118 783.469C431.468 782.995 431.944 782.624 432.545 782.354C433.151 782.084 433.838 781.949 434.605 781.949C435.684 781.949 436.532 782.186 437.147 782.659C437.768 783.133 438.208 783.758 438.468 784.534ZM442.866 786.438V793H441.19V778.455H442.866V783.795H443.009C443.264 783.232 443.648 782.785 444.159 782.453C444.675 782.117 445.362 781.949 446.219 781.949C446.962 781.949 447.613 782.098 448.172 782.396C448.731 782.69 449.164 783.142 449.472 783.753C449.784 784.359 449.94 785.131 449.94 786.068V793H448.264V786.182C448.264 785.315 448.039 784.645 447.589 784.172C447.144 783.694 446.527 783.455 445.736 783.455C445.187 783.455 444.694 783.571 444.259 783.803C443.828 784.035 443.487 784.373 443.236 784.818C442.99 785.263 442.866 785.803 442.866 786.438ZM453.007 793V782.091H454.683V793H453.007ZM453.859 780.273C453.532 780.273 453.251 780.161 453.014 779.939C452.782 779.716 452.666 779.449 452.666 779.136C452.666 778.824 452.782 778.556 453.014 778.334C453.251 778.111 453.532 778 453.859 778C454.186 778 454.465 778.111 454.697 778.334C454.934 778.556 455.052 778.824 455.052 779.136C455.052 779.449 454.934 779.716 454.697 779.939C454.465 780.161 454.186 780.273 453.859 780.273ZM457.753 793V782.091H459.372V783.739H459.486C459.685 783.199 460.045 782.761 460.565 782.425C461.086 782.089 461.673 781.92 462.327 781.92C462.45 781.92 462.604 781.923 462.788 781.928C462.973 781.932 463.113 781.939 463.207 781.949V783.653C463.151 783.639 463.02 783.618 462.817 783.589C462.618 783.556 462.407 783.54 462.185 783.54C461.654 783.54 461.181 783.651 460.764 783.874C460.352 784.091 460.026 784.394 459.784 784.783C459.547 785.166 459.429 785.604 459.429 786.097V793H457.753ZM470.622 782.091V783.511H464.969V782.091H470.622ZM466.616 779.477H468.293V789.875C468.293 790.348 468.361 790.704 468.499 790.94C468.641 791.172 468.821 791.329 469.038 791.409C469.261 791.485 469.495 791.523 469.741 791.523C469.926 791.523 470.078 791.513 470.196 791.494C470.314 791.471 470.409 791.452 470.48 791.438L470.821 792.943C470.707 792.986 470.549 793.028 470.345 793.071C470.142 793.118 469.884 793.142 469.571 793.142C469.098 793.142 468.634 793.04 468.179 792.837C467.729 792.633 467.355 792.323 467.057 791.906C466.763 791.49 466.616 790.964 466.616 790.33V779.477ZM475.187 778.455V779.733C475.187 780.121 475.116 780.536 474.974 780.976C474.837 781.411 474.633 781.835 474.363 782.247C474.098 782.654 473.776 783.009 473.397 783.312L472.488 782.574C472.787 782.148 473.045 781.705 473.262 781.246C473.485 780.782 473.596 780.287 473.596 779.761V778.455H475.187ZM479.077 778.455V793H477.401V778.455H479.077ZM486.721 793.227C485.67 793.227 484.763 792.995 484.001 792.531C483.243 792.062 482.659 791.409 482.247 790.571C481.84 789.728 481.636 788.748 481.636 787.631C481.636 786.513 481.84 785.528 482.247 784.676C482.659 783.819 483.232 783.152 483.966 782.673C484.704 782.19 485.566 781.949 486.551 781.949C487.119 781.949 487.68 782.044 488.234 782.233C488.788 782.422 489.292 782.73 489.747 783.156C490.201 783.578 490.564 784.136 490.833 784.832C491.103 785.528 491.238 786.385 491.238 787.403V788.114H482.829V786.665H489.534C489.534 786.049 489.411 785.5 489.164 785.017C488.923 784.534 488.577 784.153 488.127 783.874C487.682 783.594 487.157 783.455 486.551 783.455C485.883 783.455 485.306 783.62 484.818 783.952C484.335 784.278 483.963 784.705 483.703 785.23C483.442 785.756 483.312 786.319 483.312 786.92V787.886C483.312 788.71 483.454 789.409 483.738 789.982C484.027 790.55 484.427 790.983 484.939 791.281C485.45 791.575 486.044 791.722 486.721 791.722C487.162 791.722 487.559 791.66 487.914 791.537C488.274 791.409 488.584 791.22 488.845 790.969C489.105 790.713 489.306 790.396 489.449 790.017L491.068 790.472C490.897 791.021 490.611 791.504 490.208 791.92C489.806 792.332 489.309 792.654 488.717 792.886C488.125 793.114 487.46 793.227 486.721 793.227ZM493.788 793V782.091H495.407V783.739H495.521C495.72 783.199 496.08 782.761 496.6 782.425C497.121 782.089 497.708 781.92 498.362 781.92C498.485 781.92 498.639 781.923 498.824 781.928C499.008 781.932 499.148 781.939 499.243 781.949V783.653C499.186 783.639 499.056 783.618 498.852 783.589C498.653 783.556 498.442 783.54 498.22 783.54C497.69 783.54 497.216 783.651 496.799 783.874C496.387 784.091 496.061 784.394 495.819 784.783C495.583 785.166 495.464 785.604 495.464 786.097V793H493.788ZM501.229 793V782.091H502.906V793H501.229ZM502.082 780.273C501.755 780.273 501.473 780.161 501.237 779.939C501.004 779.716 500.888 779.449 500.888 779.136C500.888 778.824 501.004 778.556 501.237 778.334C501.473 778.111 501.755 778 502.082 778C502.408 778 502.688 778.111 502.92 778.334C503.156 778.556 503.275 778.824 503.275 779.136C503.275 779.449 503.156 779.716 502.92 779.939C502.688 780.161 502.408 780.273 502.082 780.273ZM513.163 789.023L513.135 786.949H513.475L518.248 782.091H520.322L515.237 787.233H515.095L513.163 789.023ZM511.6 793V778.455H513.277V793H511.6ZM518.532 793L514.271 787.602L515.464 786.438L520.663 793H518.532ZM526.604 793.227C525.553 793.227 524.646 792.995 523.884 792.531C523.126 792.062 522.542 791.409 522.13 790.571C521.722 789.728 521.519 788.748 521.519 787.631C521.519 786.513 521.722 785.528 522.13 784.676C522.542 783.819 523.114 783.152 523.848 782.673C524.587 782.19 525.449 781.949 526.434 781.949C527.002 781.949 527.563 782.044 528.117 782.233C528.671 782.422 529.175 782.73 529.63 783.156C530.084 783.578 530.446 784.136 530.716 784.832C530.986 785.528 531.121 786.385 531.121 787.403V788.114H522.712V786.665H529.417C529.417 786.049 529.293 785.5 529.047 785.017C528.806 784.534 528.46 784.153 528.01 783.874C527.565 783.594 527.04 783.455 526.434 783.455C525.766 783.455 525.188 783.62 524.701 783.952C524.218 784.278 523.846 784.705 523.586 785.23C523.325 785.756 523.195 786.319 523.195 786.92V787.886C523.195 788.71 523.337 789.409 523.621 789.982C523.91 790.55 524.31 790.983 524.821 791.281C525.333 791.575 525.927 791.722 526.604 791.722C527.044 791.722 527.442 791.66 527.797 791.537C528.157 791.409 528.467 791.22 528.728 790.969C528.988 790.713 529.189 790.396 529.331 790.017L530.951 790.472C530.78 791.021 530.494 791.504 530.091 791.92C529.689 792.332 529.192 792.654 528.6 792.886C528.008 793.114 527.343 793.227 526.604 793.227ZM541.398 784.534L539.892 784.96C539.798 784.709 539.658 784.465 539.473 784.229C539.293 783.987 539.047 783.788 538.735 783.632C538.422 783.476 538.022 783.398 537.534 783.398C536.867 783.398 536.31 783.552 535.865 783.859C535.425 784.162 535.205 784.548 535.205 785.017C535.205 785.434 535.356 785.763 535.659 786.004C535.962 786.246 536.436 786.447 537.08 786.608L538.699 787.006C539.675 787.242 540.401 787.605 540.88 788.092C541.358 788.575 541.597 789.198 541.597 789.96C541.597 790.585 541.417 791.144 541.057 791.636C540.702 792.129 540.205 792.517 539.566 792.801C538.926 793.085 538.183 793.227 537.336 793.227C536.223 793.227 535.302 792.986 534.573 792.503C533.844 792.02 533.382 791.314 533.188 790.386L534.779 789.989C534.93 790.576 535.217 791.016 535.638 791.31C536.064 791.603 536.621 791.75 537.307 791.75C538.088 791.75 538.709 791.584 539.168 791.253C539.632 790.917 539.864 790.514 539.864 790.045C539.864 789.667 539.731 789.349 539.466 789.094C539.201 788.833 538.794 788.639 538.245 788.511L536.426 788.085C535.427 787.848 534.694 787.482 534.225 786.984C533.761 786.482 533.529 785.855 533.529 785.102C533.529 784.487 533.702 783.942 534.047 783.469C534.398 782.995 534.873 782.624 535.475 782.354C536.081 782.084 536.767 781.949 537.534 781.949C538.614 781.949 539.462 782.186 540.077 782.659C540.697 783.133 541.138 783.758 541.398 784.534ZM536.711 792.943H538.103L537.989 793.511C538.358 793.568 538.697 793.722 539.005 793.973C539.312 794.229 539.466 794.634 539.466 795.188C539.466 795.798 539.213 796.295 538.706 796.679C538.204 797.067 537.463 797.261 536.483 797.261L536.426 796.153C536.867 796.153 537.231 796.082 537.52 795.94C537.814 795.803 537.961 795.571 537.961 795.244C537.961 794.918 537.84 794.695 537.598 794.577C537.357 794.458 536.966 794.378 536.426 794.335L536.711 792.943ZM548.978 782.091V783.511H543.097V782.091H548.978ZM544.859 793V780.585C544.859 779.96 545.005 779.439 545.299 779.023C545.593 778.606 545.974 778.294 546.442 778.085C546.911 777.877 547.406 777.773 547.927 777.773C548.339 777.773 548.675 777.806 548.935 777.872C549.196 777.938 549.39 778 549.518 778.057L549.035 779.506C548.95 779.477 548.831 779.442 548.68 779.399C548.533 779.357 548.339 779.335 548.097 779.335C547.543 779.335 547.143 779.475 546.897 779.754C546.656 780.034 546.535 780.443 546.535 780.983V793H544.859ZM555.452 793.227C554.401 793.227 553.494 792.995 552.732 792.531C551.974 792.062 551.389 791.409 550.977 790.571C550.57 789.728 550.366 788.748 550.366 787.631C550.366 786.513 550.57 785.528 550.977 784.676C551.389 783.819 551.962 783.152 552.696 782.673C553.435 782.19 554.296 781.949 555.281 781.949C555.849 781.949 556.411 782.044 556.964 782.233C557.518 782.422 558.023 782.73 558.477 783.156C558.932 783.578 559.294 784.136 559.564 784.832C559.834 785.528 559.969 786.385 559.969 787.403V788.114H551.56V786.665H558.264C558.264 786.049 558.141 785.5 557.895 785.017C557.653 784.534 557.308 784.153 556.858 783.874C556.413 783.594 555.887 783.455 555.281 783.455C554.614 783.455 554.036 783.62 553.548 783.952C553.065 784.278 552.694 784.705 552.433 785.23C552.173 785.756 552.043 786.319 552.043 786.92V787.886C552.043 788.71 552.185 789.409 552.469 789.982C552.758 790.55 553.158 790.983 553.669 791.281C554.18 791.575 554.775 791.722 555.452 791.722C555.892 791.722 556.29 791.66 556.645 791.537C557.005 791.409 557.315 791.22 557.575 790.969C557.836 790.713 558.037 790.396 558.179 790.017L559.798 790.472C559.628 791.021 559.341 791.504 558.939 791.92C558.536 792.332 558.039 792.654 557.447 792.886C556.856 793.114 556.19 793.227 555.452 793.227ZM567.263 782.091V783.511H561.609V782.091H567.263ZM563.257 779.477H564.933V789.875C564.933 790.348 565.002 790.704 565.139 790.94C565.281 791.172 565.461 791.329 565.679 791.409C565.902 791.485 566.136 791.523 566.382 791.523C566.567 791.523 566.718 791.513 566.837 791.494C566.955 791.471 567.05 791.452 567.121 791.438L567.462 792.943C567.348 792.986 567.189 793.028 566.986 793.071C566.782 793.118 566.524 793.142 566.212 793.142C565.738 793.142 565.274 793.04 564.82 792.837C564.37 792.633 563.996 792.323 563.697 791.906C563.404 791.49 563.257 790.964 563.257 790.33V779.477ZM572 778.455L571.858 788.909H570.21L570.068 778.455H572ZM571.034 793.114C570.684 793.114 570.383 792.988 570.132 792.737C569.881 792.486 569.756 792.186 569.756 791.835C569.756 791.485 569.881 791.184 570.132 790.933C570.383 790.682 570.684 790.557 571.034 790.557C571.384 790.557 571.685 790.682 571.936 790.933C572.187 791.184 572.312 791.485 572.312 791.835C572.312 792.067 572.253 792.28 572.135 792.474C572.021 792.669 571.867 792.825 571.673 792.943C571.484 793.057 571.271 793.114 571.034 793.114Z" fill="white"/>
</svg>
