<svg width="640" height="812" viewBox="0 0 640 812" fill="none" xmlns="http://www.w3.org/2000/svg">
<path d="M56.196 540V510.909H66.8494C68.9138 510.909 70.6231 511.25 71.9773 511.932C73.3314 512.604 74.3447 513.518 75.017 514.673C75.6894 515.819 76.0256 517.112 76.0256 518.551C76.0256 519.763 75.803 520.786 75.358 521.619C74.9129 522.443 74.3163 523.106 73.5682 523.608C72.8295 524.1 72.0152 524.46 71.125 524.688V524.972C72.0909 525.019 73.0331 525.331 73.9517 525.909C74.8797 526.477 75.6468 527.287 76.2528 528.338C76.8589 529.389 77.1619 530.668 77.1619 532.173C77.1619 533.66 76.8116 534.995 76.1108 536.179C75.4195 537.353 74.3494 538.286 72.9006 538.977C71.4517 539.659 69.6004 540 67.3466 540H56.196ZM60.5852 536.236H66.9205C69.0227 536.236 70.5284 535.829 71.4375 535.014C72.3466 534.2 72.8011 533.182 72.8011 531.96C72.8011 531.042 72.5691 530.199 72.1051 529.432C71.6411 528.665 70.9782 528.054 70.1165 527.599C69.2642 527.145 68.2509 526.918 67.0767 526.918H60.5852V536.236ZM60.5852 523.494H66.4659C67.4508 523.494 68.3362 523.305 69.1222 522.926C69.9176 522.547 70.5473 522.017 71.0114 521.335C71.4848 520.644 71.7216 519.83 71.7216 518.892C71.7216 517.689 71.3002 516.681 70.4574 515.866C69.6146 515.052 68.322 514.645 66.5795 514.645H60.5852V523.494ZM88.3764 540.483C86.9938 540.483 85.7438 540.227 84.6264 539.716C83.509 539.195 82.6236 538.442 81.9702 537.457C81.3262 536.473 81.0043 535.265 81.0043 533.835C81.0043 532.604 81.241 531.591 81.7145 530.795C82.188 530 82.8272 529.37 83.6321 528.906C84.437 528.442 85.3366 528.092 86.331 527.855C87.3253 527.618 88.3385 527.438 89.3707 527.315C90.6776 527.164 91.7382 527.041 92.5526 526.946C93.367 526.842 93.9588 526.676 94.3281 526.449C94.6974 526.222 94.8821 525.852 94.8821 525.341V525.241C94.8821 524.001 94.5317 523.04 93.831 522.358C93.1397 521.676 92.1075 521.335 90.7344 521.335C89.3045 521.335 88.1776 521.652 87.3537 522.287C86.5393 522.912 85.9759 523.608 85.6634 524.375L81.6719 523.466C82.1454 522.14 82.8366 521.07 83.7457 520.256C84.6643 519.432 85.7202 518.835 86.9134 518.466C88.1065 518.087 89.3613 517.898 90.6776 517.898C91.5488 517.898 92.4721 518.002 93.4474 518.21C94.4323 518.409 95.3509 518.778 96.2031 519.318C97.0649 519.858 97.7704 520.63 98.3196 521.634C98.8688 522.628 99.1435 523.92 99.1435 525.511V540H94.9957V537.017H94.8253C94.5507 537.566 94.1387 538.106 93.5895 538.636C93.0402 539.167 92.3348 539.607 91.473 539.957C90.6113 540.308 89.5791 540.483 88.3764 540.483ZM89.2997 537.074C90.474 537.074 91.4777 536.842 92.3111 536.378C93.1539 535.914 93.7931 535.308 94.2287 534.56C94.6738 533.802 94.8963 532.992 94.8963 532.131V529.318C94.7448 529.47 94.4512 529.612 94.0156 529.744C93.5895 529.867 93.1018 529.976 92.5526 530.071C92.0033 530.156 91.4683 530.237 90.9474 530.312C90.4266 530.379 89.991 530.436 89.6406 530.483C88.8168 530.587 88.0639 530.762 87.3821 531.009C86.7098 531.255 86.17 531.61 85.7628 532.074C85.3651 532.528 85.1662 533.134 85.1662 533.892C85.1662 534.943 85.5545 535.739 86.331 536.278C87.1075 536.809 88.0971 537.074 89.2997 537.074ZM105.141 540V510.909H109.388V521.719H109.644C109.89 521.264 110.246 520.739 110.71 520.142C111.174 519.545 111.817 519.025 112.641 518.58C113.465 518.125 114.554 517.898 115.908 517.898C117.67 517.898 119.242 518.343 120.624 519.233C122.007 520.123 123.091 521.406 123.877 523.082C124.673 524.759 125.07 526.776 125.07 529.134C125.07 531.491 124.677 533.513 123.891 535.199C123.105 536.875 122.026 538.168 120.653 539.077C119.28 539.976 117.712 540.426 115.951 540.426C114.625 540.426 113.541 540.204 112.698 539.759C111.865 539.313 111.211 538.793 110.738 538.196C110.264 537.599 109.9 537.069 109.644 536.605H109.289V540H105.141ZM109.303 529.091C109.303 530.625 109.526 531.97 109.971 533.125C110.416 534.28 111.06 535.185 111.903 535.838C112.746 536.482 113.778 536.804 114.999 536.804C116.268 536.804 117.329 536.468 118.181 535.795C119.033 535.114 119.677 534.19 120.113 533.026C120.558 531.861 120.781 530.549 120.781 529.091C120.781 527.652 120.563 526.359 120.127 525.213C119.701 524.067 119.057 523.163 118.195 522.5C117.343 521.837 116.278 521.506 114.999 521.506C113.768 521.506 112.727 521.823 111.874 522.457C111.031 523.092 110.392 523.977 109.957 525.114C109.521 526.25 109.303 527.576 109.303 529.091ZM131.782 548.182C131.147 548.182 130.57 548.13 130.049 548.026C129.528 547.931 129.14 547.827 128.884 547.713L129.907 544.233C130.683 544.441 131.375 544.531 131.981 544.503C132.587 544.474 133.122 544.247 133.586 543.821C134.059 543.395 134.476 542.699 134.836 541.733L135.362 540.284L127.379 518.182H131.924L137.45 535.114H137.677L143.202 518.182H147.762L138.771 542.912C138.354 544.048 137.824 545.009 137.18 545.795C136.536 546.591 135.769 547.188 134.879 547.585C133.988 547.983 132.956 548.182 131.782 548.182ZM156.771 510.909V513.636C156.771 514.441 156.62 515.289 156.317 516.179C156.023 517.06 155.607 517.907 155.067 518.722C154.527 519.536 153.893 520.237 153.163 520.824L151.061 519.318C151.62 518.504 152.103 517.637 152.51 516.719C152.927 515.8 153.135 514.787 153.135 513.679V510.909H156.771ZM174.47 523.509L170.621 524.19C170.46 523.698 170.204 523.229 169.854 522.784C169.513 522.339 169.049 521.974 168.462 521.69C167.875 521.406 167.141 521.264 166.26 521.264C165.057 521.264 164.054 521.534 163.249 522.074C162.444 522.604 162.041 523.291 162.041 524.134C162.041 524.863 162.311 525.45 162.851 525.895C163.391 526.34 164.262 526.705 165.464 526.989L168.93 527.784C170.938 528.248 172.434 528.963 173.419 529.929C174.404 530.895 174.896 532.15 174.896 533.693C174.896 535 174.518 536.165 173.76 537.188C173.012 538.201 171.965 538.996 170.621 539.574C169.286 540.152 167.737 540.44 165.976 540.44C163.533 540.44 161.539 539.92 159.996 538.878C158.452 537.827 157.505 536.335 157.155 534.403L161.26 533.778C161.516 534.848 162.041 535.658 162.837 536.207C163.632 536.747 164.669 537.017 165.947 537.017C167.339 537.017 168.452 536.728 169.286 536.151C170.119 535.563 170.536 534.848 170.536 534.006C170.536 533.324 170.28 532.751 169.768 532.287C169.267 531.823 168.495 531.473 167.453 531.236L163.76 530.426C161.724 529.962 160.218 529.223 159.243 528.21C158.277 527.197 157.794 525.914 157.794 524.361C157.794 523.073 158.154 521.946 158.874 520.98C159.593 520.014 160.588 519.261 161.857 518.722C163.125 518.172 164.579 517.898 166.217 517.898C168.575 517.898 170.431 518.409 171.786 519.432C173.14 520.445 174.035 521.804 174.47 523.509ZM190.493 540V510.909H208.533V514.688H194.882V523.551H207.24V527.315H194.882V540H190.493ZM213.589 540V518.182H217.837V540H213.589ZM215.734 514.815C214.996 514.815 214.361 514.569 213.831 514.077C213.31 513.575 213.05 512.978 213.05 512.287C213.05 511.586 213.31 510.99 213.831 510.497C214.361 509.995 214.996 509.744 215.734 509.744C216.473 509.744 217.103 509.995 217.624 510.497C218.154 510.99 218.419 511.586 218.419 512.287C218.419 512.978 218.154 513.575 217.624 514.077C217.103 514.569 216.473 514.815 215.734 514.815ZM223.55 540V518.182H227.656V521.648H227.883C228.281 520.473 228.981 519.55 229.985 518.878C230.998 518.196 232.144 517.855 233.423 517.855C233.688 517.855 234 517.865 234.36 517.884C234.729 517.902 235.018 517.926 235.227 517.955V522.017C235.056 521.97 234.753 521.918 234.317 521.861C233.882 521.795 233.446 521.761 233.011 521.761C232.007 521.761 231.112 521.974 230.326 522.401C229.549 522.817 228.934 523.4 228.479 524.148C228.025 524.886 227.798 525.729 227.798 526.676V540H223.55ZM255.251 523.509L251.402 524.19C251.241 523.698 250.985 523.229 250.635 522.784C250.294 522.339 249.83 521.974 249.243 521.69C248.656 521.406 247.922 521.264 247.041 521.264C245.839 521.264 244.835 521.534 244.03 522.074C243.225 522.604 242.822 523.291 242.822 524.134C242.822 524.863 243.092 525.45 243.632 525.895C244.172 526.34 245.043 526.705 246.246 526.989L249.712 527.784C251.719 528.248 253.215 528.963 254.2 529.929C255.185 530.895 255.678 532.15 255.678 533.693C255.678 535 255.299 536.165 254.541 537.188C253.793 538.201 252.747 538.996 251.402 539.574C250.067 540.152 248.518 540.44 246.757 540.44C244.314 540.44 242.321 539.92 240.777 538.878C239.233 537.827 238.286 536.335 237.936 534.403L242.041 533.778C242.297 534.848 242.822 535.658 243.618 536.207C244.413 536.747 245.45 537.017 246.729 537.017C248.121 537.017 249.233 536.728 250.067 536.151C250.9 535.563 251.317 534.848 251.317 534.006C251.317 533.324 251.061 532.751 250.55 532.287C250.048 531.823 249.276 531.473 248.234 531.236L244.541 530.426C242.505 529.962 241 529.223 240.024 528.21C239.058 527.197 238.575 525.914 238.575 524.361C238.575 523.073 238.935 521.946 239.655 520.98C240.375 520.014 241.369 519.261 242.638 518.722C243.907 518.172 245.36 517.898 246.999 517.898C249.357 517.898 251.213 518.409 252.567 519.432C253.921 520.445 254.816 521.804 255.251 523.509ZM270.532 518.182V521.591H258.614V518.182H270.532ZM261.81 512.955H266.058V533.594C266.058 534.418 266.181 535.038 266.427 535.455C266.673 535.862 266.99 536.141 267.379 536.293C267.776 536.435 268.207 536.506 268.671 536.506C269.012 536.506 269.31 536.482 269.566 536.435C269.822 536.387 270.021 536.349 270.163 536.321L270.93 539.83C270.683 539.924 270.333 540.019 269.879 540.114C269.424 540.218 268.856 540.275 268.174 540.284C267.057 540.303 266.015 540.104 265.049 539.688C264.083 539.271 263.302 538.627 262.705 537.756C262.109 536.884 261.81 535.791 261.81 534.474V512.955ZM302.023 518.551C301.872 517.206 301.247 516.165 300.148 515.426C299.05 514.678 297.667 514.304 296.001 514.304C294.808 514.304 293.775 514.493 292.904 514.872C292.033 515.241 291.356 515.753 290.873 516.406C290.399 517.05 290.163 517.784 290.163 518.608C290.163 519.299 290.324 519.896 290.646 520.398C290.977 520.9 291.408 521.321 291.938 521.662C292.478 521.993 293.056 522.273 293.671 522.5C294.287 522.718 294.879 522.898 295.447 523.04L298.288 523.778C299.216 524.006 300.167 524.313 301.143 524.702C302.118 525.09 303.022 525.601 303.856 526.236C304.689 526.87 305.362 527.656 305.873 528.594C306.394 529.531 306.654 530.653 306.654 531.96C306.654 533.608 306.228 535.071 305.376 536.349C304.533 537.628 303.307 538.636 301.697 539.375C300.096 540.114 298.16 540.483 295.887 540.483C293.709 540.483 291.825 540.137 290.234 539.446C288.643 538.755 287.397 537.775 286.498 536.506C285.598 535.227 285.101 533.712 285.006 531.96H289.41C289.495 533.011 289.836 533.887 290.433 534.588C291.039 535.279 291.81 535.795 292.748 536.136C293.695 536.468 294.732 536.634 295.859 536.634C297.099 536.634 298.202 536.439 299.168 536.051C300.144 535.653 300.911 535.104 301.469 534.403C302.028 533.693 302.308 532.865 302.308 531.918C302.308 531.056 302.061 530.35 301.569 529.801C301.086 529.252 300.428 528.797 299.594 528.438C298.771 528.078 297.838 527.76 296.796 527.486L293.359 526.548C291.029 525.914 289.183 524.981 287.819 523.75C286.465 522.519 285.788 520.89 285.788 518.864C285.788 517.187 286.242 515.724 287.151 514.474C288.06 513.224 289.291 512.254 290.844 511.562C292.397 510.862 294.149 510.511 296.1 510.511C298.07 510.511 299.808 510.857 301.313 511.548C302.828 512.24 304.022 513.191 304.893 514.403C305.764 515.606 306.219 516.989 306.256 518.551H302.023ZM311.558 548.182V518.182H315.706V521.719H316.061C316.307 521.264 316.662 520.739 317.126 520.142C317.59 519.545 318.234 519.025 319.058 518.58C319.882 518.125 320.971 517.898 322.325 517.898C324.087 517.898 325.659 518.343 327.041 519.233C328.424 520.123 329.508 521.406 330.294 523.082C331.089 524.759 331.487 526.776 331.487 529.134C331.487 531.491 331.094 533.513 330.308 535.199C329.522 536.875 328.443 538.168 327.07 539.077C325.696 539.976 324.129 540.426 322.368 540.426C321.042 540.426 319.958 540.204 319.115 539.759C318.282 539.313 317.628 538.793 317.155 538.196C316.681 537.599 316.317 537.069 316.061 536.605H315.805V548.182H311.558ZM315.72 529.091C315.72 530.625 315.943 531.97 316.388 533.125C316.833 534.28 317.477 535.185 318.32 535.838C319.162 536.482 320.195 536.804 321.416 536.804C322.685 536.804 323.746 536.468 324.598 535.795C325.45 535.114 326.094 534.19 326.53 533.026C326.975 531.861 327.197 530.549 327.197 529.091C327.197 527.652 326.98 526.359 326.544 525.213C326.118 524.067 325.474 523.163 324.612 522.5C323.76 521.837 322.695 521.506 321.416 521.506C320.185 521.506 319.143 521.823 318.291 522.457C317.448 523.092 316.809 523.977 316.374 525.114C315.938 526.25 315.72 527.576 315.72 529.091ZM336.246 540V518.182H340.351V521.648H340.578C340.976 520.473 341.677 519.55 342.68 518.878C343.694 518.196 344.839 517.855 346.118 517.855C346.383 517.855 346.696 517.865 347.055 517.884C347.425 517.902 347.714 517.926 347.922 517.955V522.017C347.751 521.97 347.448 521.918 347.013 521.861C346.577 521.795 346.142 521.761 345.706 521.761C344.702 521.761 343.807 521.974 343.021 522.401C342.245 522.817 341.629 523.4 341.175 524.148C340.72 524.886 340.493 525.729 340.493 526.676V540H336.246ZM351.597 540V518.182H355.844V540H351.597ZM353.742 514.815C353.004 514.815 352.369 514.569 351.839 514.077C351.318 513.575 351.058 512.978 351.058 512.287C351.058 511.586 351.318 510.99 351.839 510.497C352.369 509.995 353.004 509.744 353.742 509.744C354.481 509.744 355.111 509.995 355.631 510.497C356.162 510.99 356.427 511.586 356.427 512.287C356.427 512.978 356.162 513.575 355.631 514.077C355.111 514.569 354.481 514.815 353.742 514.815ZM365.805 527.045V540H361.558V518.182H365.635V521.733H365.905C366.407 520.578 367.193 519.65 368.263 518.949C369.342 518.248 370.701 517.898 372.339 517.898C373.826 517.898 375.128 518.21 376.246 518.835C377.363 519.451 378.23 520.369 378.845 521.591C379.461 522.812 379.768 524.323 379.768 526.122V540H375.521V526.634C375.521 525.052 375.109 523.816 374.286 522.926C373.462 522.027 372.33 521.577 370.891 521.577C369.906 521.577 369.03 521.79 368.263 522.216C367.505 522.642 366.904 523.267 366.459 524.091C366.023 524.905 365.805 525.89 365.805 527.045ZM394.612 548.636C392.879 548.636 391.388 548.409 390.138 547.955C388.897 547.5 387.884 546.899 387.098 546.151C386.312 545.402 385.725 544.583 385.337 543.693L388.987 542.188C389.243 542.604 389.584 543.045 390.01 543.509C390.446 543.982 391.033 544.384 391.771 544.716C392.519 545.047 393.481 545.213 394.655 545.213C396.265 545.213 397.595 544.82 398.646 544.034C399.697 543.258 400.223 542.017 400.223 540.312V536.023H399.953C399.697 536.487 399.328 537.003 398.845 537.571C398.372 538.139 397.718 538.632 396.885 539.048C396.052 539.465 394.967 539.673 393.632 539.673C391.909 539.673 390.356 539.271 388.973 538.466C387.6 537.652 386.511 536.454 385.706 534.872C384.911 533.281 384.513 531.326 384.513 529.006C384.513 526.686 384.906 524.697 385.692 523.04C386.487 521.383 387.576 520.114 388.959 519.233C390.341 518.343 391.909 517.898 393.661 517.898C395.015 517.898 396.108 518.125 396.942 518.58C397.775 519.025 398.424 519.545 398.888 520.142C399.361 520.739 399.726 521.264 399.982 521.719H400.294V518.182H404.456V540.483C404.456 542.358 404.02 543.897 403.149 545.099C402.278 546.302 401.099 547.192 399.612 547.77C398.135 548.348 396.468 548.636 394.612 548.636ZM394.57 536.151C395.791 536.151 396.823 535.866 397.666 535.298C398.518 534.721 399.162 533.897 399.598 532.827C400.043 531.747 400.266 530.455 400.266 528.949C400.266 527.481 400.048 526.188 399.612 525.071C399.177 523.954 398.537 523.082 397.695 522.457C396.852 521.823 395.81 521.506 394.57 521.506C393.291 521.506 392.226 521.837 391.374 522.5C390.521 523.153 389.877 524.044 389.442 525.17C389.016 526.297 388.803 527.557 388.803 528.949C388.803 530.379 389.02 531.634 389.456 532.713C389.892 533.793 390.536 534.635 391.388 535.241C392.25 535.848 393.31 536.151 394.57 536.151Z" fill="white"/>
<path d="M54.7614 604V589.455H59.8466C60.8598 589.455 61.6955 589.63 62.3537 589.98C63.0118 590.326 63.5019 590.792 63.8239 591.379C64.1458 591.962 64.3068 592.608 64.3068 593.318C64.3068 593.943 64.1955 594.459 63.973 594.866C63.7552 595.274 63.4664 595.596 63.1065 595.832C62.7514 596.069 62.3655 596.244 61.9489 596.358V596.5C62.3939 596.528 62.8414 596.685 63.2912 596.969C63.741 597.253 64.1174 597.66 64.4205 598.19C64.7235 598.721 64.875 599.369 64.875 600.136C64.875 600.866 64.7093 601.521 64.3778 602.104C64.0464 602.686 63.5232 603.148 62.8082 603.489C62.0933 603.83 61.1629 604 60.017 604H54.7614ZM56.5227 602.438H60.017C61.1676 602.438 61.9844 602.215 62.4673 601.77C62.955 601.32 63.1989 600.776 63.1989 600.136C63.1989 599.644 63.0734 599.189 62.8224 598.773C62.5715 598.351 62.214 598.015 61.75 597.764C61.286 597.509 60.7367 597.381 60.1023 597.381H56.5227V602.438ZM56.5227 595.847H59.7898C60.3201 595.847 60.7983 595.742 61.2244 595.534C61.6553 595.326 61.9962 595.032 62.2472 594.653C62.5028 594.275 62.6307 593.83 62.6307 593.318C62.6307 592.679 62.4081 592.137 61.9631 591.692C61.518 591.242 60.8125 591.017 59.8466 591.017H56.5227V595.847ZM72.1158 604.227C71.0646 604.227 70.1579 603.995 69.3956 603.531C68.638 603.062 68.0533 602.409 67.6413 601.571C67.2341 600.728 67.0305 599.748 67.0305 598.631C67.0305 597.513 67.2341 596.528 67.6413 595.676C68.0533 594.819 68.6262 594.152 69.3601 593.673C70.0987 593.19 70.9605 592.949 71.9453 592.949C72.5135 592.949 73.0746 593.044 73.6286 593.233C74.1825 593.422 74.6868 593.73 75.1413 594.156C75.5959 594.578 75.9581 595.136 76.228 595.832C76.4979 596.528 76.6328 597.385 76.6328 598.403V599.114H68.2237V597.665H74.9283C74.9283 597.049 74.8052 596.5 74.5589 596.017C74.3175 595.534 73.9718 595.153 73.522 594.874C73.0769 594.594 72.5514 594.455 71.9453 594.455C71.2777 594.455 70.7 594.62 70.2124 594.952C69.7294 595.278 69.3577 595.705 69.0973 596.23C68.8369 596.756 68.7067 597.319 68.7067 597.92V598.886C68.7067 599.71 68.8487 600.409 69.1328 600.982C69.4216 601.55 69.8217 601.983 70.3331 602.281C70.8445 602.575 71.4387 602.722 72.1158 602.722C72.5561 602.722 72.9538 602.66 73.3089 602.537C73.6688 602.409 73.9789 602.22 74.2393 601.969C74.4998 601.713 74.701 601.396 74.843 601.017L76.4624 601.472C76.2919 602.021 76.0054 602.504 75.603 602.92C75.2005 603.332 74.7034 603.654 74.1115 603.886C73.5196 604.114 72.8544 604.227 72.1158 604.227ZM79.4098 604V589.455H81.0859V594.824H81.228C81.3511 594.634 81.5215 594.393 81.7393 594.099C81.9619 593.801 82.2791 593.536 82.6911 593.304C83.1077 593.067 83.6712 592.949 84.3814 592.949C85.3 592.949 86.1096 593.179 86.8104 593.638C87.5111 594.097 88.058 594.748 88.451 595.591C88.844 596.434 89.0405 597.428 89.0405 598.574C89.0405 599.729 88.844 600.731 88.451 601.578C88.058 602.421 87.5135 603.074 86.8175 603.538C86.1214 603.998 85.3189 604.227 84.4098 604.227C83.709 604.227 83.148 604.111 82.7266 603.879C82.3052 603.643 81.9808 603.375 81.7536 603.077C81.5263 602.774 81.3511 602.523 81.228 602.324H81.0291V604H79.4098ZM81.0575 598.545C81.0575 599.369 81.1783 600.096 81.4197 600.726C81.6612 601.351 82.014 601.841 82.478 602.196C82.942 602.546 83.5102 602.722 84.1825 602.722C84.8833 602.722 85.468 602.537 85.9368 602.168C86.4103 601.794 86.7654 601.292 87.0021 600.662C87.2436 600.027 87.3643 599.322 87.3643 598.545C87.3643 597.778 87.246 597.087 87.0092 596.472C86.7772 595.851 86.4245 595.361 85.951 595.001C85.4822 594.637 84.8928 594.455 84.1825 594.455C83.5007 594.455 82.9278 594.627 82.4638 594.973C81.9998 595.314 81.6494 595.792 81.4126 596.408C81.1759 597.018 81.0575 597.731 81.0575 598.545ZM96.1783 604.227C95.1271 604.227 94.2204 603.995 93.4581 603.531C92.7005 603.062 92.1158 602.409 91.7038 601.571C91.2966 600.728 91.093 599.748 91.093 598.631C91.093 597.513 91.2966 596.528 91.7038 595.676C92.1158 594.819 92.6887 594.152 93.4226 593.673C94.1612 593.19 95.023 592.949 96.0078 592.949C96.576 592.949 97.1371 593.044 97.6911 593.233C98.245 593.422 98.7493 593.73 99.2038 594.156C99.6584 594.578 100.021 595.136 100.29 595.832C100.56 596.528 100.695 597.385 100.695 598.403V599.114H92.2862V597.665H98.9908C98.9908 597.049 98.8677 596.5 98.6214 596.017C98.38 595.534 98.0343 595.153 97.5845 594.874C97.1394 594.594 96.6139 594.455 96.0078 594.455C95.3402 594.455 94.7625 594.62 94.2749 594.952C93.7919 595.278 93.4202 595.705 93.1598 596.23C92.8994 596.756 92.7692 597.319 92.7692 597.92V598.886C92.7692 599.71 92.9112 600.409 93.1953 600.982C93.4841 601.55 93.8842 601.983 94.3956 602.281C94.907 602.575 95.5012 602.722 96.1783 602.722C96.6186 602.722 97.0163 602.66 97.3714 602.537C97.7313 602.409 98.0414 602.22 98.3018 601.969C98.5623 601.713 98.7635 601.396 98.9055 601.017L100.525 601.472C100.354 602.021 100.068 602.504 99.6655 602.92C99.263 603.332 98.7659 603.654 98.174 603.886C97.5821 604.114 96.9169 604.227 96.1783 604.227ZM104.808 600.023L104.779 597.949H105.12L109.893 593.091H111.967L106.881 598.233H106.739L104.808 600.023ZM103.245 604V589.455H104.921V604H103.245ZM110.177 604L105.915 598.602L107.109 597.438L112.308 604H110.177ZM121.311 600.023L121.283 597.949H121.624L126.397 593.091H128.471L123.385 598.233H123.243L121.311 600.023ZM119.749 604V589.455H121.425V604H119.749ZM126.681 604L122.419 598.602L123.613 597.438L128.811 604H126.681ZM134.61 604.227C133.626 604.227 132.761 603.993 132.018 603.524C131.279 603.055 130.702 602.4 130.285 601.557C129.873 600.714 129.667 599.729 129.667 598.602C129.667 597.466 129.873 596.474 130.285 595.626C130.702 594.779 131.279 594.121 132.018 593.652C132.761 593.183 133.626 592.949 134.61 592.949C135.595 592.949 136.457 593.183 137.196 593.652C137.939 594.121 138.517 594.779 138.929 595.626C139.345 596.474 139.554 597.466 139.554 598.602C139.554 599.729 139.345 600.714 138.929 601.557C138.517 602.4 137.939 603.055 137.196 603.524C136.457 603.993 135.595 604.227 134.61 604.227ZM134.61 602.722C135.359 602.722 135.974 602.53 136.457 602.146C136.94 601.763 137.297 601.259 137.529 600.634C137.761 600.009 137.877 599.331 137.877 598.602C137.877 597.873 137.761 597.194 137.529 596.564C137.297 595.934 136.94 595.425 136.457 595.037C135.974 594.649 135.359 594.455 134.61 594.455C133.862 594.455 133.247 594.649 132.764 595.037C132.281 595.425 131.923 595.934 131.691 596.564C131.459 597.194 131.343 597.873 131.343 598.602C131.343 599.331 131.459 600.009 131.691 600.634C131.923 601.259 132.281 601.763 132.764 602.146C133.247 602.53 133.862 602.722 134.61 602.722ZM143.788 589.455V604H142.112V589.455H143.788ZM151.432 604.227C150.381 604.227 149.474 603.995 148.712 603.531C147.954 603.062 147.37 602.409 146.958 601.571C146.551 600.728 146.347 599.748 146.347 598.631C146.347 597.513 146.551 596.528 146.958 595.676C147.37 594.819 147.943 594.152 148.676 593.673C149.415 593.19 150.277 592.949 151.262 592.949C151.83 592.949 152.391 593.044 152.945 593.233C153.499 593.422 154.003 593.73 154.458 594.156C154.912 594.578 155.275 595.136 155.544 595.832C155.814 596.528 155.949 597.385 155.949 598.403V599.114H147.54V597.665H154.245C154.245 597.049 154.122 596.5 153.875 596.017C153.634 595.534 153.288 595.153 152.838 594.874C152.393 594.594 151.868 594.455 151.262 594.455C150.594 594.455 150.016 594.62 149.529 594.952C149.046 595.278 148.674 595.705 148.414 596.23C148.153 596.756 148.023 597.319 148.023 597.92V598.886C148.023 599.71 148.165 600.409 148.449 600.982C148.738 601.55 149.138 601.983 149.65 602.281C150.161 602.575 150.755 602.722 151.432 602.722C151.873 602.722 152.27 602.66 152.625 602.537C152.985 602.409 153.295 602.22 153.556 601.969C153.816 601.713 154.017 601.396 154.159 601.017L155.779 601.472C155.608 602.021 155.322 602.504 154.919 602.92C154.517 603.332 154.02 603.654 153.428 603.886C152.836 604.114 152.171 604.227 151.432 604.227ZM160.061 600.023L160.033 597.949H160.374L165.147 593.091H167.221L162.135 598.233H161.993L160.061 600.023ZM158.499 604V589.455H160.175V604H158.499ZM165.431 604L161.169 598.602L162.363 597.438L167.561 604H165.431ZM177.105 595.534L175.599 595.96C175.505 595.709 175.365 595.465 175.18 595.229C175 594.987 174.754 594.788 174.442 594.632C174.129 594.476 173.729 594.398 173.241 594.398C172.574 594.398 172.018 594.552 171.572 594.859C171.132 595.162 170.912 595.548 170.912 596.017C170.912 596.434 171.063 596.763 171.366 597.004C171.67 597.246 172.143 597.447 172.787 597.608L174.406 598.006C175.382 598.242 176.108 598.605 176.587 599.092C177.065 599.575 177.304 600.198 177.304 600.96C177.304 601.585 177.124 602.144 176.764 602.636C176.409 603.129 175.912 603.517 175.273 603.801C174.634 604.085 173.89 604.227 173.043 604.227C171.93 604.227 171.009 603.986 170.28 603.503C169.551 603.02 169.089 602.314 168.895 601.386L170.486 600.989C170.637 601.576 170.924 602.016 171.345 602.31C171.771 602.603 172.328 602.75 173.014 602.75C173.795 602.75 174.416 602.584 174.875 602.253C175.339 601.917 175.571 601.514 175.571 601.045C175.571 600.667 175.438 600.349 175.173 600.094C174.908 599.833 174.501 599.639 173.952 599.511L172.134 599.085C171.134 598.848 170.401 598.482 169.932 597.984C169.468 597.482 169.236 596.855 169.236 596.102C169.236 595.487 169.409 594.942 169.754 594.469C170.105 593.995 170.58 593.624 171.182 593.354C171.788 593.084 172.474 592.949 173.241 592.949C174.321 592.949 175.169 593.186 175.784 593.659C176.404 594.133 176.845 594.758 177.105 595.534ZM179.827 604V593.091H181.503V604H179.827ZM180.679 591.273C180.353 591.273 180.071 591.161 179.834 590.939C179.602 590.716 179.486 590.449 179.486 590.136C179.486 589.824 179.602 589.556 179.834 589.334C180.071 589.111 180.353 589 180.679 589C181.006 589 181.285 589.111 181.517 589.334C181.754 589.556 181.873 589.824 181.873 590.136C181.873 590.449 181.754 590.716 181.517 590.939C181.285 591.161 181.006 591.273 180.679 591.273ZM185.653 608.091C185.369 608.091 185.115 608.067 184.893 608.02C184.67 607.977 184.516 607.935 184.431 607.892L184.857 606.415C185.264 606.519 185.624 606.557 185.937 606.528C186.249 606.5 186.526 606.36 186.768 606.109C187.014 605.863 187.239 605.463 187.442 604.909L187.755 604.057L183.721 593.091H185.539L188.55 601.784H188.664L191.675 593.091H193.494L188.863 605.591C188.655 606.154 188.397 606.621 188.089 606.99C187.781 607.364 187.424 607.641 187.016 607.821C186.614 608.001 186.159 608.091 185.653 608.091ZM199.747 604.227C198.762 604.227 197.898 603.993 197.155 603.524C196.416 603.055 195.839 602.4 195.422 601.557C195.01 600.714 194.804 599.729 194.804 598.602C194.804 597.466 195.01 596.474 195.422 595.626C195.839 594.779 196.416 594.121 197.155 593.652C197.898 593.183 198.762 592.949 199.747 592.949C200.732 592.949 201.594 593.183 202.332 593.652C203.076 594.121 203.653 594.779 204.065 595.626C204.482 596.474 204.69 597.466 204.69 598.602C204.69 599.729 204.482 600.714 204.065 601.557C203.653 602.4 203.076 603.055 202.332 603.524C201.594 603.993 200.732 604.227 199.747 604.227ZM199.747 602.722C200.495 602.722 201.111 602.53 201.594 602.146C202.077 601.763 202.434 601.259 202.666 600.634C202.898 600.009 203.014 599.331 203.014 598.602C203.014 597.873 202.898 597.194 202.666 596.564C202.434 595.934 202.077 595.425 201.594 595.037C201.111 594.649 200.495 594.455 199.747 594.455C198.999 594.455 198.384 594.649 197.901 595.037C197.418 595.425 197.06 595.934 196.828 596.564C196.596 597.194 196.48 597.873 196.48 598.602C196.48 599.331 196.596 600.009 196.828 600.634C197.06 601.259 197.418 601.763 197.901 602.146C198.384 602.53 198.999 602.722 199.747 602.722ZM208.925 597.438V604H207.249V593.091H208.868V594.795H209.01C209.266 594.241 209.654 593.796 210.175 593.46C210.696 593.119 211.368 592.949 212.192 592.949C212.931 592.949 213.577 593.1 214.131 593.403C214.685 593.702 215.116 594.156 215.424 594.767C215.731 595.373 215.885 596.14 215.885 597.068V604H214.209V597.182C214.209 596.325 213.987 595.657 213.542 595.179C213.096 594.696 212.486 594.455 211.709 594.455C211.174 594.455 210.696 594.571 210.275 594.803C209.858 595.035 209.529 595.373 209.287 595.818C209.046 596.263 208.925 596.803 208.925 597.438ZM225.823 599.54V593.091H227.499V604H225.823V602.153H225.71C225.454 602.707 225.056 603.179 224.516 603.567C223.977 603.95 223.295 604.142 222.471 604.142C221.789 604.142 221.183 603.993 220.653 603.695C220.122 603.392 219.706 602.937 219.403 602.331C219.1 601.72 218.948 600.951 218.948 600.023V593.091H220.624V599.909C220.624 600.705 220.847 601.339 221.292 601.812C221.742 602.286 222.315 602.523 223.011 602.523C223.427 602.523 223.851 602.416 224.282 602.203C224.718 601.99 225.082 601.663 225.376 601.223C225.674 600.783 225.823 600.222 225.823 599.54ZM233.069 602.011L232.956 602.778C232.875 603.318 232.752 603.896 232.586 604.511C232.425 605.127 232.257 605.707 232.082 606.251C231.907 606.796 231.762 607.229 231.649 607.551H230.37C230.432 607.248 230.512 606.848 230.612 606.351C230.711 605.854 230.811 605.297 230.91 604.682C231.014 604.071 231.1 603.446 231.166 602.807L231.251 602.011H233.069ZM242.027 604V589.455H243.703V594.824H243.845C243.968 594.634 244.139 594.393 244.357 594.099C244.579 593.801 244.896 593.536 245.308 593.304C245.725 593.067 246.288 592.949 246.999 592.949C247.917 592.949 248.727 593.179 249.428 593.638C250.128 594.097 250.675 594.748 251.068 595.591C251.461 596.434 251.658 597.428 251.658 598.574C251.658 599.729 251.461 600.731 251.068 601.578C250.675 602.421 250.131 603.074 249.435 603.538C248.739 603.998 247.936 604.227 247.027 604.227C246.326 604.227 245.765 604.111 245.344 603.879C244.922 603.643 244.598 603.375 244.371 603.077C244.143 602.774 243.968 602.523 243.845 602.324H243.646V604H242.027ZM243.675 598.545C243.675 599.369 243.795 600.096 244.037 600.726C244.278 601.351 244.631 601.841 245.095 602.196C245.559 602.546 246.127 602.722 246.8 602.722C247.5 602.722 248.085 602.537 248.554 602.168C249.027 601.794 249.383 601.292 249.619 600.662C249.861 600.027 249.982 599.322 249.982 598.545C249.982 597.778 249.863 597.087 249.626 596.472C249.394 595.851 249.042 595.361 248.568 595.001C248.099 594.637 247.51 594.455 246.8 594.455C246.118 594.455 245.545 594.627 245.081 594.973C244.617 595.314 244.267 595.792 244.03 596.408C243.793 597.018 243.675 597.731 243.675 598.545ZM258.795 604.227C257.744 604.227 256.838 603.995 256.075 603.531C255.318 603.062 254.733 602.409 254.321 601.571C253.914 600.728 253.71 599.748 253.71 598.631C253.71 597.513 253.914 596.528 254.321 595.676C254.733 594.819 255.306 594.152 256.04 593.673C256.778 593.19 257.64 592.949 258.625 592.949C259.193 592.949 259.754 593.044 260.308 593.233C260.862 593.422 261.366 593.73 261.821 594.156C262.276 594.578 262.638 595.136 262.908 595.832C263.178 596.528 263.312 597.385 263.312 598.403V599.114H254.903V597.665H261.608C261.608 597.049 261.485 596.5 261.239 596.017C260.997 595.534 260.652 595.153 260.202 594.874C259.757 594.594 259.231 594.455 258.625 594.455C257.957 594.455 257.38 594.62 256.892 594.952C256.409 595.278 256.037 595.705 255.777 596.23C255.517 596.756 255.386 597.319 255.386 597.92V598.886C255.386 599.71 255.528 600.409 255.812 600.982C256.101 601.55 256.501 601.983 257.013 602.281C257.524 602.575 258.118 602.722 258.795 602.722C259.236 602.722 259.634 602.66 259.989 602.537C260.348 602.409 260.659 602.22 260.919 601.969C261.179 601.713 261.381 601.396 261.523 601.017L263.142 601.472C262.972 602.021 262.685 602.504 262.283 602.92C261.88 603.332 261.383 603.654 260.791 603.886C260.199 604.114 259.534 604.227 258.795 604.227ZM266.089 604V589.455H267.766V594.824H267.908C268.031 594.634 268.201 594.393 268.419 594.099C268.642 593.801 268.959 593.536 269.371 593.304C269.787 593.067 270.351 592.949 271.061 592.949C271.98 592.949 272.789 593.179 273.49 593.638C274.191 594.097 274.738 594.748 275.131 595.591C275.524 596.434 275.72 597.428 275.72 598.574C275.72 599.729 275.524 600.731 275.131 601.578C274.738 602.421 274.193 603.074 273.497 603.538C272.801 603.998 271.999 604.227 271.089 604.227C270.389 604.227 269.828 604.111 269.406 603.879C268.985 603.643 268.661 603.375 268.433 603.077C268.206 602.774 268.031 602.523 267.908 602.324H267.709V604H266.089ZM267.737 598.545C267.737 599.369 267.858 600.096 268.099 600.726C268.341 601.351 268.694 601.841 269.158 602.196C269.622 602.546 270.19 602.722 270.862 602.722C271.563 602.722 272.148 602.537 272.616 602.168C273.09 601.794 273.445 601.292 273.682 600.662C273.923 600.027 274.044 599.322 274.044 598.545C274.044 597.778 273.926 597.087 273.689 596.472C273.457 595.851 273.104 595.361 272.631 595.001C272.162 594.637 271.572 594.455 270.862 594.455C270.18 594.455 269.607 594.627 269.143 594.973C268.679 595.314 268.329 595.792 268.092 596.408C267.856 597.018 267.737 597.731 267.737 598.545ZM282.858 604.227C281.807 604.227 280.9 603.995 280.138 603.531C279.38 603.062 278.795 602.409 278.384 601.571C277.976 600.728 277.773 599.748 277.773 598.631C277.773 597.513 277.976 596.528 278.384 595.676C278.795 594.819 279.368 594.152 280.102 593.673C280.841 593.19 281.703 592.949 282.688 592.949C283.256 592.949 283.817 593.044 284.371 593.233C284.925 593.422 285.429 593.73 285.884 594.156C286.338 594.578 286.7 595.136 286.97 595.832C287.24 596.528 287.375 597.385 287.375 598.403V599.114H278.966V597.665H285.67C285.67 597.049 285.547 596.5 285.301 596.017C285.06 595.534 284.714 595.153 284.264 594.874C283.819 594.594 283.294 594.455 282.688 594.455C282.02 594.455 281.442 594.62 280.955 594.952C280.472 595.278 280.1 595.705 279.839 596.23C279.579 596.756 279.449 597.319 279.449 597.92V598.886C279.449 599.71 279.591 600.409 279.875 600.982C280.164 601.55 280.564 601.983 281.075 602.281C281.587 602.575 282.181 602.722 282.858 602.722C283.298 602.722 283.696 602.66 284.051 602.537C284.411 602.409 284.721 602.22 284.982 601.969C285.242 601.713 285.443 601.396 285.585 601.017L287.205 601.472C287.034 602.021 286.748 602.504 286.345 602.92C285.943 603.332 285.446 603.654 284.854 603.886C284.262 604.114 283.597 604.227 282.858 604.227ZM291.487 600.023L291.459 597.949H291.8L296.572 593.091H298.646L293.561 598.233H293.419L291.487 600.023ZM289.925 604V589.455H291.601V604H289.925ZM296.857 604L292.595 598.602L293.788 597.438L298.987 604H296.857ZM302.48 589.455V604H300.804V589.455H302.48ZM310.124 604.227C309.072 604.227 308.166 603.995 307.403 603.531C306.646 603.062 306.061 602.409 305.649 601.571C305.242 600.728 305.038 599.748 305.038 598.631C305.038 597.513 305.242 596.528 305.649 595.676C306.061 594.819 306.634 594.152 307.368 593.673C308.107 593.19 308.968 592.949 309.953 592.949C310.521 592.949 311.082 593.044 311.636 593.233C312.19 593.422 312.695 593.73 313.149 594.156C313.604 594.578 313.966 595.136 314.236 595.832C314.506 596.528 314.641 597.385 314.641 598.403V599.114H306.232V597.665H312.936C312.936 597.049 312.813 596.5 312.567 596.017C312.325 595.534 311.98 595.153 311.53 594.874C311.085 594.594 310.559 594.455 309.953 594.455C309.286 594.455 308.708 594.62 308.22 594.952C307.737 595.278 307.366 595.705 307.105 596.23C306.845 596.756 306.714 597.319 306.714 597.92V598.886C306.714 599.71 306.857 600.409 307.141 600.982C307.429 601.55 307.83 601.983 308.341 602.281C308.852 602.575 309.446 602.722 310.124 602.722C310.564 602.722 310.962 602.66 311.317 602.537C311.677 602.409 311.987 602.22 312.247 601.969C312.508 601.713 312.709 601.396 312.851 601.017L314.47 601.472C314.3 602.021 314.013 602.504 313.611 602.92C313.208 603.332 312.711 603.654 312.119 603.886C311.527 604.114 310.862 604.227 310.124 604.227ZM317.19 604V593.091H318.81V594.739H318.923C319.122 594.199 319.482 593.761 320.003 593.425C320.524 593.089 321.111 592.92 321.764 592.92C321.887 592.92 322.041 592.923 322.226 592.928C322.411 592.932 322.55 592.939 322.645 592.949V594.653C322.588 594.639 322.458 594.618 322.254 594.589C322.055 594.556 321.845 594.54 321.622 594.54C321.092 594.54 320.618 594.651 320.202 594.874C319.79 595.091 319.463 595.394 319.222 595.783C318.985 596.166 318.866 596.604 318.866 597.097V604H317.19ZM324.632 604V593.091H326.308V604H324.632ZM325.484 591.273C325.157 591.273 324.876 591.161 324.639 590.939C324.407 590.716 324.291 590.449 324.291 590.136C324.291 589.824 324.407 589.556 324.639 589.334C324.876 589.111 325.157 589 325.484 589C325.811 589 326.09 589.111 326.322 589.334C326.559 589.556 326.677 589.824 326.677 590.136C326.677 590.449 326.559 590.716 326.322 590.939C326.09 591.161 325.811 591.273 325.484 591.273ZM331.054 597.438V604H329.378V593.091H330.997V594.795H331.139C331.395 594.241 331.783 593.796 332.304 593.46C332.825 593.119 333.497 592.949 334.321 592.949C335.06 592.949 335.706 593.1 336.26 593.403C336.814 593.702 337.245 594.156 337.553 594.767C337.86 595.373 338.014 596.14 338.014 597.068V604H336.338V597.182C336.338 596.325 336.116 595.657 335.67 595.179C335.225 594.696 334.615 594.455 333.838 594.455C333.303 594.455 332.825 594.571 332.403 594.803C331.987 595.035 331.658 595.373 331.416 595.818C331.175 596.263 331.054 596.803 331.054 597.438ZM351.105 608.318C350.296 608.318 349.6 608.214 349.017 608.006C348.435 607.802 347.95 607.532 347.561 607.196C347.178 606.865 346.873 606.509 346.645 606.131L347.98 605.193C348.132 605.392 348.324 605.619 348.556 605.875C348.788 606.135 349.105 606.36 349.507 606.55C349.915 606.744 350.447 606.841 351.105 606.841C351.986 606.841 352.713 606.628 353.286 606.202C353.859 605.776 354.145 605.108 354.145 604.199V601.983H354.003C353.88 602.182 353.705 602.428 353.478 602.722C353.255 603.01 352.933 603.268 352.512 603.496C352.095 603.718 351.532 603.83 350.821 603.83C349.941 603.83 349.15 603.621 348.449 603.205C347.753 602.788 347.202 602.182 346.794 601.386C346.392 600.591 346.191 599.625 346.191 598.489C346.191 597.371 346.387 596.398 346.78 595.57C347.173 594.736 347.72 594.092 348.421 593.638C349.122 593.179 349.931 592.949 350.85 592.949C351.56 592.949 352.123 593.067 352.54 593.304C352.962 593.536 353.283 593.801 353.506 594.099C353.733 594.393 353.908 594.634 354.032 594.824H354.202V593.091H355.821V604.312C355.821 605.25 355.608 606.012 355.182 606.599C354.761 607.191 354.193 607.625 353.478 607.899C352.767 608.179 351.977 608.318 351.105 608.318ZM351.049 602.324C351.721 602.324 352.289 602.17 352.753 601.862C353.217 601.554 353.57 601.112 353.811 600.534C354.053 599.956 354.174 599.265 354.174 598.46C354.174 597.674 354.055 596.981 353.819 596.379C353.582 595.778 353.231 595.307 352.767 594.966C352.303 594.625 351.73 594.455 351.049 594.455C350.338 594.455 349.747 594.634 349.273 594.994C348.804 595.354 348.452 595.837 348.215 596.443C347.983 597.049 347.867 597.722 347.867 598.46C347.867 599.218 347.985 599.888 348.222 600.47C348.463 601.048 348.819 601.502 349.287 601.834C349.761 602.161 350.348 602.324 351.049 602.324ZM362.1 604.256C361.408 604.256 360.781 604.125 360.218 603.865C359.654 603.6 359.207 603.219 358.875 602.722C358.544 602.22 358.378 601.614 358.378 600.903C358.378 600.278 358.501 599.772 358.748 599.384C358.994 598.991 359.323 598.683 359.735 598.46C360.147 598.238 360.601 598.072 361.098 597.963C361.6 597.849 362.105 597.759 362.611 597.693C363.274 597.608 363.811 597.544 364.223 597.501C364.64 597.454 364.943 597.376 365.132 597.267C365.327 597.158 365.424 596.969 365.424 596.699V596.642C365.424 595.941 365.232 595.397 364.848 595.009C364.47 594.62 363.894 594.426 363.123 594.426C362.322 594.426 361.695 594.601 361.24 594.952C360.786 595.302 360.466 595.676 360.282 596.074L358.691 595.506C358.975 594.843 359.354 594.327 359.827 593.957C360.305 593.583 360.826 593.323 361.39 593.176C361.958 593.025 362.516 592.949 363.066 592.949C363.416 592.949 363.819 592.991 364.273 593.077C364.732 593.157 365.175 593.325 365.601 593.581C366.032 593.837 366.39 594.223 366.674 594.739C366.958 595.255 367.1 595.946 367.1 596.812V604H365.424V602.523H365.338C365.225 602.759 365.035 603.013 364.77 603.283C364.505 603.553 364.152 603.782 363.712 603.972C363.272 604.161 362.734 604.256 362.1 604.256ZM362.355 602.75C363.018 602.75 363.577 602.62 364.032 602.359C364.491 602.099 364.837 601.763 365.069 601.351C365.305 600.939 365.424 600.506 365.424 600.051V598.517C365.353 598.602 365.196 598.68 364.955 598.751C364.718 598.818 364.444 598.877 364.131 598.929C363.823 598.976 363.523 599.019 363.229 599.057C362.94 599.09 362.706 599.118 362.526 599.142C362.09 599.199 361.683 599.291 361.304 599.419C360.93 599.542 360.627 599.729 360.395 599.98C360.168 600.226 360.054 600.562 360.054 600.989C360.054 601.571 360.27 602.011 360.701 602.31C361.136 602.603 361.688 602.75 362.355 602.75ZM370.159 604V593.091H371.778V594.739H371.892C372.091 594.199 372.451 593.761 372.972 593.425C373.492 593.089 374.08 592.92 374.733 592.92C374.856 592.92 375.01 592.923 375.195 592.928C375.379 592.932 375.519 592.939 375.614 592.949V594.653C375.557 594.639 375.427 594.618 375.223 594.589C375.024 594.556 374.813 594.54 374.591 594.54C374.061 594.54 373.587 594.651 373.17 594.874C372.759 595.091 372.432 595.394 372.19 595.783C371.954 596.166 371.835 596.604 371.835 597.097V604H370.159ZM381.388 604.227C380.479 604.227 379.676 603.998 378.98 603.538C378.284 603.074 377.74 602.421 377.347 601.578C376.954 600.731 376.757 599.729 376.757 598.574C376.757 597.428 376.954 596.434 377.347 595.591C377.74 594.748 378.286 594.097 378.987 593.638C379.688 593.179 380.498 592.949 381.416 592.949C382.126 592.949 382.688 593.067 383.099 593.304C383.516 593.536 383.833 593.801 384.051 594.099C384.274 594.393 384.446 594.634 384.57 594.824H384.712V589.455H386.388V604H384.768V602.324H384.57C384.446 602.523 384.271 602.774 384.044 603.077C383.817 603.375 383.492 603.643 383.071 603.879C382.65 604.111 382.089 604.227 381.388 604.227ZM381.615 602.722C382.287 602.722 382.856 602.546 383.32 602.196C383.784 601.841 384.136 601.351 384.378 600.726C384.619 600.096 384.74 599.369 384.74 598.545C384.74 597.731 384.622 597.018 384.385 596.408C384.148 595.792 383.798 595.314 383.334 594.973C382.87 594.627 382.297 594.455 381.615 594.455C380.905 594.455 380.313 594.637 379.839 595.001C379.371 595.361 379.018 595.851 378.781 596.472C378.549 597.087 378.433 597.778 378.433 598.545C378.433 599.322 378.552 600.027 378.788 600.662C379.03 601.292 379.385 601.794 379.854 602.168C380.327 602.537 380.914 602.722 381.615 602.722ZM389.69 604V593.091H391.366V604H389.69ZM394.436 604V593.091H396.056V594.739H396.169C396.368 594.199 396.728 593.761 397.249 593.425C397.77 593.089 398.357 592.92 399.01 592.92C399.133 592.92 399.287 592.923 399.472 592.928C399.657 592.932 399.796 592.939 399.891 592.949V594.653C399.834 594.639 399.704 594.618 399.5 594.589C399.301 594.556 399.091 594.54 398.868 594.54C398.338 594.54 397.864 594.651 397.448 594.874C397.036 595.091 396.709 595.394 396.468 595.783C396.231 596.166 396.113 596.604 396.113 597.097V604H394.436ZM405.978 604.227C404.993 604.227 404.129 603.993 403.385 603.524C402.647 603.055 402.069 602.4 401.652 601.557C401.24 600.714 401.034 599.729 401.034 598.602C401.034 597.466 401.24 596.474 401.652 595.626C402.069 594.779 402.647 594.121 403.385 593.652C404.129 593.183 404.993 592.949 405.978 592.949C406.962 592.949 407.824 593.183 408.563 593.652C409.306 594.121 409.884 594.779 410.296 595.626C410.712 596.474 410.921 597.466 410.921 598.602C410.921 599.729 410.712 600.714 410.296 601.557C409.884 602.4 409.306 603.055 408.563 603.524C407.824 603.993 406.962 604.227 405.978 604.227ZM405.978 602.722C406.726 602.722 407.341 602.53 407.824 602.146C408.307 601.763 408.665 601.259 408.897 600.634C409.129 600.009 409.245 599.331 409.245 598.602C409.245 597.873 409.129 597.194 408.897 596.564C408.665 595.934 408.307 595.425 407.824 595.037C407.341 594.649 406.726 594.455 405.978 594.455C405.23 594.455 404.614 594.649 404.131 595.037C403.648 595.425 403.291 595.934 403.059 596.564C402.827 597.194 402.711 597.873 402.711 598.602C402.711 599.331 402.827 600.009 403.059 600.634C403.291 601.259 403.648 601.763 404.131 602.146C404.614 602.53 405.23 602.722 405.978 602.722ZM413.707 604V589.455H415.383V594.824H415.525C415.648 594.634 415.818 594.393 416.036 594.099C416.259 593.801 416.576 593.536 416.988 593.304C417.405 593.067 417.968 592.949 418.678 592.949C419.597 592.949 420.406 593.179 421.107 593.638C421.808 594.097 422.355 594.748 422.748 595.591C423.141 596.434 423.337 597.428 423.337 598.574C423.337 599.729 423.141 600.731 422.748 601.578C422.355 602.421 421.81 603.074 421.114 603.538C420.418 603.998 419.616 604.227 418.707 604.227C418.006 604.227 417.445 604.111 417.023 603.879C416.602 603.643 416.278 603.375 416.05 603.077C415.823 602.774 415.648 602.523 415.525 602.324H415.326V604H413.707ZM415.354 598.545C415.354 599.369 415.475 600.096 415.717 600.726C415.958 601.351 416.311 601.841 416.775 602.196C417.239 602.546 417.807 602.722 418.479 602.722C419.18 602.722 419.765 602.537 420.234 602.168C420.707 601.794 421.062 601.292 421.299 600.662C421.54 600.027 421.661 599.322 421.661 598.545C421.661 597.778 421.543 597.087 421.306 596.472C421.074 595.851 420.721 595.361 420.248 595.001C419.779 594.637 419.19 594.455 418.479 594.455C417.798 594.455 417.225 594.627 416.761 594.973C416.297 595.314 415.946 595.792 415.71 596.408C415.473 597.018 415.354 597.731 415.354 598.545ZM432.776 599.54V593.091H434.452V604H432.776V602.153H432.663C432.407 602.707 432.009 603.179 431.469 603.567C430.93 603.95 430.248 604.142 429.424 604.142C428.742 604.142 428.136 603.993 427.606 603.695C427.076 603.392 426.659 602.937 426.356 602.331C426.053 601.72 425.901 600.951 425.901 600.023V593.091H427.577V599.909C427.577 600.705 427.8 601.339 428.245 601.812C428.695 602.286 429.268 602.523 429.964 602.523C430.38 602.523 430.804 602.416 431.235 602.203C431.671 601.99 432.035 601.663 432.329 601.223C432.627 600.783 432.776 600.222 432.776 599.54ZM439.199 597.438V604H437.522V593.091H439.142V594.795H439.284C439.539 594.241 439.928 593.796 440.449 593.46C440.969 593.119 441.642 592.949 442.466 592.949C443.204 592.949 443.85 593.1 444.404 593.403C444.958 593.702 445.389 594.156 445.697 594.767C446.005 595.373 446.159 596.14 446.159 597.068V604H444.483V597.182C444.483 596.325 444.26 595.657 443.815 595.179C443.37 594.696 442.759 594.455 441.983 594.455C441.448 594.455 440.969 594.571 440.548 594.803C440.131 595.035 439.802 595.373 439.561 595.818C439.319 596.263 439.199 596.803 439.199 597.438ZM452.432 604.256C451.741 604.256 451.113 604.125 450.55 603.865C449.986 603.6 449.539 603.219 449.207 602.722C448.876 602.22 448.71 601.614 448.71 600.903C448.71 600.278 448.833 599.772 449.08 599.384C449.326 598.991 449.655 598.683 450.067 598.46C450.479 598.238 450.933 598.072 451.43 597.963C451.932 597.849 452.437 597.759 452.943 597.693C453.606 597.608 454.143 597.544 454.555 597.501C454.972 597.454 455.275 597.376 455.464 597.267C455.659 597.158 455.756 596.969 455.756 596.699V596.642C455.756 595.941 455.564 595.397 455.18 595.009C454.802 594.62 454.226 594.426 453.455 594.426C452.654 594.426 452.027 594.601 451.572 594.952C451.118 595.302 450.798 595.676 450.614 596.074L449.023 595.506C449.307 594.843 449.686 594.327 450.159 593.957C450.637 593.583 451.158 593.323 451.722 593.176C452.29 593.025 452.848 592.949 453.398 592.949C453.748 592.949 454.151 592.991 454.605 593.077C455.064 593.157 455.507 593.325 455.933 593.581C456.364 593.837 456.722 594.223 457.006 594.739C457.29 595.255 457.432 595.946 457.432 596.812V604H455.756V602.523H455.67C455.557 602.759 455.367 603.013 455.102 603.283C454.837 603.553 454.484 603.782 454.044 603.972C453.604 604.161 453.066 604.256 452.432 604.256ZM452.688 602.75C453.35 602.75 453.909 602.62 454.364 602.359C454.823 602.099 455.169 601.763 455.401 601.351C455.637 600.939 455.756 600.506 455.756 600.051V598.517C455.685 598.602 455.528 598.68 455.287 598.751C455.05 598.818 454.776 598.877 454.463 598.929C454.155 598.976 453.855 599.019 453.561 599.057C453.272 599.09 453.038 599.118 452.858 599.142C452.422 599.199 452.015 599.291 451.636 599.419C451.262 599.542 450.959 599.729 450.727 599.98C450.5 600.226 450.386 600.562 450.386 600.989C450.386 601.571 450.602 602.011 451.033 602.31C451.468 602.603 452.02 602.75 452.688 602.75ZM466.116 604V593.091H467.735V594.739H467.849C468.048 594.199 468.408 593.761 468.929 593.425C469.449 593.089 470.037 592.92 470.69 592.92C470.813 592.92 470.967 592.923 471.152 592.928C471.336 592.932 471.476 592.939 471.571 592.949V594.653C471.514 594.639 471.384 594.618 471.18 594.589C470.981 594.556 470.77 594.54 470.548 594.54C470.018 594.54 469.544 594.651 469.127 594.874C468.716 595.091 468.389 595.394 468.147 595.783C467.911 596.166 467.792 596.604 467.792 597.097V604H466.116ZM477.799 604.227C476.748 604.227 475.842 603.995 475.079 603.531C474.322 603.062 473.737 602.409 473.325 601.571C472.918 600.728 472.714 599.748 472.714 598.631C472.714 597.513 472.918 596.528 473.325 595.676C473.737 594.819 474.31 594.152 475.044 593.673C475.782 593.19 476.644 592.949 477.629 592.949C478.197 592.949 478.758 593.044 479.312 593.233C479.866 593.422 480.37 593.73 480.825 594.156C481.279 594.578 481.642 595.136 481.912 595.832C482.181 596.528 482.316 597.385 482.316 598.403V599.114H473.907V597.665H480.612C480.612 597.049 480.489 596.5 480.243 596.017C480.001 595.534 479.655 595.153 479.206 594.874C478.761 594.594 478.235 594.455 477.629 594.455C476.961 594.455 476.384 594.62 475.896 594.952C475.413 595.278 475.041 595.705 474.781 596.23C474.52 596.756 474.39 597.319 474.39 597.92V598.886C474.39 599.71 474.532 600.409 474.816 600.982C475.105 601.55 475.505 601.983 476.017 602.281C476.528 602.575 477.122 602.722 477.799 602.722C478.24 602.722 478.637 602.66 478.993 602.537C479.352 602.409 479.663 602.22 479.923 601.969C480.183 601.713 480.385 601.396 480.527 601.017L482.146 601.472C481.975 602.021 481.689 602.504 481.287 602.92C480.884 603.332 480.387 603.654 479.795 603.886C479.203 604.114 478.538 604.227 477.799 604.227ZM486.542 597.438V604H484.866V593.091H486.485V594.795H486.627C486.883 594.241 487.271 593.796 487.792 593.46C488.313 593.119 488.985 592.949 489.809 592.949C490.548 592.949 491.194 593.1 491.748 593.403C492.302 593.702 492.733 594.156 493.041 594.767C493.349 595.373 493.502 596.14 493.502 597.068V604H491.826V597.182C491.826 596.325 491.604 595.657 491.159 595.179C490.714 594.696 490.103 594.455 489.326 594.455C488.791 594.455 488.313 594.571 487.892 594.803C487.475 595.035 487.146 595.373 486.904 595.818C486.663 596.263 486.542 596.803 486.542 597.438ZM498.128 600.023L498.099 597.949H498.44L503.213 593.091H505.287L500.202 598.233H500.06L498.128 600.023ZM496.565 604V589.455H498.241V604H496.565ZM503.497 604L499.236 598.602L500.429 597.438L505.628 604H503.497ZM521.99 593.091L517.956 604H516.251L512.217 593.091H514.035L517.047 601.784H517.16L520.172 593.091H521.99ZM528.385 604.227C527.334 604.227 526.427 603.995 525.665 603.531C524.908 603.062 524.323 602.409 523.911 601.571C523.504 600.728 523.3 599.748 523.3 598.631C523.3 597.513 523.504 596.528 523.911 595.676C524.323 594.819 524.896 594.152 525.63 593.673C526.368 593.19 527.23 592.949 528.215 592.949C528.783 592.949 529.344 593.044 529.898 593.233C530.452 593.422 530.956 593.73 531.411 594.156C531.865 594.578 532.228 595.136 532.498 595.832C532.767 596.528 532.902 597.385 532.902 598.403V599.114H524.493V597.665H531.198C531.198 597.049 531.075 596.5 530.828 596.017C530.587 595.534 530.241 595.153 529.792 594.874C529.346 594.594 528.821 594.455 528.215 594.455C527.547 594.455 526.97 594.62 526.482 594.952C525.999 595.278 525.627 595.705 525.367 596.23C525.106 596.756 524.976 597.319 524.976 597.92V598.886C524.976 599.71 525.118 600.409 525.402 600.982C525.691 601.55 526.091 601.983 526.603 602.281C527.114 602.575 527.708 602.722 528.385 602.722C528.826 602.722 529.223 602.66 529.578 602.537C529.938 602.409 530.248 602.22 530.509 601.969C530.769 601.713 530.971 601.396 531.113 601.017L532.732 601.472C532.561 602.021 532.275 602.504 531.873 602.92C531.47 603.332 530.973 603.654 530.381 603.886C529.789 604.114 529.124 604.227 528.385 604.227ZM59.108 628.227C58.0568 628.227 57.1501 627.995 56.3878 627.531C55.6302 627.062 55.0455 626.409 54.6335 625.571C54.2263 624.728 54.0227 623.748 54.0227 622.631C54.0227 621.513 54.2263 620.528 54.6335 619.676C55.0455 618.819 55.6184 618.152 56.3523 617.673C57.0909 617.19 57.9527 616.949 58.9375 616.949C59.5057 616.949 60.0668 617.044 60.6207 617.233C61.1747 617.422 61.679 617.73 62.1335 618.156C62.5881 618.578 62.9503 619.136 63.2202 619.832C63.4901 620.528 63.625 621.385 63.625 622.403V623.114H55.2159V621.665H61.9205C61.9205 621.049 61.7973 620.5 61.5511 620.017C61.3097 619.534 60.964 619.153 60.5142 618.874C60.0691 618.594 59.5436 618.455 58.9375 618.455C58.2699 618.455 57.6922 618.62 57.2045 618.952C56.7216 619.278 56.3499 619.705 56.0895 620.23C55.8291 620.756 55.6989 621.319 55.6989 621.92V622.886C55.6989 623.71 55.8409 624.409 56.125 624.982C56.4138 625.55 56.8139 625.983 57.3253 626.281C57.8366 626.575 58.4309 626.722 59.108 626.722C59.5483 626.722 59.946 626.66 60.3011 626.537C60.661 626.409 60.9711 626.22 61.2315 625.969C61.492 625.713 61.6932 625.396 61.8352 625.017L63.4545 625.472C63.2841 626.021 62.9976 626.504 62.5952 626.92C62.1927 627.332 61.6955 627.654 61.1037 627.886C60.5118 628.114 59.8466 628.227 59.108 628.227ZM67.8509 621.438V628H66.1747V617.091H67.794V618.795H67.9361C68.1918 618.241 68.58 617.796 69.1009 617.46C69.6217 617.119 70.294 616.949 71.1179 616.949C71.8565 616.949 72.5028 617.1 73.0568 617.403C73.6108 617.702 74.0417 618.156 74.3494 618.767C74.6572 619.373 74.8111 620.14 74.8111 621.068V628H73.1349V621.182C73.1349 620.325 72.9124 619.657 72.4673 619.179C72.0223 618.696 71.4115 618.455 70.6349 618.455C70.0999 618.455 69.6217 618.571 69.2003 618.803C68.7836 619.035 68.4545 619.373 68.2131 619.818C67.9716 620.263 67.8509 620.803 67.8509 621.438ZM82.4478 628.227C81.3967 628.227 80.4899 627.995 79.7276 627.531C78.9701 627.062 78.3853 626.409 77.9734 625.571C77.5662 624.728 77.3626 623.748 77.3626 622.631C77.3626 621.513 77.5662 620.528 77.9734 619.676C78.3853 618.819 78.9582 618.152 79.6921 617.673C80.4308 617.19 81.2925 616.949 82.2773 616.949C82.8455 616.949 83.4066 617.044 83.9606 617.233C84.5146 617.422 85.0188 617.73 85.4734 618.156C85.9279 618.578 86.2901 619.136 86.56 619.832C86.8299 620.528 86.9648 621.385 86.9648 622.403V623.114H78.5558V621.665H85.2603C85.2603 621.049 85.1372 620.5 84.891 620.017C84.6495 619.534 84.3039 619.153 83.854 618.874C83.409 618.594 82.8834 618.455 82.2773 618.455C81.6097 618.455 81.0321 618.62 80.5444 618.952C80.0614 619.278 79.6897 619.705 79.4293 620.23C79.1689 620.756 79.0387 621.319 79.0387 621.92V622.886C79.0387 623.71 79.1808 624.409 79.4648 624.982C79.7537 625.55 80.1538 625.983 80.6651 626.281C81.1765 626.575 81.7707 626.722 82.4478 626.722C82.8881 626.722 83.2859 626.66 83.641 626.537C84.0008 626.409 84.311 626.22 84.5714 625.969C84.8318 625.713 85.033 625.396 85.1751 625.017L86.7944 625.472C86.6239 626.021 86.3375 626.504 85.935 626.92C85.5326 627.332 85.0354 627.654 84.4435 627.886C83.8517 628.114 83.1864 628.227 82.4478 628.227ZM89.5146 628V617.091H91.1339V618.739H91.2475C91.4464 618.199 91.8062 617.761 92.3271 617.425C92.8479 617.089 93.435 616.92 94.0884 616.92C94.2115 616.92 94.3654 616.923 94.5501 616.928C94.7347 616.932 94.8744 616.939 94.9691 616.949V618.653C94.9123 618.639 94.7821 618.618 94.5785 618.589C94.3796 618.556 94.1689 618.54 93.9464 618.54C93.4161 618.54 92.9426 618.651 92.5259 618.874C92.114 619.091 91.7873 619.394 91.5458 619.783C91.3091 620.166 91.1907 620.604 91.1907 621.097V628H89.5146ZM96.956 617.091H98.6321V628.795C98.6321 629.468 98.5161 630.05 98.2841 630.543C98.0568 631.035 97.7112 631.416 97.2472 631.686C96.7879 631.956 96.2079 632.091 95.5071 632.091C95.4503 632.091 95.3935 632.091 95.3366 632.091C95.2798 632.091 95.223 632.091 95.1662 632.091V630.528C95.223 630.528 95.2751 630.528 95.3224 630.528C95.3698 630.528 95.4219 630.528 95.4787 630.528C95.9901 630.528 96.3641 630.377 96.6009 630.074C96.8376 629.776 96.956 629.349 96.956 628.795V617.091ZM97.7798 615.273C97.4531 615.273 97.1714 615.161 96.9347 614.939C96.7027 614.716 96.5866 614.449 96.5866 614.136C96.5866 613.824 96.7027 613.556 96.9347 613.334C97.1714 613.111 97.4531 613 97.7798 613C98.1065 613 98.3859 613.111 98.6179 613.334C98.8546 613.556 98.973 613.824 98.973 614.136C98.973 614.449 98.8546 614.716 98.6179 614.939C98.3859 615.161 98.1065 615.273 97.7798 615.273ZM101.702 628V617.091H103.378V628H101.702ZM102.554 615.273C102.228 615.273 101.946 615.161 101.709 614.939C101.477 614.716 101.361 614.449 101.361 614.136C101.361 613.824 101.477 613.556 101.709 613.334C101.946 613.111 102.228 613 102.554 613C102.881 613 103.16 613.111 103.392 613.334C103.629 613.556 103.748 613.824 103.748 614.136C103.748 614.449 103.629 614.716 103.392 614.939C103.16 615.161 102.881 615.273 102.554 615.273ZM113.636 624.023L113.607 621.949H113.948L118.721 617.091H120.795L115.71 622.233H115.567L113.636 624.023ZM112.073 628V613.455H113.749V628H112.073ZM119.005 628L114.744 622.602L115.937 621.438L121.136 628H119.005ZM126.162 628.256C125.471 628.256 124.844 628.125 124.28 627.865C123.717 627.6 123.269 627.219 122.938 626.722C122.606 626.22 122.441 625.614 122.441 624.903C122.441 624.278 122.564 623.772 122.81 623.384C123.056 622.991 123.385 622.683 123.797 622.46C124.209 622.238 124.664 622.072 125.161 621.963C125.663 621.849 126.167 621.759 126.674 621.693C127.337 621.608 127.874 621.544 128.286 621.501C128.703 621.454 129.006 621.376 129.195 621.267C129.389 621.158 129.486 620.969 129.486 620.699V620.642C129.486 619.941 129.294 619.397 128.911 619.009C128.532 618.62 127.957 618.426 127.185 618.426C126.385 618.426 125.757 618.601 125.303 618.952C124.848 619.302 124.529 619.676 124.344 620.074L122.753 619.506C123.037 618.843 123.416 618.327 123.89 617.957C124.368 617.583 124.889 617.323 125.452 617.176C126.02 617.025 126.579 616.949 127.128 616.949C127.479 616.949 127.881 616.991 128.336 617.077C128.795 617.157 129.238 617.325 129.664 617.581C130.095 617.837 130.452 618.223 130.736 618.739C131.02 619.255 131.162 619.946 131.162 620.812V628H129.486V626.523H129.401C129.287 626.759 129.098 627.013 128.833 627.283C128.568 627.553 128.215 627.782 127.775 627.972C127.334 628.161 126.797 628.256 126.162 628.256ZM126.418 626.75C127.081 626.75 127.64 626.62 128.094 626.359C128.553 626.099 128.899 625.763 129.131 625.351C129.368 624.939 129.486 624.506 129.486 624.051V622.517C129.415 622.602 129.259 622.68 129.017 622.751C128.781 622.818 128.506 622.877 128.194 622.929C127.886 622.976 127.585 623.019 127.292 623.057C127.003 623.09 126.768 623.118 126.588 623.142C126.153 623.199 125.746 623.291 125.367 623.419C124.993 623.542 124.69 623.729 124.458 623.98C124.23 624.226 124.117 624.562 124.117 624.989C124.117 625.571 124.332 626.011 124.763 626.31C125.199 626.603 125.75 626.75 126.418 626.75ZM138.966 617.091V618.511H133.312V617.091H138.966ZM134.96 614.477H136.636V624.875C136.636 625.348 136.705 625.704 136.842 625.94C136.984 626.172 137.164 626.329 137.382 626.409C137.605 626.485 137.839 626.523 138.085 626.523C138.27 626.523 138.421 626.513 138.54 626.494C138.658 626.471 138.753 626.452 138.824 626.438L139.165 627.943C139.051 627.986 138.893 628.028 138.689 628.071C138.485 628.118 138.227 628.142 137.915 628.142C137.441 628.142 136.977 628.04 136.523 627.837C136.073 627.633 135.699 627.323 135.401 626.906C135.107 626.49 134.96 625.964 134.96 625.33V614.477ZM141.487 628V617.091H143.163V628H141.487ZM147.313 632.091C147.029 632.091 146.775 632.067 146.553 632.02C146.33 631.977 146.176 631.935 146.091 631.892L146.517 630.415C146.925 630.519 147.284 630.557 147.597 630.528C147.909 630.5 148.186 630.36 148.428 630.109C148.674 629.863 148.899 629.463 149.103 628.909L149.415 628.057L145.381 617.091H147.199L150.211 625.784H150.324L153.336 617.091H155.154L150.523 629.591C150.315 630.154 150.057 630.621 149.749 630.99C149.441 631.364 149.084 631.641 148.676 631.821C148.274 632.001 147.819 632.091 147.313 632.091ZM161.407 628.227C160.422 628.227 159.558 627.993 158.815 627.524C158.076 627.055 157.499 626.4 157.082 625.557C156.67 624.714 156.464 623.729 156.464 622.602C156.464 621.466 156.67 620.474 157.082 619.626C157.499 618.779 158.076 618.121 158.815 617.652C159.558 617.183 160.422 616.949 161.407 616.949C162.392 616.949 163.254 617.183 163.993 617.652C164.736 618.121 165.314 618.779 165.725 619.626C166.142 620.474 166.35 621.466 166.35 622.602C166.35 623.729 166.142 624.714 165.725 625.557C165.314 626.4 164.736 627.055 163.993 627.524C163.254 627.993 162.392 628.227 161.407 628.227ZM161.407 626.722C162.155 626.722 162.771 626.53 163.254 626.146C163.737 625.763 164.094 625.259 164.326 624.634C164.558 624.009 164.674 623.331 164.674 622.602C164.674 621.873 164.558 621.194 164.326 620.564C164.094 619.934 163.737 619.425 163.254 619.037C162.771 618.649 162.155 618.455 161.407 618.455C160.659 618.455 160.044 618.649 159.561 619.037C159.078 619.425 158.72 619.934 158.488 620.564C158.256 621.194 158.14 621.873 158.14 622.602C158.14 623.331 158.256 624.009 158.488 624.634C158.72 625.259 159.078 625.763 159.561 626.146C160.044 626.53 160.659 626.722 161.407 626.722ZM168.909 628V617.091H170.528V618.739H170.642C170.841 618.199 171.201 617.761 171.722 617.425C172.242 617.089 172.83 616.92 173.483 616.92C173.606 616.92 173.76 616.923 173.945 616.928C174.129 616.932 174.269 616.939 174.364 616.949V618.653C174.307 618.639 174.177 618.618 173.973 618.589C173.774 618.556 173.563 618.54 173.341 618.54C172.811 618.54 172.337 618.651 171.92 618.874C171.509 619.091 171.182 619.394 170.94 619.783C170.704 620.166 170.585 620.604 170.585 621.097V628H168.909ZM178.566 613.455L178.424 623.909H176.777L176.635 613.455H178.566ZM177.6 628.114C177.25 628.114 176.949 627.988 176.699 627.737C176.448 627.486 176.322 627.186 176.322 626.835C176.322 626.485 176.448 626.184 176.699 625.933C176.949 625.682 177.25 625.557 177.6 625.557C177.951 625.557 178.252 625.682 178.502 625.933C178.753 626.184 178.879 626.485 178.879 626.835C178.879 627.067 178.82 627.28 178.701 627.474C178.588 627.669 178.434 627.825 178.24 627.943C178.05 628.057 177.837 628.114 177.6 628.114Z" fill="white"/>
</svg>
