<svg width="640" height="812" viewBox="0 0 640 812" fill="none" xmlns="http://www.w3.org/2000/svg">
<path d="M72.4318 459.182C72.2614 457.742 71.5701 456.625 70.358 455.83C69.1458 455.034 67.6591 454.636 65.8977 454.636C64.6098 454.636 63.483 454.845 62.517 455.261C61.5606 455.678 60.8125 456.251 60.2727 456.98C59.7424 457.709 59.4773 458.538 59.4773 459.466C59.4773 460.242 59.6619 460.91 60.0312 461.469C60.41 462.018 60.893 462.477 61.4801 462.847C62.0672 463.206 62.6828 463.505 63.3267 463.741C63.9706 463.969 64.5625 464.153 65.1023 464.295L68.0568 465.091C68.8144 465.29 69.6572 465.564 70.5852 465.915C71.5227 466.265 72.4176 466.743 73.2699 467.349C74.1316 467.946 74.8419 468.713 75.4006 469.651C75.9593 470.588 76.2386 471.739 76.2386 473.102C76.2386 474.674 75.8267 476.095 75.0028 477.364C74.1884 478.633 72.9953 479.641 71.4233 480.389C69.8608 481.137 67.9621 481.511 65.7273 481.511C63.6439 481.511 61.84 481.175 60.3153 480.503C58.8002 479.83 57.607 478.893 56.7358 477.69C55.8741 476.488 55.3864 475.091 55.2727 473.5H58.9091C59.0038 474.598 59.3731 475.508 60.017 476.227C60.6705 476.937 61.4943 477.468 62.4886 477.818C63.4924 478.159 64.572 478.33 65.7273 478.33C67.072 478.33 68.2794 478.112 69.3494 477.676C70.4195 477.231 71.267 476.616 71.892 475.83C72.517 475.034 72.8295 474.106 72.8295 473.045C72.8295 472.08 72.5597 471.294 72.0199 470.688C71.4801 470.081 70.7699 469.589 69.8892 469.21C69.0085 468.831 68.0568 468.5 67.0341 468.216L63.4545 467.193C61.1818 466.54 59.3826 465.607 58.0568 464.395C56.7311 463.183 56.0682 461.597 56.0682 459.636C56.0682 458.008 56.5085 456.587 57.3892 455.375C58.2794 454.153 59.4725 453.206 60.9688 452.534C62.4744 451.852 64.1553 451.511 66.0114 451.511C67.8864 451.511 69.553 451.848 71.0114 452.52C72.4697 453.183 73.625 454.092 74.4773 455.247C75.339 456.402 75.7936 457.714 75.8409 459.182H72.4318ZM84.9283 467.875V481H81.576V451.909H84.9283V462.591H85.2124C85.7237 461.464 86.4908 460.569 87.5135 459.906C88.5457 459.234 89.9188 458.898 91.6328 458.898C93.1196 458.898 94.4216 459.196 95.5391 459.793C96.6565 460.38 97.523 461.284 98.1385 462.506C98.7635 463.718 99.076 465.261 99.076 467.136V481H95.7237V467.364C95.7237 465.631 95.2739 464.291 94.3743 463.344C93.4841 462.387 92.2483 461.909 90.6669 461.909C89.5684 461.909 88.5836 462.141 87.7124 462.605C86.8506 463.069 86.1688 463.746 85.6669 464.636C85.1745 465.527 84.9283 466.606 84.9283 467.875ZM114.072 481.455C112.103 481.455 110.375 480.986 108.888 480.048C107.411 479.111 106.255 477.799 105.422 476.114C104.598 474.428 104.186 472.458 104.186 470.205C104.186 467.932 104.598 465.948 105.422 464.253C106.255 462.558 107.411 461.241 108.888 460.304C110.375 459.366 112.103 458.898 114.072 458.898C116.042 458.898 117.766 459.366 119.243 460.304C120.73 461.241 121.885 462.558 122.709 464.253C123.542 465.948 123.959 467.932 123.959 470.205C123.959 472.458 123.542 474.428 122.709 476.114C121.885 477.799 120.73 479.111 119.243 480.048C117.766 480.986 116.042 481.455 114.072 481.455ZM114.072 478.443C115.569 478.443 116.8 478.06 117.766 477.293C118.732 476.526 119.446 475.517 119.911 474.267C120.375 473.017 120.607 471.663 120.607 470.205C120.607 468.746 120.375 467.387 119.911 466.128C119.446 464.868 118.732 463.85 117.766 463.074C116.8 462.297 115.569 461.909 114.072 461.909C112.576 461.909 111.345 462.297 110.379 463.074C109.413 463.85 108.698 464.868 108.234 466.128C107.77 467.387 107.538 468.746 107.538 470.205C107.538 471.663 107.77 473.017 108.234 474.267C108.698 475.517 109.413 476.526 110.379 477.293C111.345 478.06 112.576 478.443 114.072 478.443ZM133.277 481L126.629 459.182H130.152L134.868 475.886H135.095L139.754 459.182H143.334L147.936 475.83H148.163L152.879 459.182H156.402L149.754 481H146.459L141.686 464.239H141.345L136.572 481H133.277ZM172.538 451.909H176.743L186.629 476.057H186.97L196.857 451.909H201.061V481H197.766V458.898H197.482L188.391 481H185.209L176.118 458.898H175.834V481H172.538V451.909ZM221.42 472.08V459.182H224.772V481H221.42V477.307H221.192C220.681 478.415 219.886 479.357 218.806 480.134C217.727 480.901 216.363 481.284 214.715 481.284C213.352 481.284 212.139 480.986 211.079 480.389C210.018 479.783 209.185 478.874 208.579 477.662C207.973 476.44 207.67 474.902 207.67 473.045V459.182H211.022V472.818C211.022 474.409 211.467 475.678 212.357 476.625C213.257 477.572 214.403 478.045 215.795 478.045C216.628 478.045 217.476 477.832 218.337 477.406C219.209 476.98 219.938 476.327 220.525 475.446C221.121 474.565 221.42 473.443 221.42 472.08ZM230.912 481V459.182H234.151V462.591H234.435C234.889 461.426 235.623 460.522 236.636 459.878C237.65 459.224 238.866 458.898 240.287 458.898C241.726 458.898 242.924 459.224 243.881 459.878C244.847 460.522 245.599 461.426 246.139 462.591H246.366C246.925 461.464 247.763 460.569 248.881 459.906C249.998 459.234 251.338 458.898 252.901 458.898C254.851 458.898 256.447 459.509 257.688 460.73C258.928 461.942 259.548 463.831 259.548 466.398V481H256.196V466.398C256.196 464.788 255.756 463.637 254.875 462.946C253.994 462.255 252.957 461.909 251.764 461.909C250.23 461.909 249.042 462.373 248.199 463.301C247.356 464.22 246.935 465.384 246.935 466.795V481H243.526V466.057C243.526 464.816 243.123 463.817 242.318 463.06C241.513 462.293 240.476 461.909 239.207 461.909C238.336 461.909 237.522 462.141 236.764 462.605C236.016 463.069 235.41 463.713 234.946 464.537C234.491 465.351 234.264 466.294 234.264 467.364V481H230.912Z" fill="white"/>
<path d="M72.4318 513.182C72.2614 511.742 71.5701 510.625 70.358 509.829C69.1458 509.034 67.6591 508.636 65.8977 508.636C64.6098 508.636 63.483 508.845 62.517 509.261C61.5606 509.678 60.8125 510.251 60.2727 510.98C59.7424 511.709 59.4773 512.538 59.4773 513.466C59.4773 514.242 59.6619 514.91 60.0312 515.469C60.41 516.018 60.893 516.477 61.4801 516.846C62.0672 517.206 62.6828 517.505 63.3267 517.741C63.9706 517.969 64.5625 518.153 65.1023 518.295L68.0568 519.091C68.8144 519.29 69.6572 519.564 70.5852 519.915C71.5227 520.265 72.4176 520.743 73.2699 521.349C74.1316 521.946 74.8419 522.713 75.4006 523.65C75.9593 524.588 76.2386 525.739 76.2386 527.102C76.2386 528.674 75.8267 530.095 75.0028 531.364C74.1884 532.632 72.9953 533.641 71.4233 534.389C69.8608 535.137 67.9621 535.511 65.7273 535.511C63.6439 535.511 61.84 535.175 60.3153 534.503C58.8002 533.83 57.607 532.893 56.7358 531.69C55.8741 530.488 55.3864 529.091 55.2727 527.5H58.9091C59.0038 528.598 59.3731 529.507 60.017 530.227C60.6705 530.937 61.4943 531.468 62.4886 531.818C63.4924 532.159 64.572 532.329 65.7273 532.329C67.072 532.329 68.2794 532.112 69.3494 531.676C70.4195 531.231 71.267 530.615 71.892 529.829C72.517 529.034 72.8295 528.106 72.8295 527.045C72.8295 526.079 72.5597 525.293 72.0199 524.687C71.4801 524.081 70.7699 523.589 69.8892 523.21C69.0085 522.831 68.0568 522.5 67.0341 522.216L63.4545 521.193C61.1818 520.54 59.3826 519.607 58.0568 518.395C56.7311 517.183 56.0682 515.596 56.0682 513.636C56.0682 512.007 56.5085 510.587 57.3892 509.375C58.2794 508.153 59.4725 507.206 60.9688 506.534C62.4744 505.852 64.1553 505.511 66.0114 505.511C67.8864 505.511 69.553 505.847 71.0114 506.52C72.4697 507.183 73.625 508.092 74.4773 509.247C75.339 510.402 75.7936 511.714 75.8409 513.182H72.4318ZM90.4396 535.454C88.4699 535.454 86.7417 534.986 85.255 534.048C83.7777 533.111 82.6224 531.799 81.7891 530.114C80.9652 528.428 80.5533 526.458 80.5533 524.204C80.5533 521.932 80.9652 519.948 81.7891 518.253C82.6224 516.558 83.7777 515.241 85.255 514.304C86.7417 513.366 88.4699 512.898 90.4396 512.898C92.4093 512.898 94.1328 513.366 95.6101 514.304C97.0968 515.241 98.2521 516.558 99.076 518.253C99.9093 519.948 100.326 521.932 100.326 524.204C100.326 526.458 99.9093 528.428 99.076 530.114C98.2521 531.799 97.0968 533.111 95.6101 534.048C94.1328 534.986 92.4093 535.454 90.4396 535.454ZM90.4396 532.443C91.9358 532.443 93.1669 532.06 94.1328 531.292C95.0987 530.525 95.8137 529.517 96.2777 528.267C96.7417 527.017 96.9737 525.663 96.9737 524.204C96.9737 522.746 96.7417 521.387 96.2777 520.128C95.8137 518.868 95.0987 517.85 94.1328 517.074C93.1669 516.297 91.9358 515.909 90.4396 515.909C88.9434 515.909 87.7124 516.297 86.7464 517.074C85.7805 517.85 85.0656 518.868 84.6016 520.128C84.1375 521.387 83.9055 522.746 83.9055 524.204C83.9055 525.663 84.1375 527.017 84.6016 528.267C85.0656 529.517 85.7805 530.525 86.7464 531.292C87.7124 532.06 88.9434 532.443 90.4396 532.443ZM105.443 535V513.182H108.682V516.591H108.966C109.42 515.426 110.154 514.522 111.168 513.878C112.181 513.224 113.398 512.898 114.818 512.898C116.258 512.898 117.455 513.224 118.412 513.878C119.378 514.522 120.131 515.426 120.67 516.591H120.898C121.456 515.464 122.295 514.569 123.412 513.906C124.529 513.234 125.869 512.898 127.432 512.898C129.383 512.898 130.978 513.508 132.219 514.73C133.459 515.942 134.08 517.831 134.08 520.398V535H130.727V520.398C130.727 518.788 130.287 517.637 129.406 516.946C128.526 516.255 127.489 515.909 126.295 515.909C124.761 515.909 123.573 516.373 122.73 517.301C121.887 518.22 121.466 519.384 121.466 520.795V535H118.057V520.057C118.057 518.816 117.654 517.817 116.849 517.06C116.045 516.292 115.008 515.909 113.739 515.909C112.867 515.909 112.053 516.141 111.295 516.605C110.547 517.069 109.941 517.713 109.477 518.537C109.023 519.351 108.795 520.293 108.795 521.364V535H105.443ZM149.357 535.454C147.254 535.454 145.441 534.99 143.916 534.062C142.401 533.125 141.232 531.818 140.408 530.142C139.593 528.456 139.186 526.496 139.186 524.261C139.186 522.026 139.593 520.057 140.408 518.352C141.232 516.638 142.377 515.303 143.845 514.346C145.322 513.381 147.046 512.898 149.016 512.898C150.152 512.898 151.274 513.087 152.382 513.466C153.49 513.845 154.499 514.46 155.408 515.312C156.317 516.155 157.041 517.273 157.581 518.665C158.121 520.057 158.391 521.771 158.391 523.807V525.227H141.572V522.329H154.982C154.982 521.098 154.735 520 154.243 519.034C153.76 518.068 153.069 517.306 152.169 516.747C151.279 516.188 150.228 515.909 149.016 515.909C147.68 515.909 146.525 516.24 145.55 516.903C144.584 517.557 143.84 518.409 143.32 519.46C142.799 520.511 142.538 521.638 142.538 522.841V524.773C142.538 526.42 142.822 527.817 143.391 528.963C143.968 530.099 144.768 530.966 145.791 531.562C146.814 532.149 148.002 532.443 149.357 532.443C150.237 532.443 151.033 532.32 151.743 532.074C152.463 531.818 153.083 531.439 153.604 530.937C154.125 530.426 154.527 529.792 154.811 529.034L158.05 529.943C157.709 531.042 157.136 532.007 156.331 532.841C155.526 533.665 154.532 534.309 153.348 534.773C152.164 535.227 150.834 535.454 149.357 535.454ZM175.195 535V505.909H178.717V531.875H192.24V535H175.195ZM206.104 535.454C204.134 535.454 202.406 534.986 200.919 534.048C199.442 533.111 198.286 531.799 197.453 530.114C196.629 528.428 196.217 526.458 196.217 524.204C196.217 521.932 196.629 519.948 197.453 518.253C198.286 516.558 199.442 515.241 200.919 514.304C202.406 513.366 204.134 512.898 206.104 512.898C208.073 512.898 209.797 513.366 211.274 514.304C212.761 515.241 213.916 516.558 214.74 518.253C215.573 519.948 215.99 521.932 215.99 524.204C215.99 526.458 215.573 528.428 214.74 530.114C213.916 531.799 212.761 533.111 211.274 534.048C209.797 534.986 208.073 535.454 206.104 535.454ZM206.104 532.443C207.6 532.443 208.831 532.06 209.797 531.292C210.763 530.525 211.478 529.517 211.942 528.267C212.406 527.017 212.638 525.663 212.638 524.204C212.638 522.746 212.406 521.387 211.942 520.128C211.478 518.868 210.763 517.85 209.797 517.074C208.831 516.297 207.6 515.909 206.104 515.909C204.607 515.909 203.376 516.297 202.411 517.074C201.445 517.85 200.73 518.868 200.266 520.128C199.802 521.387 199.57 522.746 199.57 524.204C199.57 525.663 199.802 527.017 200.266 528.267C200.73 529.517 201.445 530.525 202.411 531.292C203.376 532.06 204.607 532.443 206.104 532.443ZM238.167 513.182L230.099 535H226.69L218.621 513.182H222.258L228.281 530.568H228.508L234.531 513.182H238.167ZM250.958 535.454C248.856 535.454 247.042 534.99 245.518 534.062C244.003 533.125 242.833 531.818 242.009 530.142C241.195 528.456 240.788 526.496 240.788 524.261C240.788 522.026 241.195 520.057 242.009 518.352C242.833 516.638 243.979 515.303 245.447 514.346C246.924 513.381 248.647 512.898 250.617 512.898C251.754 512.898 252.876 513.087 253.984 513.466C255.092 513.845 256.1 514.46 257.009 515.312C257.918 516.155 258.643 517.273 259.183 518.665C259.722 520.057 259.992 521.771 259.992 523.807V525.227H243.174V522.329H256.583C256.583 521.098 256.337 520 255.844 519.034C255.362 518.068 254.67 517.306 253.771 516.747C252.88 516.188 251.829 515.909 250.617 515.909C249.282 515.909 248.127 516.24 247.151 516.903C246.185 517.557 245.442 518.409 244.921 519.46C244.4 520.511 244.14 521.638 244.14 522.841V524.773C244.14 526.42 244.424 527.817 244.992 528.963C245.57 530.099 246.37 530.966 247.393 531.562C248.415 532.149 249.604 532.443 250.958 532.443C251.839 532.443 252.634 532.32 253.344 532.074C254.064 531.818 254.684 531.439 255.205 530.937C255.726 530.426 256.129 529.792 256.413 529.034L259.651 529.943C259.31 531.042 258.737 532.007 257.933 532.841C257.128 533.665 256.133 534.309 254.95 534.773C253.766 535.227 252.435 535.454 250.958 535.454Z" fill="white"/>
</svg>
