<svg width="45" height="34" viewBox="0 0 45 34" fill="none" xmlns="http://www.w3.org/2000/svg">
<path d="M40.0235 0.320239H33.9973V1.30545H35.5857V31.7664C35.5504 32.4366 35.2937 32.6785 34.3195 32.7188H33.9998V33.5604H40.7938V32.7188H40.0789C38.9411 32.676 38.5207 32.2124 38.5006 31.2221V19.4122H40.4766C43.3538 19.4122 45 18.0263 45 16.1718V3.83777C45 1.98578 43.5828 0.31772 40.026 0.320239M42.1052 9.75408V16.3154C42.1103 17.351 41.4432 18.306 40.1619 18.2959H38.5006V1.30545H40.0159C41.4432 1.30545 42.1052 2.51996 42.1052 3.44469V9.7566V9.75408ZM4.63417 19.392H6.40879V31.3002C6.40879 32.3862 5.5907 33.2202 4.56368 33.2202C3.53667 33.2202 2.80416 32.3686 2.80416 31.3002V3.33887C2.80416 2.57035 2.96023 0.773789 4.26414 0.786388C5.3415 0.791427 6.08911 1.77916 6.43648 3.28091C6.80399 4.85322 7.02802 8.47154 7.02802 10.0716C7.02802 10.6108 7.22688 10.7922 7.81843 10.7922H9.08709V0.297562H8.05001V0.796467C8.04749 1.32813 7.7127 1.28529 7.43833 1.11647C6.45662 0.484021 5.34402 -0.012364 4.26917 0.000234597C2.52224 0.00527404 0.0100688 0.778828 0 4.1351V28.8359C0.0302064 33.1295 2.30324 33.9233 4.53348 33.951C6.27035 33.9585 7.03809 33.0413 7.7127 32.7087C8.15573 32.4946 8.49555 33.0413 8.49555 33.6738H9.39671V19.3895H10.8517V18.3237H4.63165V19.3895L4.63417 19.392ZM19.3246 18.3438L20.9129 4.96157L22.7127 18.3438H19.3246ZM27.1681 31.1944V31.2221L23.3319 0.3152H23.3143V0.325279H20.3012L16.4348 31.2927C16.2234 32.2804 16.2083 32.5273 14.713 32.6054L14.7181 32.8196V33.5554H19.4781V32.7138C18.8614 32.7138 18.2799 32.5349 17.9879 32.2678C17.8067 32.0536 17.7513 31.8016 17.7362 31.6101L19.1786 19.392H22.8537L24.3615 31.59C24.359 32.3661 24.2784 32.6533 23.3445 32.7138H22.8939V33.5554H28.9377V32.7138H28.7741C27.6187 32.6533 27.2336 31.9402 27.1606 31.1944" fill="#2B2B2B"/>
</svg>
