<svg width="51" height="38" viewBox="0 0 51 38" fill="none" xmlns="http://www.w3.org/2000/svg">
    <path d="M38.118.353v1.1h1.78v34.096c-.04.75-.327 1.021-1.41 1.066h-.37v.94h7.615v-.94h-.8c-1.275-.048-1.746-.564-1.769-1.675V21.72h2.214c3.224 0 5.077-1.55 5.077-3.627V4.287c0-2.073-1.588-3.948-5.573-3.934h-6.764zm9.09 17.893c0 1.159-.741 2.228-2.174 2.216h-1.861V1.452h1.692c1.596 0 2.338 1.357 2.338 2.395l.006 14.399zM5.233 21.7h1.974v13.33a2.085 2.085 0 0 1-2.064 2.148c-1.129 0-1.975-.956-1.975-2.149V3.723c0-.863.172-2.871 1.636-2.857 1.207 0 2.045 1.108 2.434 2.79.41 1.76.663 5.812.663 7.6 0 .604.223.807.886.807h1.41V.327H9.034v.564c0 .596-.378.548-.685.359C7.249.542 5.999-.011 4.795 0 2.837 0 .023.872 0 4.631v27.64C.037 37.067 2.58 37.97 5.077 38c1.949 0 2.82-1.021 3.565-1.39.493-.24.877.372.877 1.08h1.01V21.7h1.633v-1.192h-6.93V21.7zm16.46-1.174 1.78-14.979 2.016 14.98h-3.796zm8.788 14.385v.028L26.168.344h-3.404l-4.332 34.663c-.24 1.106-.254 1.383-1.93 1.47v1.063h5.334v-.942a2.637 2.637 0 0 1-1.667-.496 1.28 1.28 0 0 1-.282-.736l1.616-13.677h4.118l1.692 13.654c0 .869-.096 1.188-1.128 1.255h-.505v.942h6.77v-.942h-.184c-1.295-.067-1.726-.866-1.808-1.692" fill="#fff"/>
</svg>
